
<svg width="154px" height="24px" viewBox="0 0 154 24" version="1.1" xmlns="http://www.w3.org/2000/svg" xmlns:xlink="http://www.w3.org/1999/xlink">
    <g id="Page-1" stroke="none" stroke-width="1" fill="none" fill-rule="evenodd">
        <g id="beincrypto" transform="translate(0.697266, 0.571299)" fill="#637381" fill-rule="nonzero">
            <path d="M62.050531,0.866301333 C62.050531,0.636501333 62.141734,0.416201333 62.304234,0.253701333 C62.466734,0.0913013334 62.687034,0 62.916834,0 L66.247034,0 C66.361034,0 66.473834,0.0221013334 66.579134,0.0656013334 C66.684434,0.109001333 66.780134,0.172801333 66.860734,0.253201333 C66.941434,0.333701333 67.005434,0.429201333 67.049234,0.534401333 C67.092934,0.639601333 67.115534,0.752401333 67.115634,0.866301333 L67.115634,3.58060133 C67.115634,3.81060133 67.207034,4.03130133 67.369734,4.19390133 C67.532434,4.35660133 67.753034,4.44800133 67.983034,4.44800133 L70.608234,4.44800133 C70.837834,4.44860133 71.057834,4.54010133 71.220134,4.70240133 C71.382434,4.86470133 71.473934,5.08470133 71.474537,5.31430133 L71.474537,17.5428013 C71.474834,17.6567013 71.452634,17.7695013 71.409134,17.8747013 C71.365734,17.9800013 71.301934,18.0756013 71.221434,18.1561013 C71.140934,18.2366013 71.045334,18.3004013 70.940134,18.3438013 C70.834834,18.3872013 70.722034,18.4094013 70.608234,18.4091013 L67.983034,18.4091013 C67.869034,18.4091013 67.756134,18.4316013 67.650834,18.4753013 C67.545534,18.5189013 67.449834,18.5829013 67.369334,18.6636013 C67.288734,18.7443013 67.224834,18.8400013 67.181334,18.9454013 C67.137834,19.0508013 67.115534,19.1637013 67.115634,19.2777013 L67.115634,21.9897013 C67.115834,22.1038013 67.093434,22.2167013 67.049834,22.3221013 C67.006234,22.4275013 66.942234,22.5232013 66.861534,22.6038013 C66.780834,22.6844013 66.685034,22.7483013 66.579534,22.7917013 C66.474134,22.8352013 66.361134,22.8574013 66.247034,22.8571043 L62.916834,22.8571043 C62.802934,22.8571043 62.690234,22.8347013 62.585034,22.7911013 C62.479834,22.7475013 62.384334,22.6836013 62.303834,22.6030013 C62.223334,22.5224013 62.159634,22.4268013 62.116134,22.3216013 C62.072634,22.2163013 62.050334,22.1036013 62.050531,21.9897013 L62.050531,18.6571013 C62.050334,18.5433013 62.072634,18.4305013 62.116134,18.3253013 C62.159634,18.2200013 62.223334,18.1244013 62.303834,18.0438013 C62.384334,17.9633013 62.479834,17.8994013 62.585034,17.8558013 C62.690234,17.8121013 62.802934,17.7897013 62.916834,17.7897013 L65.545334,17.7897013 C65.775234,17.7897013 65.995634,17.6985013 66.158334,17.5360013 C66.320934,17.3736013 66.412534,17.1533013 66.412834,16.9234013 L66.412834,5.93140133 C66.413234,5.81730133 66.391134,5.70430133 66.347734,5.59880133 C66.304334,5.49330133 66.240434,5.39740133 66.159834,5.31660133 C66.079234,5.23590133 65.983434,5.17190133 65.877934,5.12840133 C65.772534,5.08480133 65.659434,5.06250133 65.545334,5.06280133 L62.916834,5.06280133 C62.802934,5.06300133 62.690134,5.04070133 62.584834,4.99710133 C62.479634,4.95350133 62.384034,4.88960133 62.303534,4.80900133 C62.223034,4.72850133 62.159234,4.63280133 62.115834,4.52750133 C62.072434,4.42220133 62.050234,4.30930133 62.050531,4.19540133 L62.050531,0.866301333 Z M37.882537,0.866301333 C37.882537,0.752401333 37.860034,0.639701333 37.816434,0.534501333 C37.772834,0.429301333 37.708934,0.333801333 37.628334,0.253301333 C37.547834,0.172901333 37.452134,0.109101333 37.346934,0.0656013334 C37.241734,0.0221013334 37.128934,0 37.015034,0 L33.680234,0 C33.450634,0.000601333447 33.230634,0.0921013334 33.068334,0.254401333 C32.906034,0.416701333 32.814534,0.636701333 32.813934,0.866301333 L32.813934,3.58060133 C32.813934,3.81060133 32.722534,4.03130133 32.559834,4.19390133 C32.397234,4.35660133 32.176534,4.44800133 31.946534,4.44800133 L29.321334,4.44800133 C29.091834,4.44860133 28.871834,4.54010133 28.709434,4.70240133 C28.547134,4.86470133 28.455734,5.08470133 28.455031,5.31430133 L28.455031,17.5428013 C28.454734,17.6567013 28.476934,17.7695013 28.520434,17.8747013 C28.563834,17.9800013 28.627634,18.0756013 28.708134,18.1561013 C28.788634,18.2366013 28.884234,18.3004013 28.989534,18.3438013 C29.094734,18.3872013 29.207534,18.4094013 29.321334,18.4091013 L31.946534,18.4091013 C32.060534,18.4091013 32.173434,18.4316013 32.278734,18.4753013 C32.384034,18.5189013 32.479734,18.5829013 32.560234,18.6636013 C32.640834,18.7443013 32.704734,18.8400013 32.748234,18.9454013 C32.791734,19.0508013 32.814134,19.1637013 32.813934,19.2777013 L32.813934,21.9897013 C32.814234,22.2195013 32.905534,22.4398013 33.067934,22.6023013 C33.230334,22.7649013 33.450434,22.8565013 33.680234,22.8571027 L37.015034,22.8571027 C37.129034,22.8571027 37.241934,22.8350013 37.347234,22.7914013 C37.452534,22.7479013 37.548234,22.6840013 37.628734,22.6034013 C37.709334,22.5228013 37.773234,22.4271013 37.816834,22.3218013 C37.860334,22.2165013 37.882634,22.1037013 37.882537,21.9897013 L37.882537,18.6571013 C37.882634,18.5432013 37.860334,18.4303013 37.816834,18.3250013 C37.773234,18.2197013 37.709334,18.1240013 37.628734,18.0434013 C37.548234,17.9629013 37.452534,17.8990013 37.347234,17.8554013 C37.241934,17.8119013 37.129034,17.7896013 37.015034,17.7897013 L34.388834,17.7897013 C34.158934,17.7897013 33.938434,17.6985013 33.775834,17.5360013 C33.613234,17.3736013 33.521634,17.1533013 33.521334,16.9234013 L33.521334,5.93140133 C33.521234,5.81740133 33.543534,5.70450133 33.587034,5.59910133 C33.630634,5.49370133 33.694434,5.39800133 33.775034,5.31730133 C33.855634,5.23660133 33.951234,5.17260133 34.056534,5.12900133 C34.161934,5.08530133 34.274834,5.06280133 34.388834,5.06280133 L37.015034,5.06280133 C37.129034,5.06310133 37.242034,5.04090133 37.347434,4.99740133 C37.452734,4.95390133 37.548534,4.89010133 37.629134,4.80950133 C37.709734,4.72880133 37.773634,4.63310133 37.817134,4.52770133 C37.860534,4.42230133 37.882834,4.30940133 37.882537,4.19540133 L37.882537,0.866301333 Z M46.879034,5.99660133 C46.879334,5.80480133 46.955734,5.62100133 47.091334,5.48540133 C47.226934,5.34980133 47.410734,5.27340133 47.602534,5.27310133 L54.921334,5.27310133 C55.062034,5.27380133 55.199334,5.31550133 55.316634,5.39300133 C55.434034,5.47060133 55.526134,5.58060133 55.581934,5.70970133 L56.768234,8.45030133 C56.823434,8.57990133 56.915434,8.69040133 57.032834,8.76820133 C57.150334,8.84600133 57.287934,8.88760133 57.428834,8.88800133 L59.882534,8.88800133 C59.977434,8.88770133 60.071434,8.90610133 60.159134,8.94220133 C60.246934,8.97830133 60.326734,9.03140133 60.393934,9.09840133 C60.461134,9.16540133 60.514434,9.24500133 60.550834,9.33260133 C60.587234,9.42030133 60.605934,9.51420133 60.605934,9.60910133 L60.605934,17.6994013 C60.605934,17.8913013 60.529734,18.0753013 60.394034,18.2110013 C60.258434,18.3466013 60.074334,18.4228013 59.882534,18.4228013 L56.777334,18.4228013 C56.585534,18.4228013 56.401534,18.3466013 56.265834,18.2110013 C56.130134,18.0753013 56.053934,17.8913013 56.053934,17.6994013 L56.053934,10.1874013 C56.053934,9.99590133 55.978034,9.81230133 55.842834,9.67670133 C55.707734,9.54110133 55.524234,9.46460133 55.332834,9.46400133 L52.152234,9.46400133 C51.960734,9.46460133 51.777334,9.54110133 51.642134,9.67670133 C51.507034,9.81230133 51.431034,9.99590133 51.431034,10.1874013 L51.431034,17.6994013 C51.431034,17.8913013 51.354834,18.0753013 51.219234,18.2110013 C51.083534,18.3466013 50.899534,18.4228013 50.707634,18.4228013 L47.602534,18.4228013 C47.507534,18.4228013 47.413434,18.4041013 47.325634,18.3678013 C47.237934,18.3314013 47.158134,18.2781013 47.090934,18.2110013 C47.023834,18.1438013 46.970534,18.0640013 46.934134,17.9763013 C46.897834,17.8885013 46.879034,17.7944013 46.879034,17.6994013 L46.879034,5.99660133 Z" id="Shape"></path>
            <path d="M39.509734,5.99690133 C39.510334,5.80520133 39.586734,5.62150133 39.722334,5.48600133 C39.857834,5.35040133 40.041534,5.27400133 40.233234,5.27340133 L43.339434,5.27340133 C43.531034,5.27400133 43.714634,5.35050133 43.849934,5.48610133 C43.985334,5.62160133 44.061434,5.80530133 44.061734,5.99690133 L44.061734,17.6997013 C44.061734,17.8914013 43.985734,18.0752013 43.850334,18.2109013 C43.714834,18.3465013 43.531134,18.4228013 43.339434,18.4231013 L40.233234,18.4231013 C40.041334,18.4231013 39.857334,18.3469013 39.721634,18.2113013 C39.585934,18.0756013 39.509734,17.8916013 39.509734,17.6997013 L39.509734,5.99690133 Z" id="Path"></path>
            <path d="M9.165714,11.4811013 L9.165714,11.5577013 C9.782834,11.7714013 10.321134,12.1600013 10.718834,12.6777013 C11.135334,13.2383013 11.349234,13.9237013 11.325734,14.6217013 C11.338834,15.1347013 11.240434,15.6444013 11.037134,16.1157013 C10.833934,16.5869013 10.530734,17.0083013 10.148534,17.3508013 C9.372834,18.0590013 8.352884,18.4391013 7.302854,18.4114013 L0,18.4114013 L0,5.25710133 L7.066284,5.25710133 C8.179424,5.25710133 9.108574,5.57830133 9.853734,6.22050133 C10.217934,6.52750133 10.507934,6.91300133 10.701934,7.34800133 C10.895934,7.78310133 10.988834,8.25640133 10.973734,8.73250133 C10.976834,9.32020133 10.804134,9.89530133 10.477734,10.3840013 C10.152534,10.8656013 9.697034,11.2458013 9.165714,11.4811013 Z M6.419424,8.14400133 L3.238854,8.14400133 L3.238854,10.4811013 L6.419424,10.4811013 C6.583394,10.4882013 6.746994,10.4603013 6.899324,10.3992013 C7.051644,10.3381013 7.189214,10.2452013 7.302854,10.1268013 C7.524574,9.90970133 7.651424,9.61250133 7.656004,9.30170133 C7.656004,9.00000133 7.537144,8.71080133 7.325714,8.49600133 C7.207944,8.37690133 7.066304,8.28400133 6.910104,8.22360133 C6.753914,8.16310133 6.586694,8.13520133 6.419424,8.14400133 Z M3.238854,15.5451013 L6.693714,15.5451013 C6.869624,15.5499013 7.044574,15.5175013 7.207064,15.4500013 C7.369564,15.3824013 7.515934,15.2812013 7.636574,15.1531013 C7.872004,14.9188013 8.006854,14.6011013 8.009144,14.2685013 C8.008174,14.1186013 7.974304,13.9706013 7.909934,13.8352013 C7.845554,13.6997013 7.752244,13.5800013 7.636574,13.4845013 C7.381464,13.2465013 7.042474,13.1191013 6.693714,13.1303013 L3.238854,13.1303013 L3.238854,15.5451013 Z M23.114334,18.4114013 L12.862834,18.4114013 L12.862834,5.25710133 L23.114334,5.25710133 L23.114334,8.39430133 L16.100534,8.39430133 L16.100534,10.2811013 L22.123434,10.2811013 L22.123434,13.2274013 L16.100534,13.2274013 L16.100534,15.2697013 L23.114334,15.2697013 L23.114334,18.4103013 L23.114334,18.4114013 Z M86.275434,12.9177013 L89.590834,12.9177013 C89.457434,14.5157013 88.709834,15.9999013 87.505134,17.0583013 C86.288034,18.1440013 84.747434,18.6868013 82.882334,18.6868013 C80.843434,18.6868013 79.195434,18.0331013 77.939434,16.7257013 C76.683434,15.4171013 76.054834,13.7954013 76.053734,11.8571013 C76.053734,9.91200133 76.682334,8.27770133 77.938334,6.95430133 C79.194334,5.63080133 80.841134,4.96450133 82.882334,4.95310133 C84.701734,4.95310133 86.219434,5.48910133 87.434334,6.56110133 C88.629534,7.58100133 89.387334,9.02120133 89.550834,10.5840013 L86.197734,10.5840013 C86.025134,9.87170133 85.612234,9.24080133 85.028534,8.79770133 C84.402134,8.33020133 83.632034,8.09660133 82.851434,8.13710133 C81.765734,8.14970133 80.908534,8.50970133 80.280034,9.21710133 C79.659034,9.94150133 79.330534,10.8714013 79.358834,11.8251013 C79.333834,12.7881013 79.669734,13.7257013 80.300534,14.4537013 C80.921134,15.1554013 81.781734,15.5074013 82.883434,15.5074013 C83.678534,15.5328013 84.459134,15.2910013 85.100534,14.8205013 C85.704734,14.3445013 86.120934,13.6700013 86.275434,12.9165013 L86.275434,12.9177013 Z M93.898334,18.3908013 L90.660534,18.3908013 L90.660534,5.24800133 L97.449134,5.24800133 C98.861734,5.24800133 99.986734,5.56800133 100.822734,6.20800133 C101.659734,6.84800133 102.084734,7.75080133 102.096734,8.91650133 C102.096734,10.1588013 101.666734,11.0880013 100.803734,11.7028013 L100.803734,11.7805013 C101.927734,12.0548013 102.490734,12.8983013 102.490734,14.3097013 L102.490734,18.3908013 L99.252534,18.3908013 L99.252534,14.8800013 C99.252534,14.3954013 99.004534,14.1543013 98.508534,14.1554013 L93.897134,14.1554013 L93.897134,18.3920013 L93.898334,18.3908013 Z M93.898334,8.38740133 L93.898334,11.2903013 L97.174834,11.2903013 C97.618334,11.3131013 98.054834,11.1737013 98.402334,10.8971013 C98.560334,10.7628013 98.685134,10.5938013 98.767034,10.4033013 C98.848834,10.2128013 98.885634,10.0059013 98.874334,9.79880133 C98.884234,9.60060133 98.846634,9.40280133 98.764534,9.22210133 C98.682334,9.04130133 98.558134,8.88290133 98.402334,8.76000133 C98.052334,8.49950133 97.623234,8.36790133 97.187434,8.38740133 L93.898334,8.38740133 Z M111.594734,5.24910133 L115.184734,5.24910133 L110.044734,13.6045013 L110.044734,18.3931013 L106.807734,18.3931013 L106.807734,13.6228013 L101.648734,5.24800133 L105.317734,5.24800133 L108.453734,10.5428013 L111.594734,5.24910133 Z M122.709734,5.24910133 C123.321734,5.23370133 123.930734,5.34390133 124.498734,5.57290133 C125.066734,5.80190133 125.581734,6.14480133 126.011734,6.58050133 C126.901734,7.45600133 127.346734,8.55770133 127.344741,9.88340133 C127.344741,11.2434013 126.893734,12.3634013 125.991734,13.2400013 C125.562734,13.6685013 125.050734,14.0057013 124.487734,14.2312013 C123.924734,14.4567013 123.321734,14.5658013 122.715734,14.5520013 L119.157734,14.5520013 L119.157734,18.3977013 L115.922734,18.3977013 L115.922734,5.24910133 L122.709734,5.24910133 Z M119.157734,11.4845013 L122.415734,11.4845013 C122.842734,11.4960013 123.255734,11.3417013 123.571734,11.0537013 C123.729734,10.9069013 123.852734,10.7275013 123.934734,10.5280013 C124.015734,10.3284013 124.052734,10.1135013 124.042734,9.89830133 C124.047734,9.69250133 124.005734,9.48810133 123.919734,9.30110133 C123.833734,9.11400133 123.705734,8.94920133 123.546734,8.81940133 C123.237734,8.53380133 122.829734,8.37940133 122.408734,8.38850133 L119.157734,8.38850133 L119.157734,11.4857013 L119.157734,11.4845013 Z M127.671734,5.24910133 L139.424734,5.24910133 L139.424734,8.38510133 L135.166734,8.38510133 L135.166734,18.3897013 L131.930734,18.3897013 L131.930734,8.38740133 L127.671734,8.38740133 L127.671734,5.24910133 Z M151.245734,16.7245013 C149.964734,18.0308013 148.284734,18.6845013 146.203734,18.6868074 C144.123734,18.6891013 142.443734,18.0354013 141.164734,16.7257013 C139.882734,15.4045013 139.240734,13.7817013 139.240734,11.8571013 C139.240734,9.93370133 139.882734,8.29940133 141.164734,6.95430133 C142.444734,5.62050133 144.124734,4.95310133 146.203734,4.95310133 C148.283734,4.95310133 149.963734,5.62050133 151.245734,6.95310133 C152.526734,8.28800133 153.167734,9.92230133 153.167734,11.8583013 C153.167734,13.7931013 152.526734,15.4148013 151.245734,16.7245013 Z M146.203734,15.5085013 C147.316734,15.5085013 148.205734,15.1485013 148.871734,14.4285013 C149.533734,13.7231013 149.892734,12.7864013 149.871734,11.8194013 C149.884734,11.3403013 149.802734,10.8634013 149.631734,10.4159013 C149.459734,9.96840133 149.201734,9.55910133 148.871734,9.21140133 C148.218734,8.49030133 147.328734,8.13030133 146.203734,8.13139882 C145.078734,8.13139882 144.182734,8.49250133 143.515734,9.21140133 C142.860734,9.91940133 142.508734,10.8554013 142.534734,11.8194013 C142.513734,12.7829013 142.864734,13.7176013 143.515734,14.4285013 C144.182734,15.1485013 145.078734,15.5085013 146.203734,15.5085013 Z" id="Shape"></path>
        </g>
    </g>
</svg>