
<svg width="119px" height="17px" viewBox="0 0 119 17" version="1.1" xmlns="http://www.w3.org/2000/svg" xmlns:xlink="http://www.w3.org/1999/xlink">
    <g id="Page-1" stroke="none" stroke-width="1" fill="none" fill-rule="evenodd">
        <g id="benzinga" transform="translate(0.312500, 0.000000)" fill="#637381" fill-rule="nonzero">
            <polygon id="Path" points="16.9648 16 28.2914 16 28.2914 13.013 20.3879 13.013 20.3879 9.3494 26.9407 9.3494 26.9407 6.3599 20.3879 6.3599 20.3879 2.987 28.339 2.987 28.339 0 16.9648 0"></polygon>
            <polygon id="Path" points="41.9298 10.0711 34.5099 0 29.4004 0 30.9916 2.0247 30.9916 16.0501 34.4121 16.0501 34.4121 5.543 42.0751 16 45.3528 16 45.3528 0 41.9298 0"></polygon>
            <path d="M11.8077,7.7682 C13.3112,7.48 14.5641,6.0818 14.5641,4.1071 C14.5541,1.9746 13.013,0 9.9283,0 L0,0 L1.54111,1.9746 L1.54111,16.0075 L10.2741,16.0075 C13.3613,16.0075 14.95,14.0805 14.95,11.6699 C14.8924,9.6877 13.5317,8.0013 11.8077,7.7682 Z M4.96413,3.007 L9.25419,3.007 C10.4119,3.007 11.1336,3.6836 11.1336,4.6935 C11.1336,5.7034 10.4119,6.38 9.25419,6.38 L4.96413,6.38 L4.96413,3.007 Z M9.39702,13.0305 L4.96413,13.0305 L4.96413,9.3494 L9.39702,9.3494 C10.7001,9.3494 11.4218,10.1688 11.4218,11.1812 C11.4218,12.3364 10.65,13.013 9.39702,13.013 L9.39702,13.0305 Z" id="Shape"></path>
            <path d="M95.4282,10.0711 L97.2124,10.0711 L97.2124,11.953 C96.2896,12.717 95.1327,13.1416 93.9347,13.1558 C91.0905,13.1558 89.0683,10.9883 89.0683,8.0489 C89.0683,5.1095 91.0905,2.9394 93.9347,2.9394 C94.6656,2.9454 95.3834,3.1338 96.0232,3.4873 C96.6629,3.8409 97.2043,4.3485 97.5983,4.9641 L100.2975,3.4606 C99.1419,1.6388 97.1147,0 93.8871,0 C89.3565,0 85.5977,3.1323 85.5977,8.0013 C85.5977,12.8702 89.3089,16 93.8871,16 C95.1235,16.0205 96.3496,15.7726 97.4809,15.2734 C98.6122,14.7741 99.6218,14.0354 100.4395,13.1082 L100.4395,7.1818 L93.1153,7.1818 L95.4282,10.0711 Z" id="Path"></path>
            <polygon id="Path" points="80.0065 10.0711 72.5841 0 67.4746 0 69.0658 2.0247 69.0658 16.0501 72.4889 16.0501 72.4889 5.543 80.1518 16 83.427 16 83.427 0 80.0065 0"></polygon>
            <path d="M111.7605,0 L105.1605,0 L106.7495,2.0247 L106.4615,2.794 L101.3515,16.0501 L105.2085,16.0501 L106.2105,13.3488 L113.1145,13.3488 L114.1165,16.0501 L117.9705,16.0501 L111.7605,0 Z M107.0905,10.3142 L109.5955,3.4205 L112.1015,10.3142 L107.0905,10.3142 Z" id="Shape"></path>
            <polygon id="Path" points="65.4992 0 62.0762 0 62.0762 16.0501 65.4992 16.0501"></polygon>
            <polygon id="Path" points="59.3281 2.7464 59.3281 0 47.2773 0 47.2773 2.987 54.8451 2.987 47.2773 13.2536 47.2773 16 59.4734 16 59.4734 13.013 51.7127 13.013"></polygon>
        </g>
    </g>
</svg>