<svg width="359" height="682" viewBox="0 0 359 682" fill="none" xmlns="http://www.w3.org/2000/svg">
<rect width="359" height="681.782" rx="20" fill="url(#paint0_linear_149_8924)"/>
<mask id="mask0_149_8924" style="mask-type:alpha" maskUnits="userSpaceOnUse" x="0" y="0" width="359" height="682">
<rect width="359" height="681.782" rx="20" fill="black"/>
</mask>
<g mask="url(#mask0_149_8924)">
<g opacity="0.12">
<path opacity="0.7" d="M-103 72.9463H-54.1233C-48.4334 72.9463 -42.9869 75.254 -39.029 79.3416L12.6683 132.734C16.6262 136.822 22.0727 139.129 27.7626 139.129H41.9721M-103 165.918H-53.9241C-48.3518 165.918 -43.0077 163.704 -39.0675 159.764L-28.7889 149.485C-24.8486 145.545 -19.5045 143.331 -13.9322 143.331H41.9721" stroke="white" stroke-width="0.525261"/>
<circle cx="52.4774" cy="140.705" r="10.5052" stroke="white" stroke-width="0.525261"/>
<path fill-rule="evenodd" clip-rule="evenodd" d="M52.477 138.403L50.8448 140.035L49.8952 139.085L52.477 136.503L55.0596 139.086L54.1099 140.036L52.477 138.403ZM49.2249 139.756L48.2751 140.705L49.2248 141.655L50.1745 140.705L49.2249 139.756ZM50.8455 141.376L52.4776 143.008L54.1105 141.375L55.0607 142.325L55.0602 142.325L52.4776 144.908L49.8945 142.324L50.8455 141.376ZM55.7297 139.756L54.78 140.706L55.7297 141.656L56.6793 140.706L55.7297 139.756Z" fill="white"/>
<path d="M53.4413 140.705H53.4417L52.4782 139.742L51.5153 140.704L51.514 140.706L51.5153 140.707L52.4782 141.67L53.4418 140.706L53.4423 140.706L53.4413 140.705Z" fill="white"/>
<path opacity="0.7" d="M69.1854 436.971H-36.0111C-42.0924 436.971 -47.8753 439.606 -51.8657 444.195L-102.334 502.233C-106.324 506.822 -112.107 509.457 -118.188 509.457H-153" stroke="white" stroke-width="0.525261"/>
<circle cx="80.2159" cy="436.97" r="10.5052" stroke="white" stroke-width="0.525261"/>
<path d="M84.4183 435.92V435.92C84.9985 435.92 85.4689 436.39 85.4689 436.97V436.97C85.4689 437.55 84.9985 438.021 84.4183 438.021V438.021M84.4183 435.92H83.3678C82.7876 435.92 82.3173 436.39 82.3173 436.97V436.97C82.3173 437.55 82.7876 438.021 83.3678 438.021H84.4183M84.4183 435.92V434.344C84.4183 433.764 83.948 433.293 83.3678 433.293H77.0647C76.4845 433.293 76.0142 433.764 76.0142 434.344V439.597C76.0142 440.177 76.4845 440.647 77.0647 440.647H83.3678C83.948 440.647 84.4183 440.177 84.4183 439.597V438.021" stroke="white" stroke-width="0.525261"/>
<path d="M46.0737 435.132L48.7 436.708L46.0737 438.283V435.132Z" fill="white"/>
<rect x="-20.1089" y="432.506" width="36.3031" height="7.10104" rx="3.55052" fill="#7573C3"/>
<path d="M-15.6083 437.556H-16.6917V434.5H-15.5994C-15.292 434.5 -15.0273 434.561 -14.8055 434.684C-14.5837 434.805 -14.413 434.98 -14.2937 435.207C-14.1733 435.435 -14.1131 435.708 -14.1131 436.025C-14.1131 436.343 -14.1733 436.617 -14.2937 436.846C-14.413 437.075 -14.5846 437.25 -14.8085 437.373C-15.0313 437.495 -15.2979 437.556 -15.6083 437.556ZM-16.0455 437.003H-15.6352C-15.4442 437.003 -15.2835 436.969 -15.1532 436.901C-15.0219 436.832 -14.9234 436.726 -14.8577 436.583C-14.7911 436.439 -14.7577 436.253 -14.7577 436.025C-14.7577 435.799 -14.7911 435.615 -14.8577 435.472C-14.9234 435.328 -15.0214 435.223 -15.1517 435.155C-15.282 435.088 -15.4427 435.054 -15.6337 435.054H-16.0455V437.003ZM-12.9883 434.5V437.556H-13.6345V434.5H-12.9883ZM-12.4567 437.556V434.5H-11.251C-11.0202 434.5 -10.8233 434.541 -10.6601 434.624C-10.496 434.706 -10.3711 434.821 -10.2856 434.972C-10.199 435.121 -10.1557 435.296 -10.1557 435.498C-10.1557 435.701 -10.1995 435.876 -10.2871 436.022C-10.3746 436.167 -10.5014 436.279 -10.6676 436.356C-10.8327 436.434 -11.0327 436.473 -11.2674 436.473H-12.0747V435.954H-11.3719C-11.2485 435.954 -11.1461 435.937 -11.0645 435.903C-10.9829 435.869 -10.9222 435.818 -10.8825 435.751C-10.8417 435.683 -10.8213 435.599 -10.8213 435.498C-10.8213 435.397 -10.8417 435.311 -10.8825 435.242C-10.9222 435.172 -10.9834 435.119 -11.066 435.084C-11.1476 435.047 -11.2505 435.028 -11.3749 435.028H-11.8106V437.556H-12.4567ZM-10.8063 436.165L-10.0468 437.556H-10.7601L-11.5032 436.165H-10.8063ZM-9.81551 435.033V434.5H-7.3056V435.033H-8.24122V437.556H-8.87989V435.033H-9.81551ZM-7.07132 434.5H-6.3476L-5.65073 435.816H-5.62089L-4.92402 434.5H-4.20029L-5.31498 436.476V437.556H-5.95664V436.476L-7.07132 434.5ZM-2.87483 434.5H-2.07798L-1.23637 436.553H-1.20056L-0.358948 434.5H0.437897V437.556H-0.188835V435.567H-0.214203L-1.00508 437.541H-1.43185L-2.22273 435.56H-2.2481V437.556H-2.87483V434.5ZM3.7786 436.028C3.7786 436.361 3.71543 436.645 3.58909 436.879C3.46375 437.112 3.29264 437.291 3.07577 437.414C2.85989 437.537 2.61716 437.598 2.34757 437.598C2.07598 437.598 1.83225 437.536 1.61638 437.413C1.4005 437.29 1.22989 437.111 1.10455 436.877C0.9792 436.643 0.916527 436.36 0.916527 436.028C0.916527 435.695 0.9792 435.411 1.10455 435.178C1.22989 434.944 1.4005 434.766 1.61638 434.643C1.83225 434.52 2.07598 434.458 2.34757 434.458C2.61716 434.458 2.85989 434.52 3.07577 434.643C3.29264 434.766 3.46375 434.944 3.58909 435.178C3.71543 435.411 3.7786 435.695 3.7786 436.028ZM3.12352 436.028C3.12352 435.812 3.09119 435.63 3.02652 435.482C2.96286 435.334 2.87283 435.221 2.75643 435.145C2.64004 435.068 2.50375 435.03 2.34757 435.03C2.19138 435.03 2.05509 435.068 1.9387 435.145C1.8223 435.221 1.73178 435.334 1.66711 435.482C1.60345 435.63 1.57161 435.812 1.57161 436.028C1.57161 436.244 1.60345 436.426 1.66711 436.574C1.73178 436.722 1.8223 436.835 1.9387 436.912C2.05509 436.988 2.19138 437.026 2.34757 437.026C2.50375 437.026 2.64004 436.988 2.75643 436.912C2.87283 436.835 2.96286 436.722 3.02652 436.574C3.09119 436.426 3.12352 436.244 3.12352 436.028ZM6.8134 434.5V437.556H6.25531L4.92575 435.633H4.90336V437.556H4.25723V434.5H4.82428L6.1434 436.422H6.17026V434.5H6.8134ZM7.34725 437.556V434.5H9.40651V435.033H7.99338V435.761H9.30056V436.294H7.99338V437.023H9.41248V437.556H7.34725ZM9.74114 434.5H10.4649L11.1617 435.816H11.1916L11.8884 434.5H12.6122L11.4975 436.476V437.556H10.8558V436.476L9.74114 434.5Z" fill="white"/>
<path opacity="0.7" d="M293.779 81.6335H334.451C340.023 81.6335 345.367 79.4199 349.307 75.4797L389.902 34.8853" stroke="white" stroke-width="0.525261"/>
<path d="M277.496 73.1693C275.697 71.7276 273.414 70.8652 270.93 70.8652C265.128 70.8652 260.425 75.5686 260.425 81.3705C260.425 87.1723 265.128 91.8757 270.93 91.8757C273.414 91.8757 275.697 91.0133 277.496 89.5716" stroke="white" stroke-width="0.525261"/>
<circle cx="283.536" cy="81.3705" r="10.5052" stroke="white" stroke-width="0.525261"/>
<circle cx="283.536" cy="81.3705" r="10.5052" stroke="white" stroke-width="0.525261"/>
<path d="M287.738 80.3202V80.3202C288.318 80.3202 288.789 80.7905 288.789 81.3707V81.3707C288.789 81.9509 288.318 82.4212 287.738 82.4212V82.4212M287.738 80.3202H286.688C286.107 80.3202 285.637 80.7905 285.637 81.3707V81.3707C285.637 81.9509 286.107 82.4212 286.688 82.4212H287.738M287.738 80.3202V78.7444C287.738 78.1642 287.268 77.6938 286.688 77.6938H280.385C279.804 77.6938 279.334 78.1642 279.334 78.7444V83.997C279.334 84.5772 279.804 85.0475 280.385 85.0475H286.688C287.268 85.0475 287.738 84.5772 287.738 83.997V82.4212" stroke="white" stroke-width="0.525261"/>
<path d="M287.738 80.3202V80.3202C288.318 80.3202 288.789 80.7905 288.789 81.3707V81.3707C288.789 81.9509 288.318 82.4212 287.738 82.4212V82.4212M287.738 80.3202H286.688C286.107 80.3202 285.637 80.7905 285.637 81.3707V81.3707C285.637 81.9509 286.107 82.4212 286.688 82.4212H287.738M287.738 80.3202V78.7444C287.738 78.1642 287.268 77.6938 286.688 77.6938H280.385C279.804 77.6938 279.334 78.1642 279.334 78.7444V83.997C279.334 84.5772 279.804 85.0475 280.385 85.0475H286.688C287.268 85.0475 287.738 84.5772 287.738 83.997V82.4212" stroke="white" stroke-width="0.525261"/>
<path d="M272.299 81.5517C272.13 81.3308 271.875 81.1791 271.534 81.0966C271.968 80.8727 272.159 80.4926 272.106 79.9563C272.089 79.7619 272.036 79.5934 271.947 79.4505C271.858 79.3076 271.738 79.1927 271.586 79.1058C271.435 79.0188 271.27 78.9526 271.093 78.9069C270.915 78.8613 270.711 78.8281 270.481 78.8075L270.481 77.6938H269.808L269.808 78.7766C269.692 78.7766 269.514 78.7795 269.276 78.7854L269.276 77.6938H268.603L268.603 78.8075C268.507 78.8105 268.365 78.812 268.179 78.812L267.253 78.8075L267.253 79.5323H267.738C267.959 79.5323 268.089 79.6325 268.127 79.8328L268.127 81.1012C268.156 81.1012 268.179 81.1027 268.197 81.1056H268.127L268.127 82.8821C268.103 83.0324 268.019 83.1075 267.873 83.1075H267.388L267.253 83.9163H268.127C268.182 83.9163 268.262 83.917 268.367 83.9184C268.472 83.9199 268.55 83.9206 268.603 83.9206L268.603 85.0475H269.276L269.276 83.9338C269.398 83.9369 269.576 83.9383 269.809 83.9383L269.809 85.0475H270.481L270.481 83.9206C270.72 83.9088 270.932 83.8869 271.117 83.8543C271.302 83.8218 271.479 83.7711 271.648 83.7018C271.817 83.6326 271.958 83.5464 272.071 83.4432C272.185 83.3402 272.279 83.209 272.353 83.0499C272.427 82.8908 272.475 82.7067 272.495 82.4974C272.533 82.088 272.468 81.7727 272.299 81.5517ZM269.289 79.5808C269.309 79.5808 269.367 79.58 269.461 79.5786C269.556 79.577 269.635 79.5756 269.697 79.5741C269.76 79.5726 269.844 79.5763 269.951 79.5852C270.057 79.594 270.146 79.6058 270.219 79.6205C270.292 79.6352 270.372 79.6595 270.459 79.6934C270.547 79.7273 270.617 79.7685 270.669 79.8171C270.722 79.8657 270.766 79.9276 270.802 80.0028C270.839 80.0779 270.857 80.1641 270.857 80.2613C270.857 80.3438 270.844 80.4189 270.818 80.4867C270.792 80.5545 270.752 80.6112 270.7 80.6569C270.647 80.7026 270.593 80.7424 270.538 80.7762C270.483 80.8101 270.412 80.8373 270.326 80.8579C270.24 80.8786 270.165 80.8948 270.101 80.9065C270.037 80.9183 269.957 80.9265 269.861 80.9309C269.765 80.9353 269.692 80.9383 269.643 80.9397C269.593 80.9412 269.525 80.9412 269.439 80.9397C269.353 80.9383 269.303 80.9375 269.289 80.9375L269.289 79.5808H269.289L269.289 79.5808ZM271.126 82.5903C271.098 82.6581 271.062 82.7171 271.019 82.7672C270.975 82.8172 270.917 82.8614 270.846 82.8997C270.775 82.938 270.706 82.9689 270.639 82.9925C270.572 83.0161 270.491 83.0366 270.396 83.0544C270.301 83.0721 270.218 83.0845 270.147 83.0919C270.076 83.0993 269.991 83.1052 269.892 83.1096C269.793 83.114 269.715 83.1162 269.66 83.1162C269.605 83.1162 269.535 83.1154 269.45 83.114C269.366 83.1126 269.312 83.1119 269.289 83.1119L269.289 81.6181C269.312 81.6181 269.381 81.6166 269.496 81.6136C269.611 81.6107 269.705 81.6093 269.778 81.6093C269.851 81.6093 269.951 81.6136 270.079 81.6225C270.207 81.6313 270.315 81.6445 270.403 81.6622C270.49 81.6799 270.585 81.7071 270.689 81.744C270.792 81.7808 270.876 81.8257 270.94 81.8787C271.004 81.9319 271.058 81.9995 271.102 82.082C271.145 82.1645 271.167 82.2588 271.167 82.3649C271.167 82.4475 271.153 82.5225 271.126 82.5903Z" fill="white"/>
<rect x="304.547" y="77.6938" width="24.3031" height="7.10104" rx="3.55052" fill="#7573C3"/>
<path d="M309.047 82.7441H307.964V79.6881H309.056C309.364 79.6881 309.628 79.7493 309.85 79.8716C310.072 79.993 310.242 80.1676 310.362 80.3954C310.482 80.6232 310.542 80.8958 310.542 81.2131C310.542 81.5315 310.482 81.805 310.362 82.0338C310.242 82.2627 310.071 82.4382 309.847 82.5606C309.624 82.683 309.358 82.7441 309.047 82.7441ZM308.61 82.1905H309.02C309.211 82.1905 309.372 82.1567 309.502 82.0891C309.634 82.0204 309.732 81.9145 309.798 81.7712C309.864 81.627 309.898 81.4409 309.898 81.2131C309.898 80.9873 309.864 80.8028 309.798 80.6595C309.732 80.5163 309.634 80.4108 309.504 80.3432C309.374 80.2755 309.213 80.2417 309.022 80.2417H308.61V82.1905ZM311.375 82.7441H310.683L311.738 79.6881H312.571L313.624 82.7441H312.932L312.166 80.3864H312.142L311.375 82.7441ZM311.332 81.5429H312.968V82.0473H311.332V81.5429ZM316.548 79.6881V82.7441H315.99L314.661 80.8207H314.638V82.7441H313.992V79.6881H314.559L315.878 81.6101H315.905V79.6881H316.548ZM319.108 80.6759C319.088 80.6033 319.058 80.5391 319.02 80.4834C318.983 80.4267 318.936 80.379 318.882 80.3402C318.828 80.3004 318.766 80.27 318.697 80.2492C318.628 80.2283 318.552 80.2178 318.468 80.2178C318.312 80.2178 318.175 80.2566 318.056 80.3342C317.939 80.4118 317.848 80.5247 317.782 80.6729C317.716 80.8202 317.683 81.0002 317.683 81.2131C317.683 81.426 317.716 81.6071 317.78 81.7563C317.845 81.9055 317.937 82.0194 318.055 82.098C318.173 82.1756 318.313 82.2144 318.474 82.2144C318.621 82.2144 318.745 82.1885 318.849 82.1368C318.953 82.0841 319.033 82.01 319.088 81.9145C319.143 81.819 319.171 81.7061 319.171 81.5757L319.302 81.5951H318.515V81.1087H319.793V81.4937C319.793 81.7623 319.737 81.9931 319.623 82.1861C319.51 82.378 319.354 82.5263 319.155 82.6307C318.956 82.7342 318.728 82.7859 318.471 82.7859C318.185 82.7859 317.933 82.7228 317.716 82.5964C317.499 82.4691 317.33 82.2885 317.209 82.0547C317.089 81.82 317.028 81.5414 317.028 81.2191C317.028 80.9714 317.064 80.7505 317.136 80.5565C317.208 80.3616 317.31 80.1964 317.44 80.0611C317.571 79.9258 317.722 79.8229 317.895 79.7522C318.068 79.6816 318.256 79.6463 318.458 79.6463C318.631 79.6463 318.792 79.6717 318.941 79.7224C319.091 79.7721 319.223 79.8428 319.338 79.9343C319.455 80.0258 319.55 80.1347 319.623 80.2611C319.697 80.3864 319.744 80.5247 319.765 80.6759H319.108ZM320.279 82.7441V79.6881H322.338V80.2208H320.925V80.949H322.232V81.4817H320.925V82.2114H322.344V82.7441H320.279ZM322.852 82.7441V79.6881H324.057C324.288 79.6881 324.485 79.7294 324.648 79.8119C324.813 79.8935 324.937 80.0094 325.023 80.1596C325.109 80.3088 325.153 80.4844 325.153 80.6864C325.153 80.8893 325.109 81.0639 325.021 81.2101C324.934 81.3554 324.807 81.4668 324.641 81.5444C324.476 81.622 324.276 81.6608 324.041 81.6608H323.234V81.1415H323.937C324.06 81.1415 324.162 81.1246 324.244 81.0908C324.326 81.0569 324.386 81.0062 324.426 80.9386C324.467 80.8709 324.487 80.7868 324.487 80.6864C324.487 80.5849 324.467 80.4993 324.426 80.4297C324.386 80.3601 324.325 80.3073 324.242 80.2715C324.161 80.2347 324.058 80.2163 323.934 80.2163H323.498V82.7441H322.852ZM324.502 81.3534L325.262 82.7441H324.548L323.805 81.3534H324.502Z" fill="white"/>
<path opacity="0.7" d="M189.403 558.759H251.404C256.787 558.759 261.964 556.693 265.868 552.987L315.688 505.701C319.592 501.995 324.769 499.929 330.152 499.929H412.639M273.97 419.039H302.868C308.569 419.039 314.025 421.355 317.984 425.457L371.513 480.905C375.473 485.007 380.929 487.323 386.629 487.323H412.639" stroke="white" stroke-width="0.525261"/>
<circle cx="262.94" cy="419.301" r="10.5052" stroke="white" stroke-width="0.525261"/>
<circle cx="179.948" cy="557.97" r="10.5052" stroke="white" stroke-width="0.525261"/>
<path fill-rule="evenodd" clip-rule="evenodd" d="M179.948 555.667L178.316 557.3L177.367 556.35L179.948 553.768L182.531 556.351L181.581 557.3L179.948 555.667ZM176.696 557.02L175.747 557.97L176.696 558.92L177.646 557.97L176.696 557.02ZM178.317 558.641L179.949 560.273L181.582 558.64L182.532 559.589L182.532 559.59L179.949 562.172L177.366 559.589L178.317 558.641ZM183.201 557.021L182.251 557.971L183.201 558.92L184.151 557.971L183.201 557.021Z" fill="white"/>
<path d="M180.913 557.97H180.913L179.95 557.006L178.987 557.969L178.985 557.97L178.987 557.972L179.95 558.935L180.913 557.971L180.914 557.97L180.913 557.97Z" fill="white"/>
<path d="M240.879 557.182L243.505 558.758L240.879 560.334V557.182Z" fill="white"/>
<path d="M334.9 498.354L337.527 499.929L334.9 501.505V498.354Z" fill="white"/>
<path d="M294.98 417.726L297.607 419.301L294.98 420.877V417.726Z" fill="white"/>
<rect x="204.11" y="555.082" width="24.3031" height="7.10104" rx="3.55052" fill="#7573C3"/>
<path d="M208.611 560.132H207.527V557.076H208.62C208.927 557.076 209.192 557.137 209.413 557.259C209.635 557.381 209.806 557.555 209.925 557.783C210.046 558.011 210.106 558.283 210.106 558.601C210.106 558.919 210.046 559.193 209.925 559.422C209.806 559.65 209.634 559.826 209.411 559.948C209.188 560.071 208.921 560.132 208.611 560.132ZM208.173 559.578H208.584C208.775 559.578 208.935 559.544 209.066 559.477C209.197 559.408 209.296 559.302 209.361 559.159C209.428 559.015 209.461 558.829 209.461 558.601C209.461 558.375 209.428 558.19 209.361 558.047C209.296 557.904 209.198 557.799 209.067 557.731C208.937 557.663 208.776 557.629 208.585 557.629H208.173V559.578ZM210.939 560.132H210.247L211.302 557.076H212.134L213.188 560.132H212.495L211.73 557.774H211.706L210.939 560.132ZM210.896 558.931H212.531V559.435H210.896V558.931ZM216.112 557.076V560.132H215.554L214.224 558.208H214.202V560.132H213.556V557.076H214.123L215.442 558.998H215.469V557.076H216.112ZM218.672 558.064C218.651 557.991 218.622 557.927 218.584 557.871C218.546 557.814 218.5 557.767 218.445 557.728C218.391 557.688 218.33 557.658 218.26 557.637C218.191 557.616 218.115 557.606 218.032 557.606C217.876 557.606 217.738 557.644 217.62 557.722C217.503 557.799 217.411 557.912 217.345 558.061C217.28 558.208 217.247 558.388 217.247 558.601C217.247 558.814 217.279 558.995 217.344 559.144C217.409 559.293 217.5 559.407 217.618 559.486C217.737 559.563 217.877 559.602 218.038 559.602C218.184 559.602 218.309 559.576 218.412 559.525C218.517 559.472 218.596 559.398 218.651 559.302C218.707 559.207 218.735 559.094 218.735 558.963L218.866 558.983H218.078V558.496H219.357V558.881C219.357 559.15 219.3 559.381 219.187 559.574C219.073 559.766 218.917 559.914 218.718 560.018C218.519 560.122 218.291 560.174 218.035 560.174C217.748 560.174 217.497 560.11 217.28 559.984C217.063 559.857 216.894 559.676 216.772 559.442C216.652 559.208 216.592 558.929 216.592 558.607C216.592 558.359 216.628 558.138 216.699 557.944C216.772 557.749 216.873 557.584 217.004 557.449C217.134 557.314 217.286 557.211 217.459 557.14C217.632 557.069 217.819 557.034 218.021 557.034C218.194 557.034 218.356 557.059 218.505 557.11C218.654 557.16 218.786 557.23 218.902 557.322C219.018 557.414 219.113 557.522 219.187 557.649C219.26 557.774 219.308 557.912 219.329 558.064H218.672ZM219.842 560.132V557.076H221.902V557.608H220.488V558.337H221.796V558.869H220.488V559.599H221.907V560.132H219.842ZM222.415 560.132V557.076H223.621C223.852 557.076 224.049 557.117 224.212 557.2C224.376 557.281 224.501 557.397 224.586 557.547C224.673 557.697 224.716 557.872 224.716 558.074C224.716 558.277 224.672 558.452 224.585 558.598C224.497 558.743 224.371 558.854 224.204 558.932C224.039 559.01 223.839 559.048 223.605 559.048H222.797V558.529H223.5C223.623 558.529 223.726 558.512 223.807 558.478C223.889 558.445 223.95 558.394 223.989 558.326C224.03 558.259 224.051 558.175 224.051 558.074C224.051 557.973 224.03 557.887 223.989 557.817C223.95 557.748 223.889 557.695 223.806 557.659C223.724 557.622 223.621 557.604 223.497 557.604H223.061V560.132H222.415ZM224.066 558.741L224.825 560.132H224.112L223.369 558.741H224.066Z" fill="white"/>
<path d="M262.922 414.574V418.282L266.056 419.682L262.922 414.574Z" fill="white" fill-opacity="0.602"/>
<path d="M262.922 414.574L259.788 419.682L262.922 418.282V414.574Z" fill="white"/>
<path d="M262.922 422.084V424.604L266.058 420.265L262.922 422.084Z" fill="white" fill-opacity="0.602"/>
<path d="M262.922 424.604V422.084L259.788 420.265L262.922 424.604Z" fill="white"/>
<path d="M262.922 421.501L266.056 419.682L262.922 418.282V421.501Z" fill="white"/>
<path d="M259.788 419.682L262.922 421.501V418.282L259.788 419.682Z" fill="white" fill-opacity="0.602"/>
<path opacity="0.7" d="M43.7902 568.646H-53.0257C-58.7874 568.646 -64.2962 571.012 -68.2631 575.191L-75.534 582.849C-79.5009 587.028 -85.0097 589.394 -90.7714 589.394H-113" stroke="white" stroke-width="0.525261" stroke-dasharray="2.1 2.1"/>
<circle cx="46.154" cy="568.646" r="2.10104" fill="white"/>
<path opacity="0.7" d="M450.952 497.736H262.121" stroke="white" stroke-width="0.525261" stroke-dasharray="2.1 2.1"/>
<circle cx="259.495" cy="497.736" r="2.10104" fill="white"/>
</g>
</g>
<defs>
<linearGradient id="paint0_linear_149_8924" x1="179.5" y1="0" x2="179.5" y2="446.766" gradientUnits="userSpaceOnUse">
<stop stop-color="#0C0E40"/>
<stop offset="1" stop-color="#020312" stop-opacity="0"/>
</linearGradient>
</defs>
</svg>
