<svg width="1492" height="650" viewBox="0 0 1492 650" fill="none" xmlns="http://www.w3.org/2000/svg">
<g clip-path="url(#clip0_153_15387)">
<rect width="1492" height="650" rx="40" fill="#0057FF"/>
<rect width="1492" height="650" rx="40" fill="#192963"/>
<rect width="1492" height="650" rx="40" fill="url(#paint0_radial_153_15387)" fill-opacity="0.2"/>
<rect width="1492" height="650" rx="40" fill="url(#paint1_radial_153_15387)" fill-opacity="0.3"/>
<g opacity="0.15">
<path d="M237.092 79H158.555C148.019 79 137.908 74.8427 130.419 67.431L62.2822 0" stroke="white"/>
<path d="M269.428 63.8866C265.968 61.1418 261.576 59.5 256.797 59.5C245.636 59.5 236.588 68.4543 236.588 79.5C236.588 90.5457 245.636 99.5 256.797 99.5C261.576 99.5 265.968 97.8582 269.428 95.1134" stroke="white"/>
<ellipse cx="281.047" cy="79.5" rx="20.2092" ry="20" stroke="white"/>
<path d="M289.13 77.5H289.151C290.256 77.5 291.151 78.3954 291.151 79.5V79.5C291.151 80.6046 290.256 81.5 289.151 81.5H289.13M289.13 77.5H287.088C285.984 77.5 285.088 78.3954 285.088 79.5V79.5C285.088 80.6046 285.984 81.5 287.088 81.5H289.13M289.13 77.5V74.5C289.13 73.3954 288.235 72.5 287.13 72.5H274.963C273.858 72.5 272.963 73.3954 272.963 74.5V84.5C272.963 85.6046 273.858 86.5 274.963 86.5H287.13C288.235 86.5 289.13 85.6046 289.13 84.5V81.5" stroke="white"/>
<path d="M256.014 79.8447C255.693 79.4241 255.21 79.1352 254.563 78.9782C255.387 78.5519 255.749 77.8283 255.649 76.8074C255.616 76.4372 255.515 76.1163 255.346 75.8443C255.178 75.5723 254.95 75.3536 254.662 75.1882C254.375 75.0225 254.062 74.8964 253.725 74.8095C253.388 74.7226 253.001 74.6595 252.564 74.6202L252.564 72.5H251.287L251.287 74.5613C251.066 74.5613 250.729 74.5669 250.275 74.5781L250.275 72.5H248.998L248.998 74.6202C248.816 74.6259 248.548 74.6287 248.194 74.6287L246.436 74.6202L246.436 76.0001H247.356C247.776 76.0001 248.022 76.1908 248.094 76.5722L248.094 78.9869C248.15 78.9869 248.194 78.9898 248.227 78.9954H248.094L248.094 82.3775C248.05 82.6635 247.89 82.8067 247.613 82.8067H246.693L246.436 84.3464H248.094C248.199 84.3464 248.351 84.3478 248.551 84.3503C248.75 84.3532 248.899 84.3546 248.998 84.3546L248.998 86.5H250.276L250.276 84.3798C250.508 84.3855 250.845 84.3883 251.287 84.3883L251.287 86.5H252.564L252.564 84.3546C253.018 84.3322 253.42 84.2903 253.771 84.2284C254.122 84.1665 254.458 84.0699 254.778 83.938C255.099 83.8063 255.367 83.6421 255.583 83.4458C255.798 83.2496 255.976 82.9999 256.118 82.697C256.258 82.394 256.348 82.0435 256.387 81.6451C256.459 80.8657 256.335 80.2655 256.014 79.8447ZM250.3 76.0924C250.339 76.0924 250.448 76.091 250.628 76.0881C250.808 76.0852 250.957 76.0825 251.076 76.0796C251.194 76.0769 251.355 76.0839 251.557 76.1007C251.758 76.1175 251.928 76.14 252.067 76.168C252.205 76.196 252.357 76.2423 252.523 76.3068C252.689 76.3713 252.821 76.4498 252.921 76.5424C253.02 76.6349 253.104 76.7527 253.173 76.8958C253.243 77.0388 253.277 77.2029 253.277 77.3879C253.277 77.545 253.252 77.6881 253.203 77.8171C253.153 77.9461 253.078 78.0541 252.979 78.1411C252.879 78.228 252.777 78.3038 252.672 78.3683C252.567 78.4327 252.433 78.4846 252.27 78.5239C252.107 78.5631 251.964 78.594 251.843 78.6164C251.721 78.6388 251.569 78.6543 251.387 78.6627C251.204 78.6711 251.066 78.6768 250.972 78.6795C250.878 78.6823 250.75 78.6823 250.586 78.6795C250.423 78.6768 250.328 78.6753 250.3 78.6753L250.3 76.0923H250.3L250.3 76.0924ZM253.787 81.8219C253.735 81.951 253.667 82.0632 253.584 82.1587C253.501 82.2539 253.392 82.3381 253.257 82.4109C253.121 82.4839 252.99 82.5427 252.863 82.5876C252.736 82.6326 252.582 82.6717 252.403 82.7055C252.223 82.7391 252.065 82.7628 251.93 82.777C251.794 82.791 251.633 82.8022 251.445 82.8107C251.257 82.8189 251.11 82.8232 251.005 82.8232C250.9 82.8232 250.767 82.8217 250.607 82.8189C250.447 82.8163 250.344 82.8149 250.3 82.8149L250.3 79.971C250.344 79.971 250.476 79.9682 250.694 79.9625C250.912 79.9569 251.091 79.9542 251.229 79.9542C251.367 79.9542 251.558 79.9625 251.801 79.9795C252.044 79.9962 252.249 80.0213 252.415 80.055C252.581 80.0887 252.762 80.1405 252.958 80.2107C253.154 80.2808 253.313 80.3663 253.435 80.4672C253.557 80.5684 253.659 80.6972 253.742 80.8543C253.825 81.0113 253.866 81.1908 253.866 81.3928C253.866 81.55 253.84 81.6928 253.787 81.8219Z" fill="white"/>
<path d="M-40 602H35.1223C45.6589 602 55.7699 597.843 63.259 590.431L83.3289 570.569C90.818 563.157 100.929 559 111.466 559H319.724" stroke="white"/>
<ellipse cx="339.92" cy="558" rx="20.2092" ry="20" stroke="white"/>
<path fill-rule="evenodd" clip-rule="evenodd" d="M339.906 553.616L336.808 556.723L335.005 554.915L339.906 550L344.808 554.917L343.006 556.725L339.906 553.616ZM333.732 556.191L331.93 558L333.732 559.807L335.535 557.999L333.732 556.191ZM336.809 559.277L339.907 562.384L343.007 559.275L344.811 561.082L344.81 561.083L339.907 566L335.004 561.082L336.809 559.277ZM346.081 556.193L344.278 558.001L346.08 559.809L347.883 558.001L346.081 556.193Z" fill="white"/>
<path d="M341.737 557.999H341.737L339.908 556.165L338.08 557.998L338.078 558L338.08 558.003L339.908 559.836L341.737 558.001L341.738 558L341.737 557.999Z" fill="white"/>
<path d="M270.211 556L275.263 559L270.211 562V556Z" fill="white"/>
<path d="M300.523 556L305.576 559L300.523 562V556Z" fill="white"/>
<rect x="183.312" y="553" width="69" height="14" rx="7" fill="#754DB6"/>
<path d="M191.881 563H189.818V557.182H191.898C192.483 557.182 192.987 557.298 193.409 557.531C193.831 557.762 194.156 558.095 194.384 558.528C194.613 558.962 194.727 559.481 194.727 560.085C194.727 560.691 194.613 561.212 194.384 561.648C194.156 562.083 193.83 562.418 193.403 562.651C192.979 562.884 192.472 563 191.881 563ZM191.048 561.946H191.83C192.193 561.946 192.499 561.882 192.747 561.753C192.997 561.622 193.185 561.42 193.31 561.148C193.437 560.873 193.5 560.519 193.5 560.085C193.5 559.655 193.437 559.304 193.31 559.031C193.185 558.759 192.998 558.558 192.75 558.429C192.502 558.3 192.196 558.236 191.832 558.236H191.048V561.946ZM196.869 557.182V563H195.638V557.182H196.869ZM197.881 563V557.182H200.176C200.616 557.182 200.991 557.26 201.301 557.418C201.614 557.573 201.851 557.794 202.014 558.08C202.179 558.364 202.261 558.698 202.261 559.082C202.261 559.469 202.178 559.801 202.011 560.08C201.845 560.356 201.603 560.568 201.287 560.716C200.973 560.864 200.592 560.938 200.145 560.938H198.608V559.949H199.946C200.181 559.949 200.376 559.917 200.531 559.852C200.687 559.788 200.802 559.691 200.878 559.562C200.955 559.434 200.994 559.274 200.994 559.082C200.994 558.889 200.955 558.726 200.878 558.594C200.802 558.461 200.686 558.361 200.528 558.293C200.373 558.223 200.177 558.188 199.94 558.188H199.111V563H197.881ZM201.023 560.352L202.469 563H201.111L199.696 560.352H201.023ZM202.909 558.196V557.182H207.688V558.196H205.906V563H204.69V558.196H202.909ZM208.134 557.182H209.511L210.838 559.688H210.895L212.222 557.182H213.599L211.477 560.943V563H210.256V560.943L208.134 557.182ZM216.123 557.182H217.64L219.242 561.091H219.31L220.913 557.182H222.43V563H221.237V559.213H221.188L219.683 562.972H218.87L217.364 559.199H217.316V563H216.123V557.182ZM228.79 560.091C228.79 560.725 228.67 561.265 228.429 561.71C228.19 562.155 227.865 562.495 227.452 562.73C227.041 562.963 226.579 563.08 226.065 563.08C225.548 563.08 225.084 562.962 224.673 562.727C224.262 562.492 223.938 562.152 223.699 561.707C223.46 561.262 223.341 560.723 223.341 560.091C223.341 559.456 223.46 558.917 223.699 558.472C223.938 558.027 224.262 557.687 224.673 557.455C225.084 557.22 225.548 557.102 226.065 557.102C226.579 557.102 227.041 557.22 227.452 557.455C227.865 557.687 228.19 558.027 228.429 558.472C228.67 558.917 228.79 559.456 228.79 560.091ZM227.543 560.091C227.543 559.68 227.481 559.333 227.358 559.051C227.237 558.769 227.065 558.555 226.844 558.409C226.622 558.263 226.363 558.19 226.065 558.19C225.768 558.19 225.509 558.263 225.287 558.409C225.065 558.555 224.893 558.769 224.77 559.051C224.649 559.333 224.588 559.68 224.588 560.091C224.588 560.502 224.649 560.848 224.77 561.131C224.893 561.413 225.065 561.627 225.287 561.773C225.509 561.919 225.768 561.991 226.065 561.991C226.363 561.991 226.622 561.919 226.844 561.773C227.065 561.627 227.237 561.413 227.358 561.131C227.481 560.848 227.543 560.502 227.543 560.091ZM234.567 557.182V563H233.505L230.974 559.338H230.931V563H229.701V557.182H230.781L233.292 560.841H233.343V557.182H234.567ZM235.584 563V557.182H239.504V558.196H236.814V559.582H239.303V560.597H236.814V561.986H239.516V563H235.584ZM240.141 557.182H241.519L242.846 559.688H242.903L244.229 557.182H245.607L243.485 560.943V563H242.263V560.943L240.141 557.182Z" fill="white"/>
<path d="M1410.32 483H1640.43C1650.97 483 1661.08 487.157 1668.57 494.569L1764.42 589.431C1771.91 596.843 1782.02 601 1792.56 601H1862" stroke="white"/>
<ellipse cx="1390.12" cy="483" rx="20.2092" ry="20" stroke="white"/>
<path fill-rule="evenodd" clip-rule="evenodd" d="M1390.27 478.616L1387.17 481.723L1385.37 479.915L1390.27 475L1395.17 479.917L1393.37 481.725L1390.27 478.616ZM1384.1 481.191L1382.29 483L1384.1 484.807L1385.9 482.999L1384.1 481.191ZM1387.17 484.277L1390.27 487.384L1393.37 484.275L1395.17 486.082L1395.17 486.083L1390.27 491L1385.37 486.082L1387.17 484.277ZM1396.44 481.193L1394.64 483.001L1396.44 484.809L1398.25 483.001L1396.44 481.193Z" fill="white"/>
<path d="M1392.1 482.999H1392.1L1390.27 481.165L1388.44 482.998L1388.44 483L1388.44 483.003L1390.27 484.836L1392.1 483.001L1392.1 483L1392.1 482.999Z" fill="white"/>
<path d="M1458.83 480L1463.88 483L1458.83 486V480Z" fill="white"/>
<path d="M1199.56 124.5H1506.74M1200.57 113.5H1281.13C1291.66 113.5 1301.77 109.343 1309.26 101.931L1419.77 -7.43104C1427.26 -14.8426 1437.37 -19 1447.91 -19H1506.74" stroke="white"/>
<ellipse cx="1180.36" cy="117.5" rx="20.2092" ry="20" stroke="white"/>
<path d="M1180.73 107.5V114.559L1186.68 117.225L1180.73 107.5Z" fill="white" fill-opacity="0.602"/>
<path d="M1180.73 107.5L1174.78 117.225L1180.73 114.559V107.5Z" fill="white"/>
<path d="M1180.73 121.798V126.595L1186.69 118.335L1180.73 121.798Z" fill="white" fill-opacity="0.602"/>
<path d="M1180.73 126.595V121.797L1174.78 118.335L1180.73 126.595Z" fill="white"/>
<path d="M1180.73 120.688L1186.68 117.224L1180.73 114.56V120.688Z" fill="white" fill-opacity="0.2"/>
<path d="M1174.78 117.224L1180.73 120.688V114.56L1174.78 117.224Z" fill="white" fill-opacity="0.602"/>
<path d="M1395.59 121.5L1400.64 124.5L1395.59 127.5V121.5Z" fill="white"/>
<path d="M1252.1 110.5L1257.15 113.5L1252.1 116.5V110.5Z" fill="white"/>
<rect x="1421.86" y="117.5" width="46" height="14" rx="7" fill="#754DB6"/>
<path d="M1430.43 127.5H1428.37V121.682H1430.44C1431.03 121.682 1431.53 121.798 1431.96 122.031C1432.38 122.262 1432.7 122.595 1432.93 123.028C1433.16 123.462 1433.27 123.981 1433.27 124.585C1433.27 125.191 1433.16 125.712 1432.93 126.148C1432.7 126.583 1432.38 126.918 1431.95 127.151C1431.53 127.384 1431.02 127.5 1430.43 127.5ZM1429.6 126.446H1430.38C1430.74 126.446 1431.05 126.382 1431.29 126.253C1431.54 126.122 1431.73 125.92 1431.86 125.648C1431.98 125.373 1432.05 125.019 1432.05 124.585C1432.05 124.155 1431.98 123.804 1431.86 123.531C1431.73 123.259 1431.55 123.058 1431.3 122.929C1431.05 122.8 1430.74 122.736 1430.38 122.736H1429.6V126.446ZM1434.86 127.5H1433.54L1435.55 121.682H1437.14L1439.14 127.5H1437.82L1436.37 123.011H1436.32L1434.86 127.5ZM1434.78 125.213H1437.89V126.173H1434.78V125.213ZM1444.71 121.682V127.5H1443.65L1441.11 123.838H1441.07V127.5H1439.84V121.682H1440.92L1443.43 125.341H1443.48V121.682H1444.71ZM1449.58 123.562C1449.54 123.424 1449.49 123.302 1449.42 123.196C1449.34 123.088 1449.26 122.997 1449.15 122.923C1449.05 122.848 1448.93 122.79 1448.8 122.75C1448.67 122.71 1448.52 122.69 1448.36 122.69C1448.07 122.69 1447.81 122.764 1447.58 122.912C1447.36 123.06 1447.18 123.275 1447.06 123.557C1446.93 123.837 1446.87 124.18 1446.87 124.585C1446.87 124.991 1446.93 125.335 1447.05 125.619C1447.18 125.903 1447.35 126.12 1447.58 126.27C1447.8 126.418 1448.07 126.491 1448.38 126.491C1448.65 126.491 1448.89 126.442 1449.09 126.344C1449.29 126.243 1449.44 126.102 1449.54 125.92C1449.65 125.739 1449.7 125.524 1449.7 125.276L1449.95 125.312H1448.45V124.386H1450.89V125.119C1450.89 125.631 1450.78 126.07 1450.56 126.438C1450.35 126.803 1450.05 127.085 1449.67 127.284C1449.29 127.481 1448.86 127.58 1448.37 127.58C1447.82 127.58 1447.35 127.459 1446.93 127.219C1446.52 126.976 1446.2 126.633 1445.97 126.188C1445.74 125.741 1445.62 125.21 1445.62 124.597C1445.62 124.125 1445.69 123.705 1445.83 123.335C1445.97 122.964 1446.16 122.65 1446.41 122.392C1446.65 122.134 1446.94 121.938 1447.27 121.804C1447.6 121.67 1447.96 121.602 1448.34 121.602C1448.67 121.602 1448.98 121.651 1449.26 121.747C1449.55 121.842 1449.8 121.976 1450.02 122.151C1450.24 122.325 1450.42 122.532 1450.56 122.773C1450.7 123.011 1450.79 123.275 1450.83 123.562H1449.58ZM1451.81 127.5V121.682H1455.73V122.696H1453.04V124.082H1455.53V125.097H1453.04V126.486H1455.74V127.5H1451.81ZM1456.71 127.5V121.682H1459C1459.44 121.682 1459.82 121.76 1460.13 121.918C1460.44 122.073 1460.68 122.294 1460.84 122.58C1461.01 122.864 1461.09 123.198 1461.09 123.582C1461.09 123.969 1461.01 124.301 1460.84 124.58C1460.67 124.856 1460.43 125.068 1460.12 125.216C1459.8 125.364 1459.42 125.438 1458.97 125.438H1457.44V124.449H1458.77C1459.01 124.449 1459.2 124.417 1459.36 124.352C1459.52 124.288 1459.63 124.191 1459.71 124.062C1459.78 123.934 1459.82 123.774 1459.82 123.582C1459.82 123.389 1459.78 123.226 1459.71 123.094C1459.63 122.961 1459.51 122.861 1459.36 122.793C1459.2 122.723 1459.01 122.688 1458.77 122.688H1457.94V127.5H1456.71ZM1459.85 124.852L1461.3 127.5H1459.94L1458.52 124.852H1459.85Z" fill="white"/>
</g>
</g>
<defs>
<radialGradient id="paint0_radial_153_15387" cx="0" cy="0" r="1" gradientUnits="userSpaceOnUse" gradientTransform="translate(52.5 172.656) rotate(34.5401) scale(841.902 1457.92)">
<stop stop-color="#300060"/>
<stop offset="1" stop-color="#FF00E6" stop-opacity="0"/>
</radialGradient>
<radialGradient id="paint1_radial_153_15387" cx="0" cy="0" r="1" gradientUnits="userSpaceOnUse" gradientTransform="translate(1100.74 -122.988) rotate(129.594) scale(581.367 771.365)">
<stop stop-color="#0042A5"/>
<stop offset="1" stop-color="#00FF75" stop-opacity="0"/>
</radialGradient>
<clipPath id="clip0_153_15387">
<rect width="1492" height="650" rx="40" fill="white"/>
</clipPath>
</defs>
</svg>
