<svg width="1493" height="560" viewBox="0 0 1493 560" fill="none" xmlns="http://www.w3.org/2000/svg">
<rect width="1492" height="560" rx="40" fill="url(#paint0_linear_149_15669)"/>
<g opacity="0.2">
<path opacity="0.7" d="M1036 365.5H1433.43C1444.04 365.5 1454.21 369.714 1461.72 377.216L1492 407.5" stroke="white"/>
<path d="M1054 362.5L1059 365.5L1054 368.5V362.5Z" fill="white"/>
<path d="M1035 362.5L1040 365.5L1035 368.5V362.5Z" fill="white"/>
<rect x="1232" y="357.5" width="46" height="14" rx="7" fill="white"/>
<path d="M1240.57 367.5H1238.51V361.682H1240.59C1241.17 361.682 1241.67 361.798 1242.1 362.031C1242.52 362.262 1242.84 362.595 1243.07 363.028C1243.3 363.462 1243.41 363.981 1243.41 364.585C1243.41 365.191 1243.3 365.712 1243.07 366.148C1242.84 366.583 1242.52 366.918 1242.09 367.151C1241.67 367.384 1241.16 367.5 1240.57 367.5ZM1239.74 366.446H1240.52C1240.88 366.446 1241.19 366.382 1241.43 366.253C1241.68 366.122 1241.87 365.92 1242 365.648C1242.12 365.373 1242.19 365.019 1242.19 364.585C1242.19 364.155 1242.12 363.804 1242 363.531C1241.87 363.259 1241.69 363.058 1241.44 362.929C1241.19 362.8 1240.88 362.736 1240.52 362.736H1239.74V366.446ZM1245 367.5H1243.68L1245.69 361.682H1247.28L1249.28 367.5H1247.96L1246.51 363.011H1246.46L1245 367.5ZM1244.92 365.213H1248.03V366.173H1244.92V365.213ZM1254.85 361.682V367.5H1253.79L1251.25 363.838H1251.21V367.5H1249.98V361.682H1251.06L1253.57 365.341H1253.62V361.682H1254.85ZM1259.72 363.562C1259.68 363.424 1259.63 363.302 1259.56 363.196C1259.48 363.088 1259.4 362.997 1259.29 362.923C1259.19 362.848 1259.07 362.79 1258.94 362.75C1258.81 362.71 1258.66 362.69 1258.5 362.69C1258.21 362.69 1257.95 362.764 1257.72 362.912C1257.5 363.06 1257.32 363.275 1257.2 363.557C1257.07 363.837 1257.01 364.18 1257.01 364.585C1257.01 364.991 1257.07 365.335 1257.19 365.619C1257.32 365.903 1257.49 366.12 1257.72 366.27C1257.94 366.418 1258.21 366.491 1258.52 366.491C1258.79 366.491 1259.03 366.442 1259.23 366.344C1259.43 366.243 1259.58 366.102 1259.68 365.92C1259.79 365.739 1259.84 365.524 1259.84 365.276L1260.09 365.312H1258.59V364.386H1261.03V365.119C1261.03 365.631 1260.92 366.07 1260.7 366.438C1260.49 366.803 1260.19 367.085 1259.81 367.284C1259.43 367.481 1259 367.58 1258.51 367.58C1257.96 367.58 1257.49 367.459 1257.07 367.219C1256.66 366.976 1256.34 366.633 1256.11 366.188C1255.88 365.741 1255.76 365.21 1255.76 364.597C1255.76 364.125 1255.83 363.705 1255.97 363.335C1256.11 362.964 1256.3 362.65 1256.55 362.392C1256.79 362.134 1257.08 361.938 1257.41 361.804C1257.74 361.67 1258.1 361.602 1258.48 361.602C1258.81 361.602 1259.12 361.651 1259.4 361.747C1259.69 361.842 1259.94 361.976 1260.16 362.151C1260.38 362.325 1260.56 362.532 1260.7 362.773C1260.84 363.011 1260.93 363.275 1260.97 363.562H1259.72ZM1261.95 367.5V361.682H1265.87V362.696H1263.18V364.082H1265.67V365.097H1263.18V366.486H1265.88V367.5H1261.95ZM1266.85 367.5V361.682H1269.14C1269.58 361.682 1269.96 361.76 1270.27 361.918C1270.58 362.073 1270.82 362.294 1270.98 362.58C1271.15 362.864 1271.23 363.198 1271.23 363.582C1271.23 363.969 1271.15 364.301 1270.98 364.58C1270.81 364.856 1270.57 365.068 1270.26 365.216C1269.94 365.364 1269.56 365.438 1269.11 365.438H1267.58V364.449H1268.91C1269.15 364.449 1269.34 364.417 1269.5 364.352C1269.66 364.288 1269.77 364.191 1269.85 364.062C1269.92 363.934 1269.96 363.774 1269.96 363.582C1269.96 363.389 1269.92 363.226 1269.85 363.094C1269.77 362.961 1269.65 362.861 1269.5 362.793C1269.34 362.723 1269.15 362.688 1268.91 362.688H1268.08V367.5H1266.85ZM1269.99 364.852L1271.44 367.5H1270.08L1268.66 364.852H1269.99Z" fill="#A033B4"/>
</g>
<g opacity="0.2">
<path opacity="0.7" d="M726 476L272.004 476C261.433 476 251.293 480.184 243.798 487.637L171.536 559.5" stroke="white"/>
<circle cx="20" cy="20" r="20" transform="matrix(-1 0 0 1 767 455)" stroke="white"/>
<path d="M747.033 465V472.059L741.067 474.725L747.033 465Z" fill="white"/>
<path d="M747.033 465L753 474.725L747.033 472.059V465Z" fill="white"/>
<path d="M747.033 479.298V484.095L741.063 475.835L747.033 479.298Z" fill="white"/>
<path d="M747.033 484.095V479.297L753 475.835L747.033 484.095Z" fill="white"/>
<path d="M747.033 478.188L741.067 474.724L747.033 472.06V478.188Z" fill="white"/>
<path d="M753 474.724L747.033 478.188V472.06L753 474.724Z" fill="white"/>
<path d="M387 473L392 476L387 479V473Z" fill="white"/>
<path d="M636 473L641 476L636 479V473Z" fill="white"/>
<path d="M656 473L661 476L656 479V473Z" fill="white"/>
</g>
<g opacity="0.2">
<path opacity="0.7" d="M1 234.5H94.7224C105.159 234.5 115.182 238.579 122.652 245.866L221.348 342.134C228.818 349.421 238.841 353.5 249.278 353.5H377M1 387.5H100.974C107.556 387.5 114.037 385.876 119.84 382.771L145.16 369.229C150.963 366.124 157.444 364.5 164.026 364.5H377" stroke="white"/>
<circle cx="396" cy="357.5" r="20" stroke="white"/>
<path fill-rule="evenodd" clip-rule="evenodd" d="M395.999 353.116L392.892 356.223L391.084 354.415L395.999 349.5L400.916 354.417L399.108 356.225L395.999 353.116ZM389.808 355.691L388 357.5L389.808 359.307L391.616 357.499L389.808 355.691ZM392.893 358.777L396.001 361.884L399.109 358.775L400.918 360.582L400.918 360.583L396.001 365.5L391.083 360.582L392.893 358.777ZM402.192 355.693L400.384 357.501L402.192 359.309L404 357.501L402.192 355.693Z" fill="white"/>
<path d="M397.835 357.499H397.836L396.002 355.665L394.169 357.498L394.166 357.5L394.169 357.503L396.002 359.336L397.836 357.501L397.837 357.5L397.835 357.499Z" fill="white"/>
<path d="M308 361.5L313 364.5L308 367.5V361.5Z" fill="white"/>
<path d="M338 350.5L343 353.5L338 356.5V350.5Z" fill="white"/>
<path d="M81 231.5L86 234.5L81 237.5V231.5Z" fill="white"/>
<rect x="22" y="227.5" width="37" height="14" rx="7" fill="white"/>
<path d="M31.6619 233.355C31.6392 233.126 31.5417 232.948 31.3693 232.821C31.197 232.694 30.9631 232.631 30.6676 232.631C30.4669 232.631 30.2973 232.659 30.1591 232.716C30.0208 232.771 29.9148 232.848 29.8409 232.946C29.7689 233.045 29.733 233.156 29.733 233.281C29.7292 233.385 29.7509 233.476 29.7983 233.554C29.8475 233.632 29.9148 233.699 30 233.756C30.0852 233.811 30.1837 233.859 30.2955 233.901C30.4072 233.94 30.5265 233.974 30.6534 234.003L31.1761 234.128C31.4299 234.185 31.6629 234.26 31.875 234.355C32.0871 234.45 32.2708 234.566 32.4261 234.705C32.5814 234.843 32.7017 235.006 32.7869 235.193C32.8741 235.381 32.9186 235.596 32.9205 235.838C32.9186 236.194 32.8277 236.503 32.6477 236.764C32.4697 237.024 32.2121 237.225 31.875 237.369C31.5398 237.511 31.1354 237.582 30.6619 237.582C30.1922 237.582 29.7831 237.51 29.4347 237.366C29.0881 237.223 28.8172 237.009 28.6222 236.727C28.429 236.443 28.3277 236.092 28.3182 235.673H29.5085C29.5218 235.868 29.5777 236.031 29.6761 236.162C29.7765 236.291 29.91 236.388 30.0767 236.455C30.2453 236.519 30.4356 236.551 30.6477 236.551C30.8561 236.551 31.0369 236.521 31.1903 236.46C31.3456 236.4 31.4659 236.315 31.5511 236.207C31.6364 236.099 31.679 235.975 31.679 235.835C31.679 235.705 31.6402 235.595 31.5625 235.506C31.4867 235.417 31.375 235.341 31.2273 235.278C31.0814 235.216 30.9025 235.159 30.6903 235.108L30.0568 234.949C29.5663 234.83 29.179 234.643 28.8949 234.389C28.6108 234.135 28.4697 233.794 28.4716 233.364C28.4697 233.011 28.5634 232.704 28.7528 232.44C28.9441 232.177 29.2064 231.972 29.5398 231.824C29.8731 231.676 30.2519 231.602 30.6761 231.602C31.108 231.602 31.4848 231.676 31.8068 231.824C32.1307 231.972 32.3826 232.177 32.5625 232.44C32.7424 232.704 32.8352 233.009 32.8409 233.355H31.6619ZM38.8814 233.719H37.6371C37.6143 233.558 37.5679 233.415 37.4979 233.29C37.4278 233.163 37.3378 233.055 37.228 232.966C37.1181 232.877 36.9912 232.809 36.8473 232.761C36.7053 232.714 36.5509 232.69 36.3842 232.69C36.0831 232.69 35.8208 232.765 35.5973 232.915C35.3738 233.062 35.2005 233.278 35.0774 233.562C34.9543 233.845 34.8928 234.187 34.8928 234.591C34.8928 235.006 34.9543 235.354 35.0774 235.636C35.2024 235.919 35.3767 236.132 35.6001 236.276C35.8236 236.42 36.0821 236.491 36.3757 236.491C36.5405 236.491 36.6929 236.47 36.8331 236.426C36.9751 236.383 37.1011 236.319 37.2109 236.236C37.3208 236.151 37.4117 236.047 37.4837 235.926C37.5575 235.805 37.6087 235.667 37.6371 235.511L38.8814 235.517C38.8492 235.784 38.7687 236.042 38.6399 236.29C38.513 236.536 38.3416 236.757 38.1257 236.952C37.9117 237.145 37.656 237.298 37.3587 237.412C37.0632 237.524 36.7289 237.58 36.3558 237.58C35.8369 237.58 35.3729 237.462 34.9638 237.227C34.5566 236.992 34.2346 236.652 33.9979 236.207C33.763 235.762 33.6456 235.223 33.6456 234.591C33.6456 233.956 33.7649 233.417 34.0036 232.972C34.2422 232.527 34.5661 232.187 34.9751 231.955C35.3842 231.72 35.8445 231.602 36.3558 231.602C36.6929 231.602 37.0054 231.65 37.2933 231.744C37.5831 231.839 37.8397 231.977 38.0632 232.159C38.2867 232.339 38.4685 232.56 38.6087 232.821C38.7507 233.082 38.8416 233.382 38.8814 233.719ZM40.657 237.5H39.3388L41.3473 231.682H42.9325L44.9382 237.5H43.62L42.1626 233.011H42.1172L40.657 237.5ZM40.5746 235.213H43.6882V236.173H40.5746V235.213ZM45.6385 231.682H47.1555L48.7578 235.591H48.826L50.4283 231.682H51.9453V237.5H50.7521V233.713H50.7038L49.1982 237.472H48.3857L46.88 233.699H46.8317V237.5H45.6385V231.682Z" fill="#1F5BF5"/>
<rect x="182" y="358.5" width="69" height="14" rx="7" fill="white"/>
<path d="M190.568 368.5H188.506V362.682H190.585C191.17 362.682 191.674 362.798 192.097 363.031C192.519 363.262 192.844 363.595 193.071 364.028C193.3 364.462 193.415 364.981 193.415 365.585C193.415 366.191 193.3 366.712 193.071 367.148C192.844 367.583 192.517 367.918 192.091 368.151C191.667 368.384 191.159 368.5 190.568 368.5ZM189.736 367.446H190.517C190.881 367.446 191.187 367.382 191.435 367.253C191.685 367.122 191.872 366.92 191.997 366.648C192.124 366.373 192.188 366.019 192.188 365.585C192.188 365.155 192.124 364.804 191.997 364.531C191.872 364.259 191.686 364.058 191.438 363.929C191.189 363.8 190.884 363.736 190.52 363.736H189.736V367.446ZM195.556 362.682V368.5H194.326V362.682H195.556ZM196.568 368.5V362.682H198.864C199.303 362.682 199.678 362.76 199.989 362.918C200.301 363.073 200.539 363.294 200.702 363.58C200.866 363.864 200.949 364.198 200.949 364.582C200.949 364.969 200.866 365.301 200.699 365.58C200.532 365.856 200.291 366.068 199.974 366.216C199.66 366.364 199.279 366.438 198.832 366.438H197.295V365.449H198.634C198.868 365.449 199.063 365.417 199.219 365.352C199.374 365.288 199.49 365.191 199.565 365.062C199.643 364.934 199.682 364.774 199.682 364.582C199.682 364.389 199.643 364.226 199.565 364.094C199.49 363.961 199.373 363.861 199.216 363.793C199.061 363.723 198.865 363.688 198.628 363.688H197.798V368.5H196.568ZM199.71 365.852L201.156 368.5H199.798L198.384 365.852H199.71ZM201.597 363.696V362.682H206.375V363.696H204.594V368.5H203.378V363.696H201.597ZM206.821 362.682H208.199L209.526 365.188H209.582L210.909 362.682H212.287L210.165 366.443V368.5H208.943V366.443L206.821 362.682ZM214.81 362.682H216.327L217.93 366.591H217.998L219.6 362.682H221.117V368.5H219.924V364.713H219.876L218.37 368.472H217.558L216.052 364.699H216.004V368.5H214.81V362.682ZM227.477 365.591C227.477 366.225 227.357 366.765 227.116 367.21C226.878 367.655 226.552 367.995 226.139 368.23C225.728 368.463 225.266 368.58 224.753 368.58C224.236 368.58 223.772 368.462 223.361 368.227C222.95 367.992 222.625 367.652 222.386 367.207C222.148 366.762 222.028 366.223 222.028 365.591C222.028 364.956 222.148 364.417 222.386 363.972C222.625 363.527 222.95 363.187 223.361 362.955C223.772 362.72 224.236 362.602 224.753 362.602C225.266 362.602 225.728 362.72 226.139 362.955C226.552 363.187 226.878 363.527 227.116 363.972C227.357 364.417 227.477 364.956 227.477 365.591ZM226.23 365.591C226.23 365.18 226.169 364.833 226.045 364.551C225.924 364.269 225.753 364.055 225.531 363.909C225.31 363.763 225.05 363.69 224.753 363.69C224.455 363.69 224.196 363.763 223.974 363.909C223.753 364.055 223.58 364.269 223.457 364.551C223.336 364.833 223.276 365.18 223.276 365.591C223.276 366.002 223.336 366.348 223.457 366.631C223.58 366.913 223.753 367.127 223.974 367.273C224.196 367.419 224.455 367.491 224.753 367.491C225.05 367.491 225.31 367.419 225.531 367.273C225.753 367.127 225.924 366.913 226.045 366.631C226.169 366.348 226.23 366.002 226.23 365.591ZM233.255 362.682V368.5H232.192L229.661 364.838H229.619V368.5H228.388V362.682H229.468L231.979 366.341H232.031V362.682H233.255ZM234.271 368.5V362.682H238.192V363.696H235.501V365.082H237.99V366.097H235.501V367.486H238.203V368.5H234.271ZM238.829 362.682H240.207L241.533 365.188H241.59L242.917 362.682H244.295L242.173 366.443V368.5H240.951V366.443L238.829 362.682Z" fill="#3357F0"/>
</g>
<g opacity="0.2">
<path opacity="0.7" d="M1257 199.5H1491M1258 188.5H1316.22C1327.54 188.5 1338.33 183.703 1345.91 175.299L1414.59 99.2014C1422.17 90.797 1432.96 86 1444.28 86H1491" stroke="white"/>
<circle cx="1238" cy="194" r="20" stroke="white"/>
<path d="M1246 192V192C1247.1 192 1248 192.895 1248 194V194C1248 195.105 1247.1 196 1246 196V196M1246 192H1244C1242.9 192 1242 192.895 1242 194V194C1242 195.105 1242.9 196 1244 196H1246M1246 192V189C1246 187.895 1245.1 187 1244 187H1232C1230.9 187 1230 187.895 1230 189V199C1230 200.105 1230.9 201 1232 201H1244C1245.1 201 1246 200.105 1246 199V196" stroke="white"/>
<path d="M1371 196.5L1376 199.5L1371 202.5V196.5Z" fill="white"/>
<path d="M1269 185.5L1274 188.5L1269 191.5V185.5Z" fill="white"/>
<rect x="1397" y="192.5" width="46" height="14" rx="7" fill="white"/>
<path d="M1405.57 202.5H1403.51V196.682H1405.59C1406.17 196.682 1406.67 196.798 1407.1 197.031C1407.52 197.262 1407.84 197.595 1408.07 198.028C1408.3 198.462 1408.41 198.981 1408.41 199.585C1408.41 200.191 1408.3 200.712 1408.07 201.148C1407.84 201.583 1407.52 201.918 1407.09 202.151C1406.67 202.384 1406.16 202.5 1405.57 202.5ZM1404.74 201.446H1405.52C1405.88 201.446 1406.19 201.382 1406.43 201.253C1406.68 201.122 1406.87 200.92 1407 200.648C1407.12 200.373 1407.19 200.019 1407.19 199.585C1407.19 199.155 1407.12 198.804 1407 198.531C1406.87 198.259 1406.69 198.058 1406.44 197.929C1406.19 197.8 1405.88 197.736 1405.52 197.736H1404.74V201.446ZM1410 202.5H1408.68L1410.69 196.682H1412.28L1414.28 202.5H1412.96L1411.51 198.011H1411.46L1410 202.5ZM1409.92 200.213H1413.03V201.173H1409.92V200.213ZM1419.85 196.682V202.5H1418.79L1416.25 198.838H1416.21V202.5H1414.98V196.682H1416.06L1418.57 200.341H1418.62V196.682H1419.85ZM1424.72 198.562C1424.68 198.424 1424.63 198.302 1424.56 198.196C1424.48 198.088 1424.4 197.997 1424.29 197.923C1424.19 197.848 1424.07 197.79 1423.94 197.75C1423.81 197.71 1423.66 197.69 1423.5 197.69C1423.21 197.69 1422.95 197.764 1422.72 197.912C1422.5 198.06 1422.32 198.275 1422.2 198.557C1422.07 198.837 1422.01 199.18 1422.01 199.585C1422.01 199.991 1422.07 200.335 1422.19 200.619C1422.32 200.903 1422.49 201.12 1422.72 201.27C1422.94 201.418 1423.21 201.491 1423.52 201.491C1423.79 201.491 1424.03 201.442 1424.23 201.344C1424.43 201.243 1424.58 201.102 1424.68 200.92C1424.79 200.739 1424.84 200.524 1424.84 200.276L1425.09 200.312H1423.59V199.386H1426.03V200.119C1426.03 200.631 1425.92 201.07 1425.7 201.438C1425.49 201.803 1425.19 202.085 1424.81 202.284C1424.43 202.481 1424 202.58 1423.51 202.58C1422.96 202.58 1422.49 202.459 1422.07 202.219C1421.66 201.976 1421.34 201.633 1421.11 201.188C1420.88 200.741 1420.76 200.21 1420.76 199.597C1420.76 199.125 1420.83 198.705 1420.97 198.335C1421.11 197.964 1421.3 197.65 1421.55 197.392C1421.79 197.134 1422.08 196.938 1422.41 196.804C1422.74 196.67 1423.1 196.602 1423.48 196.602C1423.81 196.602 1424.12 196.651 1424.4 196.747C1424.69 196.842 1424.94 196.976 1425.16 197.151C1425.38 197.325 1425.56 197.532 1425.7 197.773C1425.84 198.011 1425.93 198.275 1425.97 198.562H1424.72ZM1426.95 202.5V196.682H1430.87V197.696H1428.18V199.082H1430.67V200.097H1428.18V201.486H1430.88V202.5H1426.95ZM1431.85 202.5V196.682H1434.14C1434.58 196.682 1434.96 196.76 1435.27 196.918C1435.58 197.073 1435.82 197.294 1435.98 197.58C1436.15 197.864 1436.23 198.198 1436.23 198.582C1436.23 198.969 1436.15 199.301 1435.98 199.58C1435.81 199.856 1435.57 200.068 1435.26 200.216C1434.94 200.364 1434.56 200.438 1434.11 200.438H1432.58V199.449H1433.91C1434.15 199.449 1434.34 199.417 1434.5 199.352C1434.66 199.288 1434.77 199.191 1434.85 199.062C1434.92 198.934 1434.96 198.774 1434.96 198.582C1434.96 198.389 1434.92 198.226 1434.85 198.094C1434.77 197.961 1434.65 197.861 1434.5 197.793C1434.34 197.723 1434.15 197.688 1433.91 197.688H1433.08V202.5H1431.85ZM1434.99 199.852L1436.44 202.5H1435.08L1433.66 199.852H1434.99Z" fill="#CC36CD"/>
</g>
<g opacity="0.2">
<path opacity="0.7" d="M0 114L117 114" stroke="white"/>
<circle cx="137" cy="114" r="20" stroke="white"/>
<path d="M141.606 114.345C141.285 113.924 140.799 113.635 140.151 113.478C140.977 113.052 141.34 112.328 141.24 111.307C141.207 110.937 141.106 110.616 140.937 110.344C140.767 110.072 140.539 109.854 140.25 109.688C139.962 109.523 139.648 109.396 139.31 109.31C138.972 109.223 138.584 109.159 138.146 109.12L138.146 107H136.865L136.865 109.061C136.644 109.061 136.305 109.067 135.851 109.078L135.851 107H134.57L134.57 109.12C134.387 109.126 134.118 109.129 133.763 109.129L132 109.12L132 110.5H132.923C133.345 110.5 133.591 110.691 133.663 111.072L133.663 113.487C133.719 113.487 133.763 113.49 133.796 113.495H133.663L133.663 116.878C133.619 117.164 133.458 117.307 133.181 117.307H132.258L132 118.846H133.663C133.769 118.846 133.921 118.848 134.121 118.85C134.32 118.853 134.47 118.855 134.57 118.855L134.57 121H135.851L135.851 118.88C136.084 118.886 136.422 118.888 136.866 118.888L136.866 121H138.146L138.146 118.855C138.601 118.832 139.004 118.79 139.356 118.728C139.708 118.667 140.045 118.57 140.367 118.438C140.688 118.306 140.957 118.142 141.173 117.946C141.39 117.75 141.568 117.5 141.71 117.197C141.851 116.894 141.941 116.543 141.98 116.145C142.052 115.366 141.928 114.765 141.606 114.345ZM135.876 110.592C135.914 110.592 136.024 110.591 136.204 110.588C136.384 110.585 136.534 110.582 136.653 110.58C136.773 110.577 136.933 110.584 137.136 110.601C137.338 110.618 137.509 110.64 137.647 110.668C137.786 110.696 137.938 110.742 138.105 110.807C138.271 110.871 138.404 110.95 138.504 111.042C138.604 111.135 138.688 111.253 138.757 111.396C138.827 111.539 138.861 111.703 138.861 111.888C138.861 112.045 138.836 112.188 138.787 112.317C138.737 112.446 138.662 112.554 138.562 112.641C138.462 112.728 138.36 112.804 138.254 112.868C138.149 112.933 138.014 112.985 137.851 113.024C137.687 113.063 137.545 113.094 137.423 113.116C137.301 113.139 137.148 113.154 136.965 113.163C136.782 113.171 136.644 113.177 136.549 113.18C136.455 113.182 136.326 113.182 136.163 113.18C135.999 113.177 135.904 113.175 135.876 113.175L135.876 110.592H135.876L135.876 110.592ZM139.373 116.322C139.32 116.451 139.252 116.563 139.169 116.659C139.086 116.754 138.976 116.838 138.841 116.911C138.705 116.984 138.573 117.043 138.446 117.088C138.318 117.133 138.164 117.172 137.984 117.205C137.804 117.239 137.646 117.263 137.51 117.277C137.374 117.291 137.212 117.302 137.023 117.311C136.835 117.319 136.688 117.323 136.583 117.323C136.477 117.323 136.344 117.322 136.183 117.319C136.022 117.316 135.92 117.315 135.876 117.315L135.876 114.471C135.92 114.471 136.052 114.468 136.271 114.463C136.49 114.457 136.668 114.454 136.807 114.454C136.946 114.454 137.137 114.463 137.381 114.479C137.625 114.496 137.83 114.521 137.997 114.555C138.163 114.589 138.344 114.64 138.541 114.711C138.738 114.781 138.898 114.866 139.02 114.967C139.142 115.068 139.244 115.197 139.327 115.354C139.411 115.511 139.452 115.691 139.452 115.893C139.452 116.05 139.426 116.193 139.373 116.322Z" fill="white"/>
<path d="M183 111L188 114L183 117V111Z" fill="white"/>
<path d="M178 111L183 114L178 117V111Z" fill="white"/>
<path d="M173 111L178 114L173 117V111Z" fill="white"/>
<path d="M44 111L49 114L44 117V111Z" fill="white"/>
</g>
<defs>
<linearGradient id="paint0_linear_149_15669" x1="0" y1="280" x2="1492" y2="280" gradientUnits="userSpaceOnUse">
<stop stop-color="#1A5CF6"/>
<stop offset="1" stop-color="#D135CB"/>
</linearGradient>
</defs>
</svg>
