<svg width="1492" height="1011" viewBox="0 0 1492 1011" fill="none" xmlns="http://www.w3.org/2000/svg">
<g opacity="0.5">
<rect width="1492" height="1011" rx="40" fill="url(#paint0_linear_315_3388)"/>
<rect width="1492" height="1011" rx="40" fill="url(#paint1_radial_315_3388)" fill-opacity="0.15"/>
<rect width="1492" height="1011" rx="40" fill="url(#paint2_radial_315_3388)" fill-opacity="0.15"/>
</g>
<g opacity="0.3" clip-path="url(#clip0_315_3388)">
<path opacity="0.7" d="M1450 628.5H1522" stroke="#4B7497"/>
<path d="M1417.5 613.387C1414.08 610.642 1409.73 609 1405 609C1393.95 609 1385 617.954 1385 629C1385 640.046 1393.95 649 1405 649C1409.73 649 1414.08 647.358 1417.5 644.613" stroke="#4B7497"/>
<circle cx="1429" cy="629" r="20" stroke="#4B7497"/>
<path d="M1437 627V627C1438.1 627 1439 627.895 1439 629V629C1439 630.105 1438.1 631 1437 631V631M1437 627H1435C1433.9 627 1433 627.895 1433 629V629C1433 630.105 1433.9 631 1435 631H1437M1437 627V624C1437 622.895 1436.1 622 1435 622H1423C1421.9 622 1421 622.895 1421 624V634C1421 635.105 1421.9 636 1423 636H1435C1436.1 636 1437 635.105 1437 634V631" stroke="#4B7497"/>
<path d="M1407.61 629.345C1407.28 628.924 1406.8 628.635 1406.15 628.478C1406.98 628.052 1407.34 627.328 1407.24 626.307C1407.21 625.937 1407.11 625.616 1406.94 625.344C1406.77 625.072 1406.54 624.854 1406.25 624.688C1405.96 624.523 1405.65 624.396 1405.31 624.31C1404.97 624.223 1404.58 624.159 1404.15 624.12L1404.15 622H1402.87L1402.87 624.061C1402.64 624.061 1402.31 624.067 1401.85 624.078L1401.85 622H1400.57L1400.57 624.12C1400.39 624.126 1400.12 624.129 1399.76 624.129L1398 624.12L1398 625.5H1398.92C1399.34 625.5 1399.59 625.691 1399.66 626.072L1399.66 628.487C1399.72 628.487 1399.76 628.49 1399.8 628.495H1399.66L1399.66 631.878C1399.62 632.164 1399.46 632.307 1399.18 632.307H1398.26L1398 633.846H1399.66C1399.77 633.846 1399.92 633.848 1400.12 633.85C1400.32 633.853 1400.47 633.855 1400.57 633.855L1400.57 636H1401.85L1401.85 633.88C1402.08 633.886 1402.42 633.888 1402.87 633.888L1402.87 636H1404.15L1404.15 633.855C1404.6 633.832 1405 633.79 1405.36 633.728C1405.71 633.667 1406.05 633.57 1406.37 633.438C1406.69 633.306 1406.96 633.142 1407.17 632.946C1407.39 632.75 1407.57 632.5 1407.71 632.197C1407.85 631.894 1407.94 631.543 1407.98 631.145C1408.05 630.366 1407.93 629.765 1407.61 629.345ZM1401.88 625.592C1401.91 625.592 1402.02 625.591 1402.2 625.588C1402.38 625.585 1402.53 625.582 1402.65 625.58C1402.77 625.577 1402.93 625.584 1403.14 625.601C1403.34 625.618 1403.51 625.64 1403.65 625.668C1403.79 625.696 1403.94 625.742 1404.1 625.807C1404.27 625.871 1404.4 625.95 1404.5 626.042C1404.6 626.135 1404.69 626.253 1404.76 626.396C1404.83 626.539 1404.86 626.703 1404.86 626.888C1404.86 627.045 1404.84 627.188 1404.79 627.317C1404.74 627.446 1404.66 627.554 1404.56 627.641C1404.46 627.728 1404.36 627.804 1404.25 627.868C1404.15 627.933 1404.01 627.985 1403.85 628.024C1403.69 628.063 1403.54 628.094 1403.42 628.116C1403.3 628.139 1403.15 628.154 1402.97 628.163C1402.78 628.171 1402.64 628.177 1402.55 628.18C1402.46 628.182 1402.33 628.182 1402.16 628.18C1402 628.177 1401.9 628.175 1401.88 628.175L1401.88 625.592H1401.88L1401.88 625.592ZM1405.37 631.322C1405.32 631.451 1405.25 631.563 1405.17 631.659C1405.09 631.754 1404.98 631.838 1404.84 631.911C1404.7 631.984 1404.57 632.043 1404.45 632.088C1404.32 632.133 1404.16 632.172 1403.98 632.205C1403.8 632.239 1403.65 632.263 1403.51 632.277C1403.37 632.291 1403.21 632.302 1403.02 632.311C1402.83 632.319 1402.69 632.323 1402.58 632.323C1402.48 632.323 1402.34 632.322 1402.18 632.319C1402.02 632.316 1401.92 632.315 1401.88 632.315L1401.88 629.471C1401.92 629.471 1402.05 629.468 1402.27 629.463C1402.49 629.457 1402.67 629.454 1402.81 629.454C1402.95 629.454 1403.14 629.463 1403.38 629.479C1403.62 629.496 1403.83 629.521 1404 629.555C1404.16 629.589 1404.34 629.64 1404.54 629.711C1404.74 629.781 1404.9 629.866 1405.02 629.967C1405.14 630.068 1405.24 630.197 1405.33 630.354C1405.41 630.511 1405.45 630.691 1405.45 630.893C1405.45 631.05 1405.43 631.193 1405.37 631.322Z" fill="#4B7497"/>
<path opacity="0.7" d="M-250 137H-156.278C-145.841 137 -135.818 141.079 -128.348 148.366L-29.6524 244.634C-22.1816 251.921 -12.1586 256 -1.72237 256H66M-250 310H-148.284C-142.98 310 -137.893 307.893 -134.142 304.142L-108.716 278.716C-101.214 271.214 -91.0401 267 -80.4315 267H66" stroke="#4B7497"/>
<circle cx="85" cy="260" r="20" stroke="#4B7497"/>
<path fill-rule="evenodd" clip-rule="evenodd" d="M84.9995 255.616L81.8922 258.723L80.0843 256.915L84.9995 252L89.9163 256.917L88.1083 258.725L84.9995 255.616ZM78.8081 258.191L77 260L78.8079 261.807L80.616 259.999L78.8081 258.191ZM81.8934 261.277L85.0007 264.384L88.1095 261.275L89.9184 263.082L89.9175 263.083L85.0007 268L80.083 263.082L81.8934 261.277ZM91.1921 258.193L89.384 260.001L91.192 261.809L93 260.001L91.1921 258.193Z" fill="#4B7497"/>
<path d="M86.8355 259.999H86.8362L85.0018 258.165L83.1687 259.998L83.1662 260L83.1687 260.003L85.0018 261.836L86.8364 260.001L86.8373 260L86.8355 259.999Z" fill="#4B7497"/>
<path d="M7 264L12 267L7 270V264Z" fill="#4B7497"/>
<path d="M37 253L42 256L37 259V253Z" fill="#4B7497"/>
<path opacity="0.7" d="M1322 364.5H1460.32C1469.01 364.5 1477.27 360.731 1482.97 354.168L1557.54 268.277C1565.14 259.526 1576.16 254.5 1587.74 254.5H1626M1323 375.5H1386.57C1394.53 375.5 1402.16 378.661 1407.79 384.287L1452.71 429.213C1458.34 434.839 1465.97 438 1473.93 438H1626" stroke="#4B7497"/>
<circle cx="1303" cy="371" r="20" stroke="#4B7497"/>
<path d="M1302.97 361V368.059L1308.93 370.725L1302.97 361Z" fill="#4B7497" fill-opacity="0.602"/>
<path d="M1302.97 361L1297 370.725L1302.97 368.059V361Z" fill="#4B7497"/>
<path d="M1302.97 375.298V380.095L1308.94 371.835L1302.97 375.298Z" fill="#4B7497" fill-opacity="0.602"/>
<path d="M1302.97 380.095V375.298L1297 371.835L1302.97 380.095Z" fill="#4B7497"/>
<path d="M1302.97 374.188L1308.93 370.724L1302.97 368.06V374.188Z" fill="#4B7497"/>
<path d="M1297 370.724L1302.97 374.188V368.06L1297 370.724Z" fill="#4B7497" fill-opacity="0.602"/>
<path d="M1476 435L1481 438L1476 441V435Z" fill="#4B7497"/>
<path d="M1404 361.5L1409 364.5L1404 367.5V361.5Z" fill="#4B7497"/>
</g>
<defs>
<linearGradient id="paint0_linear_315_3388" x1="746" y1="0" x2="746" y2="1011" gradientUnits="userSpaceOnUse">
<stop stop-color="#DCF1FE"/>
<stop offset="1" stop-color="white" stop-opacity="0"/>
</linearGradient>
<radialGradient id="paint1_radial_315_3388" cx="0" cy="0" r="1" gradientUnits="userSpaceOnUse" gradientTransform="translate(1462 -259) rotate(104.253) scale(834.692 1231.81)">
<stop stop-color="#6139FF"/>
<stop offset="1" stop-color="#F364FF" stop-opacity="0"/>
</radialGradient>
<radialGradient id="paint2_radial_315_3388" cx="0" cy="0" r="1" gradientUnits="userSpaceOnUse" gradientTransform="translate(-3.69418e-07 430.5) rotate(26.0268) scale(428.45 505.187)">
<stop stop-color="#0057FF"/>
<stop offset="1" stop-color="#B0E3FF" stop-opacity="0"/>
</radialGradient>
<clipPath id="clip0_315_3388">
<rect width="1492" height="560" fill="white" transform="translate(0 139)"/>
</clipPath>
</defs>
</svg>
