<svg width="2540" height="1190" viewBox="0 0 2540 1190" fill="none" xmlns="http://www.w3.org/2000/svg">
<rect width="2540" height="1190" rx="40" fill="url(#paint0_linear_251_2446)"/>
<rect width="2540" height="1190" rx="40" fill="#192963"/>
<rect width="2540" height="1190" rx="40" fill="url(#paint1_radial_251_2446)" fill-opacity="0.15"/>
<rect width="2540" height="1190" rx="40" fill="url(#paint2_radial_251_2446)" fill-opacity="0.25"/>
<rect width="2540" height="1190" rx="40" fill="url(#paint3_radial_251_2446)" fill-opacity="0.2"/>
<rect width="2540" height="1190" rx="40" fill="url(#paint4_radial_251_2446)" fill-opacity="0.2"/>
<g opacity="0.4">
<path opacity="0.7" d="M2468 921.5H2540" stroke="#4B7497"/>
<path d="M2435.5 906.387C2432.08 903.642 2427.73 902 2423 902C2411.95 902 2403 910.954 2403 922C2403 933.046 2411.95 942 2423 942C2427.73 942 2432.08 940.358 2435.5 937.613" stroke="#4B7497"/>
<circle cx="2447" cy="922" r="20" stroke="#4B7497"/>
<path d="M2455 920V920C2456.1 920 2457 920.895 2457 922V922C2457 923.105 2456.1 924 2455 924V924M2455 920H2453C2451.9 920 2451 920.895 2451 922V922C2451 923.105 2451.9 924 2453 924H2455M2455 920V917C2455 915.895 2454.1 915 2453 915H2441C2439.9 915 2439 915.895 2439 917V927C2439 928.105 2439.9 929 2441 929H2453C2454.1 929 2455 928.105 2455 927V924" stroke="#4B7497"/>
<path d="M2425.61 922.345C2425.28 921.924 2424.8 921.635 2424.15 921.478C2424.98 921.052 2425.34 920.328 2425.24 919.307C2425.21 918.937 2425.11 918.616 2424.94 918.344C2424.77 918.072 2424.54 917.854 2424.25 917.688C2423.96 917.523 2423.65 917.396 2423.31 917.31C2422.97 917.223 2422.58 917.159 2422.15 917.12L2422.15 915H2420.87L2420.87 917.061C2420.64 917.061 2420.31 917.067 2419.85 917.078L2419.85 915H2418.57L2418.57 917.12C2418.39 917.126 2418.12 917.129 2417.76 917.129L2416 917.12L2416 918.5H2416.92C2417.34 918.5 2417.59 918.691 2417.66 919.072L2417.66 921.487C2417.72 921.487 2417.76 921.49 2417.8 921.495H2417.66L2417.66 924.878C2417.62 925.164 2417.46 925.307 2417.18 925.307H2416.26L2416 926.846H2417.66C2417.77 926.846 2417.92 926.848 2418.12 926.85C2418.32 926.853 2418.47 926.855 2418.57 926.855L2418.57 929H2419.85L2419.85 926.88C2420.08 926.886 2420.42 926.888 2420.87 926.888L2420.87 929H2422.15L2422.15 926.855C2422.6 926.832 2423 926.79 2423.36 926.728C2423.71 926.667 2424.05 926.57 2424.37 926.438C2424.69 926.306 2424.96 926.142 2425.17 925.946C2425.39 925.75 2425.57 925.5 2425.71 925.197C2425.85 924.894 2425.94 924.543 2425.98 924.145C2426.05 923.366 2425.93 922.765 2425.61 922.345ZM2419.88 918.592C2419.91 918.592 2420.02 918.591 2420.2 918.588C2420.38 918.585 2420.53 918.582 2420.65 918.58C2420.77 918.577 2420.93 918.584 2421.14 918.601C2421.34 918.618 2421.51 918.64 2421.65 918.668C2421.79 918.696 2421.94 918.742 2422.1 918.807C2422.27 918.871 2422.4 918.95 2422.5 919.042C2422.6 919.135 2422.69 919.253 2422.76 919.396C2422.83 919.539 2422.86 919.703 2422.86 919.888C2422.86 920.045 2422.84 920.188 2422.79 920.317C2422.74 920.446 2422.66 920.554 2422.56 920.641C2422.46 920.728 2422.36 920.804 2422.25 920.868C2422.15 920.933 2422.01 920.985 2421.85 921.024C2421.69 921.063 2421.54 921.094 2421.42 921.116C2421.3 921.139 2421.15 921.154 2420.97 921.163C2420.78 921.171 2420.64 921.177 2420.55 921.18C2420.46 921.182 2420.33 921.182 2420.16 921.18C2420 921.177 2419.9 921.175 2419.88 921.175L2419.88 918.592H2419.88L2419.88 918.592ZM2423.37 924.322C2423.32 924.451 2423.25 924.563 2423.17 924.659C2423.09 924.754 2422.98 924.838 2422.84 924.911C2422.7 924.984 2422.57 925.043 2422.45 925.088C2422.32 925.133 2422.16 925.172 2421.98 925.205C2421.8 925.239 2421.65 925.263 2421.51 925.277C2421.37 925.291 2421.21 925.302 2421.02 925.311C2420.83 925.319 2420.69 925.323 2420.58 925.323C2420.48 925.323 2420.34 925.322 2420.18 925.319C2420.02 925.316 2419.92 925.315 2419.88 925.315L2419.88 922.471C2419.92 922.471 2420.05 922.468 2420.27 922.463C2420.49 922.457 2420.67 922.454 2420.81 922.454C2420.95 922.454 2421.14 922.463 2421.38 922.479C2421.62 922.496 2421.83 922.521 2422 922.555C2422.16 922.589 2422.34 922.64 2422.54 922.711C2422.74 922.781 2422.9 922.866 2423.02 922.967C2423.14 923.068 2423.24 923.197 2423.33 923.354C2423.41 923.511 2423.45 923.691 2423.45 923.893C2423.45 924.05 2423.43 924.193 2423.37 924.322Z" fill="#4B7497"/>
<path opacity="0.7" d="M0 415.5H93.7224C104.159 415.5 114.182 419.579 121.652 426.866L220.348 523.134C227.818 530.421 237.841 534.5 248.278 534.5H316M0 588.5H101.716C107.02 588.5 112.107 586.393 115.858 582.642L141.284 557.216C148.786 549.714 158.96 545.5 169.569 545.5H316" stroke="#4B7497"/>
<circle cx="335" cy="538.5" r="20" stroke="#4B7497"/>
<path fill-rule="evenodd" clip-rule="evenodd" d="M334.999 534.116L331.892 537.223L330.084 535.415L334.999 530.5L339.916 535.417L338.108 537.225L334.999 534.116ZM328.808 536.691L327 538.5L328.808 540.307L330.616 538.499L328.808 536.691ZM331.893 539.777L335.001 542.884L338.109 539.775L339.918 541.582L339.918 541.583L335.001 546.5L330.083 541.582L331.893 539.777ZM341.192 536.693L339.384 538.501L341.192 540.309L343 538.501L341.192 536.693Z" fill="#4B7497"/>
<path d="M336.835 538.499H336.836L335.002 536.665L333.169 538.498L333.166 538.5L333.169 538.503L335.002 540.336L336.836 538.501L336.837 538.5L336.835 538.499Z" fill="#4B7497"/>
<path d="M257 542.5L262 545.5L257 548.5V542.5Z" fill="#4B7497"/>
<path d="M287 531.5L292 534.5L287 537.5V531.5Z" fill="#4B7497"/>
<path d="M80 412.5L85 415.5L80 418.5V412.5Z" fill="#4B7497"/>
<rect x="21" y="408.5" width="37" height="14" rx="7" fill="#4B7497"/>
<path d="M30.6619 414.355C30.6392 414.126 30.5417 413.948 30.3693 413.821C30.197 413.694 29.9631 413.631 29.6676 413.631C29.4669 413.631 29.2973 413.659 29.1591 413.716C29.0208 413.771 28.9148 413.848 28.8409 413.946C28.7689 414.045 28.733 414.156 28.733 414.281C28.7292 414.385 28.7509 414.476 28.7983 414.554C28.8475 414.632 28.9148 414.699 29 414.756C29.0852 414.811 29.1837 414.859 29.2955 414.901C29.4072 414.94 29.5265 414.974 29.6534 415.003L30.1761 415.128C30.4299 415.185 30.6629 415.26 30.875 415.355C31.0871 415.45 31.2708 415.566 31.4261 415.705C31.5814 415.843 31.7017 416.006 31.7869 416.193C31.8741 416.381 31.9186 416.596 31.9205 416.838C31.9186 417.194 31.8277 417.503 31.6477 417.764C31.4697 418.024 31.2121 418.225 30.875 418.369C30.5398 418.511 30.1354 418.582 29.6619 418.582C29.1922 418.582 28.7831 418.51 28.4347 418.366C28.0881 418.223 27.8172 418.009 27.6222 417.727C27.429 417.443 27.3277 417.092 27.3182 416.673H28.5085C28.5218 416.868 28.5777 417.031 28.6761 417.162C28.7765 417.291 28.91 417.388 29.0767 417.455C29.2453 417.519 29.4356 417.551 29.6477 417.551C29.8561 417.551 30.0369 417.521 30.1903 417.46C30.3456 417.4 30.4659 417.315 30.5511 417.207C30.6364 417.099 30.679 416.975 30.679 416.835C30.679 416.705 30.6402 416.595 30.5625 416.506C30.4867 416.417 30.375 416.341 30.2273 416.278C30.0814 416.216 29.9025 416.159 29.6903 416.108L29.0568 415.949C28.5663 415.83 28.179 415.643 27.8949 415.389C27.6108 415.135 27.4697 414.794 27.4716 414.364C27.4697 414.011 27.5634 413.704 27.7528 413.44C27.9441 413.177 28.2064 412.972 28.5398 412.824C28.8731 412.676 29.2519 412.602 29.6761 412.602C30.108 412.602 30.4848 412.676 30.8068 412.824C31.1307 412.972 31.3826 413.177 31.5625 413.44C31.7424 413.704 31.8352 414.009 31.8409 414.355H30.6619ZM37.8814 414.719H36.6371C36.6143 414.558 36.5679 414.415 36.4979 414.29C36.4278 414.163 36.3378 414.055 36.228 413.966C36.1181 413.877 35.9912 413.809 35.8473 413.761C35.7053 413.714 35.5509 413.69 35.3842 413.69C35.0831 413.69 34.8208 413.765 34.5973 413.915C34.3738 414.062 34.2005 414.278 34.0774 414.562C33.9543 414.845 33.8928 415.187 33.8928 415.591C33.8928 416.006 33.9543 416.354 34.0774 416.636C34.2024 416.919 34.3767 417.132 34.6001 417.276C34.8236 417.42 35.0821 417.491 35.3757 417.491C35.5405 417.491 35.6929 417.47 35.8331 417.426C35.9751 417.383 36.1011 417.319 36.2109 417.236C36.3208 417.151 36.4117 417.047 36.4837 416.926C36.5575 416.805 36.6087 416.667 36.6371 416.511L37.8814 416.517C37.8492 416.784 37.7687 417.042 37.6399 417.29C37.513 417.536 37.3416 417.757 37.1257 417.952C36.9117 418.145 36.656 418.298 36.3587 418.412C36.0632 418.524 35.7289 418.58 35.3558 418.58C34.8369 418.58 34.3729 418.462 33.9638 418.227C33.5566 417.992 33.2346 417.652 32.9979 417.207C32.763 416.762 32.6456 416.223 32.6456 415.591C32.6456 414.956 32.7649 414.417 33.0036 413.972C33.2422 413.527 33.5661 413.187 33.9751 412.955C34.3842 412.72 34.8445 412.602 35.3558 412.602C35.6929 412.602 36.0054 412.65 36.2933 412.744C36.5831 412.839 36.8397 412.977 37.0632 413.159C37.2867 413.339 37.4685 413.56 37.6087 413.821C37.7507 414.082 37.8416 414.382 37.8814 414.719ZM39.657 418.5H38.3388L40.3473 412.682H41.9325L43.9382 418.5H42.62L41.1626 414.011H41.1172L39.657 418.5ZM39.5746 416.213H42.6882V417.173H39.5746V416.213ZM44.6385 412.682H46.1555L47.7578 416.591H47.826L49.4283 412.682H50.9453V418.5H49.7521V414.713H49.7038L48.1982 418.472H47.3857L45.88 414.699H45.8317V418.5H44.6385V412.682Z" fill="white"/>
<rect x="181" y="539" width="46" height="14" rx="7" fill="#4B7497"/>
<path d="M189.568 549H187.506V543.182H189.585C190.17 543.182 190.674 543.298 191.097 543.531C191.519 543.762 191.844 544.095 192.071 544.528C192.3 544.962 192.415 545.481 192.415 546.085C192.415 546.691 192.3 547.212 192.071 547.648C191.844 548.083 191.517 548.418 191.091 548.651C190.667 548.884 190.159 549 189.568 549ZM188.736 547.946H189.517C189.881 547.946 190.187 547.882 190.435 547.753C190.685 547.622 190.872 547.42 190.997 547.148C191.124 546.873 191.188 546.519 191.188 546.085C191.188 545.655 191.124 545.304 190.997 545.031C190.872 544.759 190.686 544.558 190.438 544.429C190.189 544.3 189.884 544.236 189.52 544.236H188.736V547.946ZM194.001 549H192.683L194.691 543.182H196.276L198.282 549H196.964L195.506 544.511H195.461L194.001 549ZM193.918 546.713H197.032V547.673H193.918V546.713ZM203.849 543.182V549H202.786L200.255 545.338H200.212V549H198.982V543.182H200.062L202.573 546.841H202.624V543.182H203.849ZM208.723 545.062C208.683 544.924 208.627 544.802 208.555 544.696C208.483 544.588 208.395 544.497 208.291 544.423C208.189 544.348 208.071 544.29 207.939 544.25C207.808 544.21 207.663 544.19 207.504 544.19C207.207 544.19 206.946 544.264 206.72 544.412C206.497 544.56 206.322 544.775 206.197 545.057C206.072 545.337 206.01 545.68 206.01 546.085C206.01 546.491 206.071 546.835 206.195 547.119C206.318 547.403 206.492 547.62 206.717 547.77C206.943 547.918 207.209 547.991 207.516 547.991C207.794 547.991 208.032 547.942 208.229 547.844C208.428 547.743 208.579 547.602 208.683 547.42C208.789 547.239 208.842 547.024 208.842 546.776L209.092 546.812H207.592V545.886H210.027V546.619C210.027 547.131 209.919 547.57 209.703 547.938C209.487 548.303 209.19 548.585 208.811 548.784C208.432 548.981 207.999 549.08 207.51 549.08C206.964 549.08 206.485 548.959 206.072 548.719C205.66 548.476 205.338 548.133 205.107 547.688C204.877 547.241 204.763 546.71 204.763 546.097C204.763 545.625 204.831 545.205 204.967 544.835C205.106 544.464 205.299 544.15 205.547 543.892C205.795 543.634 206.084 543.438 206.413 543.304C206.743 543.17 207.1 543.102 207.484 543.102C207.814 543.102 208.121 543.151 208.405 543.247C208.689 543.342 208.941 543.476 209.161 543.651C209.382 543.825 209.563 544.032 209.703 544.273C209.843 544.511 209.933 544.775 209.973 545.062H208.723ZM210.951 549V543.182H214.871V544.196H212.181V545.582H214.67V546.597H212.181V547.986H214.883V549H210.951ZM215.849 549V543.182H218.145C218.584 543.182 218.959 543.26 219.27 543.418C219.582 543.573 219.82 543.794 219.983 544.08C220.148 544.364 220.23 544.698 220.23 545.082C220.23 545.469 220.147 545.801 219.98 546.08C219.813 546.356 219.572 546.568 219.256 546.716C218.941 546.864 218.561 546.938 218.114 546.938H216.577V545.949H217.915C218.15 545.949 218.345 545.917 218.5 545.852C218.655 545.788 218.771 545.691 218.847 545.562C218.924 545.434 218.963 545.274 218.963 545.082C218.963 544.889 218.924 544.726 218.847 544.594C218.771 544.461 218.654 544.361 218.497 544.293C218.342 544.223 218.146 544.188 217.909 544.188H217.08V549H215.849ZM218.991 546.352L220.438 549H219.08L217.665 546.352H218.991Z" fill="white"/>
<path opacity="0.7" d="M2236 464H2374.32C2383.01 464 2391.27 460.231 2396.97 453.668L2471.54 367.777C2479.14 359.026 2490.16 354 2501.74 354H2540M2237 475H2300.57C2308.53 475 2316.16 478.161 2321.79 483.787L2366.71 528.713C2372.34 534.339 2379.97 537.5 2387.93 537.5H2540" stroke="#4B7497"/>
<rect x="2408" y="530" width="69" height="14" rx="7" fill="#4B7497"/>
<path d="M2416.57 540H2414.51V534.182H2416.59C2417.17 534.182 2417.67 534.298 2418.1 534.531C2418.52 534.762 2418.84 535.095 2419.07 535.528C2419.3 535.962 2419.41 536.481 2419.41 537.085C2419.41 537.691 2419.3 538.212 2419.07 538.648C2418.84 539.083 2418.52 539.418 2418.09 539.651C2417.67 539.884 2417.16 540 2416.57 540ZM2415.74 538.946H2416.52C2416.88 538.946 2417.19 538.882 2417.43 538.753C2417.68 538.622 2417.87 538.42 2418 538.148C2418.12 537.873 2418.19 537.519 2418.19 537.085C2418.19 536.655 2418.12 536.304 2418 536.031C2417.87 535.759 2417.69 535.558 2417.44 535.429C2417.19 535.3 2416.88 535.236 2416.52 535.236H2415.74V538.946ZM2421.56 534.182V540H2420.33V534.182H2421.56ZM2422.57 540V534.182H2424.86C2425.3 534.182 2425.68 534.26 2425.99 534.418C2426.3 534.573 2426.54 534.794 2426.7 535.08C2426.87 535.364 2426.95 535.698 2426.95 536.082C2426.95 536.469 2426.87 536.801 2426.7 537.08C2426.53 537.356 2426.29 537.568 2425.97 537.716C2425.66 537.864 2425.28 537.938 2424.83 537.938H2423.3V536.949H2424.63C2424.87 536.949 2425.06 536.917 2425.22 536.852C2425.37 536.788 2425.49 536.691 2425.57 536.562C2425.64 536.434 2425.68 536.274 2425.68 536.082C2425.68 535.889 2425.64 535.726 2425.57 535.594C2425.49 535.461 2425.37 535.361 2425.22 535.293C2425.06 535.223 2424.86 535.188 2424.63 535.188H2423.8V540H2422.57ZM2425.71 537.352L2427.16 540H2425.8L2424.38 537.352H2425.71ZM2427.6 535.196V534.182H2432.38V535.196H2430.59V540H2429.38V535.196H2427.6ZM2432.82 534.182H2434.2L2435.53 536.688H2435.58L2436.91 534.182H2438.29L2436.16 537.943V540H2434.94V537.943L2432.82 534.182ZM2440.81 534.182H2442.33L2443.93 538.091H2444L2445.6 534.182H2447.12V540H2445.92V536.213H2445.88L2444.37 539.972H2443.56L2442.05 536.199H2442V540H2440.81V534.182ZM2453.48 537.091C2453.48 537.725 2453.36 538.265 2453.12 538.71C2452.88 539.155 2452.55 539.495 2452.14 539.73C2451.73 539.963 2451.27 540.08 2450.75 540.08C2450.24 540.08 2449.77 539.962 2449.36 539.727C2448.95 539.492 2448.63 539.152 2448.39 538.707C2448.15 538.262 2448.03 537.723 2448.03 537.091C2448.03 536.456 2448.15 535.917 2448.39 535.472C2448.63 535.027 2448.95 534.687 2449.36 534.455C2449.77 534.22 2450.24 534.102 2450.75 534.102C2451.27 534.102 2451.73 534.22 2452.14 534.455C2452.55 534.687 2452.88 535.027 2453.12 535.472C2453.36 535.917 2453.48 536.456 2453.48 537.091ZM2452.23 537.091C2452.23 536.68 2452.17 536.333 2452.05 536.051C2451.92 535.769 2451.75 535.555 2451.53 535.409C2451.31 535.263 2451.05 535.19 2450.75 535.19C2450.46 535.19 2450.2 535.263 2449.97 535.409C2449.75 535.555 2449.58 535.769 2449.46 536.051C2449.34 536.333 2449.28 536.68 2449.28 537.091C2449.28 537.502 2449.34 537.848 2449.46 538.131C2449.58 538.413 2449.75 538.627 2449.97 538.773C2450.2 538.919 2450.46 538.991 2450.75 538.991C2451.05 538.991 2451.31 538.919 2451.53 538.773C2451.75 538.627 2451.92 538.413 2452.05 538.131C2452.17 537.848 2452.23 537.502 2452.23 537.091ZM2459.25 534.182V540H2458.19L2455.66 536.338H2455.62V540H2454.39V534.182H2455.47L2457.98 537.841H2458.03V534.182H2459.25ZM2460.27 540V534.182H2464.19V535.196H2461.5V536.582H2463.99V537.597H2461.5V538.986H2464.2V540H2460.27ZM2464.83 534.182H2466.21L2467.53 536.688H2467.59L2468.92 534.182H2470.29L2468.17 537.943V540H2466.95V537.943L2464.83 534.182Z" fill="white"/>
<circle cx="2217" cy="470.5" r="20" stroke="#4B7497"/>
<path d="M2216.97 460.5V467.559L2222.93 470.225L2216.97 460.5Z" fill="#4B7497" fill-opacity="0.602"/>
<path d="M2216.97 460.5L2211 470.225L2216.97 467.559V460.5Z" fill="#4B7497"/>
<path d="M2216.97 474.798V479.595L2222.94 471.335L2216.97 474.798Z" fill="#4B7497" fill-opacity="0.602"/>
<path d="M2216.97 479.595V474.797L2211 471.335L2216.97 479.595Z" fill="#4B7497"/>
<path d="M2216.97 473.688L2222.93 470.224L2216.97 467.56V473.688Z" fill="#4B7497"/>
<path d="M2211 470.224L2216.97 473.688V467.56L2211 470.224Z" fill="#4B7497" fill-opacity="0.602"/>
<path d="M2390 534.5L2395 537.5L2390 540.5V534.5Z" fill="#4B7497"/>
<path d="M2318 461L2323 464L2318 467V461Z" fill="#4B7497"/>
<path d="M2510 351L2515 354L2510 357V351Z" fill="#4B7497"/>
</g>
<defs>
<linearGradient id="paint0_linear_251_2446" x1="1270" y1="0" x2="1270" y2="1190" gradientUnits="userSpaceOnUse">
<stop stop-color="#272770"/>
<stop offset="1" stop-color="#14286E"/>
</linearGradient>
<radialGradient id="paint1_radial_251_2446" cx="0" cy="0" r="1" gradientUnits="userSpaceOnUse" gradientTransform="translate(2488.93 -304.857) rotate(110.173) scale(1014.47 2030.92)">
<stop stop-color="#6139FF"/>
<stop offset="1" stop-color="#F364FF" stop-opacity="0"/>
</radialGradient>
<radialGradient id="paint2_radial_251_2446" cx="0" cy="0" r="1" gradientUnits="userSpaceOnUse" gradientTransform="translate(1313.41 631.361) rotate(172.584) scale(1091.01 439.525)">
<stop stop-color="#0057FF"/>
<stop offset="1" stop-color="#0057FF" stop-opacity="0"/>
</radialGradient>
<radialGradient id="paint3_radial_251_2446" cx="0" cy="0" r="1" gradientUnits="userSpaceOnUse" gradientTransform="translate(89.3767 316.094) rotate(36.5091) scale(1468.87 2604.42)">
<stop stop-color="#300060"/>
<stop offset="1" stop-color="#FF00E6" stop-opacity="0"/>
</radialGradient>
<radialGradient id="paint4_radial_251_2446" cx="0" cy="0" r="1" gradientUnits="userSpaceOnUse" gradientTransform="translate(1873.92 -225.163) rotate(127.564) scale(1034.69 1350.83)">
<stop stop-color="#0042A5"/>
<stop offset="1" stop-color="#00FF75" stop-opacity="0"/>
</radialGradient>
</defs>
</svg>
