<svg width="2540" height="1440" viewBox="0 0 2540 1440" fill="none" xmlns="http://www.w3.org/2000/svg">
<g filter="url(#filter0_f_162_20924)">
<ellipse cx="1270" cy="938" rx="534" ry="375" fill="#341960"/>
</g>
<g opacity="0.12">
<path opacity="0.7" d="M0 325.5H453.052C463.885 325.5 474.254 329.893 481.789 337.676L580.211 439.324C587.746 447.107 598.115 451.5 608.948 451.5H636M0 502.5H453.431C464.04 502.5 474.214 498.286 481.716 490.784L501.284 471.216C508.786 463.714 518.96 459.5 529.569 459.5H636" stroke="white"/>
<circle cx="656" cy="454.5" r="20" stroke="white"/>
<path fill-rule="evenodd" clip-rule="evenodd" d="M655.999 450.116L652.892 453.223L651.084 451.415L655.999 446.5L660.916 451.417L659.108 453.225L655.999 450.116ZM649.808 452.691L648 454.5L649.808 456.307L651.616 454.499L649.808 452.691ZM652.893 455.777L656.001 458.884L659.109 455.775L660.918 457.582L660.918 457.583L656.001 462.5L651.083 457.582L652.893 455.777ZM662.192 452.693L660.384 454.501L662.192 456.309L664 454.501L662.192 452.693Z" fill="white"/>
<path d="M657.835 454.499H657.836L656.002 452.665L654.169 454.498L654.166 454.5L654.169 454.503L656.002 456.336L657.836 454.501L657.837 454.5L657.835 454.499Z" fill="white"/>
<path d="M539 456.5L544 459.5L539 462.5V456.5Z" fill="white"/>
<path d="M442 322.5L447 325.5L442 328.5V322.5Z" fill="white"/>
<rect x="383" y="318.5" width="37" height="14" rx="7" fill="#7573C3"/>
<path d="M392.662 324.355C392.639 324.126 392.542 323.948 392.369 323.821C392.197 323.694 391.963 323.631 391.668 323.631C391.467 323.631 391.297 323.659 391.159 323.716C391.021 323.771 390.915 323.848 390.841 323.946C390.769 324.045 390.733 324.156 390.733 324.281C390.729 324.385 390.751 324.476 390.798 324.554C390.848 324.632 390.915 324.699 391 324.756C391.085 324.811 391.184 324.859 391.295 324.901C391.407 324.94 391.527 324.974 391.653 325.003L392.176 325.128C392.43 325.185 392.663 325.26 392.875 325.355C393.087 325.45 393.271 325.566 393.426 325.705C393.581 325.843 393.702 326.006 393.787 326.193C393.874 326.381 393.919 326.596 393.92 326.838C393.919 327.194 393.828 327.503 393.648 327.764C393.47 328.024 393.212 328.225 392.875 328.369C392.54 328.511 392.135 328.582 391.662 328.582C391.192 328.582 390.783 328.51 390.435 328.366C390.088 328.223 389.817 328.009 389.622 327.727C389.429 327.443 389.328 327.092 389.318 326.673H390.509C390.522 326.868 390.578 327.031 390.676 327.162C390.777 327.291 390.91 327.388 391.077 327.455C391.245 327.519 391.436 327.551 391.648 327.551C391.856 327.551 392.037 327.521 392.19 327.46C392.346 327.4 392.466 327.315 392.551 327.207C392.636 327.099 392.679 326.975 392.679 326.835C392.679 326.705 392.64 326.595 392.562 326.506C392.487 326.417 392.375 326.341 392.227 326.278C392.081 326.216 391.902 326.159 391.69 326.108L391.057 325.949C390.566 325.83 390.179 325.643 389.895 325.389C389.611 325.135 389.47 324.794 389.472 324.364C389.47 324.011 389.563 323.704 389.753 323.44C389.944 323.177 390.206 322.972 390.54 322.824C390.873 322.676 391.252 322.602 391.676 322.602C392.108 322.602 392.485 322.676 392.807 322.824C393.131 322.972 393.383 323.177 393.562 323.44C393.742 323.704 393.835 324.009 393.841 324.355H392.662ZM399.881 324.719H398.637C398.614 324.558 398.568 324.415 398.498 324.29C398.428 324.163 398.338 324.055 398.228 323.966C398.118 323.877 397.991 323.809 397.847 323.761C397.705 323.714 397.551 323.69 397.384 323.69C397.083 323.69 396.821 323.765 396.597 323.915C396.374 324.062 396.201 324.278 396.077 324.562C395.954 324.845 395.893 325.187 395.893 325.591C395.893 326.006 395.954 326.354 396.077 326.636C396.202 326.919 396.377 327.132 396.6 327.276C396.824 327.42 397.082 327.491 397.376 327.491C397.54 327.491 397.693 327.47 397.833 327.426C397.975 327.383 398.101 327.319 398.211 327.236C398.321 327.151 398.412 327.047 398.484 326.926C398.558 326.805 398.609 326.667 398.637 326.511L399.881 326.517C399.849 326.784 399.769 327.042 399.64 327.29C399.513 327.536 399.342 327.757 399.126 327.952C398.912 328.145 398.656 328.298 398.359 328.412C398.063 328.524 397.729 328.58 397.356 328.58C396.837 328.58 396.373 328.462 395.964 328.227C395.557 327.992 395.235 327.652 394.998 327.207C394.763 326.762 394.646 326.223 394.646 325.591C394.646 324.956 394.765 324.417 395.004 323.972C395.242 323.527 395.566 323.187 395.975 322.955C396.384 322.72 396.844 322.602 397.356 322.602C397.693 322.602 398.005 322.65 398.293 322.744C398.583 322.839 398.84 322.977 399.063 323.159C399.287 323.339 399.469 323.56 399.609 323.821C399.751 324.082 399.842 324.382 399.881 324.719ZM401.657 328.5H400.339L402.347 322.682H403.933L405.938 328.5H404.62L403.163 324.011H403.117L401.657 328.5ZM401.575 326.213H404.688V327.173H401.575V326.213ZM406.638 322.682H408.156L409.758 326.591H409.826L411.428 322.682H412.945V328.5H411.752V324.713H411.704L410.198 328.472H409.386L407.88 324.699H407.832V328.5H406.638V322.682Z" fill="white"/>
<path opacity="0.7" d="M813 752H612.725C601.148 752 590.138 757.016 582.541 765.753L486.459 876.247C478.862 884.984 467.852 890 456.275 890H0" stroke="white"/>
<circle cx="834" cy="752" r="20" stroke="white"/>
<path d="M842 750V750C843.105 750 844 750.895 844 752V752C844 753.105 843.105 754 842 754V754M842 750H840C838.895 750 838 750.895 838 752V752C838 753.105 838.895 754 840 754H842M842 750V747C842 745.895 841.105 745 840 745H828C826.895 745 826 745.895 826 747V757C826 758.105 826.895 759 828 759H840C841.105 759 842 758.105 842 757V754" stroke="white"/>
<path d="M769 748.5L774 751.5L769 754.5V748.5Z" fill="white"/>
<rect x="643" y="743.5" width="69" height="14" rx="7" fill="#7573C3"/>
<path d="M651.568 753.5H649.506V747.682H651.585C652.17 747.682 652.674 747.798 653.097 748.031C653.519 748.262 653.844 748.595 654.071 749.028C654.3 749.462 654.415 749.981 654.415 750.585C654.415 751.191 654.3 751.712 654.071 752.148C653.844 752.583 653.517 752.918 653.091 753.151C652.667 753.384 652.159 753.5 651.568 753.5ZM650.736 752.446H651.517C651.881 752.446 652.187 752.382 652.435 752.253C652.685 752.122 652.872 751.92 652.997 751.648C653.124 751.373 653.188 751.019 653.188 750.585C653.188 750.155 653.124 749.804 652.997 749.531C652.872 749.259 652.686 749.058 652.438 748.929C652.189 748.8 651.884 748.736 651.52 748.736H650.736V752.446ZM656.556 747.682V753.5H655.326V747.682H656.556ZM657.568 753.5V747.682H659.864C660.303 747.682 660.678 747.76 660.989 747.918C661.301 748.073 661.539 748.294 661.702 748.58C661.866 748.864 661.949 749.198 661.949 749.582C661.949 749.969 661.866 750.301 661.699 750.58C661.532 750.856 661.291 751.068 660.974 751.216C660.66 751.364 660.279 751.438 659.832 751.438H658.295V750.449H659.634C659.868 750.449 660.063 750.417 660.219 750.352C660.374 750.288 660.49 750.191 660.565 750.062C660.643 749.934 660.682 749.774 660.682 749.582C660.682 749.389 660.643 749.226 660.565 749.094C660.49 748.961 660.373 748.861 660.216 748.793C660.061 748.723 659.865 748.688 659.628 748.688H658.798V753.5H657.568ZM660.71 750.852L662.156 753.5H660.798L659.384 750.852H660.71ZM662.597 748.696V747.682H667.375V748.696H665.594V753.5H664.378V748.696H662.597ZM667.821 747.682H669.199L670.526 750.188H670.582L671.909 747.682H673.287L671.165 751.443V753.5H669.943V751.443L667.821 747.682ZM675.81 747.682H677.327L678.93 751.591H678.998L680.6 747.682H682.117V753.5H680.924V749.713H680.876L679.37 753.472H678.558L677.052 749.699H677.004V753.5H675.81V747.682ZM688.477 750.591C688.477 751.225 688.357 751.765 688.116 752.21C687.878 752.655 687.552 752.995 687.139 753.23C686.728 753.463 686.266 753.58 685.753 753.58C685.236 753.58 684.772 753.462 684.361 753.227C683.95 752.992 683.625 752.652 683.386 752.207C683.148 751.762 683.028 751.223 683.028 750.591C683.028 749.956 683.148 749.417 683.386 748.972C683.625 748.527 683.95 748.187 684.361 747.955C684.772 747.72 685.236 747.602 685.753 747.602C686.266 747.602 686.728 747.72 687.139 747.955C687.552 748.187 687.878 748.527 688.116 748.972C688.357 749.417 688.477 749.956 688.477 750.591ZM687.23 750.591C687.23 750.18 687.169 749.833 687.045 749.551C686.924 749.269 686.753 749.055 686.531 748.909C686.31 748.763 686.05 748.69 685.753 748.69C685.455 748.69 685.196 748.763 684.974 748.909C684.753 749.055 684.58 749.269 684.457 749.551C684.336 749.833 684.276 750.18 684.276 750.591C684.276 751.002 684.336 751.348 684.457 751.631C684.58 751.913 684.753 752.127 684.974 752.273C685.196 752.419 685.455 752.491 685.753 752.491C686.05 752.491 686.31 752.419 686.531 752.273C686.753 752.127 686.924 751.913 687.045 751.631C687.169 751.348 687.23 751.002 687.23 750.591ZM694.255 747.682V753.5H693.192L690.661 749.838H690.619V753.5H689.388V747.682H690.468L692.979 751.341H693.031V747.682H694.255ZM695.271 753.5V747.682H699.192V748.696H696.501V750.082H698.99V751.097H696.501V752.486H699.203V753.5H695.271ZM699.829 747.682H701.207L702.533 750.188H702.59L703.917 747.682H705.295L703.173 751.443V753.5H701.951V751.443L699.829 747.682Z" fill="white"/>
<path opacity="0.7" d="M2354.5 323H2431.93C2442.54 323 2452.71 318.786 2460.22 311.284L2537.5 234" stroke="white"/>
<path d="M2323.5 306.887C2320.08 304.142 2315.73 302.5 2311 302.5C2299.95 302.5 2291 311.454 2291 322.5C2291 333.546 2299.95 342.5 2311 342.5C2315.73 342.5 2320.08 340.858 2323.5 338.113" stroke="white"/>
<circle cx="2335" cy="322.5" r="20" stroke="white"/>
<circle cx="2335" cy="322.5" r="20" stroke="white"/>
<path d="M2343 320.5V320.5C2344.1 320.5 2345 321.395 2345 322.5V322.5C2345 323.605 2344.1 324.5 2343 324.5V324.5M2343 320.5H2341C2339.9 320.5 2339 321.395 2339 322.5V322.5C2339 323.605 2339.9 324.5 2341 324.5H2343M2343 320.5V317.5C2343 316.395 2342.1 315.5 2341 315.5H2329C2327.9 315.5 2327 316.395 2327 317.5V327.5C2327 328.605 2327.9 329.5 2329 329.5H2341C2342.1 329.5 2343 328.605 2343 327.5V324.5" stroke="white"/>
<path d="M2343 320.5V320.5C2344.1 320.5 2345 321.395 2345 322.5V322.5C2345 323.605 2344.1 324.5 2343 324.5V324.5M2343 320.5H2341C2339.9 320.5 2339 321.395 2339 322.5V322.5C2339 323.605 2339.9 324.5 2341 324.5H2343M2343 320.5V317.5C2343 316.395 2342.1 315.5 2341 315.5H2329C2327.9 315.5 2327 316.395 2327 317.5V327.5C2327 328.605 2327.9 329.5 2329 329.5H2341C2342.1 329.5 2343 328.605 2343 327.5V324.5" stroke="white"/>
<path d="M2313.61 322.845C2313.28 322.424 2312.8 322.135 2312.15 321.978C2312.98 321.552 2313.34 320.828 2313.24 319.807C2313.21 319.437 2313.11 319.116 2312.94 318.844C2312.77 318.572 2312.54 318.354 2312.25 318.188C2311.96 318.023 2311.65 317.896 2311.31 317.81C2310.97 317.723 2310.58 317.659 2310.15 317.62L2310.15 315.5H2308.87L2308.87 317.561C2308.64 317.561 2308.31 317.567 2307.85 317.578L2307.85 315.5H2306.57L2306.57 317.62C2306.39 317.626 2306.12 317.629 2305.76 317.629L2304 317.62L2304 319H2304.92C2305.34 319 2305.59 319.191 2305.66 319.572L2305.66 321.987C2305.72 321.987 2305.76 321.99 2305.8 321.995H2305.66L2305.66 325.378C2305.62 325.664 2305.46 325.807 2305.18 325.807H2304.26L2304 327.346H2305.66C2305.77 327.346 2305.92 327.348 2306.12 327.35C2306.32 327.353 2306.47 327.355 2306.57 327.355L2306.57 329.5H2307.85L2307.85 327.38C2308.08 327.386 2308.42 327.388 2308.87 327.388L2308.87 329.5H2310.15L2310.15 327.355C2310.6 327.332 2311 327.29 2311.36 327.228C2311.71 327.167 2312.05 327.07 2312.37 326.938C2312.69 326.806 2312.96 326.642 2313.17 326.446C2313.39 326.25 2313.57 326 2313.71 325.697C2313.85 325.394 2313.94 325.043 2313.98 324.645C2314.05 323.866 2313.93 323.265 2313.61 322.845ZM2307.88 319.092C2307.91 319.092 2308.02 319.091 2308.2 319.088C2308.38 319.085 2308.53 319.082 2308.65 319.08C2308.77 319.077 2308.93 319.084 2309.14 319.101C2309.34 319.118 2309.51 319.14 2309.65 319.168C2309.79 319.196 2309.94 319.242 2310.1 319.307C2310.27 319.371 2310.4 319.45 2310.5 319.542C2310.6 319.635 2310.69 319.753 2310.76 319.896C2310.83 320.039 2310.86 320.203 2310.86 320.388C2310.86 320.545 2310.84 320.688 2310.79 320.817C2310.74 320.946 2310.66 321.054 2310.56 321.141C2310.46 321.228 2310.36 321.304 2310.25 321.368C2310.15 321.433 2310.01 321.485 2309.85 321.524C2309.69 321.563 2309.54 321.594 2309.42 321.616C2309.3 321.639 2309.15 321.654 2308.97 321.663C2308.78 321.671 2308.64 321.677 2308.55 321.68C2308.46 321.682 2308.33 321.682 2308.16 321.68C2308 321.677 2307.9 321.675 2307.88 321.675L2307.88 319.092H2307.88L2307.88 319.092ZM2311.37 324.822C2311.32 324.951 2311.25 325.063 2311.17 325.159C2311.09 325.254 2310.98 325.338 2310.84 325.411C2310.7 325.484 2310.57 325.543 2310.45 325.588C2310.32 325.633 2310.16 325.672 2309.98 325.705C2309.8 325.739 2309.65 325.763 2309.51 325.777C2309.37 325.791 2309.21 325.802 2309.02 325.811C2308.83 325.819 2308.69 325.823 2308.58 325.823C2308.48 325.823 2308.34 325.822 2308.18 325.819C2308.02 325.816 2307.92 325.815 2307.88 325.815L2307.88 322.971C2307.92 322.971 2308.05 322.968 2308.27 322.963C2308.49 322.957 2308.67 322.954 2308.81 322.954C2308.95 322.954 2309.14 322.963 2309.38 322.979C2309.62 322.996 2309.83 323.021 2310 323.055C2310.16 323.089 2310.34 323.14 2310.54 323.211C2310.74 323.281 2310.9 323.366 2311.02 323.467C2311.14 323.568 2311.24 323.697 2311.33 323.854C2311.41 324.011 2311.45 324.191 2311.45 324.393C2311.45 324.55 2311.43 324.693 2311.37 324.822Z" fill="white"/>
<rect x="2375" y="315.5" width="46" height="14" rx="7" fill="#7573C3"/>
<path d="M2383.57 325.5H2381.51V319.682H2383.59C2384.17 319.682 2384.67 319.798 2385.1 320.031C2385.52 320.262 2385.84 320.595 2386.07 321.028C2386.3 321.462 2386.41 321.981 2386.41 322.585C2386.41 323.191 2386.3 323.712 2386.07 324.148C2385.84 324.583 2385.52 324.918 2385.09 325.151C2384.67 325.384 2384.16 325.5 2383.57 325.5ZM2382.74 324.446H2383.52C2383.88 324.446 2384.19 324.382 2384.43 324.253C2384.68 324.122 2384.87 323.92 2385 323.648C2385.12 323.373 2385.19 323.019 2385.19 322.585C2385.19 322.155 2385.12 321.804 2385 321.531C2384.87 321.259 2384.69 321.058 2384.44 320.929C2384.19 320.8 2383.88 320.736 2383.52 320.736H2382.74V324.446ZM2388 325.5H2386.68L2388.69 319.682H2390.28L2392.28 325.5H2390.96L2389.51 321.011H2389.46L2388 325.5ZM2387.92 323.213H2391.03V324.173H2387.92V323.213ZM2397.85 319.682V325.5H2396.79L2394.25 321.838H2394.21V325.5H2392.98V319.682H2394.06L2396.57 323.341H2396.62V319.682H2397.85ZM2402.72 321.562C2402.68 321.424 2402.63 321.302 2402.56 321.196C2402.48 321.088 2402.4 320.997 2402.29 320.923C2402.19 320.848 2402.07 320.79 2401.94 320.75C2401.81 320.71 2401.66 320.69 2401.5 320.69C2401.21 320.69 2400.95 320.764 2400.72 320.912C2400.5 321.06 2400.32 321.275 2400.2 321.557C2400.07 321.837 2400.01 322.18 2400.01 322.585C2400.01 322.991 2400.07 323.335 2400.19 323.619C2400.32 323.903 2400.49 324.12 2400.72 324.27C2400.94 324.418 2401.21 324.491 2401.52 324.491C2401.79 324.491 2402.03 324.442 2402.23 324.344C2402.43 324.243 2402.58 324.102 2402.68 323.92C2402.79 323.739 2402.84 323.524 2402.84 323.276L2403.09 323.312H2401.59V322.386H2404.03V323.119C2404.03 323.631 2403.92 324.07 2403.7 324.438C2403.49 324.803 2403.19 325.085 2402.81 325.284C2402.43 325.481 2402 325.58 2401.51 325.58C2400.96 325.58 2400.49 325.459 2400.07 325.219C2399.66 324.976 2399.34 324.633 2399.11 324.188C2398.88 323.741 2398.76 323.21 2398.76 322.597C2398.76 322.125 2398.83 321.705 2398.97 321.335C2399.11 320.964 2399.3 320.65 2399.55 320.392C2399.79 320.134 2400.08 319.938 2400.41 319.804C2400.74 319.67 2401.1 319.602 2401.48 319.602C2401.81 319.602 2402.12 319.651 2402.4 319.747C2402.69 319.842 2402.94 319.976 2403.16 320.151C2403.38 320.325 2403.56 320.532 2403.7 320.773C2403.84 321.011 2403.93 321.275 2403.97 321.562H2402.72ZM2404.95 325.5V319.682H2408.87V320.696H2406.18V322.082H2408.67V323.097H2406.18V324.486H2408.88V325.5H2404.95ZM2409.85 325.5V319.682H2412.14C2412.58 319.682 2412.96 319.76 2413.27 319.918C2413.58 320.073 2413.82 320.294 2413.98 320.58C2414.15 320.864 2414.23 321.198 2414.23 321.582C2414.23 321.969 2414.15 322.301 2413.98 322.58C2413.81 322.856 2413.57 323.068 2413.26 323.216C2412.94 323.364 2412.56 323.438 2412.11 323.438H2410.58V322.449H2411.91C2412.15 322.449 2412.34 322.417 2412.5 322.352C2412.66 322.288 2412.77 322.191 2412.85 322.062C2412.92 321.934 2412.96 321.774 2412.96 321.582C2412.96 321.389 2412.92 321.226 2412.85 321.094C2412.77 320.961 2412.65 320.861 2412.5 320.793C2412.34 320.723 2412.15 320.688 2411.91 320.688H2411.08V325.5H2409.85ZM2412.99 322.852L2414.44 325.5H2413.08L2411.66 322.852H2412.99Z" fill="white"/>
<path opacity="0.7" d="M1738 753.5H1856.04C1866.29 753.5 1876.14 749.567 1883.58 742.512L1978.42 652.488C1985.86 645.433 1995.71 641.5 2005.96 641.5H2536M1899 487.5H1954.02C1964.87 487.5 1975.26 491.91 1982.8 499.718L2084.7 605.282C2092.24 613.09 2102.63 617.5 2113.48 617.5H2536" stroke="white"/>
<circle cx="1878" cy="488" r="20" stroke="white"/>
<circle cx="1720" cy="752" r="20" stroke="white"/>
<path fill-rule="evenodd" clip-rule="evenodd" d="M1720 747.616L1716.89 750.723L1715.08 748.915L1720 744L1724.92 748.917L1723.11 750.725L1720 747.616ZM1713.81 750.191L1712 752L1713.81 753.807L1715.62 751.999L1713.81 750.191ZM1716.89 753.277L1720 756.384L1723.11 753.275L1724.92 755.082L1724.92 755.083L1720 760L1715.08 755.082L1716.89 753.277ZM1726.19 750.193L1724.38 752.001L1726.19 753.809L1728 752.001L1726.19 750.193Z" fill="white"/>
<path d="M1721.84 751.999H1721.84L1720 750.165L1718.17 751.998L1718.17 752L1718.17 752.003L1720 753.836L1721.84 752.001L1721.84 752L1721.84 751.999Z" fill="white"/>
<path d="M1836 750.5L1841 753.5L1836 756.5V750.5Z" fill="white"/>
<path d="M2015 638.5L2020 641.5L2015 644.5V638.5Z" fill="white"/>
<path d="M1939 485L1944 488L1939 491V485Z" fill="white"/>
<rect x="1766" y="746.5" width="46" height="14" rx="7" fill="#7573C3"/>
<path d="M1774.57 756.5H1772.51V750.682H1774.59C1775.17 750.682 1775.67 750.798 1776.1 751.031C1776.52 751.262 1776.84 751.595 1777.07 752.028C1777.3 752.462 1777.41 752.981 1777.41 753.585C1777.41 754.191 1777.3 754.712 1777.07 755.148C1776.84 755.583 1776.52 755.918 1776.09 756.151C1775.67 756.384 1775.16 756.5 1774.57 756.5ZM1773.74 755.446H1774.52C1774.88 755.446 1775.19 755.382 1775.43 755.253C1775.68 755.122 1775.87 754.92 1776 754.648C1776.12 754.373 1776.19 754.019 1776.19 753.585C1776.19 753.155 1776.12 752.804 1776 752.531C1775.87 752.259 1775.69 752.058 1775.44 751.929C1775.19 751.8 1774.88 751.736 1774.52 751.736H1773.74V755.446ZM1779 756.5H1777.68L1779.69 750.682H1781.28L1783.28 756.5H1781.96L1780.51 752.011H1780.46L1779 756.5ZM1778.92 754.213H1782.03V755.173H1778.92V754.213ZM1788.85 750.682V756.5H1787.79L1785.25 752.838H1785.21V756.5H1783.98V750.682H1785.06L1787.57 754.341H1787.62V750.682H1788.85ZM1793.72 752.562C1793.68 752.424 1793.63 752.302 1793.56 752.196C1793.48 752.088 1793.4 751.997 1793.29 751.923C1793.19 751.848 1793.07 751.79 1792.94 751.75C1792.81 751.71 1792.66 751.69 1792.5 751.69C1792.21 751.69 1791.95 751.764 1791.72 751.912C1791.5 752.06 1791.32 752.275 1791.2 752.557C1791.07 752.837 1791.01 753.18 1791.01 753.585C1791.01 753.991 1791.07 754.335 1791.19 754.619C1791.32 754.903 1791.49 755.12 1791.72 755.27C1791.94 755.418 1792.21 755.491 1792.52 755.491C1792.79 755.491 1793.03 755.442 1793.23 755.344C1793.43 755.243 1793.58 755.102 1793.68 754.92C1793.79 754.739 1793.84 754.524 1793.84 754.276L1794.09 754.312H1792.59V753.386H1795.03V754.119C1795.03 754.631 1794.92 755.07 1794.7 755.438C1794.49 755.803 1794.19 756.085 1793.81 756.284C1793.43 756.481 1793 756.58 1792.51 756.58C1791.96 756.58 1791.49 756.459 1791.07 756.219C1790.66 755.976 1790.34 755.633 1790.11 755.188C1789.88 754.741 1789.76 754.21 1789.76 753.597C1789.76 753.125 1789.83 752.705 1789.97 752.335C1790.11 751.964 1790.3 751.65 1790.55 751.392C1790.79 751.134 1791.08 750.938 1791.41 750.804C1791.74 750.67 1792.1 750.602 1792.48 750.602C1792.81 750.602 1793.12 750.651 1793.4 750.747C1793.69 750.842 1793.94 750.976 1794.16 751.151C1794.38 751.325 1794.56 751.532 1794.7 751.773C1794.84 752.011 1794.93 752.275 1794.97 752.562H1793.72ZM1795.95 756.5V750.682H1799.87V751.696H1797.18V753.082H1799.67V754.097H1797.18V755.486H1799.88V756.5H1795.95ZM1800.85 756.5V750.682H1803.14C1803.58 750.682 1803.96 750.76 1804.27 750.918C1804.58 751.073 1804.82 751.294 1804.98 751.58C1805.15 751.864 1805.23 752.198 1805.23 752.582C1805.23 752.969 1805.15 753.301 1804.98 753.58C1804.81 753.856 1804.57 754.068 1804.26 754.216C1803.94 754.364 1803.56 754.438 1803.11 754.438H1801.58V753.449H1802.91C1803.15 753.449 1803.34 753.417 1803.5 753.352C1803.66 753.288 1803.77 753.191 1803.85 753.062C1803.92 752.934 1803.96 752.774 1803.96 752.582C1803.96 752.389 1803.92 752.226 1803.85 752.094C1803.77 751.961 1803.65 751.861 1803.5 751.793C1803.34 751.723 1803.15 751.688 1802.91 751.688H1802.08V756.5H1800.85ZM1803.99 753.852L1805.44 756.5H1804.08L1802.66 753.852H1803.99Z" fill="white"/>
<path d="M1877.97 479V486.059L1883.93 488.725L1877.97 479Z" fill="white" fill-opacity="0.602"/>
<path d="M1877.97 479L1872 488.725L1877.97 486.059V479Z" fill="white"/>
<path d="M1877.97 493.298V498.095L1883.94 489.835L1877.97 493.298Z" fill="white" fill-opacity="0.602"/>
<path d="M1877.97 498.095V493.297L1872 489.835L1877.97 498.095Z" fill="white"/>
<path d="M1877.97 492.188L1883.93 488.724L1877.97 486.06V492.188Z" fill="white"/>
<path d="M1872 488.724L1877.97 492.188V486.06L1872 488.724Z" fill="white" fill-opacity="0.602"/>
<path opacity="0.7" d="M468.5 660H284.18C273.211 660 262.723 664.505 255.171 672.46L241.329 687.04C233.777 694.995 223.289 699.5 212.32 699.5H0" stroke="white" stroke-dasharray="4 4"/>
<circle cx="473" cy="660" r="4" fill="white"/>
<path opacity="0.7" d="M2539.5 525H2180" stroke="white" stroke-dasharray="4 4"/>
<circle cx="2175" cy="525" r="4" fill="white"/>
</g>
<defs>
<filter id="filter0_f_162_20924" x="36" y="-137" width="2468" height="2150" filterUnits="userSpaceOnUse" color-interpolation-filters="sRGB">
<feFlood flood-opacity="0" result="BackgroundImageFix"/>
<feBlend mode="normal" in="SourceGraphic" in2="BackgroundImageFix" result="shape"/>
<feGaussianBlur stdDeviation="350" result="effect1_foregroundBlur_162_20924"/>
</filter>
</defs>
</svg>
