<svg width="1127" height="294" viewBox="0 0 1127 294" fill="none" xmlns="http://www.w3.org/2000/svg">
<g clip-path="url(#clip0_153_26691)">
<path d="M-0.000116587 224.173L1137.64 224.173" stroke="url(#paint0_linear_153_26691)" stroke-opacity="0.7" stroke-width="1.33058" stroke-dasharray="4 4"/>
<path d="M-0.000116587 198.892L1137.64 198.892" stroke="url(#paint1_linear_153_26691)" stroke-opacity="0.7" stroke-width="1.33058" stroke-dasharray="4 4"/>
</g>
<path d="M522.917 293.359L522.917 33.8594" stroke="url(#paint2_linear_153_26691)" stroke-opacity="0.7" stroke-width="1.33058" stroke-dasharray="4 4"/>
<g filter="url(#filter0_d_153_26691)">
<circle cx="522.918" cy="224.173" r="5.32231" fill="white"/>
<circle cx="522.918" cy="224.173" r="3.99174" stroke="#F66F87" stroke-width="2.66116"/>
</g>
<g filter="url(#filter1_d_153_26691)">
<circle cx="522.918" cy="198.892" r="5.32231" fill="white"/>
<circle cx="522.918" cy="198.892" r="3.99174" stroke="#C36BFA" stroke-width="2.66116"/>
</g>
<rect x="494.975" y="261.429" width="57.2149" height="29.2727" rx="5.32231" fill="#0057FF"/>
<path d="M532.478 260.04L524.523 251.48C523.662 250.553 522.172 250.553 521.311 251.48L513.355 260.04C512.533 260.925 510.835 261.43 509.611 261.43H536.223C535 261.43 533.301 260.925 532.478 260.04Z" fill="#0057FF"/>
<path d="M506.837 269.981C507.355 269.985 507.865 270.079 508.368 270.264C508.87 270.45 509.324 270.752 509.729 271.172C510.137 271.591 510.462 272.158 510.704 272.873C510.949 273.583 511.074 274.468 511.078 275.526C511.078 276.543 510.976 277.448 510.772 278.242C510.568 279.032 510.275 279.699 509.893 280.244C509.515 280.788 509.056 281.202 508.515 281.485C507.975 281.769 507.366 281.911 506.689 281.911C505.998 281.911 505.383 281.775 504.847 281.502C504.31 281.23 503.873 280.854 503.537 280.374C503.2 279.89 502.991 279.335 502.907 278.707H504.637C504.75 279.206 504.981 279.611 505.329 279.921C505.68 280.227 506.134 280.38 506.689 280.38C507.54 280.38 508.203 280.009 508.68 279.268C509.156 278.524 509.396 277.484 509.4 276.15H509.309C509.112 276.475 508.867 276.755 508.572 276.989C508.281 277.223 507.954 277.405 507.591 277.533C507.228 277.662 506.841 277.726 506.429 277.726C505.759 277.726 505.151 277.562 504.603 277.233C504.055 276.904 503.618 276.452 503.293 275.878C502.968 275.303 502.805 274.647 502.805 273.91C502.805 273.177 502.972 272.512 503.304 271.914C503.641 271.317 504.109 270.845 504.71 270.497C505.315 270.145 506.024 269.973 506.837 269.981ZM506.842 271.455C506.4 271.455 506.001 271.565 505.646 271.784C505.294 271.999 505.017 272.292 504.813 272.663C504.608 273.029 504.506 273.438 504.506 273.888C504.506 274.337 504.605 274.746 504.801 275.112C505.002 275.475 505.274 275.764 505.618 275.98C505.965 276.191 506.362 276.297 506.808 276.297C507.141 276.297 507.451 276.233 507.738 276.105C508.026 275.976 508.277 275.798 508.492 275.572C508.708 275.341 508.876 275.08 508.997 274.789C509.118 274.498 509.179 274.192 509.179 273.871C509.179 273.443 509.076 273.046 508.872 272.68C508.672 272.313 508.396 272.018 508.044 271.795C507.693 271.568 507.292 271.455 506.842 271.455ZM518.492 281.752H516.632L520.811 270.14H522.835L527.014 281.752H525.154L521.871 272.249H521.78L518.492 281.752ZM518.803 277.205H524.836V278.679H518.803V277.205ZM528.555 285.018V273.043H530.21V274.455H530.352C530.45 274.273 530.592 274.063 530.777 273.825C530.962 273.587 531.22 273.379 531.548 273.201C531.877 273.02 532.312 272.929 532.852 272.929C533.556 272.929 534.183 273.107 534.735 273.462C535.287 273.818 535.72 274.33 536.033 274.999C536.351 275.668 536.51 276.473 536.51 277.414C536.51 278.356 536.353 279.163 536.039 279.835C535.725 280.505 535.294 281.021 534.746 281.383C534.198 281.743 533.573 281.922 532.87 281.922C532.34 281.922 531.907 281.833 531.571 281.656C531.238 281.478 530.978 281.27 530.789 281.032C530.6 280.794 530.454 280.582 530.352 280.397H530.25V285.018H528.555ZM530.216 277.397C530.216 278.01 530.305 278.546 530.482 279.008C530.66 279.469 530.917 279.83 531.254 280.091C531.59 280.348 532.002 280.476 532.49 280.476C532.996 280.476 533.42 280.342 533.76 280.074C534.1 279.801 534.357 279.433 534.531 278.968C534.709 278.503 534.797 277.979 534.797 277.397C534.797 276.823 534.71 276.307 534.537 275.849C534.366 275.392 534.109 275.031 533.765 274.766C533.425 274.502 533 274.37 532.49 274.37C531.998 274.37 531.582 274.496 531.242 274.749C530.906 275.003 530.651 275.356 530.477 275.81C530.303 276.263 530.216 276.793 530.216 277.397ZM538.409 281.752V273.043H540.048V274.426H540.139C540.297 273.957 540.577 273.589 540.978 273.321C541.382 273.048 541.84 272.912 542.35 272.912C542.456 272.912 542.58 272.916 542.724 272.924C542.872 272.931 542.987 272.941 543.07 272.952V274.574C543.002 274.555 542.881 274.534 542.707 274.511C542.533 274.485 542.359 274.472 542.185 274.472C541.785 274.472 541.428 274.557 541.114 274.727C540.804 274.893 540.558 275.126 540.377 275.424C540.195 275.719 540.105 276.055 540.105 276.433V281.752H538.409Z" fill="white"/>
<defs>
<filter id="filter0_d_153_26691" x="512.273" y="216.19" width="21.2892" height="21.2892" filterUnits="userSpaceOnUse" color-interpolation-filters="sRGB">
<feFlood flood-opacity="0" result="BackgroundImageFix"/>
<feColorMatrix in="SourceAlpha" type="matrix" values="0 0 0 0 0 0 0 0 0 0 0 0 0 0 0 0 0 0 127 0" result="hardAlpha"/>
<feOffset dy="2.66116"/>
<feGaussianBlur stdDeviation="2.66116"/>
<feColorMatrix type="matrix" values="0 0 0 0 0 0 0 0 0 0.0386667 0 0 0 0 0.241667 0 0 0 0.16 0"/>
<feBlend mode="normal" in2="BackgroundImageFix" result="effect1_dropShadow_153_26691"/>
<feBlend mode="normal" in="SourceGraphic" in2="effect1_dropShadow_153_26691" result="shape"/>
</filter>
<filter id="filter1_d_153_26691" x="512.273" y="190.909" width="21.2892" height="21.2892" filterUnits="userSpaceOnUse" color-interpolation-filters="sRGB">
<feFlood flood-opacity="0" result="BackgroundImageFix"/>
<feColorMatrix in="SourceAlpha" type="matrix" values="0 0 0 0 0 0 0 0 0 0 0 0 0 0 0 0 0 0 127 0" result="hardAlpha"/>
<feOffset dy="2.66116"/>
<feGaussianBlur stdDeviation="2.66116"/>
<feColorMatrix type="matrix" values="0 0 0 0 0 0 0 0 0 0.0386667 0 0 0 0 0.241667 0 0 0 0.16 0"/>
<feBlend mode="normal" in2="BackgroundImageFix" result="effect1_dropShadow_153_26691"/>
<feBlend mode="normal" in="SourceGraphic" in2="effect1_dropShadow_153_26691" result="shape"/>
</filter>
<linearGradient id="paint0_linear_153_26691" x1="-0.00012207" y1="223.673" x2="1137.64" y2="223.673" gradientUnits="userSpaceOnUse">
<stop stop-color="#5F7097" stop-opacity="0"/>
<stop offset="0.270009" stop-color="#5F7097"/>
<stop offset="0.770009" stop-color="#5F7097"/>
<stop offset="1" stop-color="#5F7097" stop-opacity="0"/>
</linearGradient>
<linearGradient id="paint1_linear_153_26691" x1="-0.00012207" y1="198.392" x2="1137.64" y2="198.392" gradientUnits="userSpaceOnUse">
<stop stop-color="#5F7097" stop-opacity="0"/>
<stop offset="0.270009" stop-color="#5F7097"/>
<stop offset="0.770009" stop-color="#5F7097"/>
<stop offset="1" stop-color="#5F7097" stop-opacity="0"/>
</linearGradient>
<linearGradient id="paint2_linear_153_26691" x1="522.917" y1="293.359" x2="522.917" y2="33.8594" gradientUnits="userSpaceOnUse">
<stop stop-color="#5F7097" stop-opacity="0"/>
<stop offset="0.270009" stop-color="#5F7097"/>
<stop offset="0.770009" stop-color="#5F7097"/>
<stop offset="1" stop-color="#5F7097" stop-opacity="0"/>
</linearGradient>
<clipPath id="clip0_153_26691">
<rect width="1127" height="280.752" fill="white" transform="translate(0 0.63623)"/>
</clipPath>
</defs>
</svg>
