<svg width="1492" height="266" viewBox="0 0 1492 266" fill="none" xmlns="http://www.w3.org/2000/svg" preserveAspectRatio="none">
<g opacity="0.3">
<path opacity="0.7" d="M173 151H128.551C119.648 151 111.204 154.955 105.505 161.794L83.4954 188.206C77.7956 195.045 69.3521 199 60.4488 199H0" stroke="#4B7497"/>
<circle cx="194" cy="151" r="20" stroke="#4B7497"/>
<path d="M202 149H200C198.895 149 198 149.895 198 151C198 152.105 198.895 153 200 153H202M202 149V146C202 144.895 201.105 144 200 144H188C186.895 144 186 144.895 186 146V156C186 157.105 186.895 158 188 158H200C201.105 158 202 157.105 202 156V153M202 149C203.105 149 204 149.895 204 151C204 152.105 203.105 153 202 153" stroke="#4B7497"/>
<path d="M139 147.5L144 150.5L139 153.5V147.5Z" fill="#4B7497"/>
<path opacity="0.7" d="M1245 92.5H1370.32C1375.86 92.5 1381.15 90.2057 1384.93 86.1631L1431.07 36.8369C1434.85 32.7943 1440.14 30.5 1445.68 30.5H1490" stroke="#4B7497"/>
<circle cx="1227" cy="91" r="20" stroke="#4B7497"/>
<path fill-rule="evenodd" clip-rule="evenodd" d="M1227 86.616L1223.89 89.7233L1222.08 87.9152L1227 83L1231.92 87.9167L1230.11 89.7247L1227 86.616ZM1220.81 89.1914L1219 90.9997L1220.81 92.8074L1222.62 90.9993L1220.81 89.1914ZM1223.89 92.2769L1227 95.384L1230.11 92.2754L1231.92 94.0824L1231.92 94.0834L1227 99L1222.08 94.0822L1223.89 92.2769ZM1233.19 89.1928L1231.38 91.0009L1233.19 92.8088L1235 91.0007L1233.19 89.1928Z" fill="#4B7497"/>
<path d="M1228.84 90.9994H1228.84L1227 89.1648L1225.17 90.9975L1225.17 91L1225.17 91.0027L1227 92.8359L1228.84 91.0013L1228.84 91.0003L1228.84 90.9994Z" fill="#4B7497"/>
<rect x="1264" y="85.5" width="65" height="14" rx="7" fill="#4B7497"/>
<path d="M1271.82 95.5L1270.15 89.6818H1271.49L1272.46 93.7244H1272.51L1273.57 89.6818H1274.72L1275.78 93.733H1275.83L1276.79 89.6818H1278.14L1276.47 95.5H1275.27L1274.16 91.696H1274.12L1273.01 95.5H1271.82ZM1280.02 89.6818V95.5H1278.79V89.6818H1280.02ZM1280.82 90.696V89.6818H1285.59V90.696H1283.81V95.5H1282.6V90.696H1280.82ZM1286.38 95.5V89.6818H1287.61V92.0824H1290.11V89.6818H1291.34V95.5H1290.11V93.0966H1287.61V95.5H1286.38ZM1294.41 95.5H1292.35V89.6818H1294.43C1295.01 89.6818 1295.52 89.7983 1295.94 90.0312C1296.36 90.2623 1296.69 90.5947 1296.91 91.0284C1297.14 91.4621 1297.26 91.9811 1297.26 92.5852C1297.26 93.1913 1297.14 93.7121 1296.91 94.1477C1296.69 94.5833 1296.36 94.9176 1295.93 95.1506C1295.51 95.3835 1295 95.5 1294.41 95.5ZM1293.58 94.446H1294.36C1294.72 94.446 1295.03 94.3816 1295.28 94.2528C1295.53 94.1222 1295.72 93.9205 1295.84 93.6477C1295.97 93.3731 1296.03 93.0189 1296.03 92.5852C1296.03 92.1553 1295.97 91.804 1295.84 91.5312C1295.72 91.2585 1295.53 91.0578 1295.28 90.929C1295.03 90.8002 1294.73 90.7358 1294.36 90.7358H1293.58V94.446ZM1298.17 95.5V89.6818H1300.47C1300.9 89.6818 1301.28 89.7604 1301.59 89.9176C1301.9 90.0729 1302.14 90.2936 1302.3 90.5795C1302.47 90.8636 1302.55 91.1979 1302.55 91.5824C1302.55 91.9687 1302.47 92.3011 1302.3 92.5795C1302.13 92.8561 1301.89 93.0682 1301.58 93.2159C1301.26 93.3636 1300.88 93.4375 1300.43 93.4375H1298.9V92.4489H1300.24C1300.47 92.4489 1300.67 92.4167 1300.82 92.3523C1300.98 92.2879 1301.09 92.1913 1301.17 92.0625C1301.24 91.9337 1301.28 91.7737 1301.28 91.5824C1301.28 91.3892 1301.24 91.2263 1301.17 91.0938C1301.09 90.9612 1300.97 90.8608 1300.82 90.7926C1300.66 90.7225 1300.47 90.6875 1300.23 90.6875H1299.4V95.5H1298.17ZM1301.31 92.8523L1302.76 95.5H1301.4L1299.99 92.8523H1301.31ZM1304.42 95.5H1303.1L1305.11 89.6818H1306.7L1308.7 95.5H1307.39L1305.93 91.0114H1305.88L1304.42 95.5ZM1304.34 93.2131H1307.45V94.1733H1304.34V93.2131ZM1310.13 95.5L1308.46 89.6818H1309.81L1310.77 93.7244H1310.82L1311.88 89.6818H1313.03L1314.09 93.733H1314.14L1315.11 89.6818H1316.45L1314.78 95.5H1313.59L1312.48 91.696H1312.43L1311.33 95.5H1310.13ZM1321.97 89.6818V95.5H1320.91L1318.38 91.8381H1318.34V95.5H1317.11V89.6818H1318.19L1320.7 93.3409H1320.75V89.6818H1321.97Z" fill="white"/>
<path d="M1462 27.5L1467 30.5L1462 33.5V27.5Z" fill="#4B7497"/>
<path d="M1343 89.5L1348 92.5L1343 95.5V89.5Z" fill="#4B7497"/>
<path opacity="0.7" d="M298.5 259H166.348C154.127 259 142.576 253.413 134.989 243.832L71.5111 163.668C63.9241 154.087 52.3734 148.5 40.1521 148.5H0" stroke="#4B7497" stroke-dasharray="4 4"/>
<circle cx="303" cy="259" r="4" fill="#4B7497"/>
<rect x="184" y="251.5" width="55" height="14" rx="7" fill="#4B7497"/>
<path d="M193.662 257.355C193.639 257.126 193.542 256.948 193.369 256.821C193.197 256.694 192.963 256.631 192.668 256.631C192.467 256.631 192.297 256.659 192.159 256.716C192.021 256.771 191.915 256.848 191.841 256.946C191.769 257.045 191.733 257.156 191.733 257.281C191.729 257.385 191.751 257.476 191.798 257.554C191.848 257.632 191.915 257.699 192 257.756C192.085 257.811 192.184 257.859 192.295 257.901C192.407 257.94 192.527 257.974 192.653 258.003L193.176 258.128C193.43 258.185 193.663 258.26 193.875 258.355C194.087 258.45 194.271 258.566 194.426 258.705C194.581 258.843 194.702 259.006 194.787 259.193C194.874 259.381 194.919 259.596 194.92 259.838C194.919 260.194 194.828 260.503 194.648 260.764C194.47 261.024 194.212 261.225 193.875 261.369C193.54 261.511 193.135 261.582 192.662 261.582C192.192 261.582 191.783 261.51 191.435 261.366C191.088 261.223 190.817 261.009 190.622 260.727C190.429 260.443 190.328 260.092 190.318 259.673H191.509C191.522 259.868 191.578 260.031 191.676 260.162C191.777 260.291 191.91 260.388 192.077 260.455C192.245 260.519 192.436 260.551 192.648 260.551C192.856 260.551 193.037 260.521 193.19 260.46C193.346 260.4 193.466 260.315 193.551 260.207C193.636 260.099 193.679 259.975 193.679 259.835C193.679 259.705 193.64 259.595 193.562 259.506C193.487 259.417 193.375 259.341 193.227 259.278C193.081 259.216 192.902 259.159 192.69 259.108L192.057 258.949C191.566 258.83 191.179 258.643 190.895 258.389C190.611 258.135 190.47 257.794 190.472 257.364C190.47 257.011 190.563 256.704 190.753 256.44C190.944 256.177 191.206 255.972 191.54 255.824C191.873 255.676 192.252 255.602 192.676 255.602C193.108 255.602 193.485 255.676 193.807 255.824C194.131 255.972 194.383 256.177 194.562 256.44C194.742 256.704 194.835 257.009 194.841 257.355H193.662ZM200.881 257.719H199.637C199.614 257.558 199.568 257.415 199.498 257.29C199.428 257.163 199.338 257.055 199.228 256.966C199.118 256.877 198.991 256.809 198.847 256.761C198.705 256.714 198.551 256.69 198.384 256.69C198.083 256.69 197.821 256.765 197.597 256.915C197.374 257.062 197.201 257.278 197.077 257.562C196.954 257.845 196.893 258.187 196.893 258.591C196.893 259.006 196.954 259.354 197.077 259.636C197.202 259.919 197.377 260.132 197.6 260.276C197.824 260.42 198.082 260.491 198.376 260.491C198.54 260.491 198.693 260.47 198.833 260.426C198.975 260.383 199.101 260.319 199.211 260.236C199.321 260.151 199.412 260.047 199.484 259.926C199.558 259.805 199.609 259.667 199.637 259.511L200.881 259.517C200.849 259.784 200.769 260.042 200.64 260.29C200.513 260.536 200.342 260.757 200.126 260.952C199.912 261.145 199.656 261.298 199.359 261.412C199.063 261.524 198.729 261.58 198.356 261.58C197.837 261.58 197.373 261.462 196.964 261.227C196.557 260.992 196.235 260.652 195.998 260.207C195.763 259.762 195.646 259.223 195.646 258.591C195.646 257.956 195.765 257.417 196.004 256.972C196.242 256.527 196.566 256.187 196.975 255.955C197.384 255.72 197.844 255.602 198.356 255.602C198.693 255.602 199.005 255.65 199.293 255.744C199.583 255.839 199.84 255.977 200.063 256.159C200.287 256.339 200.469 256.56 200.609 256.821C200.751 257.082 200.842 257.382 200.881 257.719ZM202.657 261.5H201.339L203.347 255.682H204.933L206.938 261.5H205.62L204.163 257.011H204.117L202.657 261.5ZM202.575 259.213H205.688V260.173H202.575V259.213ZM207.638 255.682H209.156L210.758 259.591H210.826L212.428 255.682H213.945V261.5H212.752V257.713H212.704L211.198 261.472H210.386L208.88 257.699H208.832V261.5H207.638V255.682ZM214.959 255.682H216.476L218.078 259.591H218.146L219.749 255.682H221.266V261.5H220.072V257.713H220.024L218.518 261.472H217.706L216.2 257.699H216.152V261.5H214.959V255.682ZM222.279 261.5V255.682H226.2V256.696H223.509V258.082H225.998V259.097H223.509V260.486H226.211V261.5H222.279ZM229.24 261.5H227.178V255.682H229.257C229.842 255.682 230.346 255.798 230.768 256.031C231.191 256.262 231.516 256.595 231.743 257.028C231.972 257.462 232.087 257.981 232.087 258.585C232.087 259.191 231.972 259.712 231.743 260.148C231.516 260.583 231.189 260.918 230.763 261.151C230.339 261.384 229.831 261.5 229.24 261.5ZM228.408 260.446H229.189C229.553 260.446 229.858 260.382 230.107 260.253C230.357 260.122 230.544 259.92 230.669 259.648C230.796 259.373 230.859 259.019 230.859 258.585C230.859 258.155 230.796 257.804 230.669 257.531C230.544 257.259 230.357 257.058 230.109 256.929C229.861 256.8 229.555 256.736 229.192 256.736H228.408V260.446Z" fill="white"/>
<path opacity="0.7" d="M1492 260H1303" stroke="#4B7497" stroke-dasharray="4 4"/>
<circle cx="1298" cy="260" r="4" fill="#4B7497"/>
<path opacity="0.7" d="M0.999993 3.99997L352 4" stroke="#4B7497" stroke-dasharray="4 4"/>
<circle cx="4" cy="4" r="4" transform="matrix(-1 0 0 1 360.5 0)" fill="#4B7497"/>
</g>
</svg>
