
<svg width="601px" height="88px" viewBox="0 0 601 88" version="1.1" xmlns="http://www.w3.org/2000/svg" xmlns:xlink="http://www.w3.org/1999/xlink">
    <g id="Page-1" stroke="none" stroke-width="1" fill="none" fill-rule="evenodd">
        <g id="gulf-news" transform="translate(0.800000, 0.562500)" fill="#637381" fill-rule="nonzero">
            <path d="M543.1,51.8375 L543.1,51.8375 C543.2,51.8375 543.4,51.9375 543.7,51.9375 C544,51.9375 544,52.1375 544,52.1375 L544.1,52.5375 C544.1,52.5375 544.5,52.6375 544.6,52.8375 C544.8,53.0375 544.5,53.0375 544.4,53.0375 C544.3,53.1375 544,53.0375 544,53.0375 L544.2,53.4375 L543.8,53.6375 L543.2,53.4375 L543.4,53.7375 L543.2,53.9375 C543.2,53.9375 542.3,53.6375 542.3,53.5375 C542.3,53.4375 542.1,53.3375 542.1,53.3375 L541.4,53.4375 L541.5,53.1375 L542.2,52.9375 C542.2,52.9375 542.7,52.7375 542.8,52.7375 C542.9,52.7375 542.3,52.5375 542.3,52.4375 C542.3,52.3375 542.1,52.2375 542.1,52.2375 C542.1,52.2375 542,52.2375 541.9,52.2375 C541.7,52.3375 541.5,52.4375 541.3,52.5375 L541.5,52.6375 L541.1,53.0375 C541.1,53.0375 541,53.1375 540.8,53.2375 C540.5,53.3375 540.3,53.2375 540.1,53.3375 C540.1,53.3375 540.1,53.3375 540,53.3375 C539.9,53.4375 539.8,53.4375 539.6,53.5375 L539.8,53.4375 C539.8,53.4375 540.1,53.4375 540.1,53.4375 C540.1,53.4375 540.3,53.6375 540.3,53.6375 C540.3,53.6375 540.5,53.7375 540.5,53.7375 C540.5,53.7375 540.4,53.8375 540.2,53.8375 C540,53.8375 539.8,53.8375 539.7,53.8375 L539.3,53.9375 L539.4,53.7375 C539.4,53.7375 539.3,53.7375 539.2,53.7375 C538.4,54.2375 537.6,54.8375 536.8,55.4375 C536.8,55.5375 536.8,55.6375 536.8,55.6375 L537.2,55.6375 L537.8,55.8375 L538,55.9375 L538.5,55.9375 L538.4,56.1375 L538.3,56.4375 L538.3,56.7375 L538.5,56.8375 L538.9,56.5375 L538.9,56.1375 C538.9,56.1375 539.3,56.0375 539.5,55.9375 C539.7,55.8375 540,55.5375 540,55.5375 C540,55.4375 539.9,55.2375 539.9,55.2375 C539.9,55.2375 540.2,55.0375 540.3,54.9375 C540.4,54.8375 540.4,54.5375 540.4,54.5375 C540.4,54.5375 540.3,54.3375 540.6,54.2375 C540.9,54.2375 541.2,54.2375 541.3,54.2375 C541.4,54.2375 541.5,54.1375 541.7,54.2375 C541.8,54.2375 541.9,54.3375 541.9,54.4375 L542.2,54.4375 L542,54.7375 L541.7,54.9375 L542,55.0375 L542.2,55.1375 L542.7,54.8375 L542.9,54.6375 C542.9,54.6375 542.9,54.7375 542.9,54.7375 C544,53.5375 545.2,52.4375 546.6,51.5375 L546.3,51.0375 L545.3,51.0375 C544.9,51.1375 544,51.4375 543.1,51.8375 M536.7,58.9375 L536.9,59.0375 L537.6,58.9375 L538.2,58.7375 L538.4,58.4375 L537.9,58.5375 L537.7,58.7375 L537.6,58.7375 L536.9,58.8375 L536.7,58.9375 Z M536.9,57.4375 L536.6,57.3375 C536.6,57.3375 536.3,57.3375 536.3,57.4375 C536.2,57.5375 536.1,57.5375 536,57.6375 C535.9,57.6375 535.5,57.8375 535.5,57.8375 L535.6,57.9375 L536,57.8375 L536.5,57.7375 L536.7,57.9375 L537.1,57.8375 L537.4,57.7375 L537.3,57.5375 L536.9,57.4375 L536.9,57.4375 Z M536.9,58.0375 L536.6,58.0375 L536.1,58.3375 L535.8,58.9375 L536.1,58.9375 L536.3,58.5375 L536.7,58.1375 L537,58.1375 L536.6,58.4375 L536.9,58.4375 L537.1,58.3375 L537.1,58.5375 L537.4,58.4375 L537.6,58.0375 L537.4,57.9375 L536.9,58.0375 Z M541.8,56.7375 L541.8,56.7375 C541.6,56.7375 541.6,56.7375 541.5,56.8375 C541.4,56.9375 541.3,57.0375 541.3,57.0375 L541,57.2375 L541.1,57.2375 L541.7,57.1375 C541.7,57.0375 541.7,56.8375 541.8,56.7375 M539.7,79.9375 L539.7,79.9375 C539.7,79.7375 539.6,79.4375 539.5,79.3375 C539.4,79.2375 539.4,79.1375 539.3,79.0375 L539.2,78.8375 C539.2,78.8375 539.2,78.9375 539.1,78.8375 C539,78.7375 538.8,78.5375 538.8,78.5375 L538.8,78.3375 L538.7,77.8375 L538.7,77.6375 L538.7,76.8375 L538.4,76.2375 L538.4,75.9375 C538.4,75.9375 538.4,75.6375 538.4,75.6375 L538.6,75.2375 L538.5,75.1375 L538.5,75.0375 L538.5,74.8375 C538.5,74.8375 538.5,74.6375 538.5,74.5375 C538.5,74.5375 538.5,74.4375 538.5,74.3375 C536.7,74.1375 534.9,73.9375 533,73.6375 C534.6,75.9375 536.8,78.1375 539.7,79.9375 M531.2,66.7375 C531.2,68.9375 531.8,70.9375 532.8,72.8375 C534.6,73.1375 536.5,73.3375 538.5,73.6375 L538.5,73.2375 C538.5,73.2375 538.4,73.1375 538.3,73.0375 C538.2,72.9375 538.3,73.0375 538.2,72.9375 C538.1,72.8375 537.7,72.6375 537.7,72.6375 C537.7,72.6375 537.3,72.4375 537.2,72.3375 C537.1,72.2375 536.9,72.2375 536.8,72.1375 C536.7,72.0375 536.7,71.9375 536.7,71.9375 C536.7,71.9375 536.2,71.1375 536.1,71.0375 C536,70.9375 535.9,70.8375 535.9,70.7375 C535.9,70.6375 535.6,70.4375 535.6,70.3375 C535.6,70.3375 535.3,70.1375 535.3,70.1375 C535.3,70.1375 535.2,69.9375 535.2,69.8375 C535.2,69.7375 535.3,69.6375 535.4,69.5375 C535.4,69.4375 535.4,69.3375 535.4,69.3375 C535.4,69.2375 535.4,69.2375 535.4,69.1375 C535.4,69.0375 535.4,69.0375 535.4,68.9375 C535.4,68.8375 535.9,68.4375 535.9,68.4375 C535.9,68.3375 536.1,68.2375 536.2,68.1375 C536.3,68.0375 536.4,67.8375 536.4,67.8375 C536.4,67.7375 536.5,67.4375 536.4,67.3375 C536.3,67.2375 536.1,66.8375 536.1,66.8375 L535.9,66.6375 L535.7,66.6375 C535.7,66.6375 535.6,66.7375 535.6,66.7375 C535.6,66.7375 535.6,66.8375 535.6,66.8375 L535.5,66.9375 L535.3,66.9375 L535.1,66.8375 L534.9,66.7375 L534.7,66.5375 L534.2,66.4375 L534.1,66.1375 L533.8,65.8375 L533.7,65.7375 L533.5,65.7375 L533.3,65.7375 L533,65.6375 L532.8,65.6375 L532.6,65.4375 L532.2,65.1375 L531.9,65.1375 C531.9,65.1375 531.7,65.2375 531.6,65.2375 L531.4,65.2375 C531.2,65.6375 531.2,66.1375 531.2,66.7375 M539.7,58.9375 C539.7,58.9375 539.6,58.9375 539.7,58.9375 C540,58.9375 540.3,58.9375 540.7,58.9375 C540.8,58.6375 541,58.3375 541.1,58.0375 L540.1,58.5375 C540.1,58.4375 539.7,58.9375 539.7,58.9375 Z M559.2,53.4375 C559.4,53.4375 559.4,53.4375 559.4,53.4375 L559.4,53.2375 L559.7,53.2375 L559.7,53.1375 L560,53.0375 C559.9,52.9375 559.9,52.8375 559.8,52.7375 L559.5,52.9375 C559.5,52.9375 559.1,52.8375 559,52.8375 C559,52.8375 558.7,52.9375 558.7,52.9375 L558.8,53.1375 C558.9,53.2375 559.1,53.4375 559.2,53.4375 M561.5,58.9375 L561.5,58.9375 C561.2,58.8375 560.9,58.8375 560.6,58.8375 L561,58.9375 C561,58.9375 561.5,58.9375 561.5,58.9375 Z M559.2,58.8375 C559.2,58.8375 559.3,58.8375 559.4,58.8375 C559.2,58.8375 559,58.8375 558.8,58.8375 L558.8,58.9375 L559.2,58.9375 M560.7,62.0375 L560.7,62.0375 C560.5,61.9375 560.5,62.1375 560.5,62.1375 L561,62.9375 L561.1,63.2375 L561.4,63.6375 C561.4,63.6375 561.5,63.8375 561.5,63.9375 C561.5,64.0375 561.7,64.3375 561.7,64.3375 C561.7,64.3375 561.7,64.5375 561.8,64.6375 C561.9,64.7375 562.3,65.3375 562.4,65.4375 C562.5,65.5375 562.6,65.5375 562.9,65.6375 C563.2,65.8375 563.2,65.9375 563.2,65.9375 L563.2,66.0375 L563.5,66.2375 C563.5,66.0375 563.5,65.9375 563.5,65.7375 L563.4,65.7375 C563.2,65.7375 563.2,65.6375 563.2,65.5375 C563.2,65.4375 563,65.2375 563,65.0375 C563,64.8375 562.8,64.5375 562.8,64.5375 C562.8,64.5375 562.6,64.4375 562.6,64.2375 C562.6,64.1375 562.4,64.0375 562.3,63.9375 C562.2,63.8375 562.1,63.8375 562.1,63.6375 C562.1,63.4375 562,63.3375 561.9,63.1375 C561.8,62.9375 561.6,62.9375 561.6,62.9375 C561.6,62.9375 561.6,62.8375 561.5,62.7375 C561.3,62.4375 561.2,62.2375 561,61.9375 C560.8,62.0375 560.7,62.0375 560.7,62.0375 M564.2,59.2375 L564.3,59.1375 L564.2,59.0375 L564.2,59.0375 C563.8,59.0375 563.5,59.0375 563.1,58.9375 L563.2,59.1375 L563.4,59.2375 L563.2,59.3375 L563.2,59.7375 L563.3,60.0375 C563.3,60.0375 563.4,60.0375 563.5,60.0375 C563.5,60.0375 563.6,60.1375 563.6,60.1375 C563.6,60.1375 563.8,60.2375 563.9,60.2375 C564,60.2375 564,60.2375 564,60.2375 C564.1,60.2375 564.4,60.1375 564.4,60.1375 C564.4,60.1375 564.3,59.9375 564.3,59.9375 L564.3,59.7375 L564.3,59.6375 L564.2,59.5375 L564.2,59.4375 L564.2,59.3375 L564.1,59.3375 L564.1,59.2375 L564.1,59.1375 C563.9,59.1375 564.2,59.2375 564.2,59.2375 Z M578.4,61.0375 C578.5,61.0375 578.6,61.1375 578.6,61.1375 C578.6,61.1375 578.7,61.3375 578.8,61.3375 C578.9,61.3375 579,61.5375 579,61.5375 L579.1,61.6375 L578.8,61.6375 L578.9,61.6375 L579,61.8375 L579,61.9375 L579.1,61.9375 C579.1,61.9375 579.1,62.0375 579,62.2375 C578.9,62.4375 579,62.7375 578.8,63.0375 L578.8,63.0375 C579.1,64.1375 579.3,65.2375 579.3,66.4375 L579.4,66.3375 L579.4,66.2375 L579.5,66.1375 L579.5,66.3375 L579.4,66.5375 L579.2,66.6375 L579.2,66.8375 C579.2,67.0375 579.2,67.2375 579.2,67.4375 L579.3,67.4375 L579.5,67.5375 L579.3,67.5375 L579.3,67.6375 L579.2,67.6375 L579.2,67.6375 C579.2,67.7375 579.2,67.8375 579.2,67.9375 L579.2,68.0375 L579.4,68.1375 L579.4,68.2375 L579.2,68.2375 L579.1,68.4375 L579.1,68.6375 L579,68.7375 C578.9,69.2375 578.8,69.7375 578.7,70.1375 C578.8,70.1375 578.9,70.1375 579,70.1375 C579.2,70.1375 579.3,70.1375 579.4,70.1375 C579.5,70.1375 579.8,70.1375 579.9,70.1375 C580,70.1375 580,70.2375 580,70.2375 L579.6,70.3375 L578.7,70.4375 L578.6,70.4375 C578.4,71.2375 578.1,71.9375 577.7,72.7375 C578.5,72.6375 579.2,72.4375 579.9,72.3375 L579.9,72.3375 C579.9,72.3375 580.1,72.2375 580.1,72.2375 C580.1,72.2375 580.2,72.0375 580.4,71.9375 C580.6,71.8375 580.7,71.7375 580.8,71.6375 C580.9,71.5375 581.1,71.5375 581.2,71.5375 C581.3,71.5375 581.3,71.7375 581.3,71.7375 L581.6,71.6375 C581.6,71.6375 581.5,71.6375 581.6,71.5375 C581.7,71.4375 581.9,71.1375 581.9,71.1375 L582.3,71.1375 L582.3,70.9375 L583.2,71.1375 L583,71.4375 L582.8,71.6375 L583,71.8375 L583,71.8375 C583.4,71.7375 583.7,71.6375 584.1,71.5375 L584.1,71.2375 L584.4,70.7375 L584.5,70.8375 L584.7,71.3375 C585.2,71.1375 585.7,71.0375 586.1,70.9375 C586.7,69.6375 587,68.2375 587,66.9375 C587,65.4375 586.7,63.9375 586,62.6375 C584.5,62.1375 583,61.7375 581.5,61.4375 L581.5,61.5375 L581.4,61.5375 L581.3,61.3375 C581.2,61.3375 581.2,61.3375 581.2,61.3375 L580.9,61.3375 L580.7,61.4375 L580.5,61.3375 L580.6,61.2375 C580.4,61.2375 580.2,61.1375 579.9,61.1375 C579.9,61.1375 579.9,61.2375 579.8,61.2375 C579.8,61.3375 579.4,61.3375 579.4,61.3375 L579.3,61.2375 C579.3,61.2375 579.3,61.1375 579.3,61.0375 L579.3,61.0375 C578.9,60.9375 578.5,60.9375 578.2,60.8375 L578,61.0375 C578.2,60.9375 578.3,60.9375 578.4,61.0375 M580.1,70.8375 L579.9,70.7375 L580.1,70.6375 L580.3,70.8375 L580.1,70.8375 L580.1,70.8375 Z M586.3,69.5375 L586.7,69.5375 L587.1,69.3375 L587.1,69.3375 L587,69.5375 L586.8,69.6375 L586.3,69.5375 L586.3,69.5375 L586.3,69.5375 L586.3,69.5375 Z M582.7,68.5375 L583.2,68.7375 L583.2,68.8375 L583.4,69.0375 L583.5,69.1375 L583.8,68.9375 L584.1,68.7375 L584.2,68.8375 L584.8,68.9375 L585.5,69.2375 L585.8,69.4375 L585.8,69.5375 L586.3,69.6375 L586.3,69.8375 L586.1,69.9375 L586.2,69.9375 L586.4,70.2375 L586.6,70.3375 L586.7,70.5375 L586.5,70.4375 L586.1,70.3375 L585.9,69.9375 L585.6,69.8375 L585.3,70.0375 L585.4,70.1375 L585.2,70.2375 L584.8,70.1375 L584.5,70.1375 L584.2,70.0375 L584.2,70.0375 L584.5,69.9375 L584.4,69.7375 L584.2,69.4375 L583.9,69.3375 L583.4,69.1375 L583.2,69.2375 L583.2,69.0375 L583.4,68.8375 L583.2,68.8375 L583,68.6375 L582.8,68.6375 L582.8,68.4375 L582.7,68.5375 L582.7,68.5375 Z M580.3,68.8375 L580.5,68.6375 L580.6,68.6375 L580.4,68.9375 L580.5,69.2375 L580.7,69.3375 L580.7,69.5375 L580.4,69.3375 L580.3,69.0375 L580.1,69.1375 L580.1,69.4375 L580.1,69.7375 L579.9,69.7375 L579.9,69.4375 L579.7,69.1375 L579.8,68.7375 L580,68.3375 L580.4,68.2375 L580.7,68.1375 L580.8,68.1375 L580.5,68.3375 L580.1,68.3375 L580,68.6375 L580.3,68.8375 L580.3,68.8375 Z M579.9,65.6375 L580.1,65.6375 L580.1,65.7375 L580,65.8375 L579.9,65.7375 L579.9,65.6375 L579.9,65.6375 Z M580.5,66.2375 L580.3,66.3375 L580.3,66.0375 L580.3,65.9375 L580.6,66.0375 L580.5,66.2375 Z M580.6,66.2375 L580.6,66.2375 L580.6,66.4375 L580.6,66.5375 L580.5,66.5375 L580.5,66.3375 L580.6,66.2375 Z M580.9,70.7375 L580.8,70.6375 L581.3,70.3375 L581.3,70.3375 L581.4,70.4375 L580.9,70.7375 Z M581.3,66.6375 L581.3,66.6375 L581.4,66.7375 L581.4,66.9375 L581.3,67.0375 L581.2,66.9375 L581.1,67.0375 L581.2,67.1375 L581.1,67.2375 L581,67.2375 L580.8,67.0375 L580.8,66.9375 L580.8,66.8375 L580.7,66.8375 L580.5,66.8375 L580.4,67.0375 L580.3,67.0375 L580.4,66.8375 L580.5,66.8375 L580.5,66.7375 L580.7,66.7375 L580.7,66.8375 L580.9,66.7375 L580.9,66.6375 L581,66.5375 L580.9,66.4375 L581.1,66.5375 L581.3,66.6375 Z M581,66.2375 L581,66.2375 L580.8,66.1375 L580.9,66.0375 L580.8,65.9375 L580.9,65.8375 L581,65.9375 L581,66.0375 L580.9,66.1375 C581,66.1375 581,66.2375 581,66.2375 Z M580.8,61.3375 L581,61.4375 L581.1,61.6375 L581.1,61.9375 L580.9,61.9375 L580.9,61.6375 L580.7,61.5375 L580.6,61.4375 L580.8,61.3375 Z M580.3,65.4375 L580.5,65.5375 L580.7,65.7375 L580.6,65.8375 L580.5,65.8375 L580.4,65.6375 L580.2,65.6375 L580.3,65.4375 L580.3,65.4375 L580.3,65.4375 Z M579.9,64.4375 L580.1,64.6375 L580.1,64.6375 L580.2,64.8375 L580.1,65.0375 L580,65.1375 L580,65.3375 L580.1,65.4375 L580.1,65.6375 L580,65.7375 L579.9,65.5375 L579.8,65.5375 L579.7,65.5375 L579.6,65.2375 L579.7,65.2375 L579.7,64.8375 L579.7,64.7375 L579.9,64.4375 L579.9,64.4375 Z M579.5,63.1375 L579.5,63.1375 L579.7,63.1375 L579.7,63.2375 L579.6,63.6375 L579.5,63.7375 L579.3,63.5375 L579.3,63.3375 L579.5,63.1375 L579.5,63.1375 Z M560.8,58.1375 L560.5,57.9375 C560.5,57.9375 560.9,57.5375 560.8,57.5375 C560.7,57.5375 559.9,57.6375 559.9,57.6375 L560,57.9375 L559.7,58.0375 L559.6,57.9375 L559.6,57.8375 L559.1,57.8375 L559,58.0375 L558.7,58.3375 L558.7,58.5375 C559.5,58.5375 560.4,58.5375 561.2,58.6375 C561.1,58.3375 560.8,58.1375 560.8,58.1375 Z M584.1,72.0375 C584.1,72.0375 584,72.0375 583.9,72.0375 L583.9,72.0375 C584,72.1375 584.1,72.0375 584.1,72.0375 M541.4,51.0375 C541.5,51.0375 541.6,51.0375 541.6,51.0375 C541.6,51.0375 541.7,51.0375 541.7,50.9375 C541.7,51.0375 541.5,51.0375 541.4,51.0375 M542.3,51.0375 L543.4,50.9375 L543.4,51.1375 C544.1,50.8375 544.8,50.6375 545.5,50.4375 L545.5,50.4375 L546.1,50.2375 C545.5,50.3375 544.9,50.4375 544.3,50.5375 L543.8,50.9375 L543.4,50.7375 C543.2,50.7375 542.9,50.8375 542.7,50.8375 L542.3,51.0375 Z M528.1,56.6375 L528.1,56.6375 C528.1,56.5375 528,56.0375 528,56.0375 L527.7,55.8375 C527.7,55.8375 527.3,55.6375 527.3,55.6375 C527.2,55.6375 526.9,55.6375 526.9,55.6375 L526.7,55.6375 C522.2,58.1375 519.1,61.3375 518.3,64.8375 C519.3,63.8375 521.1,62.9375 523.5,62.1375 C524.5,60.0375 526.1,58.2375 528.1,56.6375 M523.4,71.2375 C521,70.4375 519.3,69.5375 518.3,68.5375 C519.8,75.4375 529.9,81.2375 543.5,83.3375 C533.6,81.3375 526,76.7375 523.4,71.2375 M527.9,57.4375 L528.1,57.5375 C528.1,57.5375 528.3,57.5375 528.3,57.4375 C528.2,57.4375 528.1,57.3375 528.1,57.3375 L528.2,57.2375 C528.1,57.2375 528,57.3375 527.9,57.4375 M541.6,81.6375 C541.6,81.6375 541.9,81.8375 541.9,81.9375 C541.9,82.0375 542.3,82.2375 542.3,82.2375 C542.3,82.2375 541.9,82.2375 541.7,82.1375 C541.5,82.0375 540.7,81.5375 540.6,81.5375 C540.5,81.4375 540,80.9375 539.8,80.7375 C539.7,80.6375 539.7,80.6375 539.7,80.5375 C536.5,78.6375 534,76.1375 532.4,73.3375 C529.1,72.8375 526.2,72.1375 523.9,71.4375 C527,77.3375 535.7,81.9375 546.8,83.5375 C545.1,83.0375 543.3,82.3375 541.6,81.6375 L541.6,81.6375 Z M585.4,72.2375 C585.4,72.3375 585.5,72.4375 585.6,72.4375 C585.8,72.1375 586,71.7375 586.2,71.3375 C585.9,71.4375 585.6,71.5375 585.3,71.6375 L585.3,71.7375 C585.4,71.9375 585.3,72.0375 585.4,72.2375 M528,57.7375 L527.8,57.5375 C526.2,58.8375 525,60.2375 524.1,61.8375 C525,61.5375 525.9,61.3375 526.9,61.0375 C526.8,61.0375 526.8,60.9375 526.8,60.9375 L526.7,60.3375 L526.7,60.0375 C526.7,60.0375 526.8,59.4375 527.1,59.2375 C527.3,59.0375 527.8,58.5375 528,58.3375 C528.2,58.1375 528.2,57.9375 528.2,57.9375 L528.3,57.9375 L528,57.7375 L528,57.7375 Z M528.2,61.7375 C528.1,61.6375 528,61.6375 528,61.6375 C528,61.6375 527.8,61.8375 527.8,61.8375 C527.8,61.9375 528,62.2375 528,62.2375 L528,62.4375 L528.2,62.8375 L528.2,63.1375 C528.2,63.1375 528.3,63.2375 528.3,63.2375 C528.3,63.3375 528.4,63.3375 528.4,63.4375 L528.5,63.5375 L528.3,63.5375 L528,63.2375 L527.9,63.1375 L528,62.9375 C528,62.9375 527.9,62.8375 527.9,62.7375 C527.9,62.7375 527.8,62.6375 527.7,62.5375 C527.6,62.4375 527.4,62.4375 527.4,62.4375 L527.6,62.3375 L527.6,62.2375 C527.6,62.2375 527.5,62.1375 527.5,62.1375 L527.5,61.9375 L527.3,61.5375 L527.3,61.4375 C526,61.7375 524.8,62.0375 523.7,62.4375 C523,63.8375 522.7,65.2375 522.7,66.7375 C522.7,68.1375 523,69.5375 523.6,70.8375 C525.9,71.6375 528.8,72.2375 532.1,72.8375 C531.1,70.9375 530.7,68.9375 530.6,66.8375 C530.6,66.2375 530.6,65.6375 530.7,64.9375 C530.5,64.8375 530.5,64.8375 530.4,64.8375 C530.3,64.8375 530.1,64.7375 530.1,64.7375 C530.1,64.7375 530,64.6375 530,64.6375 C529.9,64.6375 529.8,64.6375 529.7,64.5375 L529.4,64.4375 L529.2,64.2375 L529.2,64.1375 L529.4,63.9375 L529.3,63.6375 C529.3,63.6375 528.9,63.3375 528.9,63.2375 C528.8,63.1375 528.8,63.1375 528.7,63.0375 C528.7,63.0375 528.5,62.9375 528.5,62.8375 C528.5,62.7375 528.5,62.8375 528.5,62.7375 C528.5,62.6375 528.3,62.4375 528.3,62.4375 C528.3,62.4375 528.1,62.1375 528,62.0375 C528.2,61.9375 528.3,61.8375 528.2,61.7375 M531.4,53.5375 L532.2,53.3375 C532.2,53.3375 533.1,53.1375 533.2,53.1375 C533.2,53.1375 533.3,53.2375 533.3,53.2375 L533.8,53.1375 L534,53.0375 L534.3,53.0375 C534.6,52.8375 535,52.7375 535.3,52.6375 C535.2,52.6375 535.1,52.7375 534.9,52.8375 C534.5,52.9375 535,52.6375 534.5,52.6375 C534.4,52.6375 534.7,52.4375 535,52.3375 C535.3,52.2375 535.2,52.2375 535.8,52.1375 C536.4,52.0375 536.4,52.2375 536.4,52.2375 C536.4,52.2375 536.5,52.2375 536.5,52.2375 C538.5,51.4375 540.6,50.8375 542.8,50.3375 C542.8,50.3375 542.9,50.3375 542.9,50.3375 C542.9,50.3375 543,50.3375 543.1,50.2375 C538.7,50.9375 534.7,52.0375 531.3,53.4375 C531.3,53.4375 531.4,53.4375 531.4,53.4375 C531.2,53.5375 531.4,53.5375 531.4,53.5375 M554,49.8375 C554,49.8375 553.3,50.3375 553.2,50.3375 C553.1,50.4375 553,50.9375 553,51.0375 C553,51.1375 552.9,51.4375 552.9,51.4375 C552.9,51.4375 552.2,51.7375 551.9,51.8375 C551.6,51.9375 551.3,52.2375 550.9,52.4375 C550.8,52.5375 550.7,52.5375 550.5,52.5375 C549.5,54.0375 548.6,56.0375 548,58.4375 C549.1,58.4375 550.2,58.3375 551.2,58.3375 L551.1,58.0375 L551.3,58.0375 L551.4,57.8375 L551.6,57.8375 L551.8,57.8375 L552,57.8375 L552.5,57.8375 C552.7,57.8375 552.7,57.7375 552.7,57.7375 L552.7,57.3375 L552.6,57.0375 L552.4,56.8375 L552,56.6375 L552,56.5375 L552.2,56.5375 L552.3,56.6375 L552.6,56.5375 L552.5,56.3375 L552.8,56.3375 L553,56.2375 L553.3,56.0375 C553.3,56.0375 553.5,55.9375 553.6,55.7375 C553.7,55.5375 554.1,55.5375 554.1,55.5375 L554.4,55.4375 L554.3,55.2375 L554.2,55.0375 L554.1,54.9375 L554.5,54.7375 L554.6,55.0375 L554.5,55.3375 L554.7,55.3375 L554.7,54.4375 L554.7,54.3375 L554.3,54.4375 C554.3,54.4375 554,54.4375 553.9,54.4375 C553.8,54.4375 553.7,54.2375 553.7,54.2375 C553.7,54.2375 553.7,53.9375 553.7,53.8375 C553.6,53.6375 553.8,53.6375 553.9,53.5375 C554.1,53.4375 554.1,53.4375 554.3,53.3375 C554.5,53.2375 554.7,53.0375 554.7,52.9375 L554.8,52.8375 L554.8,49.4375 C554.6,49.4375 554.5,49.4375 554.3,49.5375 L554,49.8375 L554,49.8375 Z M551.8,55.3375 C551.8,55.3375 551.7,55.4375 551.7,55.4375 L551.8,55.7375 L551.8,55.8375 L551.6,55.8375 L551.4,55.9375 L551.2,55.9375 L551,55.8375 L551,55.7375 L551.2,55.6375 L551.2,55.5375 L551.1,55.5375 L551.2,55.3375 L551.4,55.3375 L551.4,55.1375 L551.6,55.0375 L551.8,55.1375 L551.9,55.1375 L551.9,55.2375 C551.8,55.1375 551.8,55.2375 551.8,55.3375 M553.2,55.9375 L553,56.0375 L553.2,56.1375 L553.2,56.2375 L552.7,56.3375 L552.4,56.3375 L552.2,56.3375 L551.9,56.3375 L552,56.2375 L552.1,56.1375 C552.1,56.1375 552.2,56.0375 552.2,56.0375 L552.4,56.0375 L552.5,55.9375 C552.5,55.9375 552.3,55.9375 552.3,55.9375 L552.1,55.9375 L552.1,55.8375 L552.3,55.7375 L552.3,55.6375 L552.2,55.5375 L552.3,55.4375 L552.5,55.5375 L552.6,55.3375 L552.5,55.2375 L552.5,55.1375 C552.5,55.1375 552.4,55.2375 552.3,55.1375 C552.2,55.1375 552.2,55.0375 552.2,55.0375 L552.3,54.9375 C552.3,54.9375 552.3,54.8375 552.2,54.8375 C552.2,54.8375 552,54.8375 552,54.8375 L552.1,54.6375 L552,54.5375 L552,54.3375 L552.1,54.2375 L552.2,54.3375 L552.3,54.1375 L552.4,54.1375 L552.6,54.1375 L552.6,54.2375 L552.2,54.4375 L552.3,54.4375 L552.5,54.4375 L552.7,54.5375 L552.6,54.7375 C552.6,54.7375 552.4,54.8375 552.4,54.8375 C552.4,54.8375 552.4,54.9375 552.4,54.9375 L552.6,54.9375 C552.6,54.9375 552.7,54.9375 552.7,55.0375 C552.7,55.1375 552.7,55.1375 552.8,55.2375 C552.9,55.2375 552.9,55.3375 552.9,55.4375 L553,55.5375 C553,55.5375 553.1,55.6375 553.1,55.6375 L553.1,55.7375 L553.1,55.8375 L553.2,55.9375 L553.3,55.8375 L553.4,55.9375 L553.2,55.9375 L553.2,55.9375 Z M582.9,56.3375 L583.1,56.3375 L583.3,56.4375 L583.5,56.5375 L583.5,56.6375 L583.5,56.7375 L583.7,56.8375 L583.7,56.9375 L583.6,57.0375 L583.7,57.1375 L583.6,57.2375 L583.8,57.4375 L583.7,57.5375 C585.1,58.8375 586.3,60.2375 587,61.7375 C589.4,62.5375 591.2,63.4375 592.2,64.4375 C591.4,61.0375 588.5,58.0375 584.2,55.5375 C584.1,55.6375 584,55.7375 584,55.7375 L584,55.8375 L583.8,55.7375 C583.7,55.6375 583.4,55.7375 583.4,55.7375 L583.4,55.8375 L583.2,55.7375 L583.1,55.8375 L582.9,55.8375 C582.9,55.8375 583,56.0375 583,56.0375 C582.8,56.2375 582.9,56.3375 582.9,56.3375 M554.4,58.2375 L554,58.1375 L553.6,58.2375 L553.6,58.3375 C554,58.3375 554.4,58.3375 554.9,58.3375 L554.9,58.0375 L554.7,57.9375 L554.4,58.2375 L554.4,58.2375 Z M545.2,74.7375 C545.1,74.7375 544.9,74.8375 544.9,74.8375 C544.8,74.9375 544.3,75.1375 544.3,75.2375 C544.2,75.3375 544.4,75.6375 544.3,75.7375 C544.3,75.8375 544.2,75.9375 544.1,76.0375 C544.1,76.0375 543.9,76.1375 543.9,76.1375 C543.9,76.1375 544,76.1375 543.8,76.2375 C543.7,76.3375 543.6,76.3375 543.6,76.4375 C543.6,76.5375 543.4,76.8375 543.4,76.8375 C543.4,76.8375 543.4,76.9375 543.3,77.0375 C543.2,77.1375 543.2,77.2375 543.1,77.3375 C543,77.3375 542.9,77.4375 542.8,77.3375 L542.7,77.3375 C544.4,79.7375 546.6,81.6375 549.2,82.8375 C549.6,82.6375 550,82.6375 550.4,82.6375 C550.6,82.6375 550.8,82.5375 551,82.5375 C549.4,80.8375 548.1,78.1375 547.3,74.8375 C546.7,74.7375 545.9,74.7375 545.2,74.7375 M553,58.9375 L553.1,59.2375 L553,59.3375 L552.8,59.5375 L552.6,59.7375 L552.2,59.7375 L552,59.9375 L551.8,59.7375 L551.6,59.5375 L551.4,59.5375 L551.2,59.4375 L551.2,59.2375 L551.1,59.0375 L551.2,58.6375 C550.1,58.6375 549,58.7375 547.9,58.7375 C547.3,61.3375 547,63.9375 547,66.5375 C547,67.8375 547.1,69.0375 547.2,70.2375 C547.3,70.3375 547.4,70.5375 547.4,70.6375 C547.4,70.7375 547.4,70.9375 547.3,71.0375 C547.4,72.1375 547.6,73.1375 547.9,74.1375 C550.2,74.2375 552.6,74.3375 555,74.3375 L555,67.8375 L555,67.8375 C554.9,67.8375 554.8,67.4375 554.6,67.3375 C554.4,67.2375 553.8,67.6375 553.8,67.6375 C553.8,67.6375 553.5,67.8375 553.2,67.8375 C553,67.8375 552.9,67.8375 552.9,67.8375 L552.4,67.8375 C552.4,67.8375 552.1,68.0375 552,68.0375 C551.9,68.0375 551.7,67.9375 551.6,67.7375 C551.6,67.6375 551,67.2375 551,67.2375 C551,67.2375 550.7,66.9375 550.7,66.8375 C550.7,66.7375 550.4,66.4375 550.3,66.3375 C550.3,66.2375 550,66.1375 549.9,66.0375 C549.8,65.8375 549.8,65.8375 549.8,65.6375 C549.8,65.4375 549.6,65.2375 549.6,65.2375 L549.8,64.9375 C549.8,64.9375 549.9,64.4375 549.8,64.2375 C549.8,64.0375 549.7,64.0375 549.7,63.9375 C549.7,63.8375 549.5,63.7375 549.5,63.3375 C549.5,63.0375 549.7,62.8375 549.7,62.8375 C549.7,62.8375 549.9,62.4375 550,62.3375 C550.1,62.2375 550.3,61.7375 550.4,61.7375 C550.5,61.7375 550.9,61.6375 551,61.2375 C551,61.1375 551,61.0375 551.1,61.0375 L551.1,60.8375 L551.1,60.6375 C551.2,60.5375 551.1,60.5375 551.2,60.4375 C551.3,60.3375 551.4,60.2375 551.5,60.2375 C551.6,60.2375 551.8,59.9375 551.8,59.9375 L551.8,59.7375 L552,59.7375 L552.2,59.8375 L552.6,59.8375 L552.9,59.7375 L553.1,59.6375 C553.1,59.6375 553.3,59.5375 553.4,59.4375 C553.5,59.4375 553.8,59.6375 554.2,59.4375 C554.6,59.3375 554.5,59.4375 554.5,59.4375 L554.8,59.5375 L554.8,58.5375 C554.2,58.5375 553.6,58.5375 553.1,58.5375 L553,58.9375 Z M542.6,78.0375 C542.6,78.1375 542.5,78.2375 542.4,78.3375 C542.2,78.3375 542,78.4375 541.9,78.4375 C541.8,78.4375 541.6,78.4375 541.6,78.4375 C541.6,78.4375 541.6,78.6375 541.6,78.7375 C541.6,78.8375 541.7,78.8375 541.7,78.9375 C541.6,79.0375 541.5,79.0375 541.5,79.0375 L541.2,78.9375 C541.2,78.9375 541.1,78.9375 541.1,79.0375 C541.1,79.1375 541.2,79.2375 541.2,79.2375 L541.4,79.3375 L541.3,79.4375 L541.2,79.5375 L541.3,79.7375 L541.3,79.9375 C541.3,79.9375 541.1,80.0375 541.1,80.0375 C541.1,80.1375 541.1,80.3375 541.2,80.3375 C541.3,80.3375 541.5,80.4375 541.5,80.4375 L541.6,80.6375 L541.6,80.8375 C541.6,80.8375 541.5,80.9375 541.5,81.0375 C541.5,81.0375 541.5,81.1375 541.5,81.2375 C543.7,82.3375 546.1,83.1375 548.5,83.6375 C548.6,83.5375 548.8,83.5375 548.9,83.4375 C546.4,81.9375 544.3,80.2375 542.6,78.0375 M551.7,82.4375 L553,82.4375 L554,82.9375 L554.9,83.0375 L554.9,74.9375 C552.5,74.9375 550.2,74.8375 547.9,74.7375 C548.7,78.1375 550.1,80.8375 551.7,82.4375 M523.1,70.5375 C522.6,69.3375 522.3,68.0375 522.3,66.7375 C522.3,65.3375 522.6,63.9375 523.2,62.6375 C520.6,63.5375 518.8,64.5375 518.1,65.6375 C518.1,66.0375 518,66.3375 518,66.7375 C518,67.0375 518,67.3375 518,67.5375 C518.8,68.6375 520.5,69.6375 523.1,70.5375 M556.7,73.9375 C556.6,73.8375 556.7,73.6375 556.7,73.5375 C556.7,73.4375 556.7,72.9375 556.7,72.8375 C556.7,72.6375 556.9,72.4375 556.9,72.2375 C556.9,72.0375 556.9,71.9375 556.8,71.7375 C556.7,71.5375 556.8,71.5375 556.7,71.2375 C556.6,71.0375 555.7,69.6375 555.7,69.6375 L555.5,69.4375 C555.5,69.4375 555.7,69.2375 555.7,69.1375 C555.8,69.0375 555.6,68.9375 555.6,68.8375 C555.6,68.7375 555.7,68.6375 555.7,68.5375 C555.8,68.3375 555.6,68.2375 555.4,68.1375 C555.3,68.1375 555.3,68.1375 555.2,68.1375 L555.2,74.6375 C555.8,74.6375 556.3,74.6375 556.9,74.6375 C557,74.2375 556.8,73.9375 556.7,73.9375 M556,60.8375 L556.3,60.9375 L556.4,61.2375 L556.7,61.3375 L557.1,61.5375 L557.3,61.3375 L557.3,61.1375 L557.4,61.0375 L557.8,60.9375 L558.2,61.1375 L558.5,61.2375 C558.5,61.2375 558.7,61.2375 558.8,61.2375 C558.9,61.2375 559.2,61.3375 559.2,61.3375 C559.3,61.3375 559.4,61.3375 559.4,61.3375 L559.6,61.2375 L559.9,61.3375 L560.2,61.3375 L560.4,61.2375 L560.5,61.0375 L560.6,60.7375 L560.7,60.5375 C560.7,60.5375 560.7,60.3375 560.7,60.3375 L560.6,60.2375 C560.6,60.2375 560.6,60.1375 560.6,60.1375 L560.6,59.9375 L560.5,60.0375 L560.3,59.9375 L560.1,60.1375 C560.1,60.1375 559.9,60.1375 559.8,60.1375 C559.7,60.1375 559.7,60.0375 559.7,59.9375 C559.7,59.8375 559.4,59.8375 559.4,59.8375 L559.3,59.9375 L559.1,59.9375 L559,59.8375 L558.7,59.8375 L558.3,59.5375 L558.3,59.2375 C558.3,59.2375 558.2,59.1375 558.2,59.0375 C558.2,58.9375 558.1,58.8375 558.1,58.8375 L557.9,58.8375 L557.8,58.9375 L557.6,58.9375 L557.4,58.9375 L557.4,59.1375 L557.7,59.4375 L557.6,59.6375 L557.6,59.9375 L557.5,59.9375 L557.3,59.8375 L557.1,59.6375 L557.1,59.5375 L556.9,59.3375 L556.7,58.9375 L556.7,58.8375 L556.2,58.8375 C556.3,58.8375 556.5,59.0375 556.5,59.0375 L556.5,59.1375 L556.4,59.0375 C556.4,59.0375 556.3,58.9375 556.3,58.9375 C556.2,58.9375 556.2,59.0375 556.2,59.0375 C556.2,59.0375 556.2,59.1375 556.2,59.1375 C556.2,59.1375 556.3,59.1375 556.3,59.2375 L556.3,59.3375 L556.2,59.3375 L556.2,59.4375 L556.1,59.5375 L556,59.5375 L556,59.4375 L556.1,59.3375 L556.1,59.3375 L556.1,59.3375 L556,59.0375 L555.6,58.7375 L555.6,58.7375 L555.1,58.7375 L555.1,60.1375 L555.1,60.2375 L555.1,60.2375 L555.1,60.5375 C555.2,60.6375 555.4,60.8375 555.5,60.8375 C555.8,60.8375 556,60.8375 556,60.8375 M560.2,60.2375 L560.3,60.2375 L560.2,60.2375 L560.2,60.3375 L560.1,60.4375 L560,60.4375 L559.9,60.3375 L560.2,60.2375 M558,60.1375 L558.4,60.2375 L558.5,60.3375 L558.6,60.3375 L558.6,60.4375 L558.3,60.4375 L558,60.1375 L558,60.1375 Z M556.3,83.0375 C556.6,82.8375 558,82.3375 558,82.3375 C558,82.3375 558.2,82.3375 558.5,82.4375 C560.1,80.8375 561.5,78.1375 562.3,74.7375 C562.1,74.7375 561.9,74.7375 561.7,74.7375 C561.7,74.8375 561.7,74.8375 561.7,74.9375 C561.6,75.0375 561.5,75.0375 561.4,75.0375 C561.3,75.0375 561.2,75.3375 561.2,75.3375 C561.2,75.3375 561.3,75.6375 561.2,75.7375 C561.2,75.8375 561.1,75.9375 561,76.1375 C560.8,76.2375 560.4,76.7375 560.2,77.0375 C560,77.2375 559.7,77.4375 559.3,77.4375 C558.9,77.4375 558.5,77.7375 558.5,77.7375 L558.2,77.2375 C558.2,77.2375 558.2,76.9375 558.2,76.8375 C558.2,76.7375 557.9,76.3375 557.8,76.1375 C557.7,75.9375 557.4,75.5375 557.4,75.4375 C557.3,75.2375 557.3,75.0375 557.3,74.8375 C557.3,74.8375 557.3,74.7375 557.2,74.6375 C556.6,74.6375 556,74.6375 555.3,74.6375 L555.3,82.8375 C555.6,83.2375 556.1,83.2375 556.3,83.0375 M557.1,81.7375 L557.3,82.0375 L556.6,82.3375 L556.4,81.8375 C556.4,81.9375 557.1,81.7375 557.1,81.7375 Z M556,57.9375 C556,57.9375 555.7,57.6375 555.7,57.5375 C555.7,57.4375 555.5,57.5375 555.5,57.6375 C555.5,57.6375 555.5,57.8375 555.5,57.8375 C555.5,57.9375 555.7,58.0375 555.8,58.0375 C555.9,58.1375 555.9,58.1375 555.9,58.1375 C555.9,58.1375 556,58.2375 556,58.2375 L556.6,58.2375 L556,57.9375 M546.4,72.2375 C546.4,72.2375 546.3,72.4375 546.3,72.4375 C546.3,72.4375 546.3,72.9375 546.3,73.0375 C546.3,73.1375 546.1,74.0375 546,74.2375 C546.4,74.2375 546.9,74.2375 547.3,74.3375 C547.1,73.5375 546.9,72.6375 546.8,71.8375 C546.7,71.9375 546.6,72.0375 546.6,72.0375 C546.6,72.0375 546.5,72.2375 546.4,72.2375 M563,51.1375 L563.2,51.2375 L563.1,51.2375 C563.8,51.7375 564.5,52.2375 565.2,52.8375 L565.2,52.7375 C565.2,52.7375 565.3,52.1375 565.2,51.9375 C565.2,51.7375 565.5,51.8375 565.8,51.7375 C566,51.7375 566.4,51.5375 566.8,51.5375 C564.6,50.6375 562.2,50.0375 559.9,49.6375 C560.9,50.0375 561.9,50.4375 562.9,51.0375 L563,51.1375 L563,51.1375 Z M556.7,51.9375 L558,51.9375 C558,51.9375 558.1,52.1375 558.2,52.1375 C558.4,52.1375 559.7,52.6375 559.7,52.6375 L559.9,52.7375 C558.6,50.7375 557.1,49.5375 555.4,49.4375 L555.4,52.2375 C555.5,52.1375 555.5,52.1375 555.7,52.1375 C556,52.1375 556.7,51.9375 556.7,51.9375 M556,55.4375 L556.4,55.4375 L556.7,55.3375 L556.7,55.1375 L556.7,54.9375 L556.9,54.7375 C556.9,54.7375 557,54.7375 557,54.7375 C557,54.7375 557,54.4375 557,54.4375 L557.9,54.4375 C558,54.4375 558.4,54.2375 558.5,54.1375 C558.7,54.1375 558.4,53.8375 558.4,53.8375 L557.9,54.0375 L557,54.2375 L556.6,54.0375 L556.6,53.8375 C556.6,53.8375 556.4,53.5375 556.6,53.5375 C556.8,53.4375 557,53.1375 557,53.1375 L556.6,52.9375 L556.3,53.0375 L556.4,53.2375 L556.2,53.4375 L555.8,53.7375 L555.8,54.1375 L556.2,54.4375 L555.9,54.8375 L555.5,55.2375 L555.2,55.2375 L555.2,55.6375 L555.4,55.7375 L556,55.4375 L556,55.4375 Z M560.5,52.9375 L561,52.8375 C561,52.8375 561.9,52.8375 562.4,52.7375 C562.9,52.6375 562.7,52.4375 562.7,52.4375 L563.7,52.5375 L563.7,52.3375 C563.3,52.0375 562.9,51.7375 562.5,51.5375 L562.5,51.5375 L562,52.0375 L562.2,52.3375 L561.9,52.4375 L561.3,51.9375 L561.9,51.3375 L562.1,51.3375 C560.7,50.5375 559.1,50.0375 557.5,49.7375 C558.6,50.3375 559.6,51.4375 560.5,52.9375 M546.7,53.4375 L546.7,52.8375 C546.7,52.7375 546.9,52.4375 546.9,52.4375 C546.9,52.4375 547,52.1375 547.1,52.1375 C547.2,52.1375 547.1,52.0375 547,51.9375 C545.8,52.7375 544.7,53.8375 543.7,54.9375 C543.7,55.0375 543.7,55.1375 543.6,55.2375 C543.5,55.3375 543.9,55.4375 543.9,55.4375 C544,55.4375 544,55.5375 544.1,55.6375 L543.7,55.7375 L543.8,55.7375 L544.1,55.7375 L544.3,55.8375 L544.4,55.9375 L544.3,56.1375 L544.2,56.2375 L543.7,56.4375 C543.7,56.4375 543.3,56.6375 543.2,56.6375 C543.1,56.6375 543,56.7375 542.9,56.7375 L542.2,56.7375 C542,57.0375 541.8,57.4375 541.6,57.7375 L542.1,57.7375 L542.5,57.5375 L542.6,57.6375 L542.2,57.9375 L541.7,58.0375 L541.4,58.2375 C541.3,58.4375 541.2,58.7375 541,58.9375 C543.1,58.7375 545.2,58.6375 547.3,58.5375 C547.9,56.2375 548.7,54.2375 549.7,52.7375 C549.5,52.7375 549.3,52.7375 549.3,52.7375 L548.2,53.3375 L547.6,54.0375 L547.3,53.9375 L546.8,53.8375 L546.7,53.4375 L546.7,53.4375 Z M544.4,57.1375 C544.4,57.1375 544.4,57.3375 544.3,57.3375 C544.2,57.3375 543.8,57.3375 543.8,57.3375 L543.7,57.2375 L543.2,57.2375 L543.2,57.0375 L543.6,56.7375 L543.9,56.3375 L544.2,56.1375 L544.3,56.4375 L544.1,56.5375 L544.4,56.5375 C544.4,56.5375 544.6,56.5375 544.6,56.6375 C544.4,56.8375 544.4,57.1375 544.4,57.1375 M586,72.8375 L586,72.8375 C586.1,73.0375 586.3,73.3375 586.4,73.5375 C586.5,73.6375 586.6,73.5375 586.5,73.8375 C586.4,74.1375 586.5,74.2375 586.2,74.4375 C585.9,74.7375 585.2,75.5375 585,75.8375 C584.8,76.1375 584.7,76.2375 584.6,76.2375 C584.4,76.2375 584.1,76.3375 583.9,76.4375 C583.7,76.4375 583.6,76.4375 583.4,76.5375 C583.3,76.5375 583.2,76.6375 583,76.5375 C582.8,76.5375 582.8,76.4375 582.7,76.4375 C579,79.5375 573.4,82.0375 566.9,83.4375 C572.3,82.5375 577.3,81.1375 581.5,79.1375 C587.5,76.2375 591.2,72.5375 592,68.6375 C591,69.6375 589.3,70.5375 586.9,71.3375 C586.7,71.7375 586.3,72.3375 586,72.8375 M583.9,77.2375 C583.7,77.3375 583.5,77.5375 583.4,77.6375 L583.2,77.7375 L583.4,77.0375 L583.6,77.0375 L584,76.9375 C583.9,77.0375 583.9,77.1375 583.9,77.2375 M587.1,62.6375 C587.7,63.9375 588,65.3375 588,66.7375 C588,68.0375 587.7,69.3375 587.2,70.5375 C589.8,69.6375 591.5,68.6375 592.2,67.5375 C592.2,67.2375 592.3,66.9375 592.3,66.7375 C592.3,66.3375 592.3,65.9375 592.2,65.6375 C591.5,64.5375 589.7,63.5375 587.1,62.6375 M569.1,74.4375 C567.1,74.6375 565,74.7375 562.9,74.8375 C562.1,78.1375 560.7,80.9375 559.1,82.6375 C559.7,82.7375 560.4,82.8375 560.7,82.9375 C564.3,81.3375 567.3,78.2375 569.1,74.4375 M541,59.3375 C540,61.5375 539.5,64.0375 539.5,66.4375 L539.6,66.4375 C539.7,66.4375 540,66.3375 540,66.3375 C540,66.3375 540.1,66.4375 540.3,66.4375 C540.4,66.4375 540.5,66.5375 540.6,66.5375 L540.6,66.6375 L540.8,66.6375 C540.8,66.6375 540.8,66.7375 541,66.8375 C541.1,66.8375 541.3,67.0375 541.3,67.0375 C541.3,67.0375 541.3,67.1375 541.3,67.1375 C541.3,67.1375 541.3,67.0375 541.5,67.2375 C541.6,67.3375 541.6,67.4375 541.8,67.4375 C541.9,67.4375 542.1,67.3375 542.3,67.4375 C542.5,67.5375 542.9,67.6375 542.9,67.7375 C543,67.8375 543.1,67.9375 543.1,68.0375 C543.1,68.1375 543.2,68.2375 543.2,68.2375 L543.4,68.5375 C543.4,68.5375 543.4,68.6375 543.4,68.7375 C543.4,68.8375 543.5,68.9375 543.5,68.9375 C543.6,68.9375 543.8,69.0375 543.8,69.0375 L543.9,69.2375 C543.9,69.2375 544.3,69.2375 544.4,69.2375 C544.5,69.3375 544.9,69.4375 544.9,69.5375 C544.9,69.5375 545,69.6375 545.1,69.6375 C545.2,69.6375 545.5,69.8375 545.6,69.8375 C545.7,69.8375 545.8,69.7375 545.9,69.8375 C546,69.9375 546.1,69.9375 546.2,70.0375 C546.3,70.1375 546.4,70.2375 546.6,70.3375 C546.5,69.2375 546.4,68.0375 546.4,66.9375 C546.4,64.1375 546.7,61.4375 547.3,59.1375 C545.1,59.0375 543,59.1375 541,59.3375 M577.2,73.4375 C574.7,73.8375 572.1,74.1375 569.6,74.3375 C567.9,78.2375 565,81.3375 561.5,83.0375 C561.8,83.0375 562.1,83.1375 562.4,83.2375 C569.1,81.6375 574.5,78.0375 577.2,73.4375 M582.7,75.6375 C582.7,75.6375 582.5,75.7375 582.4,75.7375 C582.3,75.7375 582.1,75.8375 582.1,75.7375 C582.1,75.7375 582.1,75.4375 581.9,75.3375 C581.7,75.2375 581.2,75.2375 581.2,75.2375 C581.1,75.2375 580.8,75.3375 580.5,75.3375 C580.3,75.3375 580.3,75.3375 580,75.5375 C579.7,75.7375 579.8,75.7375 579.6,75.8375 C579.4,75.8375 579.3,75.7375 579.1,75.8375 C578.9,75.9375 578.8,75.9375 578.6,76.0375 C578.4,76.1375 578.1,76.2375 578,76.1375 C577.9,76.0375 577.8,75.9375 577.8,75.9375 C577.8,75.9375 578.3,75.6375 578.2,75.4375 C578.2,75.2375 578.2,74.5375 578.2,74.4375 C578.2,74.2375 578.1,74.3375 578.2,74.1375 C578.2,73.9375 578.4,73.4375 578.5,73.3375 C578.6,73.2375 578.7,73.2375 578.8,73.1375 C578.5,73.2375 578.2,73.2375 577.8,73.3375 C575.2,78.0375 570,81.7375 563.5,83.4375 L563.5,83.4375 C571.6,82.2375 578.4,79.5375 582.7,75.8375 L582.7,75.6375 M571.3,67.4375 L571.3,67.4375 L571.2,67.2375 C571.1,69.5375 570.7,71.7375 569.9,73.8375 C572.5,73.6375 575,73.2375 577.6,72.8375 C578,72.0375 578.3,71.2375 578.6,70.4375 L578.2,70.3375 L577.6,70.3375 L577.2,70.2375 L577.2,70.1375 L577,70.0375 L577,69.9375 L577.3,69.9375 C577.4,69.9375 577.5,70.0375 577.5,70.0375 C577.5,70.0375 577.7,70.1375 577.8,70.1375 C577.9,70.1375 577.9,70.1375 578,70.1375 L578.1,70.0375 L578.5,70.1375 L578.7,70.2375 C578.8,69.9375 578.9,69.6375 578.9,69.3375 L578.6,69.3375 L578.4,69.4375 L578.3,69.3375 L578,69.3375 L577.9,68.9375 L577.7,68.7375 L577.7,68.4375 L577.8,68.2375 L578.1,68.3375 L578.3,68.0375 L578.6,67.9375 L578.8,67.6375 L579,67.5375 L579,67.4375 C579,67.2375 579,67.0375 579,66.7375 C579,65.6375 578.8,64.5375 578.6,63.4375 C578.5,63.5375 578.3,63.6375 578.2,63.6375 C578,63.6375 577.5,63.8375 577.5,63.8375 L577.3,63.9375 L577.3,64.1375 L577.2,64.1375 L577.1,63.8375 C577.1,63.8375 576.9,63.7375 576.6,63.9375 C576.4,64.0375 576.3,64.4375 576.3,64.4375 L576.5,64.6375 C576.5,64.6375 576.6,64.7375 576.7,64.8375 C576.8,64.9375 577.1,65.1375 577.1,65.1375 C577.1,65.1375 577.3,65.4375 577.3,65.5375 C577.3,65.6375 577.3,66.0375 577.3,66.0375 L577,66.2375 L576.6,66.6375 L576.5,66.6375 L576.5,66.4375 L576.6,66.3375 L576.3,66.3375 C576.3,66.3375 576.1,66.2375 576.1,66.1375 C576.1,66.0375 575.8,65.8375 575.8,65.8375 L575.7,65.8375 L575.6,65.8375 L575.6,65.6375 L575.4,65.6375 L575.4,65.9375 L575.3,66.3375 L575.3,66.5375 L575.4,66.5375 L575.5,66.6375 C575.5,66.6375 575.7,66.9375 575.7,66.9375 L575.8,67.0375 C575.8,67.0375 575.9,67.0375 576,67.1375 C576.1,67.2375 576.2,67.4375 576.3,67.4375 C576.4,67.4375 576.4,67.9375 576.4,67.9375 C576.4,68.0375 576.6,68.1375 576.6,68.1375 L576.5,68.1375 L575.9,67.8375 C575.9,67.8375 575.6,67.3375 575.6,67.1375 C575.6,67.0375 575.2,66.6375 575.1,66.5375 C575,66.5375 575.1,66.0375 575.1,65.8375 C575.1,65.6375 574.8,65.2375 574.8,65.1375 C574.8,65.0375 574.5,64.6375 574.5,64.6375 C574.5,64.6375 574.5,64.7375 574.5,64.8375 C574.5,64.9375 574.3,65.0375 574.3,65.0375 L574.1,64.9375 C574.1,64.9375 574.1,64.5375 574.1,64.4375 C574,64.4375 573.9,64.0375 573.7,64.0375 C573.5,63.9375 573.4,63.6375 573.4,63.6375 C573.4,63.5375 573.1,63.4375 573.1,63.4375 L573,63.5375 L572.7,63.6375 L572.5,63.6375 L572.2,63.7375 L572.2,63.9375 C572.2,63.9375 572.2,64.0375 572.1,64.0375 C572,64.1375 571.7,64.4375 571.7,64.4375 C571.6,64.5375 571.4,64.6375 571.4,64.8375 C571.4,64.9375 571.1,65.0375 571.1,65.0375 L571.1,65.0375 C571.1,65.4375 571.2,65.9375 571.2,66.4375 C571.2,66.4375 571.5,66.8375 571.6,66.8375 C571.6,66.9375 571.6,66.9375 571.6,67.0375 L571.6,67.1375 L571.3,67.4375 L571.3,67.4375 Z M577.4,64.6375 L577.2,64.5375 C577.1,64.5375 577.2,64.3375 577.2,64.3375 L577.3,64.1375 L577.5,64.1375 L577.6,64.1375 L577.5,64.4375 L577.4,64.6375 L577.4,64.6375 Z M574.6,67.4375 L574.8,67.5375 L575.1,67.5375 L575.2,67.7375 L575.6,67.9375 L575.9,68.1375 L576.2,68.3375 L576.4,68.4375 L576.6,68.5375 L576.5,68.7375 L576.6,68.7375 L576.8,68.9375 L577.1,69.0375 L577.1,69.7375 L576.9,69.7375 C576.9,69.7375 576.5,69.3375 576.4,69.3375 C576.3,69.2375 576.2,69.1375 576.1,69.0375 C576.1,68.9375 575.9,68.8375 575.9,68.8375 L575.7,68.6375 C575.7,68.6375 575.6,68.2375 575.6,68.2375 C575.5,68.1375 575.5,68.1375 575.4,68.0375 L575.2,67.8375 C575.2,67.8375 574.8,67.4375 574.8,67.3375 C574.5,67.4375 574.6,67.4375 574.6,67.4375 M582.6,60.5375 L582.7,60.8375 C584,61.1375 585.1,61.4375 586.1,61.7375 C584.9,59.5375 582.9,57.5375 580.2,55.8375 L580.1,55.8375 L579.9,55.8375 C579.9,55.8375 579.8,55.8375 579.7,55.8375 C579.5,55.8375 579.3,55.7375 579,55.7375 C578.8,55.7375 578.8,55.7375 578.8,55.7375 L578.6,56.3375 L578.4,56.6375 L578.5,56.6375 L578.8,56.7375 L578.9,56.9375 L579.1,56.9375 L579.1,56.8375 C579.1,56.8375 579.5,57.0375 579.6,57.0375 C579.7,57.0375 579.9,57.1375 579.9,57.1375 C579.9,57.1375 580,57.2375 580,57.3375 C580,57.3375 580.2,57.6375 580.2,57.6375 C580.3,57.7375 580.5,58.1375 580.5,58.1375 L580.5,58.2375 C580.5,58.2375 580.5,58.4375 580.6,58.4375 C580.6,58.4375 580.5,58.6375 580.5,58.7375 C580.5,58.8375 580.4,59.0375 580.4,59.0375 L580.2,59.2375 L580,59.2375 L579.9,59.1375 C579.9,59.1375 579.8,59.2375 579.8,59.2375 C579.8,59.3375 579.6,59.4375 579.6,59.4375 L579.8,59.6375 L579.6,59.8375 L579.5,59.8375 L579.6,60.0375 C579.6,60.0375 579.9,60.1375 580,60.2375 C580.7,60.3375 581.3,60.4375 581.9,60.6375 L582.1,60.5375 L582.2,60.1375 L582,59.9375 L582,59.7375 L582.2,59.7375 L582.3,59.8375 L582.6,60.0375 L582.5,60.3375 L582.6,60.5375 L582.6,60.5375 Z M581.4,58.4375 L581.2,58.1375 L581,57.9375 L580.7,57.6375 L580.3,57.2375 L580.2,57.0375 L580.8,57.4375 L581.3,57.8375 L581.3,58.1375 L581.6,58.5375 L581.5,58.6375 C581.5,58.6375 581.4,58.4375 581.4,58.4375 Z M582.5,59.3375 L582.4,59.6375 L582.1,59.5375 L582,59.5375 L582,59.6375 L581.9,59.6375 L581.6,59.4375 C581.6,59.4375 581.6,59.2375 581.7,59.2375 C581.8,59.2375 581.7,59.1375 581.7,59.1375 L581.5,58.8375 L581.5,58.7375 L582,59.0375 L582.5,59.1375 L582.6,59.3375 C582.6,59.3375 582.5,59.3375 582.5,59.3375 Z M563.6,57.6375 L563.5,57.5375 L563.4,57.5375 L563.2,57.5375 L563,57.5375 L562.8,57.6375 L562.6,57.8375 L562.6,57.8375 C562.6,58.0375 562.7,58.1375 562.7,58.3375 C562.9,58.3375 563.1,58.3375 563.3,58.3375 L563.1,58.1375 L563.1,58.0375 L563.2,58.1375 L563.3,58.0375 L563.2,57.9375 L563.3,57.8375 L563.7,57.8375 L563.7,57.7375 L563.5,57.6375 C563.6,57.9375 563.6,57.6375 563.6,57.6375 Z M579.1,60.1375 L579.1,60.1375 C579.1,60.0375 579,59.9375 579,59.9375 C579,59.9375 578.7,59.9375 578.6,59.9375 C578.5,59.9375 578.4,60.0375 578.4,60.0375 C578.7,60.0375 578.9,60.0375 579.1,60.1375 M534.8,53.4375 L535.4,53.4375 L535.8,53.3375 L536,53.3375 L535.9,53.4375 C535.9,53.4375 535.9,53.5375 536,53.5375 C536.1,53.5375 536.2,53.3375 536.2,53.3375 L536.2,53.2375 L536.8,53.1375 L537.3,53.1375 L537.4,53.1375 C537.4,53.1375 537.4,53.0375 537.4,53.0375 C537.4,52.9375 537,53.0375 537,53.0375 C537,53.0375 535.9,53.2375 535.8,53.1375 C535.7,53.1375 535.6,53.0375 535.6,52.9375 C535.7,52.8375 536,52.8375 536,52.7375 C536,52.7375 536,52.7375 535.9,52.7375 C535.6,52.8375 535.3,52.9375 535,53.1375 L535.2,53.1375 L535.2,53.2375 L534.8,53.4375 L534.8,53.4375 Z M569.2,51.7375 C569.6,51.8375 570.1,51.9375 569.7,52.0375 C569.4,52.1375 570.1,52.3375 570.1,52.3375 L571.2,52.5375 C571.2,52.5375 572.1,52.4375 572.4,52.4375 C572.7,52.4375 573.4,52.8375 573.4,52.8375 L574.5,53.0375 L575.1,53.0375 L575.1,52.9375 C571.7,51.4375 567.7,50.4375 563.3,49.7375 C565,50.2375 566.6,50.7375 568.1,51.4375 C568.5,51.7375 568.9,51.7375 569.2,51.7375 M533.5,61.9375 C533.4,61.9375 533.1,61.9375 533.1,61.9375 C533.1,61.9375 532.7,62.0375 532.5,62.0375 C532.3,62.0375 532.2,62.1375 532,62.3375 C531.8,62.8375 531.7,63.3375 531.5,63.9375 C531.6,64.3375 532,64.5375 532.3,64.5375 C532.8,64.4375 533.1,64.3375 533.1,64.2375 C533.1,64.1375 533.4,63.9375 533.4,63.9375 L533.9,63.8375 L534.1,63.8375 C534.1,63.8375 534.2,63.9375 534.1,64.0375 C534,64.2375 533.7,64.4375 533.7,64.4375 C533.7,64.4375 533.5,64.6375 533.5,64.7375 C533.5,64.8375 533.3,64.9375 533.2,65.0375 C533.1,65.1375 533.6,65.1375 533.6,65.1375 L534.3,65.0375 C534.3,65.0375 534.7,65.1375 534.7,65.1375 C534.7,65.2375 534.5,65.8375 534.5,66.0375 C534.5,66.2375 534.8,66.4375 535,66.5375 C535,66.5375 535.1,66.6375 535.3,66.5375 C535.5,66.4375 535.8,66.4375 535.8,66.4375 L536.1,66.5375 L536.3,66.8375 L536.4,66.6375 L536.6,66.5375 C536.6,66.5375 536.7,66.4375 536.7,66.4375 C536.7,66.4375 536.6,66.3375 536.8,66.2375 C537,66.1375 536.8,66.1375 537,66.1375 C537.2,66.1375 537.2,66.1375 537.4,66.0375 C537.6,65.9375 537.7,65.9375 537.7,65.9375 L537.8,66.0375 L537.7,66.2375 L537.7,66.3375 C537.7,66.4375 537.6,66.5375 537.7,66.5375 C537.7,66.5375 537.9,66.5375 537.9,66.5375 L537.8,66.3375 L537.8,66.2375 L538.3,66.0375 L538.6,66.1375 C538.6,66.1375 538.6,66.2375 538.6,66.2375 C538.6,66.2375 538.6,66.2375 538.9,66.2375 C538.9,65.6375 538.9,65.0375 539,64.4375 L539,64.4375 L539,64.3375 L539,64.3375 C539.2,62.5375 539.6,60.8375 540.3,59.3375 C539.6,59.4375 538.9,59.4375 538.3,59.5375 C538.3,59.5375 538.3,59.6375 538.2,59.6375 C538.1,59.7375 538,59.8375 537.8,59.9375 L537.8,60.1375 C537.8,60.1375 537.1,60.6375 537.1,60.6375 C536.9,60.7375 536.7,60.7375 536.6,60.8375 C536.5,60.8375 536.2,61.1375 536.2,61.2375 C536.1,61.3375 536.1,61.8375 536.1,61.8375 C536.1,61.9375 536.2,62.1375 536.2,62.2375 C536.2,62.3375 536.3,62.3375 536.2,62.4375 C536.1,62.5375 536,62.6375 535.9,62.6375 L535.8,62.6375 C535.8,62.6375 535.7,62.3375 535.7,62.2375 C535.7,62.1375 535.6,62.0375 535.6,62.0375 C535.6,62.0375 535.6,61.8375 535.6,61.8375 L535.5,61.7375 C535.5,61.7375 535.3,61.6375 535.2,61.6375 C535.1,61.7375 535,61.7375 535,61.7375 C535,61.7375 534.8,61.5375 534.6,61.5375 C534.4,61.5375 533.9,61.3375 533.9,61.5375 C533.9,61.7375 534.2,61.7375 533.9,61.7375 C533.6,61.9375 533.6,61.9375 533.5,61.9375 M536.8,64.6375 L536.5,64.6375 L536.4,64.5375 L536.4,64.4375 L536.8,64.6375 L536.8,64.6375 Z M537.7,64.2375 L537.7,64.2375 L537.7,64.1375 L538,64.2375 L538.3,64.1375 C538.3,64.1375 538.5,64.2375 538.5,64.3375 C538.5,64.3375 538.8,64.4375 538.8,64.4375 L538.8,64.5375 L538.5,64.5375 L538.3,64.6375 L538.2,64.6375 L538,64.8375 L537.9,64.7375 L537.3,64.7375 L537.3,64.4375 L537.6,64.4375 L537.7,64.2375 L537.7,64.2375 L537.7,64.2375 Z M535.4,63.3375 L535.8,63.3375 L536,63.3375 L536.2,63.4375 L536.5,63.5375 L536.8,63.6375 L537,63.7375 L537.3,63.8375 L537.3,63.9375 L537.2,64.0375 L536.9,64.0375 L536.5,64.0375 L536.4,64.0375 L536.6,63.9375 L536.6,63.9375 L536.5,63.9375 L536.3,63.8375 L536.2,63.6375 L536,63.6375 L535.7,63.5375 L535.5,63.4375 L535.4,63.3375 L535.2,63.4375 L534.9,63.5375 L534.8,63.5375 L535.4,63.3375 L535.4,63.3375 Z M581,55.7375 C581.4,56.0375 581.8,56.2375 582.1,56.5375 C582.1,56.5375 582,56.4375 582,56.4375 L582,56.2375 C582,56.2375 582.2,56.2375 582.2,56.1375 C582.2,56.0375 582.2,55.9375 582.2,55.8375 C582.2,55.7375 582.2,55.6375 582.2,55.6375 L582.3,55.5375 L582.3,55.4375 L582.1,55.3375 L582.1,55.2375 L581.9,55.2375 L582,55.3375 L581.9,55.3375 L581.8,55.5375 C581.8,55.5375 581.6,55.4375 581.6,55.4375 C581.6,55.3375 581.5,55.3375 581.2,55.3375 C580.8,55.4375 581,55.7375 581,55.7375 L581,55.7375 M568.5,63.4375 C568.5,63.4375 568.3,63.5375 568.3,63.4375 C568.3,63.3375 568,63.2375 568,63.2375 L567.7,62.8375 L567.5,62.8375 C567.5,62.8375 566.8,62.9375 566.8,62.9375 C566.5,62.8375 566.3,62.8375 566,62.7375 C565.7,62.7375 565.8,62.6375 565.7,62.5375 C565.7,62.4375 565.6,62.3375 565.5,62.3375 C565.3,62.3375 565.2,62.4375 565.2,62.4375 C565.1,62.4375 564.8,62.2375 564.7,62.2375 C564.6,62.2375 564.4,62.1375 564.3,62.0375 C564.2,61.9375 564,61.5375 563.9,61.5375 C563.8,61.5375 563.6,61.5375 563.5,61.5375 C563.4,61.6375 563.5,61.7375 563.6,61.8375 C563.7,61.9375 563.8,62.1375 563.9,62.2375 C564,62.3375 564,62.4375 564,62.5375 C564,62.6375 564.1,62.7375 564.1,62.7375 L564.2,62.7375 L564.2,62.5375 L564.3,62.4375 L564.4,62.5375 L564.5,62.8375 C564.5,62.8375 564.6,62.9375 564.6,62.9375 C564.7,62.9375 564.7,62.9375 564.8,62.9375 C564.9,62.9375 565,62.9375 565,62.8375 C565.1,62.7375 565.4,62.4375 565.4,62.4375 C565.4,62.4375 565.4,62.5375 565.4,62.7375 C565.4,62.9375 565.7,63.0375 565.8,63.0375 C565.9,63.0375 565.9,63.0375 566,63.1375 C566.1,63.1375 566.1,63.2375 566.2,63.3375 C566.2,63.4375 566.3,63.4375 566.3,63.4375 C566.3,63.4375 566.3,63.6375 566.1,63.8375 C565.9,64.0375 566,64.2375 566,64.2375 C566,64.2375 565.9,64.2375 565.8,64.3375 C565.8,64.4375 565.8,64.4375 565.7,64.4375 C565.6,64.4375 565.5,64.5375 565.4,64.6375 C565.3,64.7375 565.2,64.7375 565,64.7375 C564.8,64.8375 564.9,65.0375 564.9,65.0375 C564.6,65.1375 564.2,65.3375 563.8,65.4375 C563.8,65.6375 563.8,65.8375 563.8,66.0375 C563.9,66.0375 563.9,66.0375 564,66.0375 C564.1,66.0375 564.1,66.0375 564.2,66.0375 C564.3,66.0375 564.3,66.0375 564.4,66.0375 L564.7,65.8375 L564.8,65.8375 C564.8,65.8375 564.9,66.2375 564.7,66.4375 C564.6,66.6375 564.6,67.1375 564.4,67.4375 C564.2,67.6375 564,67.9375 563.9,68.1375 C563.9,68.1375 563.8,68.2375 563.8,68.2375 C563.7,70.2375 563.5,72.2375 563,74.1375 C565.1,74.0375 567.2,73.9375 569.3,73.7375 C570.2,71.5375 570.7,69.2375 570.7,66.7375 L570.6,66.7375 C570.6,66.7375 570.4,66.5375 570.3,66.3375 C570.2,66.1375 570.1,66.0375 569.9,65.6375 C569.7,65.2375 569.5,65.0375 569.5,64.8375 L569.2,64.0375 C569.2,64.0375 569.2,63.9375 569.2,63.8375 C569.2,63.7375 569.2,63.7375 569.2,63.7375 L569.1,63.6375 L569,63.8375 C569,63.8375 568.8,63.9375 568.7,63.9375 C568.6,63.9375 568.3,63.5375 568.3,63.5375 C568.3,63.5375 568.4,63.5375 568.5,63.4375 C568.5,63.5375 568.5,63.4375 568.5,63.4375 M578,59.6375 L577.9,59.9375 C578,59.9375 578.1,59.9375 578.2,60.0375 L578.2,59.9375 L578.2,59.7375 L578,59.6375 Z M577.6,53.3375 C578.3,53.4375 578,53.3375 578.8,53.6375 C579.1,53.7375 579.8,53.8375 580.5,53.9375 C576.6,52.2375 572,50.9375 566.9,50.1375 C570.4,50.8375 573.6,51.9375 576.4,53.2375 C576.7,53.2375 577.2,53.3375 577.6,53.3375 M562.5,74.3375 C562.9,72.6375 563.2,70.8375 563.3,68.8375 C563.2,68.9375 563.1,69.0375 563,69.1375 C562.7,69.5375 562.4,70.4375 562.4,70.4375 L562.6,70.6375 C562.6,70.6375 562.7,70.8375 562.7,70.9375 C562.7,71.0375 562.7,71.3375 562.7,71.3375 C562.7,71.3375 562.9,71.4375 562.9,71.6375 C562.9,71.7375 562.9,71.7375 562.9,72.0375 C562.9,72.3375 562.9,72.3375 562.9,72.6375 C562.9,72.9375 562.4,73.2375 562.2,73.3375 C562,73.4375 562,73.5375 561.9,73.6375 C561.8,73.7375 561.7,73.9375 561.7,73.9375 C561.7,73.9375 561.8,74.0375 561.8,74.3375 C562,74.3375 562.2,74.3375 562.5,74.3375 M541.1,51.3375 C541.3,51.2375 540.9,51.2375 540.9,51.2375 L540.3,51.4375 L540.2,51.4375 C539.1,51.7375 538.1,52.0375 537.1,52.4375 C537.2,52.4375 537.2,52.4375 537.2,52.4375 C537.2,52.4375 537.4,52.3375 537.6,52.2375 C537.7,52.2375 538,52.2375 538,52.2375 L537.7,52.5375 L537.9,52.6375 L537.7,53.2375 L537.9,53.2375 C537.9,53.2375 538.3,53.1375 538.3,53.2375 C538.3,53.3375 538.3,53.0375 538.3,53.0375 L538.8,52.9375 L539,52.9375 L539.3,52.7375 L539.2,52.6375 L539,52.5375 L539.4,52.3375 C539.4,52.3375 539.7,52.0375 539.7,52.0375 C539.7,52.0375 540,51.7375 540,51.7375 C540,51.7375 540.4,51.6375 540.4,51.6375 C540.4,51.6375 540.4,51.7375 540.4,51.7375 L539.9,52.0375 L539.7,52.2375 L539.6,52.3375 L539.8,52.5375 C539.8,52.5375 539.9,52.4375 540,52.4375 C540,52.4375 540.1,52.4375 540.1,52.4375 C540.3,52.3375 540.5,52.2375 540.7,52.1375 C540.1,52.1375 540.6,51.9375 540.6,51.9375 L541,51.6375 L541.5,51.3375 L542.3,51.2375 L542.7,51.0375 L541.3,51.1375 C541.4,51.5375 541,51.4375 541.1,51.3375 M538.9,52.3375 L538.6,52.0375 L539.2,51.8375 L539.4,51.9375 L538.9,52.3375 Z M536.7,37.1375 C536.6,37.1375 536.6,37.2375 536.6,37.3375 C536.6,37.3375 536.6,37.3375 536.6,37.3375 C536.6,37.4375 536.8,37.4375 536.9,37.4375 C537,37.3375 537.2,37.1375 537.3,37.0375 C537.2,37.0375 536.8,37.1375 536.7,37.1375" id="Shape"></path>
            <path d="M599.8,3.5375 C599.7,3.5375 599.6,3.4375 599.4,3.5375 C599,3.7375 597.6,4.8375 597.1,5.1375 C597.1,5.0375 597.1,5.0375 597.2,4.9375 L597.3,4.7375 C597.6,4.0375 598.6,2.1375 598.6,0.9375 C598.6,0.6375 598.6,0.4375 598.5,0.2375 C598.5,0.2375 598.5,0.0375 598.3,0.0375 C598.1,-0.0625 597.9,0.0375 597.6,0.3375 C597.1,0.8375 593.9,3.8375 593.8,3.8375 C593.8,3.8375 593.7,3.9375 593.7,3.9375 L593.7,3.9375 C593.7,3.9375 593.7,3.8375 593.7,3.7375 L593.9,3.0375 C594,2.5375 594.2,1.9375 594.2,1.5375 C594.2,1.3375 594.2,1.1375 594.1,1.0375 C594.1,0.9375 594,0.8375 593.9,0.8375 C593.7,0.8375 593.5,0.9375 593.4,1.1375 C593.1,1.6375 588.9,6.0375 588.1,6.6375 C588,6.7375 588,6.7375 588,6.7375 C588,6.5375 588.2,6.2375 588.4,5.7375 C588.5,5.4375 589.4,3.4375 589.4,2.5375 C589.4,2.4375 589.4,2.3375 589.3,2.2375 C589.3,2.1375 589.1,2.0375 589,2.0375 C588.4,2.0375 587.2,3.3375 584.3,6.6375 C584.3,6.6375 582,9.2375 581.9,9.3375 L581.9,9.3375 C581.9,9.2375 581.9,9.1375 581.9,9.0375 C581.9,8.5375 581.8,7.5375 581.5,7.0375 C581.3,6.8375 581.2,6.7375 581,6.7375 C580.7,6.7375 580.5,7.0375 580.1,7.8375 C579.7,8.7375 576.5,12.0375 572.9,14.8375 L572.8,14.9375 C569.5,17.5375 567.3,19.2375 564.8,23.0375 C562.8,25.9375 559.4,27.4375 556.9,28.6375 C556.2,28.9375 555.5,29.2375 554.9,29.5375 C554.7,29.5375 552.3,29.2375 549.6,29.3375 C549.4,28.2375 548.7,25.1375 545.1,22.9375 C541.5,20.6375 536.2,17.2375 532.5,14.0375 C530.2,12.0375 528.7,10.1375 527.8,8.9375 C527.2,8.2375 527,7.9375 526.9,7.9375 C526.7,7.8375 526.5,7.9375 526.4,8.0375 C526.3,8.1375 526.3,8.2375 526.3,8.5375 C526.3,8.8375 526.4,9.3375 526.7,10.1375 L526.7,10.1375 L526.5,10.0375 C526,9.7375 524.7,9.1375 523.2,7.0375 C521.7,4.9375 520.6,1.9375 520.6,1.9375 C520.6,1.8375 520.5,1.7375 520.4,1.7375 C520.2,1.7375 520.1,1.9375 520.1,2.1375 C520,2.5375 519.9,3.0375 519.9,3.8375 C519.9,4.5375 520,5.5375 520.3,6.8375 L520.3,6.8375 C520.1,6.7375 518.1,4.8375 516.1,1.5375 C516,1.4375 515.8,1.1375 515.5,1.2375 C515.4,1.2375 515.3,1.3375 515.3,1.4375 C515.3,1.5375 515.2,1.6375 515.2,1.8375 C515.2,2.6375 515.8,4.2375 516.8,6.3375 C515.5,5.1375 514.4,3.8375 513.3,2.4375 C513.2,2.3375 512.9,1.8375 512.6,1.8375 C512.5,1.8375 512.4,1.8375 512.3,1.9375 C512.2,2.0375 512.2,2.1375 512.2,2.3375 C512.2,3.0375 512.6,4.4375 513.5,6.3375 C512.8,5.8375 512.2,5.3375 511.5,4.8375 C511.5,4.8375 511.2,4.6375 511,4.7375 C510.9,4.8375 510.8,5.0375 510.8,5.3375 C510.8,5.9375 511.3,7.0375 511.5,7.4375 C511.4,7.4375 511.3,7.3375 511.3,7.3375 C511.1,7.2375 510.7,7.0375 510.5,7.0375 C510.4,7.0375 510.3,7.0375 510.2,7.1375 C510.2,7.2375 510.2,7.2375 510.2,7.3375 C510.2,7.7375 510.5,8.3375 510.7,8.7375 C511,9.2375 512.4,10.5375 512.9,11.0375 C512.4,10.8375 511.4,10.6375 511.3,10.5375 C511.3,10.5375 510.9,10.4375 510.7,10.6375 C510.6,10.7375 510.6,10.7375 510.6,10.8375 C510.6,10.8375 510.6,10.9375 510.6,11.0375 C510.8,11.5375 512.5,12.8375 515.7,14.6375 C515.1,14.5375 514.8,14.6375 514.7,14.7375 C514.7,14.7375 514.6,14.8375 514.6,14.8375 C514.6,14.9375 514.6,14.9375 514.6,14.9375 C514.8,15.4375 516.7,16.4375 518.3,16.9375 C518.3,16.9375 518.2,16.9375 518.1,16.9375 C517.7,16.9375 517.5,16.9375 517.4,17.0375 C517.4,17.0375 517.4,17.1375 517.4,17.1375 L517.4,17.2375 C517.5,17.5375 517.6,17.9375 521.2,19.3375 C520.7,19.3375 520.4,19.3375 520.3,19.5375 C520.3,19.5375 520.3,19.6375 520.3,19.6375 C520.3,19.6375 520.3,19.7375 520.3,19.7375 C520.5,20.1375 522.2,21.2375 525.5,22.2375 C525.2,22.3375 525,22.3375 524.9,22.4375 L524.9,22.5375 L524.9,22.5375 C525.1,23.2375 528.4,24.4375 531.4,25.3375 C531.1,25.3375 530.9,25.4375 530.8,25.5375 C530.7,25.5375 530.7,25.6375 530.7,25.7375 L530.7,25.7375 C530.7,26.0375 531.6,27.0375 538.5,28.8375 C538.6,28.8375 538.6,28.8375 538.7,28.8375 C538.7,28.8375 538.6,28.8375 538.6,28.8375 C538.5,28.9375 538.3,28.9375 538.3,29.1375 L538.3,29.1375 C538.3,29.3375 538.5,29.5375 539,29.8375 C540,30.4375 541.7,31.0375 542.2,31.2375 C540.1,32.3375 538,33.5375 536,34.8375 C536,34.8375 535.9,34.9375 535.9,34.9375 L535.9,35.0375 C535.9,35.2375 535.8,36.0375 535,36.4375 C534.5,36.7375 533.8,37.2375 533.6,38.2375 C533.6,38.3375 533.6,38.4375 533.6,38.5375 C533.6,39.3375 534.1,40.3375 535.1,41.3375 C535.3,41.5375 535.5,41.5375 535.5,41.4375 C535.6,41.3375 535.6,41.1375 535.6,41.0375 C535.6,41.0375 535.4,40.5375 535.6,40.2375 C535.7,40.0375 535.8,39.9375 536,39.9375 C536.6,39.7375 537.2,39.9375 537.5,40.0375 L537.8,40.1375 C538.2,40.2375 539,40.2375 539.6,39.8375 C540.1,39.5375 541.7,39.6375 542.6,39.7375 L542.9,39.7375 L543.2,39.7375 C543,40.0375 542.7,40.3375 542.5,40.5375 L542,40.9375 C541.5,41.3375 541.2,41.5375 540.8,42.0375 C540.7,42.0375 538,42.5375 538,42.5375 C538,42.5375 537.9,42.5375 537.9,42.6375 C537.9,42.6375 537.2,43.9375 536.2,44.8375 C535.2,45.7375 534.1,46.1375 534.1,46.1375 C534.1,46.1375 534.1,46.1375 534.1,46.1375 C534.1,46.1375 533.7,46.7375 533.6,48.0375 C533.6,48.1375 533.6,48.2375 533.6,48.4375 C533.6,48.5375 533.6,48.5375 533.6,48.6375 L533.6,48.7375 C533.6,48.7375 533.8,49.0375 534,49.1375 C534.1,49.1375 534.4,49.4375 534.8,49.6375 C534.8,49.6375 535.1,49.7375 535.4,49.8375 L535.4,49.8375 L535.4,49.8375 L535.4,49.8375 L535.5,49.8375 C532.6,50.6375 529.9,51.6375 527.4,52.8375 C519.7,56.5375 515.4,61.5375 515.4,67.0375 C515.4,72.5375 519.6,77.5375 527.4,81.2375 C534.7,84.7375 544.4,86.6375 554.7,86.6375 C565,86.6375 574.7,84.7375 582,81.2375 C589.7,77.5375 594,72.5375 594,67.0375 C594,61.5375 589.8,56.5375 582,52.8375 C577.4,50.6375 571.9,49.0375 565.9,48.2375 L565.9,48.2375 C565.9,48.2375 565.9,48.2375 566,48.2375 C566.3,48.1375 566.4,47.9375 566.5,47.6375 C566.9,47.8375 567.9,48.3375 568.7,48.1375 C569.8,47.8375 570.1,46.9375 570.1,46.7375 C570.1,46.6375 570.2,46.6375 570.3,46.6375 L570.5,46.7375 C570.8,46.8375 571.4,47.0375 572,46.8375 C572.4,46.6375 572.7,46.2375 572.8,46.0375 C572.9,45.8375 573,45.7375 573.1,45.7375 C573.2,45.6375 573.3,45.6375 573.5,45.6375 C573.8,45.5375 574.3,45.5375 574.5,45.2375 C574.5,45.2375 574.7,44.8375 574.7,44.5375 C574.7,44.4375 574.7,44.1375 574.9,44.0375 C574.9,44.0375 576.5,43.4375 576.8,42.3375 C576.8,42.3375 576.9,42.0375 576.8,41.7375 C576.7,41.4375 576.4,41.3375 576,41.2375 L563.5,37.9375 C563.5,37.9375 563.1,37.7375 562.7,37.2375 C563.8,37.2375 567.9,37.2375 570.5,36.4375 C570.6,36.4375 570.8,36.2375 570.8,36.1375 C570.8,36.0375 570.7,35.9375 570.6,35.8375 C570.4,35.7375 570.3,35.6375 570.2,35.6375 L570.3,35.6375 C570.8,35.5375 574.3,34.7375 575.1,34.3375 C575.5,34.1375 575.6,33.9375 575.6,33.8375 L575.6,33.8375 C575.6,33.6375 575.3,33.5375 575.1,33.5375 C575,33.5375 574.7,33.5375 574.5,33.4375 C574.6,33.4375 574.8,33.3375 574.8,33.3375 C575.8,33.1375 578.5,32.5375 580.1,31.8375 C580.2,31.7375 580.5,31.6375 580.5,31.4375 L580.5,31.4375 C580.5,31.3375 580.5,31.2375 580.3,31.1375 C580,30.9375 578.6,30.9375 578.4,30.9375 C578.4,30.9375 578.5,30.9375 578.5,30.8375 C578.6,30.8375 579,30.6375 579.4,30.5375 C581.2,29.9375 584.5,28.8375 585.4,27.6375 C585.5,27.5375 585.5,27.4375 585.5,27.3375 C585.5,27.2375 585.4,27.1375 585.2,27.0375 C584.8,27.0375 584.4,27.0375 584,27.0375 L584.1,26.9375 L584.4,26.8375 C585.5,26.3375 588.8,24.6375 590.5,23.1375 C590.6,23.0375 590.8,22.7375 590.8,22.5375 L590.8,22.5375 L590.7,22.3375 C590.7,22.3375 590.5,22.1375 590,22.1375 L589.9,22.1375 C589.9,22.1375 590,22.0375 590.1,22.0375 L590.3,21.9375 C592.5,20.8375 594,19.7375 594.8,18.8375 C594.8,18.8375 594.9,18.6375 594.9,18.5375 C594.9,18.4375 594.9,18.4375 594.9,18.4375 C594.9,18.3375 594.8,18.2375 594.6,18.2375 C594.2,18.2375 593.2,18.3375 593,18.4375 L593,18.4375 C593,18.4375 593,18.3375 593.2,18.2375 L593.5,18.0375 C594.3,17.5375 596,16.3375 596.9,14.8375 C596.9,14.8375 596.9,14.8375 596.9,14.8375 C596.9,14.7375 596.9,14.4375 596.7,14.3375 C596.6,14.3375 596.5,14.2375 596.4,14.3375 L595.5,14.5375 C595.5,14.5375 595.5,14.5375 595.6,14.4375 C595.6,14.4375 598.5,11.4375 599.1,9.7375 C599.3,9.2375 599.4,8.9375 599.4,8.7375 C599.4,8.6375 599.4,8.5375 599.3,8.5375 C599.2,8.4375 598.9,8.5375 598.7,8.7375 L598.6,8.8375 L596.6,10.0375 L596.6,10.0375 C596.6,10.0375 596.7,9.9375 596.8,9.8375 L597.2,9.3375 C598,8.3375 599.6,6.5375 599.8,5.0375 L599.8,5.0375 C599.8,5.0375 599.8,4.9375 599.8,4.9375 C600,3.8375 600,3.6375 599.8,3.5375 M584.2,10.5375 C586.6,8.8375 589.6,6.5375 592.2,3.8375 L592.2,3.8375 C592.2,3.9375 592.2,4.0375 592,4.2375 C591.5,5.0375 588.4,8.0375 584,11.0375 C584.2,10.9375 584.2,10.7375 584.2,10.5375 M595.6,3.6375 C595.6,3.6375 595.7,3.6375 595.7,3.6375 C595.7,3.6375 595.8,3.7375 595.8,3.7375 L595.8,3.7375 C595.8,3.8375 595.7,4.2375 595.2,4.8375 C594.6,5.5375 589.1,10.7375 582.6,14.3375 C582.9,13.9375 583.1,13.5375 583.3,13.1375 C586.6,11.1375 590.8,8.1375 595.6,3.6375 M583.3,11.2375 C583.3,11.3375 583.1,11.6375 582.3,12.3375 C581.4,12.9375 580.5,13.4375 579.5,13.9375 C579.6,13.7375 579.7,13.6375 579.8,13.4375 C579.9,13.3375 581.3,12.5375 583.3,11.2375 M577.8,23.9375 C576,24.5375 574.2,25.1375 572.4,25.5375 C572.4,25.5375 572.3,25.5375 572.3,25.5375 C572.3,25.5375 572.3,25.4375 572.3,25.4375 L573.1,24.1375 C573.1,24.1375 573.1,24.0375 573.2,24.0375 C575.2,23.5375 577.1,23.0375 579,22.3375 C579,22.3375 579,22.3375 579,22.4375 L579,22.5375 C579,22.6375 579,22.6375 579,22.7375 C578.7,23.2375 578.3,23.6375 577.8,23.9375 M577.8,25.3375 L577.8,25.3375 C577.8,25.4375 577.7,25.4375 577.7,25.5375 C577.5,25.8375 577,26.2375 576,26.6375 C574.2,27.2375 572.3,27.8375 570.4,28.2375 C570.3,28.2375 570.3,28.2375 570.3,28.1375 C570.3,28.1375 570.3,28.0375 570.3,28.0375 L571.1,27.0375 C571.1,27.0375 571.1,27.0375 571.2,27.0375 C572,26.8375 574.4,26.3375 577.7,25.2375 C577.8,25.1375 577.8,25.2375 577.8,25.3375 M578.7,21.0375 C577.2,21.6375 575.6,22.0375 574.2,22.4375 C574.1,22.4375 574.1,22.4375 574.1,22.4375 C574.1,22.4375 574.1,22.3375 574.1,22.3375 L574.7,21.0375 C574.7,21.0375 574.8,20.9375 574.8,20.9375 C575.7,20.7375 577.4,20.2375 579.7,19.4375 C579.8,19.4375 579.8,19.5375 579.8,19.5375 L579.8,19.5375 C579.8,19.6375 579.8,19.7375 579.8,19.8375 C579.6,20.1375 579.3,20.6375 578.7,21.0375 M579.5,18.0375 C578.2,18.5375 576.9,18.9375 575.6,19.3375 C575.6,19.3375 575.5,19.3375 575.5,19.3375 C575.5,19.3375 575.5,19.2375 575.5,19.2375 L575.9,18.3375 C575.9,18.3375 575.9,18.2375 576,18.2375 C577.3,17.9375 578.6,17.4375 579.9,16.9375 C579.9,16.9375 580,16.9375 580,17.0375 L580,17.2375 C579.9,17.4375 579.8,17.8375 579.5,18.0375 M577.5,16.7375 C577.4,16.7375 577.4,16.7375 577.3,16.7375 C577.3,16.7375 577.3,16.6375 577.3,16.5375 L577.8,15.9375 L577.8,15.9375 C579.2,15.3375 580.6,14.7375 581.9,13.9375 C581.5,14.5375 580.9,15.1375 580.3,15.5375 C579.4,15.9375 578.5,16.3375 577.5,16.7375 M527.9,10.4375 C528,10.5375 528.3,11.0375 528.3,11.0375 C529.3,12.6375 531.7,15.6375 535.6,18.1375 C539.5,20.6375 540.2,20.7375 544.1,23.7375 C548,26.7375 547.7,28.6375 547.7,28.9375 C547.7,29.2375 547.4,29.2375 547.4,29.2375 C546.6,29.4375 544.8,30.0375 544.5,30.2375 C544.2,30.4375 544.3,30.0375 544.3,30.0375 C544.8,29.3375 544.9,28.4375 544.9,28.4375 C545,24.7375 538.9,22.7375 533.6,18.3375 C528.2,13.9375 528,11.9375 527.8,11.2375 C527.6,10.4375 527.8,10.3375 527.9,10.4375 M528.6,18.2375 C529.9,18.4375 531.1,18.6375 532.4,18.8375 L532.5,18.8375 L532.5,18.8375 L533.6,19.5375 C533.6,19.5375 533.6,19.6375 533.6,19.6375 C533.6,19.6375 533.6,19.7375 533.5,19.6375 L532.9,19.5375 C532.2,19.4375 531.5,19.3375 530.7,19.2375 C529.5,18.9375 528.6,18.5375 528.5,18.3375 C528.6,18.3375 528.6,18.3375 528.6,18.2375 M527,16.7375 C526.9,16.6375 526.9,16.5375 526.9,16.5375 L528.1,16.8375 L530.3,17.2375 L530.3,17.2375 L531.4,17.9375 C531.4,17.9375 531.5,18.0375 531.4,18.0375 C531.4,18.0375 531.3,18.1375 531.3,18.1375 C530.7,18.0375 530,17.9375 529.4,17.7375 C528.1,17.2375 527.1,16.9375 527,16.7375 M531.1,20.5375 C532,20.7375 532.9,20.8375 533.9,20.9375 L535.7,21.1375 L535.7,21.1375 L536.8,21.7375 C536.8,21.7375 536.9,21.8375 536.8,21.8375 C536.8,21.8375 536.7,21.9375 536.7,21.9375 L534.4,21.6375 C534,21.6375 533.6,21.5375 533.2,21.4375 C531.6,21.1375 531.1,20.6375 531.1,20.5375 C531.1,20.5375 531.1,20.5375 531.1,20.5375 M534,22.6375 C534.4,22.7375 534.7,22.7375 535,22.7375 C536,22.8375 537,22.9375 538,23.0375 L538,23.0375 L538.4,23.3375 C538.4,23.3375 538.5,23.4375 538.4,23.4375 C538.4,23.4375 538.3,23.5375 538.3,23.5375 L538.2,23.5375 C537.8,23.4375 537.2,23.4375 536.6,23.4375 C535.2,23.3375 534,22.9375 533.9,22.8375 C533.9,22.7375 534,22.6375 534,22.6375 M527.4,15.0375 L527.5,15.0375 L527.7,15.1375 L527.7,15.1375 L528.8,15.9375 C528.8,15.9375 528.9,16.0375 528.8,16.0375 C528.8,16.0375 528.7,16.1375 528.7,16.1375 L527.7,15.8375 C527.5,15.8375 527.3,15.7375 527.1,15.6375 C525.9,15.2375 525.7,14.9375 525.6,14.7375 C525.6,14.7375 525.6,14.6375 525.5,14.6375 C525.5,14.6375 525.5,14.6375 525.5,14.5375 C526.2,14.7375 526.8,14.9375 527.4,15.0375 M526.5,13.7375 C526.5,13.7375 526.4,13.8375 526.4,13.7375 C525.7,13.5375 525,13.3375 524.3,13.1375 C523.7,12.8375 523.1,12.4375 522.6,12.0375 C522.5,11.9375 522.5,11.9375 522.5,11.9375 C523.4,12.2375 524.5,12.6375 525.6,12.9375 L526.5,13.5375 C526.5,13.6375 526.5,13.7375 526.5,13.7375 M521,5.2375 C523,8.9375 525.2,10.1375 525.4,10.2375 C525.9,10.5375 526.2,11.4375 526.4,11.8375 C526.4,11.8375 526.4,11.9375 526.4,11.9375 L526.4,11.9375 C526.2,11.8375 522.9,9.8375 522,7.9375 C521.2,6.5375 521,5.6375 521,5.2375 L521,5.2375 M520.6,9.4375 C521.5,9.9375 522.4,10.4375 523.4,10.8375 L524.2,11.5375 C524.2,11.5375 524.2,11.6375 524.2,11.6375 C524.2,11.6375 524.1,11.7375 524.1,11.6375 L523.3,11.3375 L523.3,11.3375 C523.3,11.3375 523.2,11.2375 522.8,11.1375 C522.4,10.9375 522.1,10.7375 521.7,10.6375 C521.1,10.2375 520.8,10.0375 520.7,9.8375 C520.7,9.7375 520.6,9.7375 520.6,9.6375 C520.6,9.5375 520.6,9.5375 520.6,9.4375 M514,4.2375 C514,4.2375 514.1,4.2375 514.1,4.2375 C514.3,4.5375 514.9,5.3375 516.2,6.5375 L516.3,6.6375 C516.7,7.0375 517.2,7.3375 517.7,7.7375 C518.3,8.1375 518.8,8.5375 519.4,8.8375 C519.5,9.0375 519.5,9.2375 519.6,9.4375 C518.8,8.9375 518,8.4375 517.3,7.8375 C516.5,7.2375 515.8,6.5375 515.1,5.8375 L514.4,5.1375 L514.2,4.8375 C514.1,4.7375 513.9,4.5375 513.9,4.3375 L513.9,4.3375 L513.9,4.3375 L514,4.2375 C513.9,4.2375 514,4.2375 514,4.2375 M513.4,7.2375 L513.4,7.2375 L513.4,7.2375 L513.4,7.2375 C513.4,7.1375 513.4,7.1375 513.4,7.1375 C513.4,7.1375 513.5,7.1375 513.5,7.1375 C513.6,7.2375 514,7.5375 514.5,8.0375 C515.5,8.7375 517.4,9.9375 520.6,11.3375 C520.8,11.6375 521,11.8375 521.3,12.1375 C519,11.1375 516.3,9.8375 514.2,8.1375 L513.7,7.7375 C513.6,7.5375 513.5,7.3375 513.4,7.2375 M514.2,10.0375 L513.9,9.8375 L513.9,9.8375 L513.9,9.8375 L513.9,9.7375 L513.9,9.6375 C513.9,9.6375 514,9.5375 514,9.6375 C514.5,10.0375 516.3,11.2375 519.7,12.5375 C520.5,12.8375 521.4,13.2375 522.2,13.5375 C522.8,13.7375 523.5,13.9375 524.1,14.2375 C524.3,14.3375 524.5,14.4375 524.6,14.6375 C524.6,14.6375 524.6,14.7375 524.6,14.7375 L524.6,14.8375 C524.6,14.9375 524.6,15.0375 524.6,15.0375 C523.6,14.7375 522.6,14.4375 521.7,14.0375 C518.7,12.9375 516.4,11.7375 514.6,10.4375 C514.7,10.3375 514.2,10.0375 514.2,10.0375 Z M515.6,12.7375 C515.6,12.7375 515.3,12.5375 515.2,12.5375 L515.2,12.5375 L515.2,12.5375 C515.2,12.5375 515.2,12.5375 515.2,12.4375 L515.2,12.3375 C515.2,12.3375 515.3,12.2375 515.3,12.3375 L515.9,12.6375 C516.9,13.1375 518,13.6375 519.1,14.0375 C520.9,14.7375 523,15.4375 525.1,16.0375 L525.5,16.1375 C525.6,16.2375 525.9,16.4375 525.9,16.6375 C525.9,16.7375 525.9,16.7375 525.9,16.7375 C525.8,16.7375 525.7,16.7375 525.3,16.6375 L524.2,16.3375 L522.3,15.7375 L522.2,15.7375 L521.5,15.5375 L520.5,15.2375 C518.7,14.4375 516.9,13.6375 515.6,12.7375 M519.5,16.2375 L519.5,16.2375 C519.5,16.2375 519.3,16.1375 518.5,15.7375 L518.2,15.6375 C518.2,15.6375 518.2,15.5375 518.2,15.5375 L518.2,15.5375 C518.2,15.4375 518.3,15.4375 518.3,15.4375 C519.4,15.8375 520.6,16.2375 521.8,16.6375 C523.5,17.1375 525.2,17.5375 527,17.9375 C527.2,18.0375 527.6,18.4375 527.7,18.5375 C527.8,18.6375 527.7,18.6375 527.7,18.7375 C526.7,18.5375 525.6,18.2375 524.6,17.9375 C523.6,17.6375 522.6,17.3375 521.6,16.9375 C520.8,16.8375 520.2,16.5375 519.5,16.2375 M522.5,18.5375 L522.5,18.5375 C522.4,18.5375 522.4,18.4375 522.5,18.5375 L522.4,18.4375 C522.4,18.3375 522.5,18.3375 522.5,18.3375 C523.4,18.6375 525.9,19.5375 529.6,20.2375 C529.8,20.3375 530.4,20.8375 530.5,20.9375 C530.5,20.9375 530.6,21.0375 530.5,21.0375 C530.4,21.0375 530.4,21.0375 530.3,20.9375 C527.3,20.3375 524.7,19.5375 522.5,18.5375 M526.8,21.3375 C526.8,21.2375 526.8,21.2375 526.8,21.3375 L526.7,21.2375 C526.7,21.2375 526.8,21.1375 526.8,21.1375 C528.6,21.6375 530.4,22.0375 532.2,22.4375 C532.4,22.5375 532.7,22.7375 532.8,22.8375 C532.9,22.8375 532.9,22.9375 532.9,23.0375 C532.7,23.0375 532.6,22.9375 532.5,22.9375 C530.6,22.4375 528.7,21.9375 526.8,21.3375 M530.7,23.7375 C530.6,23.7375 530.6,23.6375 530.6,23.6375 C530.6,23.6375 530.7,23.5375 530.7,23.5375 C531.8,23.8375 533.4,24.1375 535.3,24.4375 C535.4,24.4375 535.5,24.5375 535.6,24.5375 C535.8,24.6375 536.3,24.9375 536.3,25.0375 C534.5,24.7375 532.6,24.3375 530.7,23.7375 M538.7,26.9375 C538.1,26.8375 537.4,26.7375 536.5,26.6375 C536.4,26.6375 536.4,26.5375 536.4,26.5375 C536.4,26.4375 536.4,26.4375 536.5,26.4375 C537.2,26.5375 537.9,26.5375 538.6,26.6375 L538.6,26.6375 C538.6,26.6375 538.8,26.6375 539,26.7375 C539.2,26.8375 539.6,27.0375 539.6,27.1375 C539.3,27.0375 539,27.0375 538.7,26.9375 M539.7,25.4375 C538.4,25.3375 537.3,24.9375 537.2,24.8375 C537.1,24.7375 537.1,24.7375 537.1,24.7375 C538.1,24.8375 539,24.9375 540,24.9375 L540,24.9375 C540,24.9375 540.1,25.0375 540.2,25.0375 C540.5,25.1375 540.8,25.4375 539.7,25.4375 M542,27.1375 C541.8,27.1375 541.3,27.0375 541.1,26.9375 C541.1,26.9375 541,26.8375 541,26.8375 C540.8,26.7375 540.9,26.6375 540.9,26.6375 L541.1,26.6375 L541.9,26.6375 L542,26.6375 C542,26.6375 542.2,26.8375 542.2,26.9375 C542.1,27.0375 542.1,27.0375 542,27.1375 M542.3,28.3375 L542.3,28.3375 C542.1,28.2375 542.2,28.2375 542.2,28.2375 L542.3,28.2375 L542.7,28.2375 L542.7,28.2375 C542.7,28.2375 542.8,28.3375 542.8,28.4375 C542.8,28.4375 542.8,28.4375 542.7,28.5375 C542.8,28.4375 542.5,28.4375 542.3,28.3375 M542.8,41.6375 L545.2,39.8375 C545.4,39.6375 545.5,39.6375 545.5,39.6375 L547,39.6375 C547,39.6375 544.8,40.9375 544.1,41.2375 C543.5,41.5375 542.9,41.7375 542.8,41.6375 C542.8,41.7375 542.8,41.6375 542.8,41.6375 M554.6,38.6375 C554.6,38.4375 554.2,37.7375 552.7,37.4375 C552.7,37.4375 552.6,37.3375 552.8,37.3375 C553,37.2375 554.1,37.0375 555.7,37.5375 C555.7,37.5375 555.8,37.5375 555.8,37.5375 C555.8,37.4375 555.5,36.8375 554.8,36.6375 C554.8,36.6375 554.7,36.5375 554.8,36.5375 C554.9,36.5375 557.6,36.1375 557.6,40.0375 C557.6,40.0375 557.5,40.1375 557.4,40.0375 C557.3,39.9375 556.7,39.1375 556.4,38.7375 C556,38.3375 556,38.7375 556,39.3375 C556,39.9375 555.7,42.0375 555.5,41.7375 C555.3,41.3375 555.1,40.5375 554.8,40.9375 C554.5,41.3375 554.2,42.2375 552.8,43.0375 C552.8,43.0375 552.7,43.1375 552.7,42.9375 C552.7,42.7375 552.9,41.6375 552.9,41.6375 C552.9,41.6375 552.9,41.4375 552.9,41.4375 C552.9,41.4375 551.5,42.6375 549.9,43.3375 C549.9,43.3375 549.7,43.4375 549.7,43.2375 C549.8,43.0375 550.3,41.7375 550.3,41.7375 C550.3,41.7375 549,42.5375 546.6,42.6375 C546.6,42.6375 546.5,42.6375 546.5,42.5375 C546.5,42.4375 546.4,41.6375 546,41.3375 C546,41.3375 547.3,40.8375 548.5,40.0375 C549.1,39.6375 549.7,39.2375 550.1,38.8375 C551.1,38.5375 552.5,38.3375 554.5,38.5375 C554.5,38.7375 554.7,38.8375 554.6,38.6375 M562.1,46.1375 L562.1,46.1375 L562,46.3375 C561.9,46.3375 561.8,46.3375 561.5,46.2375 L559.2,42.8375 C559.2,42.8375 559.2,42.7375 559.2,42.7375 C559.3,42.7375 559.3,42.7375 559.3,42.7375 C559.3,42.7375 562.1,46.1375 562.1,46.1375 Z M560.2,41.5375 C560.3,41.5375 560.3,41.5375 560.2,41.5375 L565.5,46.2375 L565.5,46.3375 C565.5,46.4375 565.4,46.5375 565.3,46.5375 C565.2,46.6375 565,46.6375 564.8,46.5375 L564.6,46.4375 L562.3,43.9375 L560.7,42.1375 L560.2,41.5375 C560.2,41.6375 560.2,41.6375 560.2,41.5375 M559.4,44.9375 C559.3,44.9375 559.3,44.9375 559.3,44.9375 L558.4,43.1375 C558.4,43.1375 558.4,43.0375 558.4,43.0375 C558.4,43.0375 558.5,43.0375 558.5,43.0375 L559.4,44.8375 C559.5,44.8375 559.5,44.9375 559.4,44.9375 M559.7,37.2375 C559.7,37.2375 559.6,37.2375 559.6,37.2375 C559.1,36.7375 558.6,36.2375 558,35.9375 C558,35.9375 557.9,35.8375 557.9,35.8375 C557.9,35.8375 558,35.7375 558,35.8375 C558,35.8375 558.9,36.3375 559.7,37.2375 C559.7,37.1375 559.7,37.1375 559.7,37.2375 M558.8,38.1375 C558.8,38.2375 558.8,38.3375 558.7,38.4375 C558.6,38.4375 558.5,38.4375 558.5,38.3375 C558.5,38.3375 558.5,38.3375 558.5,38.3375 C557.9,36.8375 557,36.2375 557,36.2375 C556.9,36.1375 556.9,36.0375 556.9,35.9375 C557,35.8375 557.1,35.8375 557.2,35.8375 C557.2,35.8375 557.2,35.8375 557.2,35.8375 C557.1,35.9375 558.1,36.5375 558.8,38.1375 M537.3,45.2375 C537.7,44.6375 539,43.2375 539,43.2375 C539,43.2375 540.8,43.0375 541.8,42.8375 C542.8,42.6375 544.8,42.3375 544.8,42.3375 L544.8,42.5375 C544.8,42.7375 544.4,42.7375 544.4,42.7375 C543.4,42.8375 543.1,43.3375 543,43.8375 C543,44.3375 542.7,44.9375 542.7,44.9375 C542.7,44.7375 542.5,44.0375 542,43.8375 C541.4,43.6375 540.2,44.0375 539.6,44.7375 C539.1,45.5375 539.6,46.6375 539.6,46.6375 C538.6,46.2375 538.5,45.5375 538.6,45.3375 C538.6,45.0375 538.9,44.5375 538.9,44.4375 C538.9,44.3375 538.8,44.3375 538.8,44.3375 C538.8,44.3375 538,45.0375 537.9,45.3375 C537.9,45.6375 538.2,46.5375 538.2,46.5375 C538.2,46.5375 537.4,45.9375 537.1,45.6375 C537,45.4375 537.3,45.2375 537.3,45.2375 M537.9,49.0375 L537.9,49.0375 C537.8,48.9375 537.8,48.8375 537.7,48.8375 L537.2,48.2375 L537.2,48.2375 L537.2,48.2375 C537.2,48.2375 537.2,48.2375 537.1,48.1375 L537.1,48.1375 L537.1,48.0375 C537.1,48.0375 537.1,47.9375 537.1,47.9375 C537.2,47.7375 537.3,47.6375 537.4,47.5375 C537.6,47.7375 538.4,48.2375 539.6,48.4375 C539.6,48.4375 539.7,48.4375 539.7,48.4375 C539.7,48.4375 539.7,48.3375 539.7,48.3375 L539.7,48.3375 C539.7,48.3375 539.7,48.0375 539.7,47.9375 C539.9,47.9375 540.4,48.0375 541,48.0375 C541,48.0375 541.1,48.0375 541.2,47.9375 C541.2,47.9375 541.2,47.8375 541.2,47.7375 L541.2,47.4375 C541,47.2375 540.5,46.6375 540.5,46.1375 C540.5,45.8375 540.8,45.5375 541.3,45.3375 C541.7,45.2375 542.1,45.4375 542.3,45.7375 C542.9,46.7375 542.5,47.1375 542.5,47.1375 C542.5,47.1375 542.5,47.2375 542.5,47.3375 C542.5,47.3375 542.6,47.4375 542.6,47.4375 C542.6,47.4375 543.6,47.1375 543.6,46.1375 L543.6,45.5375 C543.6,45.0375 543.6,44.8375 543.9,44.4375 C543.9,44.4375 544.2,44.2375 544.4,44.5375 C544.5,44.6375 544.9,45.2375 546.9,44.9375 L546.9,44.9375 L546.9,44.9375 C546.8,45.1375 546.6,45.4375 546.5,45.5375 C546.5,45.5375 546.4,45.6375 546.4,45.7375 L546.4,45.7375 C546.4,45.8375 546.5,45.8375 546.6,45.9375 C546.9,45.9375 549.1,46.0375 551,45.1375 C551,45.2375 550.9,45.5375 550.8,45.7375 C550.7,45.8375 550.7,45.8375 550.8,45.9375 C550.8,46.0375 550.9,46.0375 551,46.0375 C551.2,46.0375 553.1,45.5375 555,43.2375 L555,43.2375 C555,43.3375 555.2,43.6375 555.4,43.9375 C555.5,44.0375 555.6,44.1375 555.7,44.0375 C555.7,44.0375 555.8,44.0375 556.7,42.8375 C556.7,42.8375 556.7,42.8375 556.8,42.9375 C556.9,43.0375 557.8,44.8375 558.3,45.9375 C558.3,45.9375 558.8,46.7375 559.4,46.7375 L559.8,46.7375 C560.1,46.7375 560.2,46.7375 560.4,46.8375 L560.7,47.0375 C560.9,47.1375 561.1,47.3375 561.4,47.4375 C559.3,47.2375 557.2,47.1375 555,47.1375 C549.1,47.1375 543.2,47.7375 537.9,49.0375 L537.9,49.0375 L537.9,49.0375 Z M583.9,54.6375 C584.3,54.8375 584.6,55.0375 585,55.2375 C590.4,58.5375 593.3,62.5375 593.3,66.7375 C593.3,71.7375 589.3,76.3375 582,79.8375 C574.8,83.2375 565.3,85.1375 555.2,85.1375 C545.1,85.1375 535.6,83.2375 528.4,79.8375 C521.1,76.3375 517.1,71.7375 517.1,66.7375 C517.1,62.9375 519.4,59.2375 523.8,56.2375 C525.1,55.3375 526.7,54.4375 528.4,53.6375 C528.6,53.5375 528.8,53.4375 528.9,53.4375 C536,50.1375 545.3,48.3375 555.1,48.3375 C565.2,48.3375 574.7,50.2375 581.9,53.6375 C582.6,53.9375 583.2,54.2375 583.9,54.6375 M562.7,47.4375 C563.1,47.3375 563.4,47.0375 563.4,47.0375 C563.4,47.0375 563.4,47.0375 563.5,47.0375 L563.8,47.2375 L564.3,47.5375 C563.7,47.5375 563.2,47.5375 562.7,47.4375 M569.2,46.3375 C569.1,46.4375 568.9,46.6375 568.3,46.2375 L560.9,40.7375 L560.7,40.5375 C560.7,40.5375 560.7,40.5375 560.7,40.4375 L560.8,40.4375 L561.2,40.6375 L568.8,45.4375 C568.8,45.4375 569.2,45.7375 569.3,45.9375 L569.3,45.9375 L569.3,46.0375 C569.3,46.2375 569.3,46.2375 569.2,46.3375 M571.9,44.8375 L571.9,44.9375 C571.8,45.1375 571.5,45.2375 571.3,45.2375 L571.2,45.2375 L571,45.1375 L570.8,45.0375 L565,41.7375 L561.6,39.7375 L561.5,39.6375 C561.5,39.6375 561.5,39.6375 561.5,39.5375 C561.5,39.5375 561.5,39.5375 561.6,39.5375 L561.8,39.6375 L571.8,44.5375 L571.8,44.6375 L571.9,44.8375 M573.8,43.7375 C573.7,43.9375 573.4,44.1375 573.2,44.0375 L573.1,44.0375 L573.1,44.0375 L561.9,38.8375 L561.9,38.7375 L562,38.6375 L571.6,42.3375 L574,43.2375 C574,43.2375 574,43.2375 574,43.2375 C573.9,43.4375 573.8,43.5375 573.8,43.7375 M574.6,41.8375 L574.6,41.8375 C574.7,41.8375 574.8,41.9375 574.9,42.1375 C574.9,42.2375 574.9,42.3375 574.9,42.4375 C574.7,42.6375 574.4,42.5375 574.4,42.5375 L562.9,38.2375 L562.7,38.1375 C562.7,38.1375 562.7,38.1375 562.7,38.1375 C562.7,38.1375 562.7,38.0375 562.8,38.0375 L563,38.0375 L574.6,41.8375 L574.6,41.8375 Z M563.9,31.4375 C560.8,33.6375 554.6,34.4375 553.3,34.4375 C552,34.4375 551,36.0375 549.1,37.3375 C547.2,38.7375 545.2,38.3375 545.2,38.3375 C545.7,37.6375 545.6,36.6375 545.6,36.6375 C545.1,37.5375 544.2,38.2375 543.2,38.5375 C542.4,38.7375 542.1,38.7375 541,38.7375 C540,38.7375 539.2,39.1375 538.7,39.2375 C538.2,39.3375 537.4,39.1375 537.4,39.1375 C537.7,38.9375 538.3,38.7375 538.6,38.7375 C538.9,38.7375 539.9,38.4375 539.9,38.4375 C538.8,38.1375 537.3,38.7375 537.3,38.7375 C536.5,39.0375 536.1,38.7375 536.1,38.7375 C535,39.0375 535.1,39.9375 535.1,39.9375 C535.1,39.9375 534.7,39.3375 534.7,38.3375 C534.7,37.3375 537,36.2375 537,36.2375 C538.2,36.0375 538.8,36.6375 538.8,36.6375 C539.1,37.2375 539.6,37.5375 540,37.1375 C540.4,36.8375 540.5,36.3375 540.8,36.3375 C541.1,36.3375 541.4,36.3375 541.4,36.3375 C541.4,36.3375 541.8,36.0375 541.8,36.0375 C541.8,35.9375 541.7,35.9375 541.7,35.9375 C541.7,35.9375 541.1,36.1375 539.4,36.1375 C537.7,36.2375 537.1,35.1375 537.1,35.1375 C540.2,34.1375 543.3,31.2375 546.6,30.5375 C549.9,29.8375 553.4,30.4375 553.4,30.4375 C552.5,31.5375 552.2,32.3375 552.2,32.3375 C559.8,27.3375 564.5,25.8375 564.5,25.8375 C567.7,20.0375 571.2,17.4375 574,15.6375 C576.7,13.8375 580.1,9.6375 580.3,9.1375 C580.6,8.5375 580.8,8.5375 580.8,8.5375 C580.7,10.6375 578.7,12.8375 577,14.5375 C575.3,16.1375 572.8,17.9375 572.8,17.9375 C572.6,18.1375 572.8,18.2375 572.8,18.2375 C572.8,18.2375 573.3,18.3375 573.4,18.3375 C573.5,18.3375 573.5,18.5375 573.5,18.5375 C573,19.3375 572,20.0375 571.9,20.1375 C571.8,20.3375 571.9,20.3375 571.9,20.3375 C571.9,20.3375 572.1,20.3375 572.3,20.4375 C572.5,20.5375 572.3,20.7375 572.3,20.7375 L570.7,22.2375 C570.6,22.3375 570.6,22.4375 570.6,22.4375 C570.6,22.4375 571.3,22.3375 571.4,22.3375 C571.5,22.3375 571.5,22.5375 571.5,22.5375 C571.2,23.3375 570.2,24.2375 570.1,24.3375 C570,24.5375 570,24.5375 570,24.5375 C570,24.5375 570.7,24.5375 570.8,24.5375 C570.9,24.5375 570.8,24.6375 570.8,24.6375 C569.5,26.5375 566.9,28.0375 566.9,28.0375 C566.9,28.0375 567.7,28.3375 567.7,28.4375 C567.8,28.5375 567.7,28.5375 567.7,28.5375 C566,29.7375 563.3,30.6375 563.3,30.6375 C563.3,30.6375 563.9,30.9375 563.9,31.0375 C564,31.2375 563.9,31.4375 563.9,31.4375 M567,33.4375 C566,33.5375 564.4,33.4375 564.4,33.4375 C564.3,33.4375 564.2,33.3375 564.2,33.2375 C564.2,33.1375 564.3,33.0375 564.4,33.0375 C564.4,33.0375 566,33.0375 567,33.0375 C567.1,33.0375 567.2,33.1375 567.2,33.2375 C567.2,33.2375 567.2,33.2375 567.2,33.2375 C567.2,33.3375 567.1,33.4375 567,33.4375 M572.5,30.5375 L572.5,30.5375 L572.3,30.6375 C571.7,30.8375 571.2,31.0375 570.6,31.2375 C570.1,31.3375 569.6,31.4375 569.2,31.5375 C569,31.5375 568.8,31.6375 568.7,31.6375 C567.9,31.7375 567.2,31.8375 566.5,31.9375 C565.8,32.0375 566.4,31.6375 566.5,31.5375 C566.5,31.5375 566.6,31.5375 566.6,31.5375 C567.3,31.4375 569.4,31.2375 572.6,30.5375 C572.5,30.3375 572.6,30.4375 572.5,30.5375 M568.2,30.2375 C568.1,30.2375 568.1,30.1375 568.2,30.2375 L568.7,29.7375 C568.9,29.5375 569.1,29.5375 569.1,29.5375 C569.9,29.4375 572.4,28.9375 575.9,27.8375 C575.9,27.8375 576,27.8375 575.9,27.9375 L575.8,28.0375 C575.6,28.2375 574.8,28.5375 573.6,28.9375 C571.9,29.4375 570.1,29.8375 568.2,30.2375 M581.6,27.7375 C581.6,27.7375 581.5,27.7375 581.5,27.8375 C581.2,27.9375 578.6,29.2375 574.2,30.4375 C574.5,30.2375 574.8,30.0375 575.1,29.7375 C576.9,29.2375 579,28.5375 581.4,27.7375 C581.5,27.7375 581.6,27.7375 581.6,27.6375 C581.7,27.5375 581.7,27.6375 581.6,27.7375 M587.2,23.5375 C587.1,23.6375 586.7,23.8375 585.9,24.2375 C585.5,24.4375 585,24.6375 584.5,24.9375 C584.3,25.0375 584.1,25.1375 583.8,25.2375 C582.4,25.8375 580.7,26.5375 578.8,27.2375 C578.2,27.4375 577.6,27.6375 577,27.9375 C577.1,27.7375 577.3,27.5375 577.4,27.4375 C578,27.2375 578.5,27.0375 579.1,26.8375 C581.2,26.1375 583.4,25.3375 585.8,24.2375 C586.3,23.8375 586.8,23.6375 587.2,23.5375 C587.2,23.4375 587.4,23.2375 587.2,23.5375 M590,20.1375 L590,20.1375 L590,20.1375 L590,20.1375 L590,20.1375 L590,20.1375 L590,20.1375 C590,20.2375 590,20.2375 590,20.3375 C589.9,20.4375 589.5,20.6375 588.8,21.0375 L586.8,22.1375 L586,22.5375 C584.7,23.2375 583.3,23.8375 581.9,24.4375 C580.9,24.8375 579.8,25.3375 578.6,25.7375 C578.8,25.4375 578.9,25.1375 579.1,24.8375 C579.9,24.5375 580.6,24.3375 581.4,24.0375 C583.5,23.2375 585.7,22.1375 588.5,20.7375 C588.8,20.5375 589.8,20.1375 590,20.0375 C589.9,19.9375 589.9,20.0375 590,20.1375 L590,20.1375 L590,20.1375 M594.4,15.4375 C594.4,15.8375 590.1,18.3375 586.3,20.2375 L583.6,21.5375 C582.2,22.1375 580.9,22.7375 579.6,23.2375 C579.8,22.8375 579.9,22.3375 580,21.9375 C584.9,20.2375 589.6,17.9375 594.1,15.2375 C594.1,15.2375 594.3,15.1375 594.4,15.1375 C594.4,15.2375 594.4,15.2375 594.4,15.4375 M596.3,11.0375 C596.2,11.4375 588.4,17.0375 580.4,20.4375 C580.5,19.9375 580.5,19.5375 580.6,19.1375 C586,17.1375 591.1,14.3375 595.7,10.9375 C596,10.7375 596.1,10.6375 596.3,10.7375 C596.4,10.7375 596.3,10.9375 596.3,11.0375 M598,5.9375 C597.7,6.3375 589.4,13.7375 580.6,17.5375 C580.6,17.3375 580.6,17.2375 580.6,17.0375 C580.6,16.8375 580.6,16.6375 580.6,16.5375 C589.8,12.7375 597.7,5.6375 597.7,5.5375 L597.7,5.5375 C597.9,5.4375 598,5.3375 598.1,5.4375 C598.3,5.6375 598.2,5.7375 598,5.9375 M41.1,63.7375 C41.1,58.4375 38,58.3375 35.7,58.3375 L33,58.3375 L33,54.9375 C37.3,55.1375 41.8,55.4375 47,55.4375 C52.2,55.4375 56.8,55.2375 61.3,54.9375 L61.3,58.3375 L59.9,58.3375 C57.7,58.3375 54.5,58.5375 54.5,63.7375 L54.5,79.3375 C50.1,80.6375 39.6,82.9375 31.4,82.9375 C13.4,82.9375 0,72.2375 0,52.7375 C0,37.6375 9.3,22.5375 31.8,22.5375 C39.6,22.5375 47.9,24.4375 54.6,26.6375 L54.1,43.0375 L48.7,43.0375 C48.6,33.5375 42.1,27.8375 33.2,27.8375 C18.6,27.8375 14.4,38.8375 14.4,52.7375 C14.4,66.1375 21.4,78.0375 34.3,78.0375 C36.8,78.0375 39.3,77.5375 41.1,77.1375 L41.1,63.7375 L41.1,63.7375 Z M67.7,32.0375 C67.7,28.6375 67.2,27.0375 61.5,26.9375 L61.5,23.5375 C65.5,23.7375 70,24.0375 74.5,24.0375 C78.9,24.0375 83.5,23.8375 88,23.5375 L88,26.9375 C81.8,27.0375 81.3,28.6375 81.3,32.0375 L81.3,63.0375 C81.3,72.2375 86.9,75.6375 95,75.6375 C105.9,75.6375 109.5,69.9375 109.5,58.4375 L109.5,32.0375 C109.5,28.6375 109,27.0375 102.7,26.9375 L102.7,23.5375 C105.5,23.7375 108.6,24.0375 111.8,24.0375 C114.4,24.0375 117.2,23.8375 119.7,23.5375 L119.7,26.9375 C115.1,27.0375 114.6,28.6375 114.6,32.0375 L114.6,59.0375 C114.6,78.0375 103.3,82.9375 91.8,82.9375 C77.5,82.9375 67.7,78.9375 67.7,61.9375 L67.7,32.0375 L67.7,32.0375 Z M123.4,78.4375 C130.1,78.3375 130.6,76.7375 130.6,73.3375 L130.6,32.0375 C130.6,28.6375 130.1,27.0375 123.8,26.9375 L123.8,23.5375 C128.3,23.7375 132.9,24.0375 137.3,24.0375 C141.7,24.0375 146.3,23.8375 152.2,23.5375 L152.2,26.9375 C144.6,27.0375 144,28.6375 144,32.0375 L144,74.1375 C144,76.5375 144.1,77.4375 148.6,77.4375 C158,77.4375 166.2,75.6375 168.3,64.7375 L172.1,64.7375 C170.8,70.3375 169.6,76.0375 168.8,81.7375 C162.3,81.5375 155,81.2375 146.8,81.2375 C138.1,81.2375 130.2,81.4375 123.3,81.7375 L123.3,78.4375 L123.4,78.4375 Z M173.7,78.4375 C180.4,78.3375 180.9,76.7375 180.9,73.3375 L180.9,32.0375 C180.9,28.6375 180.4,27.0375 174.2,26.9375 L174.2,23.5375 C181.3,23.7375 188.5,24.0375 195.7,24.0375 C203,24.0375 210.2,23.8375 217.5,23.5375 C217.5,28.3375 217.8,34.5375 218.1,38.2375 L214.2,38.2375 C213.7,28.2375 208.3,27.9375 200.2,27.9375 C196.7,27.9375 194.4,27.9375 194.4,30.4375 L194.4,50.8375 L201.1,50.8375 C207.3,50.8375 209.5,50.0375 209.5,43.3375 L212.8,43.3375 C212.5,46.7375 212.3,50.1375 212.3,53.5375 C212.3,57.4375 212.5,61.2375 212.8,63.8375 L209.5,63.8375 L209.5,61.4375 C209.4,55.7375 206.9,54.7375 201.7,54.7375 L194.4,54.7375 L194.4,73.3375 C194.4,76.7375 194.9,78.3375 202.9,78.4375 L202.9,81.8375 C197.8,81.6375 192.3,81.3375 187.9,81.3375 C183.6,81.3375 178.6,81.5375 173.7,81.8375 L173.7,78.4375 L173.7,78.4375 Z M254.9,29.4375 C253.4,27.4375 250.9,26.9375 249.2,26.9375 L248.3,26.9375 L248.3,23.5375 C251.6,23.7375 255,24.0375 258.2,24.0375 C261.5,24.0375 264.9,23.8375 268.3,23.5375 L297,60.5375 L297.2,60.5375 L297.2,31.9375 C297.2,28.5375 296.7,26.9375 289.8,26.8375 L289.8,23.4375 C293.4,23.6375 297,23.9375 299.8,23.9375 C302.6,23.9375 306.2,23.7375 308.2,23.4375 L308.2,26.8375 C302.9,26.9375 302.4,28.5375 302.4,31.9375 L302.4,81.7375 L296,81.7375 L260.2,35.1375 L260,35.1375 L260,73.3375 C260,76.7375 260.5,78.3375 267.5,78.4375 L267.5,81.8375 C263.9,81.6375 260.3,81.3375 257.5,81.3375 C254.7,81.3375 251.1,81.5375 247.5,81.8375 L247.5,78.4375 C254.4,78.3375 255,76.7375 255,73.3375 L254.9,29.4375 L254.9,29.4375 Z M311.5,78.4375 C318.4,78.3375 319,76.7375 319,73.3375 L319,32.0375 C319,28.6375 318.5,27.0375 312.2,26.9375 L312.2,23.5375 C319.3,23.7375 326.5,24.0375 333.7,24.0375 C341,24.0375 348.2,23.8375 355.5,23.5375 C355.5,28.3375 355.8,34.5375 356.1,38.4375 L352.2,38.4375 C351.7,28.2375 346.3,27.9375 338.2,27.9375 L335,27.9375 C333,27.9375 332.4,28.6375 332.4,30.3375 L332.4,49.8375 L338.6,49.8375 C344.8,49.8375 347,48.2375 347,42.0375 L350.3,42.0375 C350,45.2375 349.8,48.5375 349.8,51.7375 C349.8,55.6375 350,59.4375 350.3,61.9375 L347,61.9375 C347,55.2375 344.8,53.6375 338.6,53.6375 L332.4,53.6375 L332.4,73.7375 C332.4,76.0375 333.5,76.8375 335.7,76.8375 L339.1,76.8375 C348.1,76.8375 354.7,75.5375 356.6,65.7375 L360.3,65.7375 C358.9,71.0375 358.1,76.3375 357.3,81.6375 C349.8,81.4375 342.3,81.1375 334.8,81.1375 C327,81.1375 319.2,81.3375 311.4,81.6375 L311.5,78.4375 L311.5,78.4375 Z M358.9,23.5375 C362.9,23.7375 366.8,24.0375 370.8,24.0375 C374.6,24.0375 378.3,23.8375 382.1,23.5375 L382.1,26.9375 L380.5,26.9375 C378.4,27.2375 378.3,28.2375 378.3,29.2375 C378.3,30.1375 378.7,31.9375 379.2,33.8375 L388.6,66.9375 L388.8,66.9375 L397.3,39.4375 L395.3,31.4375 C394.3,27.4375 393.7,26.9375 390.3,26.9375 L388.5,26.9375 L388.5,23.5375 C392.5,23.7375 396.7,24.0375 400.7,24.0375 C405.1,24.0375 409.6,23.8375 414.1,23.5375 L414.1,26.9375 L412.7,26.9375 C410,26.9375 408.5,27.6375 408.5,29.1375 C408.5,30.4375 408.9,31.9375 409.5,34.9375 L416.8,68.2375 L417,68.2375 L427.9,34.1375 C428.5,32.1375 429,30.6375 429,29.0375 C429,27.2375 427.3,26.8375 424.7,26.8375 L422.8,26.8375 L422.8,23.4375 C425.9,23.6375 429.6,23.9375 432,23.9375 C434.6,23.9375 437.2,23.7375 439.8,23.4375 L439.8,26.8375 C436.2,26.8375 434.5,29.5375 433.2,33.5375 L417.2,82.2375 L408.5,82.2375 L399.7,48.7375 L399.5,48.7375 L388.6,82.2375 L379.9,82.2375 L365.1,33.2375 C363.4,27.7375 363,27.0375 358.7,27.0375 L358.9,23.5375 L358.9,23.5375 Z M476.3,40.7375 L471.6,40.7375 C471.4,32.5375 469,27.3375 459.7,27.3375 C455.2,27.3375 450.8,29.2375 450.8,35.0375 C450.8,46.7375 480.1,42.4375 480.1,63.6375 C480.1,77.2375 469.9,82.8375 458,82.8375 C451.9,82.8375 444.2,80.9375 438.9,77.7375 C439.2,73.0375 439.3,66.2375 439.3,61.5375 L444.9,61.5375 C444.9,70.3375 448.4,77.5375 457.5,77.5375 C463.2,77.5375 468.4,75.2375 468.4,69.8375 C468.4,56.1375 439.6,60.4375 439.6,39.7375 C439.6,28.7375 447.7,22.4375 459.9,22.4375 C465.6,22.4375 471.4,23.6375 477,24.7375 L476.3,40.7375 L476.3,40.7375 Z" id="Shape"></path>
        </g>
    </g>
</svg>