<svg xmlns="http://www.w3.org/2000/svg" width="254" height="227" fill="none"><rect width="254" height="227" fill="#1D1D1D" rx="14"/><path fill="url(#a)" d="M32.811 27.3a1.834 1.834 0 0 1 1.44 1.833v3.695a12.081 12.081 0 0 1-7.609 11.22c-.414.154-.87.154-1.283 0a12.082 12.082 0 0 1-7.609-11.22v-3.731a1.834 1.834 0 0 1 1.44-1.834l6.416-1.42a1.64 1.64 0 0 1 .789 0L32.81 27.3Z"/><path fill="#fff" d="M25.296 37.54a.917.917 0 0 1-.642-.257l-2.09-2.053a.916.916 0 1 1 1.293-1.302l1.448 1.42 3.768-3.666a.92.92 0 1 1 1.292 1.31l-4.41 4.337a.917.917 0 0 1-.66.21ZM52.413 28.91V42h-1.975V28.91h1.975Zm6.399 13.282c-.793 0-1.5-.203-2.122-.608-.618-.409-1.104-.99-1.458-1.745-.35-.758-.524-1.668-.524-2.729 0-1.061.177-1.969.53-2.723.359-.754.849-1.332 1.47-1.732.623-.4 1.328-.601 2.117-.601.609 0 1.099.102 1.47.307.375.2.664.434.87.703.208.268.37.505.485.71h.115v-4.865h1.911V42H61.81v-1.528h-.16a5.066 5.066 0 0 1-.499.716c-.213.269-.507.503-.882.703-.375.2-.86.3-1.457.3Zm.422-1.63c.55 0 1.014-.145 1.393-.435.384-.294.673-.7.87-1.22.2-.52.3-1.126.3-1.816 0-.682-.098-1.279-.294-1.79-.196-.511-.484-.91-.863-1.195-.38-.286-.848-.428-1.406-.428-.576 0-1.055.149-1.439.447-.383.298-.673.705-.869 1.22-.192.517-.288 1.098-.288 1.746 0 .656.099 1.246.294 1.77.197.525.486.94.87 1.247.388.303.865.454 1.432.454Zm11.401 1.636c-.967 0-1.8-.206-2.499-.62a4.206 4.206 0 0 1-1.61-1.758c-.376-.758-.563-1.647-.563-2.665 0-1.006.187-1.892.562-2.66.38-.766.908-1.365 1.586-1.795.681-.43 1.478-.646 2.39-.646.554 0 1.091.092 1.611.275.52.183.987.47 1.4.863.413.392.74.901.978 1.527.239.623.358 1.379.358 2.27v.677h-7.805v-1.432h5.932c0-.503-.102-.948-.307-1.336a2.319 2.319 0 0 0-.863-.926c-.366-.226-.797-.34-1.291-.34-.537 0-1.006.133-1.406.397-.397.26-.703.601-.92 1.023-.214.417-.32.871-.32 1.361v1.119c0 .656.115 1.214.345 1.675.234.46.56.812.978 1.054.418.239.905.358 1.464.358.362 0 .692-.05.99-.153a2.14 2.14 0 0 0 .774-.473c.217-.209.383-.467.498-.774l1.81.326c-.145.533-.405 1-.78 1.4a3.78 3.78 0 0 1-1.4.927c-.558.218-1.196.326-1.912.326Zm8.245-6.028V42h-1.912v-9.818h1.835v1.598h.121c.226-.52.58-.938 1.061-1.253.486-.315 1.098-.473 1.835-.473.669 0 1.255.14 1.758.422.503.277.892.69 1.17 1.24.276.55.415 1.23.415 2.039V42h-1.911v-6.015c0-.712-.186-1.268-.556-1.668-.371-.405-.88-.608-1.528-.608-.443 0-.837.096-1.183.288-.34.192-.611.473-.811.844-.196.366-.294.81-.294 1.33Zm13.43-3.988v1.534h-5.364v-1.534h5.363Zm-3.925-2.353h1.91v9.288c0 .37.056.65.167.838.11.183.254.309.428.377.18.064.373.096.582.096.153 0 .288-.011.403-.032l.268-.052.345 1.58c-.11.042-.268.084-.473.127-.204.047-.46.073-.767.077a3.363 3.363 0 0 1-1.406-.269 2.412 2.412 0 0 1-1.055-.869c-.268-.392-.402-.884-.402-1.477V29.83ZM94.423 42v-9.818h1.912V42h-1.911Zm.966-11.333c-.333 0-.618-.11-.857-.333a1.08 1.08 0 0 1-.351-.805c0-.315.117-.584.351-.805.239-.226.524-.34.857-.34.332 0 .615.114.85.34.239.221.358.49.358.805 0 .311-.12.58-.358.805a1.193 1.193 0 0 1-.85.333Zm8.1 1.515v1.534h-5.363v-1.534h5.363Zm-3.925-2.353h1.911v9.288c0 .37.056.65.167.838.11.183.253.309.428.377.179.064.373.096.582.096.153 0 .287-.011.402-.032l.269-.052.345 1.58a3.205 3.205 0 0 1-.473.127c-.205.047-.46.073-.767.077a3.36 3.36 0 0 1-1.406-.269 2.409 2.409 0 0 1-1.055-.869c-.269-.392-.403-.884-.403-1.477V29.83Zm7.247 15.853c-.285 0-.545-.024-.78-.07a2.46 2.46 0 0 1-.524-.141l.461-1.566c.349.094.66.134.933.121a1.12 1.12 0 0 0 .722-.307c.213-.191.401-.505.563-.94l.236-.651-3.592-9.946h2.045l2.487 7.62h.102l2.486-7.62h2.052l-4.046 11.128a4.424 4.424 0 0 1-.716 1.298c-.29.358-.635.626-1.035.805-.401.18-.865.269-1.394.269Zm15.049-16.773 3.643 10.662h.147l3.644-10.662h2.135L126.718 42h-2.282l-4.711-13.09h2.135Zm14.553 13.29c-.968 0-1.801-.207-2.499-.62a4.202 4.202 0 0 1-1.611-1.759c-.375-.758-.563-1.647-.563-2.665 0-1.006.188-1.892.563-2.66.379-.766.907-1.365 1.585-1.795.682-.43 1.479-.646 2.391-.646.554 0 1.09.092 1.61.275.52.183.987.47 1.4.863.414.392.74.901.978 1.527.239.623.358 1.379.358 2.27v.677h-7.805v-1.432h5.932c0-.503-.102-.948-.307-1.336a2.319 2.319 0 0 0-.862-.926c-.367-.226-.797-.34-1.292-.34-.537 0-1.005.133-1.406.397-.396.26-.703.601-.92 1.023-.213.417-.32.871-.32 1.361v1.119c0 .656.115 1.214.345 1.675.235.46.561.812.978 1.054.418.239.906.358 1.464.358.362 0 .692-.05.991-.153a2.047 2.047 0 0 0 1.272-1.246l1.809.325c-.145.533-.405 1-.78 1.4a3.778 3.778 0 0 1-1.4.927c-.558.218-1.195.326-1.911.326Zm6.333-.199v-9.818h1.847v1.56h.102c.179-.529.495-.944.946-1.247.456-.307.972-.46 1.547-.46a8.181 8.181 0 0 1 .812.045v1.828a3.424 3.424 0 0 0-.409-.07 3.894 3.894 0 0 0-.588-.045 2.49 2.49 0 0 0-1.208.287 2.13 2.13 0 0 0-.831.787 2.123 2.123 0 0 0-.307 1.137V42h-1.911Zm6.908 0v-9.818h1.911V42h-1.911Zm.965-11.333c-.332 0-.618-.11-.856-.333a1.079 1.079 0 0 1-.352-.805c0-.315.117-.584.352-.805.238-.226.524-.34.856-.34.333 0 .616.114.85.34.239.221.358.49.358.805 0 .311-.119.58-.358.805a1.19 1.19 0 0 1-.85.333Zm8.19 1.515v1.534h-5.548v-1.534h5.548ZM154.782 42V31.044c0-.614.134-1.123.403-1.528.268-.409.624-.713 1.067-.914a3.405 3.405 0 0 1 1.445-.306c.383 0 .711.031.984.095.273.06.475.115.607.167l-.447 1.546a9.675 9.675 0 0 0-.345-.09 1.973 1.973 0 0 0-.512-.057c-.464 0-.796.115-.997.346-.196.23-.294.562-.294.997V42h-1.911Zm5.999 0v-9.818h1.911V42h-1.911Zm.965-11.333c-.332 0-.618-.11-.856-.333a1.079 1.079 0 0 1-.352-.805c0-.315.117-.584.352-.805.238-.226.524-.34.856-.34.332 0 .616.114.85.34.239.221.358.49.358.805 0 .311-.119.58-.358.805a1.192 1.192 0 0 1-.85.333Zm7.653 11.531c-.95 0-1.768-.215-2.455-.645a4.276 4.276 0 0 1-1.572-1.797c-.366-.762-.55-1.636-.55-2.62 0-.998.188-1.878.563-2.64.375-.767.903-1.366 1.585-1.796.682-.43 1.485-.646 2.41-.646.746 0 1.41.139 1.994.415a3.577 3.577 0 0 1 1.413 1.151c.362.494.577 1.072.645 1.732h-1.86a2.223 2.223 0 0 0-.703-1.189c-.362-.332-.848-.498-1.457-.498-.533 0-1 .14-1.4.422-.396.277-.705.673-.927 1.189-.222.51-.332 1.116-.332 1.815 0 .716.108 1.334.326 1.854.217.52.524.922.92 1.208.401.285.872.428 1.413.428.362 0 .69-.066.984-.198a2.01 2.01 0 0 0 .748-.582c.205-.251.347-.554.428-.907h1.86a3.614 3.614 0 0 1-.62 1.7c-.345.498-.807.89-1.387 1.176-.575.285-1.25.428-2.026.428Zm8.934.02a4.008 4.008 0 0 1-1.687-.346 2.84 2.84 0 0 1-1.195-1.016c-.29-.443-.435-.987-.435-1.63 0-.554.107-1.01.32-1.368.213-.358.5-.641.863-.85a4.506 4.506 0 0 1 1.214-.473c.447-.107.903-.188 1.368-.243l1.432-.166c.366-.047.633-.122.799-.224.166-.102.249-.269.249-.499v-.044c0-.559-.158-.991-.473-1.298-.311-.307-.776-.46-1.393-.46-.644 0-1.151.143-1.522.428-.366.281-.62.595-.76.94l-1.797-.41c.213-.596.525-1.078.934-1.444a3.78 3.78 0 0 1 1.425-.805 5.566 5.566 0 0 1 1.694-.256c.392 0 .807.047 1.246.14.444.09.857.256 1.24.5.388.242.706.59.953 1.041.247.447.371 1.03.371 1.745V42h-1.867v-1.342h-.077c-.123.247-.309.49-.556.728a2.948 2.948 0 0 1-.952.595c-.388.157-.852.236-1.394.236Zm.416-1.535c.528 0 .98-.104 1.355-.313.379-.209.667-.481.863-.818.2-.341.3-.705.3-1.093v-1.266c-.068.068-.2.132-.396.192a6.197 6.197 0 0 1-.658.147c-.247.038-.488.075-.723.109l-.588.076a4.75 4.75 0 0 0-1.016.237c-.303.11-.545.27-.729.48-.179.204-.268.477-.268.817 0 .473.175.831.524 1.074.349.239.795.358 1.336.358Zm11.558-8.501v1.534h-5.363v-1.534h5.363Zm-3.924-2.353h1.911v9.288c0 .37.055.65.166.838a.87.87 0 0 0 .428.377c.179.064.373.096.582.096.153 0 .288-.011.403-.032l.268-.052.345 1.58a3.17 3.17 0 0 1-.473.127c-.204.047-.46.073-.767.077a3.363 3.363 0 0 1-1.406-.269 2.414 2.414 0 0 1-1.055-.869c-.268-.392-.402-.884-.402-1.477V29.83ZM192.422 42v-9.818h1.911V42h-1.911Zm.965-11.333c-.333 0-.618-.11-.857-.333a1.081 1.081 0 0 1-.351-.805c0-.315.117-.584.351-.805.239-.226.524-.34.857-.34.332 0 .615.114.85.34.238.221.358.49.358.805 0 .311-.12.58-.358.805a1.194 1.194 0 0 1-.85.333Zm7.653 11.531c-.921 0-1.724-.21-2.41-.633a4.265 4.265 0 0 1-1.598-1.77c-.379-.759-.569-1.645-.569-2.66 0-1.018.19-1.908.569-2.671.379-.763.912-1.355 1.598-1.777.686-.422 1.489-.633 2.41-.633.92 0 1.723.21 2.409.633.686.422 1.219 1.014 1.598 1.777.38.763.569 1.653.569 2.672 0 1.014-.189 1.9-.569 2.659a4.265 4.265 0 0 1-1.598 1.77c-.686.422-1.489.633-2.409.633Zm.006-1.604c.597 0 1.091-.158 1.483-.473.392-.316.682-.735.869-1.26a5.002 5.002 0 0 0 .288-1.732c0-.626-.096-1.201-.288-1.726-.187-.528-.477-.952-.869-1.272-.392-.32-.886-.479-1.483-.479-.601 0-1.099.16-1.496.48-.392.319-.684.743-.875 1.271a5.079 5.079 0 0 0-.282 1.726c0 .63.094 1.208.282 1.733.191.524.483.943.875 1.259.397.315.895.473 1.496.473Zm8.615-4.424V42h-1.911v-9.818h1.834v1.598h.122c.225-.52.579-.938 1.061-1.253.485-.315 1.097-.473 1.834-.473.669 0 1.255.14 1.758.422.503.277.893.69 1.17 1.24.277.55.415 1.23.415 2.039V42h-1.911v-6.015c0-.712-.185-1.268-.556-1.668-.371-.405-.88-.608-1.528-.608-.443 0-.837.096-1.182.288a2.066 2.066 0 0 0-.812.844c-.196.366-.294.81-.294 1.33Z"/><path fill="#B9B9B9" d="M24.307 73.818V84h-1.193l-5.549-7.994h-.1V84h-1.232V73.818h1.193l5.568 8.014h.1v-8.014h1.213Zm4.555 10.361c-.484 0-.923-.091-1.317-.273a2.261 2.261 0 0 1-.94-.8c-.232-.352-.348-.776-.348-1.274 0-.437.086-.792.258-1.063.173-.276.403-.491.691-.647.289-.156.607-.272.955-.348.351-.08.704-.142 1.059-.189.464-.06.84-.104 1.129-.134.291-.033.503-.088.636-.164.136-.076.204-.209.204-.398v-.04c0-.49-.134-.871-.403-1.143-.265-.272-.668-.408-1.208-.408-.56 0-1 .123-1.317.368-.319.246-.542.507-.672.786l-1.113-.398c.198-.464.464-.825.795-1.084a2.98 2.98 0 0 1 1.094-.547 4.54 4.54 0 0 1 1.173-.159c.245 0 .527.03.845.09.322.056.632.174.93.353.302.179.552.449.75.81.2.361.299.845.299 1.452V84h-1.173v-1.034h-.06c-.08.166-.212.343-.398.532-.185.189-.432.35-.74.482-.309.133-.685.199-1.129.199Zm.179-1.054c.464 0 .855-.091 1.173-.273a1.862 1.862 0 0 0 .975-1.616v-1.074c-.05.06-.16.114-.328.164a5.542 5.542 0 0 1-.577.124 26.343 26.343 0 0 1-1.124.15c-.305.04-.59.104-.855.193a1.474 1.474 0 0 0-.636.393c-.16.172-.239.408-.239.706 0 .408.151.716.453.925.305.205.69.308 1.158.308Zm5.463.875v-7.636h1.133v1.193h.1a1.92 1.92 0 0 1 .77-.95c.355-.228.78-.343 1.278-.343.504 0 .923.115 1.258.343.338.226.601.542.79.95h.08c.195-.395.489-.708.88-.94.39-.235.86-.353 1.407-.353.682 0 1.24.214 1.675.642.434.424.651 1.085.651 1.983V84h-1.173v-5.11c0-.564-.154-.967-.462-1.209a1.711 1.711 0 0 0-1.09-.363c-.536 0-.952.163-1.247.487-.295.322-.443.73-.443 1.223V84h-1.193v-5.23c0-.434-.14-.784-.422-1.05-.282-.268-.645-.402-1.089-.402-.305 0-.59.081-.855.244a1.84 1.84 0 0 0-.636.676c-.16.285-.24.615-.24.99V84h-1.172Zm15.37.16c-.737 0-1.371-.163-1.905-.488a3.27 3.27 0 0 1-1.228-1.372c-.285-.59-.427-1.276-.427-2.058 0-.783.142-1.472.427-2.069.288-.6.69-1.067 1.203-1.402.517-.338 1.12-.507 1.81-.507.398 0 .79.067 1.178.2.388.132.74.347 1.06.645.317.295.57.687.76 1.174.189.487.283 1.087.283 1.8v.496H47.15v-1.014h4.693c0-.43-.086-.815-.258-1.153a1.95 1.95 0 0 0-.726-.8c-.312-.196-.68-.294-1.104-.294-.467 0-.872.116-1.213.348a2.29 2.29 0 0 0-.78.895 2.629 2.629 0 0 0-.274 1.183v.677c0 .576.1 1.065.298 1.466.202.398.482.701.84.91.358.205.774.308 1.248.308.309 0 .587-.043.836-.13.251-.089.468-.221.65-.397.183-.179.324-.4.423-.666l1.134.318c-.12.385-.32.723-.602 1.014-.281.289-.63.514-1.044.677-.414.158-.88.238-1.397.238Z"/><path fill="#fff" d="M177.294 73.364h2.131l3.704 9.045h.137l3.704-9.045h2.131V85h-1.671v-8.42h-.108l-3.431 8.403h-1.387l-3.432-8.41h-.108V85h-1.67V73.364Zm17.984 11.812c-.859 0-1.6-.184-2.221-.551a3.734 3.734 0 0 1-1.432-1.563c-.333-.674-.5-1.463-.5-2.369 0-.894.167-1.682.5-2.364a3.883 3.883 0 0 1 1.409-1.596c.606-.383 1.314-.574 2.125-.574.493 0 .97.081 1.432.244.462.163.877.419 1.244.767.368.349.657.802.87 1.358.212.553.318 1.226.318 2.017v.603h-6.938v-1.273h5.273c0-.447-.091-.843-.273-1.188a2.06 2.06 0 0 0-.767-.823c-.326-.201-.708-.302-1.148-.302-.477 0-.893.118-1.25.353a2.364 2.364 0 0 0-.818.909 2.629 2.629 0 0 0-.284 1.21v.994c0 .584.102 1.08.307 1.489.208.41.498.722.869.938.372.212.805.318 1.301.318.322 0 .616-.046.881-.137.265-.094.494-.234.688-.42.193-.186.341-.415.443-.688l1.608.29c-.129.474-.36.888-.693 1.245-.33.352-.745.626-1.245.823-.496.194-1.062.29-1.699.29Zm7.329-11.812V85h-1.699V73.364h1.699ZM204.892 85v-8.727h1.699V85h-1.699Zm.858-10.074a1.08 1.08 0 0 1-.761-.295.959.959 0 0 1-.313-.716c0-.28.104-.52.313-.716.212-.2.466-.301.761-.301s.547.1.756.3a.941.941 0 0 1 .318.717.953.953 0 0 1-.318.716 1.063 1.063 0 0 1-.756.295Zm9.666 3.477-1.54.273a1.818 1.818 0 0 0-.306-.562 1.524 1.524 0 0 0-.557-.438c-.235-.114-.529-.17-.881-.17-.481 0-.882.108-1.204.323-.322.213-.483.487-.483.824a.87.87 0 0 0 .323.705c.216.178.565.324 1.046.438l1.386.318c.803.185 1.402.471 1.796.858.394.386.591.888.591 1.505 0 .523-.152.989-.455 1.398-.299.405-.718.724-1.256.954-.534.232-1.153.347-1.858.347-.977 0-1.774-.208-2.392-.625-.617-.42-.996-1.017-1.136-1.79l1.642-.25c.102.428.313.752.631.972.318.216.733.324 1.244.324.557 0 1.002-.116 1.335-.347.334-.235.5-.52.5-.858a.893.893 0 0 0-.306-.687c-.201-.186-.51-.326-.927-.42l-1.477-.325c-.814-.185-1.417-.48-1.807-.886-.386-.405-.579-.919-.579-1.54a2.2 2.2 0 0 1 .432-1.352c.287-.386.685-.688 1.193-.903.507-.22 1.089-.33 1.744-.33.943 0 1.686.205 2.227.614.542.405.9.949 1.074 1.63Zm8.578 0-1.539.273a1.842 1.842 0 0 0-.307-.562 1.524 1.524 0 0 0-.557-.438c-.235-.114-.528-.17-.881-.17-.481 0-.882.108-1.204.323-.322.213-.483.487-.483.824 0 .292.108.527.324.705.216.178.564.324 1.045.438l1.386.318c.803.185 1.402.471 1.796.858.394.386.591.888.591 1.505 0 .523-.152.989-.455 1.398-.299.405-.718.724-1.255.954-.535.232-1.154.347-1.858.347-.978 0-1.775-.208-2.392-.625-.618-.42-.997-1.017-1.137-1.79l1.642-.25c.103.428.313.752.631.972.318.216.733.324 1.244.324.557 0 1.002-.116 1.335-.347.334-.235.5-.52.5-.858a.893.893 0 0 0-.306-.687c-.201-.186-.51-.326-.926-.42l-1.478-.325c-.814-.185-1.416-.48-1.807-.886-.386-.405-.579-.919-.579-1.54a2.2 2.2 0 0 1 .432-1.352c.288-.386.685-.688 1.193-.903.507-.22 1.089-.33 1.744-.33.943 0 1.686.205 2.227.614.542.405.9.949 1.074 1.63Zm4.578 6.79a3.564 3.564 0 0 1-1.5-.307 2.524 2.524 0 0 1-1.062-.903c-.258-.394-.386-.877-.386-1.449 0-.492.094-.898.284-1.216.189-.318.445-.57.767-.755a4.013 4.013 0 0 1 1.079-.421c.398-.095.803-.167 1.216-.216l1.273-.148c.326-.041.562-.108.71-.199.148-.09.222-.238.222-.443v-.04c0-.496-.14-.88-.421-1.153-.276-.272-.689-.409-1.238-.409-.572 0-1.023.127-1.353.38-.325.25-.551.53-.676.836l-1.596-.364c.189-.53.466-.958.829-1.284a3.37 3.37 0 0 1 1.267-.716 4.942 4.942 0 0 1 1.506-.227c.348 0 .718.042 1.108.125.394.08.761.227 1.102.443.345.216.627.525.847.926.219.398.329.915.329 1.551V85h-1.659v-1.193h-.068c-.11.22-.275.435-.494.647-.22.213-.502.389-.847.529s-.757.21-1.239.21Zm.37-1.364c.469 0 .871-.092 1.204-.278.337-.186.593-.428.767-.727.178-.303.267-.627.267-.972v-1.125c-.06.06-.178.118-.352.17-.17.05-.365.093-.585.131-.22.034-.434.067-.642.097-.208.026-.383.05-.523.068a4.2 4.2 0 0 0-.903.21c-.269.099-.485.24-.648.426-.159.182-.239.425-.239.728 0 .42.156.739.466.954.311.213.707.319 1.188.319Z"/><path stroke="#fff" stroke-opacity=".1" d="M15 93h224"/><path fill="#B9B9B9" d="M16.65 121h-1.292l3.739-10.182h1.272L24.108 121h-1.293l-3.042-8.571h-.08L16.651 121Zm.478-3.977h5.21v1.093h-5.21v-1.093Zm11.49 7c-.568 0-1.055-.073-1.462-.219a3.098 3.098 0 0 1-1.02-.567 3.085 3.085 0 0 1-.641-.746l.935-.656a7.2 7.2 0 0 0 .402.477c.163.183.385.34.667.473.285.136.658.204 1.118.204.617 0 1.125-.15 1.526-.448.401-.298.602-.765.602-1.402v-1.551h-.1a6.274 6.274 0 0 1-.367.517 2.089 2.089 0 0 1-.676.542c-.292.156-.686.234-1.184.234-.616 0-1.17-.146-1.66-.438-.487-.291-.873-.716-1.159-1.273-.281-.556-.422-1.233-.422-2.028 0-.782.137-1.463.413-2.043.275-.584.657-1.034 1.148-1.353.49-.321 1.057-.482 1.7-.482.497 0 .892.083 1.183.249.295.162.52.348.677.557.159.205.281.374.368.507h.119v-1.213h1.133v7.855c0 .656-.149 1.19-.447 1.601a2.547 2.547 0 0 1-1.193.909 4.493 4.493 0 0 1-1.66.294Zm-.04-4.196c.47 0 .868-.108 1.193-.323.324-.216.571-.526.74-.93.17-.404.254-.888.254-1.452 0-.55-.083-1.036-.249-1.457a2.19 2.19 0 0 0-.735-.989c-.325-.239-.726-.358-1.204-.358-.497 0-.911.126-1.243.378-.328.252-.575.59-.74 1.014a3.918 3.918 0 0 0-.244 1.412c0 .53.083.999.249 1.407.169.404.417.723.745.955.332.228.743.343 1.233.343Zm8.69 1.332c-.736 0-1.37-.162-1.904-.487a3.272 3.272 0 0 1-1.228-1.372c-.285-.59-.428-1.276-.428-2.059 0-.782.143-1.471.428-2.068.288-.6.689-1.067 1.203-1.402.517-.338 1.12-.507 1.81-.507.397 0 .79.066 1.178.199.388.133.74.348 1.059.646.318.295.571.686.76 1.174.19.487.284 1.087.284 1.799v.498h-5.887v-1.015h4.694c0-.431-.087-.815-.259-1.153a1.944 1.944 0 0 0-.726-.8c-.311-.196-.68-.294-1.104-.294-.467 0-.871.116-1.213.348a2.29 2.29 0 0 0-.78.895 2.628 2.628 0 0 0-.274 1.183v.676c0 .577.1 1.066.299 1.467.202.398.482.701.84.91.358.205.774.308 1.248.308.308 0 .586-.043.835-.129a1.79 1.79 0 0 0 .651-.398c.183-.179.323-.401.423-.666l1.133.318c-.119.385-.32.723-.601 1.014-.282.289-.63.514-1.044.676-.414.16-.88.239-1.397.239Z"/><path fill="#fff" d="M208.135 122v-1.273l3.937-4.079c.421-.443.767-.832 1.04-1.165.277-.337.483-.657.62-.96.136-.303.204-.625.204-.966 0-.387-.091-.72-.273-1a1.784 1.784 0 0 0-.744-.654 2.37 2.37 0 0 0-1.062-.233c-.417 0-.781.086-1.091.256-.311.171-.55.411-.716.722-.167.31-.25.674-.25 1.091h-1.676c0-.709.162-1.328.488-1.858a3.313 3.313 0 0 1 1.341-1.233c.568-.296 1.214-.443 1.938-.443.731 0 1.375.145 1.931.437.561.288.999.682 1.313 1.182a3.08 3.08 0 0 1 .472 1.682c0 .432-.082.854-.245 1.267-.159.413-.437.873-.835 1.38-.398.504-.951 1.116-1.659 1.836l-2.313 2.42v.085h5.239V122h-7.659Zm13.682-11.795c.519.003 1.03.098 1.534.284.504.185.958.488 1.363.909.41.42.735.988.978 1.704.246.712.371 1.599.375 2.659 0 1.019-.103 1.926-.307 2.722-.205.792-.498 1.46-.881 2.006a3.86 3.86 0 0 1-1.38 1.244c-.542.284-1.152.426-1.83.426-.693 0-1.309-.136-1.847-.409a3.525 3.525 0 0 1-1.312-1.131 3.747 3.747 0 0 1-.631-1.67h1.733c.114.5.345.905.693 1.216.353.307.807.46 1.364.46.852 0 1.517-.371 1.994-1.114.478-.746.718-1.788.722-3.125h-.091a3.133 3.133 0 0 1-.739.841 3.314 3.314 0 0 1-.983.546 3.45 3.45 0 0 1-1.164.193 3.492 3.492 0 0 1-1.83-.494 3.649 3.649 0 0 1-1.312-1.358c-.326-.576-.489-1.233-.489-1.972 0-.735.167-1.401.5-2a3.73 3.73 0 0 1 1.409-1.42c.606-.353 1.316-.525 2.131-.517Zm.005 1.477c-.443 0-.842.11-1.198.329-.353.216-.631.51-.836.881a2.485 2.485 0 0 0-.306 1.227c0 .451.098.86.295 1.228.201.363.473.653.818.869a2.25 2.25 0 0 0 1.193.318c.334 0 .644-.064.932-.193.288-.129.54-.307.756-.534.216-.231.384-.493.506-.784.121-.292.181-.599.181-.921a2.42 2.42 0 0 0-.306-1.193 2.394 2.394 0 0 0-.83-.886 2.168 2.168 0 0 0-1.205-.341Z"/><path stroke="#fff" stroke-opacity=".1" d="M15 130h224"/><path fill="#B9B9B9" d="M17.466 148.818V159h-1.233v-10.182h1.233ZM23.08 159h-3.142v-10.182h3.281c.988 0 1.833.204 2.536.612a4.002 4.002 0 0 1 1.616 1.745c.374.755.561 1.66.561 2.714 0 1.061-.189 1.974-.566 2.74a4.032 4.032 0 0 1-1.651 1.759c-.723.408-1.6.612-2.635.612Zm-1.909-1.094h1.83c.841 0 1.54-.162 2.093-.487a3.003 3.003 0 0 0 1.237-1.387c.272-.6.408-1.314.408-2.143 0-.822-.134-1.529-.402-2.123a2.972 2.972 0 0 0-1.204-1.372c-.533-.321-1.198-.482-1.993-.482H21.17v7.994Zm13.781-3.5V159H33.78v-7.636h1.133v1.193h.1c.179-.388.45-.7.815-.935.365-.238.836-.358 1.412-.358.517 0 .97.106 1.357.318.388.209.69.527.905.955.216.424.323.961.323 1.611V159h-1.173v-4.773c0-.6-.156-1.067-.467-1.402-.312-.338-.74-.507-1.283-.507-.374 0-.71.081-1.004.244a1.738 1.738 0 0 0-.691.711c-.17.311-.254.689-.254 1.133Zm11.829 1.472v-4.514h1.173V159h-1.173v-1.293h-.08a2.506 2.506 0 0 1-.835.99c-.378.268-.855.402-1.432.402-.477 0-.901-.104-1.272-.313a2.191 2.191 0 0 1-.875-.954c-.212-.428-.319-.966-.319-1.616v-4.852h1.174v4.772c0 .557.155 1.001.467 1.333.315.331.716.497 1.203.497a2 2 0 0 0 .89-.224 1.94 1.94 0 0 0 .766-.686c.208-.308.313-.701.313-1.178ZM50.103 159v-7.636h1.134v1.193h.1c.158-.408.415-.724.77-.95.354-.228.78-.343 1.277-.343.504 0 .923.115 1.258.343.338.226.602.542.79.95h.08c.196-.395.49-.708.88-.94.391-.235.86-.353 1.407-.353.683 0 1.241.214 1.676.642.434.424.65 1.085.65 1.983V159h-1.172v-5.111c0-.563-.155-.966-.463-1.208a1.71 1.71 0 0 0-1.089-.363c-.537 0-.952.163-1.247.487-.295.322-.443.73-.443 1.223V159h-1.193v-5.23c0-.434-.14-.784-.423-1.049-.281-.269-.644-.403-1.088-.403-.305 0-.59.081-.855.244a1.838 1.838 0 0 0-.637.676c-.159.285-.239.615-.239.989V159h-1.173Zm12.327 0v-10.182h1.173v3.759h.1c.086-.133.205-.302.358-.507a2.09 2.09 0 0 1 .666-.557c.292-.166.686-.249 1.183-.249.643 0 1.21.161 1.7.482.491.322.874.778 1.15 1.368.274.59.412 1.286.412 2.088 0 .808-.138 1.509-.413 2.103-.275.59-.656 1.047-1.143 1.372-.488.321-1.05.482-1.686.482-.49 0-.883-.081-1.178-.244a2.184 2.184 0 0 1-.681-.561 7.585 7.585 0 0 1-.368-.527h-.14V159H62.43Zm1.154-3.818c0 .577.084 1.085.253 1.526.17.438.416.781.74 1.029.326.245.724.368 1.194.368.49 0 .9-.129 1.228-.388.332-.262.58-.613.746-1.054.169-.444.253-.938.253-1.481a4.02 4.02 0 0 0-.248-1.452 2.245 2.245 0 0 0-.74-1.029c-.33-.255-.742-.383-1.239-.383-.477 0-.878.121-1.203.363-.325.239-.57.573-.736 1.004-.166.428-.248.927-.248 1.497Zm10.584 3.977c-.736 0-1.37-.162-1.904-.487a3.273 3.273 0 0 1-1.228-1.372c-.285-.59-.427-1.276-.427-2.059 0-.782.142-1.471.427-2.068.288-.6.69-1.067 1.203-1.402.517-.338 1.12-.507 1.81-.507.398 0 .79.066 1.178.199.388.133.74.348 1.059.646.318.295.572.686.76 1.174.19.487.284 1.087.284 1.799v.498h-5.886v-1.015h4.693c0-.431-.086-.815-.259-1.153a1.944 1.944 0 0 0-.725-.8c-.312-.196-.68-.294-1.104-.294-.468 0-.872.116-1.213.348a2.29 2.29 0 0 0-.78.895 2.628 2.628 0 0 0-.274 1.183v.676c0 .577.1 1.066.298 1.467.202.398.482.701.84.91.358.205.774.308 1.248.308.308 0 .587-.043.835-.129a1.79 1.79 0 0 0 .652-.398c.182-.179.323-.401.422-.666l1.134.318c-.12.385-.32.723-.602 1.014-.281.289-.63.514-1.044.676-.414.16-.88.239-1.397.239Zm4.947-.159v-7.636h1.133v1.153h.08c.14-.378.391-.684.756-.92a2.227 2.227 0 0 1 1.233-.353c.086 0 .194.002.323.005.129.004.227.009.293.015v1.193a3.665 3.665 0 0 0-.273-.044 2.605 2.605 0 0 0-.443-.035c-.371 0-.703.078-.994.234a1.713 1.713 0 0 0-.935 1.556V159h-1.173Z"/><path fill="#fff" d="M159.406 156.727v-1.42l5.029-7.943h1.119v2.091h-.71l-3.597 5.693v.091h6.892v1.488h-8.733Zm5.517 2.273v-2.705l.012-.647v-8.284h1.664V159h-1.676Zm9.037.159c-.712 0-1.352-.136-1.92-.409a3.488 3.488 0 0 1-1.352-1.136 2.99 2.99 0 0 1-.54-1.648h1.704c.042.5.264.911.665 1.233.402.322.883.483 1.443.483a2.28 2.28 0 0 0 1.188-.307 2.2 2.2 0 0 0 .818-.858c.201-.364.301-.778.301-1.244 0-.474-.102-.896-.307-1.267a2.26 2.26 0 0 0-.846-.875 2.397 2.397 0 0 0-1.228-.324c-.352 0-.706.06-1.062.182a2.47 2.47 0 0 0-.864.477l-1.608-.239.654-5.863h6.397v1.505h-4.937l-.369 3.256h.068c.227-.22.528-.403.903-.551a3.312 3.312 0 0 1 1.216-.222c.708 0 1.339.169 1.892.506.557.337.994.797 1.313 1.381.322.579.481 1.246.477 2 .004.753-.167 1.426-.511 2.017a3.704 3.704 0 0 1-1.421 1.397c-.602.338-1.293.506-2.074.506Zm10.496-11.795V159h-1.761v-9.875h-.069l-2.784 1.818v-1.682l2.904-1.897h1.71Zm7.199 11.795c-.78 0-1.477-.134-2.091-.403-.61-.269-1.093-.642-1.449-1.12a2.97 2.97 0 0 1-.568-1.67h1.784c.023.345.138.644.347.898.212.25.488.443.829.579.341.137.72.205 1.136.205.459 0 .864-.08 1.216-.239.356-.159.635-.381.836-.665a1.7 1.7 0 0 0 .301-.994c0-.39-.101-.733-.301-1.028-.197-.3-.487-.535-.87-.705-.379-.17-.837-.256-1.375-.256h-.983v-1.431h.983a2.62 2.62 0 0 0 1.137-.233c.329-.156.587-.372.772-.648.186-.28.279-.608.279-.983 0-.36-.082-.672-.245-.938a1.636 1.636 0 0 0-.681-.63c-.292-.152-.637-.228-1.034-.228-.379 0-.733.071-1.063.211a1.948 1.948 0 0 0-.795.591 1.512 1.512 0 0 0-.33.914h-1.699a2.876 2.876 0 0 1 .557-1.659c.356-.477.826-.85 1.409-1.119a4.583 4.583 0 0 1 1.943-.403c.746 0 1.39.145 1.932.437.546.288.966.672 1.261 1.153a2.9 2.9 0 0 1 .444 1.58c.003.652-.178 1.205-.546 1.659-.363.455-.848.76-1.454.915v.091c.772.117 1.371.424 1.795.92.428.496.64 1.112.636 1.847a2.869 2.869 0 0 1-.534 1.721c-.356.508-.842.908-1.46 1.199-.617.288-1.324.432-2.119.432Zm6.017-2.432v-1.42l5.028-7.943h1.12v2.091h-.711l-3.596 5.693v.091h6.892v1.488h-8.733Zm5.517 2.273v-2.705l.011-.647v-8.284h1.665V159h-1.676Zm9.037.159c-.712 0-1.352-.136-1.921-.409a3.495 3.495 0 0 1-1.352-1.136 3.006 3.006 0 0 1-.54-1.648h1.705c.042.5.263.911.665 1.233.401.322.882.483 1.443.483.447 0 .843-.102 1.187-.307.349-.208.622-.494.819-.858.2-.364.301-.778.301-1.244 0-.474-.103-.896-.307-1.267a2.262 2.262 0 0 0-.847-.875 2.394 2.394 0 0 0-1.227-.324c-.352 0-.706.06-1.063.182-.356.121-.643.28-.863.477l-1.608-.239.653-5.863h6.398v1.505h-4.937l-.37 3.256h.068c.228-.22.529-.403.904-.551a3.312 3.312 0 0 1 1.216-.222c.708 0 1.339.169 1.892.506.557.337.994.797 1.312 1.381.322.579.481 1.246.478 2 .003.753-.167 1.426-.512 2.017a3.701 3.701 0 0 1-1.42 1.397c-.603.338-1.294.506-2.074.506Zm6.081-.159v-1.273l3.937-4.079c.421-.443.767-.832 1.04-1.165.277-.337.483-.657.619-.96.137-.303.205-.625.205-.966 0-.387-.091-.72-.273-1a1.79 1.79 0 0 0-.744-.654 2.372 2.372 0 0 0-1.063-.233c-.416 0-.78.086-1.09.256-.311.171-.55.411-.716.722-.167.31-.25.674-.25 1.091h-1.677c0-.709.163-1.328.489-1.858a3.313 3.313 0 0 1 1.341-1.233c.568-.296 1.214-.443 1.937-.443.732 0 1.376.145 1.932.437.561.288.998.682 1.313 1.182.314.496.471 1.057.471 1.682 0 .432-.081.854-.244 1.267-.159.413-.437.873-.835 1.38-.398.504-.951 1.116-1.659 1.836l-2.313 2.42v.085h5.239V159h-7.659Z"/><path stroke="#fff" stroke-opacity=".1" d="M15 169h224"/><path fill="#B9B9B9" d="M24.307 187.818V198h-1.193l-5.549-7.994h-.1V198h-1.232v-10.182h1.193l5.568 8.014h.1v-8.014h1.213Zm4.555 10.361c-.484 0-.923-.091-1.317-.273a2.265 2.265 0 0 1-.94-.801c-.232-.351-.348-.775-.348-1.273 0-.437.086-.792.258-1.064.173-.275.403-.49.691-.646.289-.156.607-.272.955-.348.351-.079.704-.142 1.059-.189.464-.059.84-.104 1.129-.134.291-.033.503-.088.636-.164.136-.076.204-.209.204-.398v-.04c0-.49-.134-.871-.403-1.143-.265-.272-.668-.408-1.208-.408-.56 0-1 .123-1.317.368-.319.245-.542.507-.672.786l-1.113-.398c.198-.464.464-.825.795-1.084.335-.262.7-.444 1.094-.547a4.543 4.543 0 0 1 1.173-.159c.245 0 .527.03.845.09.322.056.632.174.93.353.302.179.552.449.75.81.2.361.299.845.299 1.452V198h-1.173v-1.034h-.06c-.08.166-.212.343-.398.532-.185.189-.432.35-.74.482-.309.133-.685.199-1.129.199Zm.179-1.054c.464 0 .855-.091 1.173-.273.322-.183.564-.418.726-.706.166-.289.249-.592.249-.91v-1.074c-.05.06-.16.114-.328.164a5.521 5.521 0 0 1-.577.124c-.215.033-.426.063-.631.09-.203.023-.367.043-.493.059-.305.04-.59.105-.855.194a1.47 1.47 0 0 0-.636.393c-.16.172-.239.408-.239.706 0 .408.151.716.453.925.305.205.69.308 1.158.308Zm8.784-6.761v.994h-3.958v-.994h3.958Zm-2.804-1.83h1.173v7.278c0 .332.048.581.144.746.1.163.225.272.378.328.156.053.32.08.492.08.13 0 .235-.007.318-.02l.2-.04.238 1.054c-.08.03-.19.06-.333.09a2.467 2.467 0 0 1-.542.049 2.37 2.37 0 0 1-.975-.213 1.939 1.939 0 0 1-.785-.652c-.206-.291-.308-.659-.308-1.103v-7.597ZM39.59 198v-7.636h1.173V198H39.59Zm.596-8.909a.833.833 0 0 1-.592-.234.751.751 0 0 1-.243-.562c0-.218.081-.406.243-.561a.833.833 0 0 1 .592-.234c.229 0 .424.078.587.234a.742.742 0 0 1 .248.561.744.744 0 0 1-.248.562.816.816 0 0 1-.587.234Zm5.828 9.068c-.69 0-1.294-.164-1.815-.492a3.343 3.343 0 0 1-1.213-1.377c-.288-.59-.432-1.28-.432-2.068 0-.796.144-1.49.432-2.084a3.345 3.345 0 0 1 1.213-1.382c.52-.328 1.126-.492 1.815-.492.69 0 1.293.164 1.81.492a3.3 3.3 0 0 1 1.213 1.382c.291.594.437 1.288.437 2.084 0 .788-.146 1.478-.437 2.068a3.297 3.297 0 0 1-1.213 1.377c-.517.328-1.12.492-1.81.492Zm0-1.054c.524 0 .955-.134 1.293-.403a2.37 2.37 0 0 0 .75-1.059 4.05 4.05 0 0 0 .244-1.421c0-.511-.081-.986-.244-1.427a2.406 2.406 0 0 0-.75-1.069c-.338-.272-.77-.408-1.293-.408-.524 0-.955.136-1.293.408a2.405 2.405 0 0 0-.75 1.069 4.095 4.095 0 0 0-.244 1.427c0 .51.081.984.244 1.421.162.438.412.791.75 1.059.339.269.77.403 1.293.403Zm6.425-3.699V198h-1.174v-7.636H52.4v1.193h.1c.178-.388.45-.7.815-.935.364-.238.835-.358 1.411-.358.517 0 .97.106 1.358.318.388.209.69.527.905.955.215.424.323.961.323 1.611V198h-1.174v-4.773c0-.6-.155-1.067-.467-1.402-.312-.338-.739-.507-1.283-.507-.374 0-.709.081-1.004.244a1.738 1.738 0 0 0-.69.711c-.17.311-.254.689-.254 1.133Zm9.263 4.773c-.484 0-.923-.091-1.318-.273a2.265 2.265 0 0 1-.94-.801c-.231-.351-.347-.775-.347-1.273 0-.437.086-.792.258-1.064.173-.275.403-.49.691-.646.289-.156.607-.272.955-.348.351-.079.704-.142 1.059-.189.464-.059.84-.104 1.128-.134.292-.033.504-.088.637-.164.136-.076.204-.209.204-.398v-.04c0-.49-.135-.871-.403-1.143-.265-.272-.668-.408-1.208-.408-.56 0-1 .123-1.318.368-.318.245-.542.507-.67.786l-1.114-.398c.198-.464.463-.825.795-1.084.335-.262.7-.444 1.094-.547a4.544 4.544 0 0 1 1.173-.159c.245 0 .527.03.845.09.322.056.632.174.93.353.301.179.552.449.75.81.2.361.299.845.299 1.452V198h-1.173v-1.034h-.06c-.08.166-.212.343-.398.532-.185.189-.432.35-.74.482-.309.133-.685.199-1.13.199Zm.179-1.054c.464 0 .855-.091 1.173-.273.322-.183.564-.418.726-.706.166-.289.249-.592.249-.91v-1.074c-.05.06-.16.114-.328.164a5.532 5.532 0 0 1-.577.124c-.216.033-.426.063-.632.09-.202.023-.366.043-.492.059-.305.04-.59.105-.855.194a1.47 1.47 0 0 0-.636.393c-.16.172-.239.408-.239.706 0 .408.15.716.452.925.305.205.691.308 1.159.308Zm6.636-9.307V198h-1.174v-10.182h1.174ZM70.666 198v-7.636h1.173V198h-1.173Zm.596-8.909a.834.834 0 0 1-.591-.234.751.751 0 0 1-.244-.562c0-.218.081-.406.244-.561a.834.834 0 0 1 .591-.234c.229 0 .424.078.587.234a.742.742 0 0 1 .248.561.744.744 0 0 1-.248.562.816.816 0 0 1-.587.234Zm6.047 1.273v.994h-3.957v-.994h3.957Zm-2.804-1.83h1.173v7.278c0 .332.048.581.144.746.1.163.226.272.378.328.156.053.32.08.492.08.13 0 .236-.007.319-.02l.199-.04.238 1.054c-.08.03-.19.06-.333.09a2.467 2.467 0 0 1-.542.049 2.37 2.37 0 0 1-.974-.213 1.939 1.939 0 0 1-.786-.652c-.205-.291-.308-.659-.308-1.103v-7.597Zm5.325 12.33c-.2 0-.377-.017-.532-.05a1.398 1.398 0 0 1-.324-.09l.299-1.034c.285.073.537.1.755.08a.909.909 0 0 0 .582-.293c.172-.173.33-.453.472-.841l.22-.596-2.825-7.676h1.273l2.108 6.085h.08l2.108-6.085h1.272l-3.241 8.75a3.306 3.306 0 0 1-.542.979 2.03 2.03 0 0 1-.75.582c-.283.126-.6.189-.956.189Z"/><path fill="#fff" d="M166.797 189.42a1.665 1.665 0 0 0-.75-1.25c-.44-.299-.993-.448-1.659-.448-.477 0-.89.075-1.239.227a1.91 1.91 0 0 0-.812.613c-.19.258-.284.552-.284.881 0 .277.064.515.193.716.132.201.305.369.517.506.216.132.447.244.693.335.246.087.483.159.71.216l1.137.295c.371.091.751.214 1.142.37.39.155.751.36 1.085.613.333.254.602.568.807.944.208.374.312.823.312 1.346 0 .659-.17 1.244-.511 1.756-.337.511-.828.915-1.472 1.21-.64.295-1.415.443-2.324.443-.871 0-1.625-.138-2.261-.415-.636-.276-1.135-.668-1.494-1.176-.36-.511-.559-1.117-.597-1.818h1.761c.035.421.171.771.41 1.051.242.277.551.483.926.62.378.132.793.198 1.244.198.496 0 .937-.077 1.324-.233.39-.159.697-.378.92-.659.224-.284.336-.615.336-.994 0-.345-.099-.627-.296-.847a2.185 2.185 0 0 0-.79-.545 7.688 7.688 0 0 0-1.119-.381l-1.375-.375c-.932-.253-1.67-.627-2.216-1.119-.542-.492-.812-1.144-.812-1.955 0-.67.181-1.255.545-1.755.364-.5.856-.888 1.477-1.165.621-.28 1.322-.42 2.103-.42.787 0 1.483.138 2.085.414.606.277 1.083.658 1.432 1.142a2.88 2.88 0 0 1 .545 1.659h-1.693Zm5.706 8.58-2.568-8.727h1.755l1.711 6.409h.085l1.716-6.409h1.755l1.705 6.38h.085l1.699-6.38h1.756L179.639 198h-1.733l-1.772-6.301h-.131L174.23 198h-1.727Zm14.807.176c-.86 0-1.601-.184-2.222-.551a3.738 3.738 0 0 1-1.432-1.563c-.333-.674-.5-1.464-.5-2.369 0-.894.167-1.682.5-2.363a3.886 3.886 0 0 1 1.409-1.597c.606-.383 1.315-.574 2.125-.574.493 0 .97.082 1.432.244.462.163.877.419 1.244.767.368.349.658.802.87 1.358.212.553.318 1.226.318 2.017v.603h-6.938v-1.273h5.273c0-.447-.091-.843-.273-1.187a2.045 2.045 0 0 0-.767-.824c-.325-.201-.708-.302-1.147-.302-.478 0-.894.118-1.25.353a2.356 2.356 0 0 0-.818.909c-.19.371-.285.774-.285 1.21v.994c0 .584.103 1.08.307 1.489.209.409.498.722.87.938.371.212.804.318 1.301.318.322 0 .615-.046.88-.137a1.88 1.88 0 0 0 .688-.42c.193-.186.341-.415.443-.688l1.608.29c-.129.474-.36.888-.693 1.244-.33.353-.744.627-1.244.824-.497.194-1.063.29-1.699.29Zm8.896-.006c-.705 0-1.333-.179-1.886-.539-.55-.364-.981-.881-1.296-1.551-.31-.675-.466-1.483-.466-2.427 0-.943.157-1.75.472-2.42.318-.671.754-1.184 1.307-1.54a3.398 3.398 0 0 1 1.88-.534c.542 0 .978.091 1.307.273.333.178.591.386.773.625.185.238.329.449.432.631h.102v-4.324h1.699V198h-1.659v-1.358h-.142c-.103.186-.25.398-.443.636a2.46 2.46 0 0 1-.785.625c-.333.178-.765.267-1.295.267Zm.375-1.448c.489 0 .901-.129 1.239-.387.341-.261.598-.623.772-1.085.178-.462.267-1 .267-1.614 0-.606-.087-1.136-.261-1.591-.174-.454-.43-.808-.767-1.062s-.754-.381-1.25-.381c-.511 0-.938.133-1.278.398-.341.265-.599.627-.773 1.085a4.418 4.418 0 0 0-.256 1.551c0 .584.087 1.108.262 1.574.174.466.431.835.772 1.108.345.269.769.404 1.273.404Zm6.374 1.278v-8.727h1.698V198h-1.698Zm.857-10.074a1.08 1.08 0 0 1-.761-.295.963.963 0 0 1-.312-.716c0-.281.104-.519.312-.716.212-.201.466-.301.761-.301.296 0 .548.1.756.301a.94.94 0 0 1 .318.716.954.954 0 0 1-.318.716c-.208.197-.46.295-.756.295Zm9.667 3.477-1.54.273a1.817 1.817 0 0 0-.307-.562 1.52 1.52 0 0 0-.557-.438c-.235-.114-.528-.17-.88-.17-.481 0-.883.108-1.205.324-.322.212-.483.486-.483.823 0 .292.108.527.324.705.216.178.564.324 1.045.437l1.387.319c.803.185 1.401.471 1.795.858.394.386.591.888.591 1.505 0 .523-.151.989-.454 1.398-.3.405-.718.723-1.256.955-.534.231-1.153.346-1.858.346-.977 0-1.775-.208-2.392-.625-.618-.42-.996-1.017-1.136-1.79l1.642-.25c.102.428.312.752.63.972.318.216.733.324 1.245.324.556 0 1.001-.116 1.335-.347.333-.235.5-.521.5-.858a.89.89 0 0 0-.307-.687c-.201-.186-.509-.326-.926-.421l-1.477-.324c-.815-.185-1.417-.481-1.807-.886-.387-.405-.58-.918-.58-1.54a2.2 2.2 0 0 1 .432-1.352c.288-.386.686-.687 1.193-.903.508-.22 1.089-.33 1.745-.33.943 0 1.685.205 2.227.614.541.405.899.949 1.074 1.63Zm3.737 1.415V198h-1.699v-11.636h1.676v4.329h.108c.205-.47.517-.843.938-1.119.42-.277.969-.415 1.647-.415.599 0 1.122.123 1.569.369.45.247.799.614 1.045 1.103.25.485.375 1.091.375 1.818V198h-1.699v-5.347c0-.64-.165-1.136-.494-1.488-.33-.356-.788-.534-1.375-.534-.402 0-.762.085-1.08.255a1.853 1.853 0 0 0-.744.75c-.178.326-.267.72-.267 1.182Z"/><path stroke="#fff" stroke-opacity=".1" d="M15 210h224"/><defs><linearGradient id="a" x1="19.006" x2="33.901" y1="26.63" y2="41.985" gradientUnits="userSpaceOnUse"><stop stop-color="#74FF5E"/><stop offset="1" stop-color="#008D1F"/></linearGradient></defs></svg>