
<svg width="120px" height="120px" viewBox="0 0 120 120" version="1.1" xmlns="http://www.w3.org/2000/svg" xmlns:xlink="http://www.w3.org/1999/xlink">
    <g id="Page-1" stroke="none" stroke-width="1" fill="none" fill-rule="evenodd">
        <g id="iso-27001-blue" transform="translate(1.000000, 1.000000)">
            <circle id="Oval" stroke="#0057FF" cx="59" cy="59" r="39.5"></circle>
            <circle id="Oval" stroke="#0057FF" stroke-width="2" cx="59" cy="59" r="59"></circle>
            <path d="M24.7435,22.0278 L23.3032,23.4042 C23.0364,23.2073 22.7607,23.0704 22.4761,22.9936 C22.1891,22.9143 21.9021,22.889 21.6151,22.9176 C21.3281,22.9463 21.0487,23.0291 20.7768,23.1661 C20.5051,23.2981 20.2486,23.4794 20.0072,23.71 C19.5785,24.1198 19.3016,24.5907 19.1765,25.1229 C19.049,25.6525 19.089,26.2135 19.2966,26.8059 C19.5018,27.3958 19.8877,27.9872 20.4545,28.5803 C21.0311,29.1836 21.6106,29.6023 22.193,29.8366 C22.7755,30.0658 23.3317,30.1286 23.8615,30.0251 C24.3914,29.9165 24.8694,29.6586 25.2956,29.2513 C25.5318,29.0256 25.7231,28.7838 25.8696,28.5259 C26.0163,28.263 26.1128,27.9914 26.1594,27.7111 C26.2085,27.4284 26.2036,27.1432 26.1448,26.8556 C26.0886,26.5655 25.9719,26.284 25.7948,26.0113 L27.2424,24.6425 C27.5467,25.0689 27.766,25.5322 27.9003,26.0326 C28.0372,26.5305 28.0821,27.0426 28.035,27.569 C27.9855,28.0928 27.8357,28.6094 27.5855,29.1186 C27.3329,29.6252 26.9717,30.1031 26.5019,30.5521 C25.8087,31.2145 25.0367,31.6454 24.1857,31.8446 C23.3348,32.0438 22.4632,31.9902 21.5709,31.6836 C20.6787,31.3771 19.8278,30.8002 19.0181,29.953 C18.206,29.1032 17.6695,28.2258 17.4087,27.3207 C17.1455,26.4131 17.1326,25.5387 17.3702,24.6977 C17.6078,23.8566 18.0706,23.1073 18.7586,22.4498 C19.1976,22.0302 19.6647,21.7017 20.1599,21.4643 C20.655,21.2269 21.1643,21.0864 21.6877,21.043 C22.2087,20.9971 22.7285,21.0553 23.2473,21.2178 C23.7661,21.3752 24.2649,21.6452 24.7435,22.0278 Z" id="Path" fill="#0057FF" fill-rule="nonzero"></path>
            <polygon id="Path" fill="#0057FF" fill-rule="nonzero" points="31.7733 25.7007 25.5273 16.7567 31.3445 12.6943 32.293 14.0525 28.0961 16.9834 29.7918 19.4116 33.6873 16.6911 34.6358 18.0493 30.7402 20.7698 32.4451 23.211 36.6769 20.2558 37.6254 21.614"></polygon>
            <path d="M39.9043,20.224 L36.0298,10.0262 L39.854,8.57323 C40.6374,8.27558 41.3464,8.16195 41.981,8.23236 C42.6188,8.30151 43.1672,8.53002 43.6261,8.9179 C44.087,9.3012 44.4411,9.8182 44.6883,10.4688 C44.9368,11.1228 45.013,11.7434 44.917,12.3307 C44.8231,12.9134 44.5571,13.438 44.119,13.9046 C43.6796,14.3679 43.0682,14.7483 42.2847,15.046 L39.561,16.0808 L38.9783,14.5472 L41.4531,13.6069 C41.9112,13.4329 42.2623,13.2273 42.5065,12.9901 C42.7495,12.7497 42.894,12.4801 42.9401,12.1815 C42.9882,11.8783 42.9436,11.5458 42.8061,11.1839 C42.6686,10.8221 42.4799,10.5405 42.2401,10.3391 C41.999,10.1344 41.7071,10.0212 41.3645,9.9994 C41.0207,9.9743 40.6181,10.0494 40.1566,10.2247 L38.4636,10.8679 L41.7517,19.5222 L39.9043,20.224 Z M43.4169,13.6015 L47.6971,17.2633 L45.6357,18.0465 L41.4002,14.3677 L43.4169,13.6015 Z" id="Shape" fill="#0057FF" fill-rule="nonzero"></path>
            <polygon id="Path" fill="#0057FF" fill-rule="nonzero" points="46.8578 8.08255 46.605 6.44535 55.2069 5.11719 55.4597 6.75439 52.1274 7.26891 53.5392 16.413 51.602 16.7122 50.1901 7.56803"></polygon>
            <polygon id="Path" fill="#0057FF" fill-rule="nonzero" points="61.5508 5.14324 61.318 16.0499 59.3423 16.0077 59.5751 5.10107"></polygon>
            <polygon id="Path" fill="#0057FF" fill-rule="nonzero" points="65.2793 16.2571 67.4025 5.55664 74.2575 6.91679 73.935 8.54172 69.0185 7.56618 68.4421 10.4712 72.8884 11.3534 72.566 12.9784 68.1196 12.0961 67.2177 16.6417"></polygon>
            <polygon id="Path" fill="#0057FF" fill-rule="nonzero" points="80.8532 9.4136 76.9042 19.5829 75.062 18.8675 79.011 8.69824"></polygon>
            <polygon id="Path" fill="#0057FF" fill-rule="nonzero" points="80.0386 20.7083 86.1498 11.6716 92.0272 15.6463 91.0991 17.0186 86.8588 14.151 85.1997 16.6043 89.1356 19.266 88.2076 20.6383 84.2717 17.9765 82.6036 20.4431 86.8793 23.3346 85.9512 24.7068"></polygon>
            <path d="M91.015,29.6167 L88.4023,27.0013 L96.1203,19.2915 L98.7856,21.9596 C99.551,22.7259 100.054,23.5385 100.295,24.3974 C100.54,25.2563 100.524,26.1213 100.244,26.9925 C99.965,27.8637 99.425,28.6996 98.6234,29.5002 C97.8195,30.3033 96.9793,30.844 96.1028,31.1222 C95.2288,31.403 94.3575,31.4176 93.4888,31.1661 C92.6226,30.917 91.798,30.4006 91.015,29.6167 Z M91.0087,27.191 L92.1569,28.3404 C92.694,28.8781 93.2399,29.2287 93.7948,29.3922 C94.3522,29.5532 94.9171,29.5284 95.4898,29.3177 C96.0649,29.1046 96.6477,28.7031 97.2381,28.1133 C97.8285,27.5236 98.228,26.9437 98.4368,26.3738 C98.648,25.8014 98.6734,25.2415 98.513,24.694 C98.3576,24.1465 98.0189,23.6115 97.4968,23.0889 L96.3072,21.8981 L91.0087,27.191 Z" id="Shape" fill="#0057FF" fill-rule="nonzero"></path>
            <circle id="Oval" fill="#0057FF" fill-rule="nonzero" cx="59" cy="59" r="37.5"></circle>
            <path d="M28.3315,77.5 L28.3315,76.625 L31.0386,73.8203 C31.3276,73.5156 31.5659,73.2487 31.7534,73.0195 C31.9435,72.7878 32.0854,72.5677 32.1792,72.3594 C32.2729,72.151 32.3198,71.9297 32.3198,71.6953 C32.3198,71.4297 32.2573,71.2005 32.1323,71.0078 C32.0073,70.8125 31.8368,70.6628 31.6206,70.5586 C31.4045,70.4518 31.161,70.3984 30.8901,70.3984 C30.6037,70.3984 30.3537,70.457 30.1401,70.5742 C29.9266,70.6914 29.7625,70.8568 29.6479,71.0703 C29.5334,71.2839 29.4761,71.5339 29.4761,71.8203 L28.3237,71.8203 C28.3237,71.3333 28.4357,70.9076 28.6597,70.543 C28.8836,70.1784 29.1909,69.8958 29.5815,69.6953 C29.9722,69.4922 30.4162,69.3906 30.9136,69.3906 C31.4162,69.3906 31.8589,69.4909 32.2417,69.6914 C32.6271,69.8893 32.9279,70.1602 33.144,70.5039 C33.3602,70.8451 33.4683,71.2305 33.4683,71.6602 C33.4683,71.957 33.4123,72.2474 33.3003,72.5312 C33.1909,72.8151 32.9995,73.1315 32.7261,73.4805 C32.4526,73.8268 32.0724,74.2474 31.5854,74.7422 L29.9956,76.4062 L29.9956,76.4648 L33.5972,76.4648 L33.5972,77.5 L28.3315,77.5 Z M35.3472,77.5 L38.8394,70.5937 L38.8394,70.5352 L34.8003,70.5352 L34.8003,69.5 L40.0894,69.5 L40.0894,70.5703 L36.6089,77.5 L35.3472,77.5 Z M44.061,77.6328 C43.4438,77.6302 42.9165,77.4674 42.479,77.1445 C42.0415,76.8216 41.7069,76.3516 41.4751,75.7344 C41.2433,75.1172 41.1274,74.3737 41.1274,73.5039 C41.1274,72.6367 41.2433,71.8958 41.4751,71.2812 C41.7095,70.6667 42.0454,70.1979 42.4829,69.875 C42.923,69.5521 43.4491,69.3906 44.061,69.3906 C44.673,69.3906 45.1978,69.5534 45.6353,69.8789 C46.0728,70.2018 46.4074,70.6706 46.6392,71.2852 C46.8735,71.8971 46.9907,72.6367 46.9907,73.5039 C46.9907,74.3763 46.8748,75.1211 46.6431,75.7383 C46.4113,76.3529 46.0767,76.8229 45.6392,77.1484 C45.2017,77.4714 44.6756,77.6328 44.061,77.6328 Z M44.061,76.5898 C44.6027,76.5898 45.0259,76.3255 45.3306,75.7969 C45.6379,75.2682 45.7915,74.5039 45.7915,73.5039 C45.7915,72.8398 45.7212,72.2786 45.5806,71.8203 C45.4425,71.3594 45.2433,71.0104 44.9829,70.7734 C44.7251,70.5339 44.4178,70.4141 44.061,70.4141 C43.522,70.4141 43.0988,70.6797 42.7915,71.2109 C42.4842,71.7422 42.3293,72.5065 42.3267,73.5039 C42.3267,74.1706 42.3957,74.7344 42.5337,75.1953 C42.6743,75.6536 42.8735,76.0013 43.1313,76.2383 C43.3892,76.4727 43.6991,76.5898 44.061,76.5898 Z M51.1616,77.6328 C50.5444,77.6302 50.0171,77.4674 49.5796,77.1445 C49.1421,76.8216 48.8075,76.3516 48.5757,75.7344 C48.3439,75.1172 48.228,74.3737 48.228,73.5039 C48.228,72.6367 48.3439,71.8958 48.5757,71.2812 C48.8101,70.6667 49.146,70.1979 49.5835,69.875 C50.0236,69.5521 50.5496,69.3906 51.1616,69.3906 C51.7736,69.3906 52.2983,69.5534 52.7358,69.8789 C53.1733,70.2018 53.508,70.6706 53.7397,71.2852 C53.9741,71.8971 54.0913,72.6367 54.0913,73.5039 C54.0913,74.3763 53.9754,75.1211 53.7437,75.7383 C53.5119,76.3529 53.1772,76.8229 52.7397,77.1484 C52.3022,77.4714 51.7762,77.6328 51.1616,77.6328 Z M51.1616,76.5898 C51.7033,76.5898 52.1265,76.3255 52.4312,75.7969 C52.7384,75.2682 52.8921,74.5039 52.8921,73.5039 C52.8921,72.8398 52.8218,72.2786 52.6812,71.8203 C52.5431,71.3594 52.3439,71.0104 52.0835,70.7734 C51.8257,70.5339 51.5184,70.4141 51.1616,70.4141 C50.6226,70.4141 50.1994,70.6797 49.8921,71.2109 C49.5848,71.7422 49.4299,72.5065 49.4272,73.5039 C49.4272,74.1706 49.4963,74.7344 49.6343,75.1953 C49.7749,75.6536 49.9741,76.0013 50.2319,76.2383 C50.4897,76.4727 50.7996,76.5898 51.1616,76.5898 Z M58.5122,69.5 L58.5122,77.5 L57.3013,77.5 L57.3013,70.7109 L57.2544,70.7109 L55.3403,71.9609 L55.3403,70.8047 L57.3364,69.5 L58.5122,69.5 Z M61.4614,76.5078 C61.2479,76.5078 61.0643,76.4323 60.9106,76.2812 C60.757,76.1276 60.6802,75.9427 60.6802,75.7266 C60.6802,75.513 60.757,75.3307 60.9106,75.1797 C61.0643,75.026 61.2479,74.9492 61.4614,74.9492 C61.675,74.9492 61.8586,75.026 62.0122,75.1797 C62.1659,75.3307 62.2427,75.513 62.2427,75.7266 C62.2427,75.8698 62.2062,76.0013 62.1333,76.1211 C62.063,76.2383 61.9692,76.332 61.8521,76.4023 C61.7349,76.4727 61.6047,76.5078 61.4614,76.5078 Z M61.4614,72.5 C61.2479,72.5 61.0643,72.4245 60.9106,72.2734 C60.757,72.1198 60.6802,71.9349 60.6802,71.7187 C60.6802,71.5052 60.757,71.3229 60.9106,71.1719 C61.0643,71.0182 61.2479,70.9414 61.4614,70.9414 C61.675,70.9414 61.8586,71.0182 62.0122,71.1719 C62.1659,71.3229 62.2427,71.5052 62.2427,71.7187 C62.2427,71.862 62.2062,71.9935 62.1333,72.1133 C62.063,72.2305 61.9692,72.3242 61.8521,72.3945 C61.7349,72.4648 61.6047,72.5 61.4614,72.5 Z M63.7915,77.5 L63.7915,76.625 L66.4985,73.8203 C66.7876,73.5156 67.0259,73.2487 67.2134,73.0195 C67.4035,72.7878 67.5454,72.5677 67.6392,72.3594 C67.7329,72.151 67.7798,71.9297 67.7798,71.6953 C67.7798,71.4297 67.7173,71.2005 67.5923,71.0078 C67.4673,70.8125 67.2967,70.6628 67.0806,70.5586 C66.8644,70.4518 66.6209,70.3984 66.3501,70.3984 C66.0636,70.3984 65.8136,70.457 65.6001,70.5742 C65.3866,70.6914 65.2225,70.8568 65.1079,71.0703 C64.9933,71.2839 64.936,71.5339 64.936,71.8203 L63.7837,71.8203 C63.7837,71.3333 63.8957,70.9076 64.1196,70.543 C64.3436,70.1784 64.6509,69.8958 65.0415,69.6953 C65.4321,69.4922 65.8761,69.3906 66.3735,69.3906 C66.8761,69.3906 67.3188,69.4909 67.7017,69.6914 C68.0871,69.8893 68.3879,70.1602 68.604,70.5039 C68.8201,70.8451 68.9282,71.2305 68.9282,71.6602 C68.9282,71.957 68.8722,72.2474 68.7603,72.5312 C68.6509,72.8151 68.4595,73.1315 68.186,73.4805 C67.9126,73.8268 67.5324,74.2474 67.0454,74.7422 L65.4556,76.4062 L65.4556,76.4648 L69.0571,76.4648 L69.0571,77.5 L63.7915,77.5 Z M77.7915,77.5 L77.7915,76.625 L80.4985,73.8203 C80.7876,73.5156 81.0259,73.2487 81.2134,73.0195 C81.4035,72.7878 81.5454,72.5677 81.6392,72.3594 C81.7329,72.151 81.7798,71.9297 81.7798,71.6953 C81.7798,71.4297 81.7173,71.2005 81.5923,71.0078 C81.4673,70.8125 81.2967,70.6628 81.0806,70.5586 C80.8644,70.4518 80.6209,70.3984 80.3501,70.3984 C80.0636,70.3984 79.8136,70.457 79.6001,70.5742 C79.3866,70.6914 79.2225,70.8568 79.1079,71.0703 C78.9933,71.2839 78.936,71.5339 78.936,71.8203 L77.7837,71.8203 C77.7837,71.3333 77.8957,70.9076 78.1196,70.543 C78.3436,70.1784 78.6509,69.8958 79.0415,69.6953 C79.4321,69.4922 79.8761,69.3906 80.3735,69.3906 C80.8761,69.3906 81.3188,69.4909 81.7017,69.6914 C82.0871,69.8893 82.3879,70.1602 82.604,70.5039 C82.8201,70.8451 82.9282,71.2305 82.9282,71.6602 C82.9282,71.957 82.8722,72.2474 82.7603,72.5312 C82.6509,72.8151 82.4595,73.1315 82.186,73.4805 C81.9126,73.8268 81.5324,74.2474 81.0454,74.7422 L79.4556,76.4062 L79.4556,76.4648 L83.0571,76.4648 L83.0571,77.5 L77.7915,77.5 Z M84.7915,77.5 L84.7915,76.625 L87.4985,73.8203 C87.7876,73.5156 88.0259,73.2487 88.2134,73.0195 C88.4035,72.7878 88.5454,72.5677 88.6392,72.3594 C88.7329,72.151 88.7798,71.9297 88.7798,71.6953 C88.7798,71.4297 88.7173,71.2005 88.5923,71.0078 C88.4673,70.8125 88.2967,70.6628 88.0806,70.5586 C87.8644,70.4518 87.6209,70.3984 87.3501,70.3984 C87.0636,70.3984 86.8136,70.457 86.6001,70.5742 C86.3866,70.6914 86.2225,70.8568 86.1079,71.0703 C85.9933,71.2839 85.936,71.5339 85.936,71.8203 L84.7837,71.8203 C84.7837,71.3333 84.8957,70.9076 85.1196,70.543 C85.3436,70.1784 85.6509,69.8958 86.0415,69.6953 C86.4321,69.4922 86.8761,69.3906 87.3735,69.3906 C87.8761,69.3906 88.3188,69.4909 88.7017,69.6914 C89.0871,69.8893 89.3879,70.1602 89.604,70.5039 C89.8201,70.8451 89.9282,71.2305 89.9282,71.6602 C89.9282,71.957 89.8722,72.2474 89.7603,72.5312 C89.6509,72.8151 89.4595,73.1315 89.186,73.4805 C88.9126,73.8268 88.5324,74.2474 88.0454,74.7422 L86.4556,76.4062 L86.4556,76.4648 L90.0571,76.4648 L90.0571,77.5 L84.7915,77.5 Z M73.3228,77.6328 C72.7056,77.6302 72.1782,77.4674 71.7407,77.1445 C71.3032,76.8216 70.9686,76.3516 70.7368,75.7344 C70.505,75.1172 70.3892,74.3737 70.3892,73.5039 C70.3892,72.6367 70.505,71.8958 70.7368,71.2812 C70.9712,70.6667 71.3071,70.1979 71.7446,69.875 C72.1847,69.5521 72.7108,69.3906 73.3228,69.3906 C73.9347,69.3906 74.4595,69.5534 74.897,69.8789 C75.3345,70.2018 75.6691,70.6706 75.9009,71.2852 C76.1353,71.8971 76.2524,72.6367 76.2524,73.5039 C76.2524,74.3763 76.1366,75.1211 75.9048,75.7383 C75.673,76.3529 75.3384,76.8229 74.9009,77.1484 C74.4634,77.4714 73.9373,77.6328 73.3228,77.6328 Z M73.3228,76.5898 C73.8644,76.5898 74.2876,76.3255 74.5923,75.7969 C74.8996,75.2682 75.0532,74.5039 75.0532,73.5039 C75.0532,72.8398 74.9829,72.2786 74.8423,71.8203 C74.7043,71.3594 74.505,71.0104 74.2446,70.7734 C73.9868,70.5339 73.6795,70.4141 73.3228,70.4141 C72.7837,70.4141 72.3605,70.6797 72.0532,71.2109 C71.7459,71.7422 71.591,72.5065 71.5884,73.5039 C71.5884,74.1706 71.6574,74.7344 71.7954,75.1953 C71.936,75.6536 72.1353,76.0013 72.3931,76.2383 C72.6509,76.4727 72.9608,76.5898 73.3228,76.5898 Z" id="Shape" fill="#FFFFFF" fill-rule="nonzero"></path>
            <path d="M40.3944,40.6818 L40.3944,62.5 L35.121,62.5 L35.121,40.6818 L40.3944,40.6818 Z M55.4983,47.223 C55.4273,46.4418 55.1112,45.8345 54.5502,45.4013 C53.9962,44.9609 53.2043,44.7408 52.1744,44.7408 C51.4926,44.7408 50.9244,44.8295 50.4699,45.0071 C50.0154,45.1847 49.6744,45.4297 49.4472,45.7422 C49.2199,46.0476 49.1027,46.3991 49.0956,46.7969 C49.0814,47.1236 49.1453,47.4112 49.2874,47.6598 C49.4365,47.9084 49.6496,48.1286 49.9266,48.3203 C50.2107,48.505 50.5516,48.6683 50.9493,48.8104 C51.347,48.9524 51.7945,49.0767 52.2916,49.1832 L54.1666,49.6094 C55.2462,49.8438 56.1979,50.1562 57.0218,50.5469 C57.8527,50.9375 58.5487,51.4027 59.1098,51.9425 C59.678,52.4822 60.1077,53.1037 60.3989,53.8068 C60.6901,54.5099 60.8392,55.2983 60.8463,56.1719 C60.8392,57.5497 60.4912,58.7322 59.8023,59.7195 C59.1134,60.7067 58.1226,61.4631 56.83,61.9886 C55.5445,62.5142 53.9926,62.777 52.1744,62.777 C50.3492,62.777 48.7583,62.5036 47.4017,61.9567 C46.0452,61.4098 44.9905,60.5788 44.2377,59.4638 C43.4848,58.3487 43.0977,56.9389 43.0764,55.2344 L48.1262,55.2344 C48.1688,55.9375 48.357,56.5234 48.6908,56.9922 C49.0246,57.4609 49.4827,57.8161 50.0651,58.0575 C50.6546,58.299 51.3364,58.4197 52.1105,58.4197 C52.8208,58.4197 53.4244,58.3239 53.9216,58.1321 C54.4259,57.9403 54.8129,57.674 55.0828,57.3331 C55.3527,56.9922 55.4912,56.6016 55.4983,56.1612 C55.4912,55.7493 55.3634,55.3977 55.1148,55.1065 C54.8662,54.8082 54.4827,54.5526 53.9642,54.3395 C53.4529,54.1193 52.7994,53.9169 52.004,53.7322 L49.7242,53.1996 C47.835,52.7663 46.347,52.0668 45.2604,51.1009 C44.1737,50.1278 43.634,48.8139 43.6411,47.1591 C43.634,45.8097 43.9962,44.6271 44.7277,43.6115 C45.4593,42.5959 46.4713,41.804 47.7639,41.2358 C49.0566,40.6676 50.5303,40.3835 52.1851,40.3835 C53.8754,40.3835 55.3421,40.6712 56.585,41.2464 C57.835,41.8146 58.8044,42.6136 59.4933,43.6435 C60.1823,44.6733 60.5338,45.8665 60.548,47.223 L55.4983,47.223 Z M84.1027,51.5909 C84.1027,53.9915 83.6411,56.0263 82.7178,57.6953 C81.7945,59.3643 80.5445,60.6321 78.9678,61.4986 C77.3982,62.3651 75.6368,62.7983 73.6837,62.7983 C71.7235,62.7983 69.9585,62.3615 68.3889,61.4879 C66.8193,60.6143 65.5729,59.3466 64.6496,57.6847 C63.7334,56.0156 63.2753,53.9844 63.2753,51.5909 C63.2753,49.1903 63.7334,47.1555 64.6496,45.4865 C65.5729,43.8175 66.8193,42.5497 68.3889,41.6832 C69.9585,40.8168 71.7235,40.3835 73.6837,40.3835 C75.6368,40.3835 77.3982,40.8168 78.9678,41.6832 C80.5445,42.5497 81.7945,43.8175 82.7178,45.4865 C83.6411,47.1555 84.1027,49.1903 84.1027,51.5909 Z M78.7121,51.5909 C78.7121,50.1705 78.5097,48.9702 78.1048,47.9901 C77.7071,47.0099 77.1318,46.2678 76.379,45.7635 C75.6333,45.2592 74.7348,45.0071 73.6837,45.0071 C72.6396,45.0071 71.7412,45.2592 70.9884,45.7635 C70.2355,46.2678 69.6567,47.0099 69.2519,47.9901 C68.8541,48.9702 68.6553,50.1705 68.6553,51.5909 C68.6553,53.0114 68.8541,54.2116 69.2519,55.1918 C69.6567,56.1719 70.2355,56.9141 70.9884,57.4183 C71.7412,57.9226 72.6396,58.1747 73.6837,58.1747 C74.7348,58.1747 75.6333,57.9226 76.379,57.4183 C77.1318,56.9141 77.7071,56.1719 78.1048,55.1918 C78.5097,54.2116 78.7121,53.0114 78.7121,51.5909 Z" id="Shape" fill="#FFFFFF" fill-rule="nonzero"></path>
            <polygon id="Path" fill="#0057FF" fill-rule="nonzero" points="88.0918 91.7886 89.5371 90.0879 94.9427 91.1796 95.0117 91.0985 93.0625 85.9397 94.5079 84.239 97.1496 91.6921 100.251 94.3275 98.9743 95.8293 95.8733 93.1939"></polygon>
            <path d="M25.4305,92.2384 L24.1405,90.7203 C24.3527,90.4654 24.5054,90.1982 24.5987,89.9185 C24.6946,89.6366 24.7367,89.3516 24.7248,89.0634 C24.7129,88.7752 24.6465,88.4915 24.5256,88.2121 C24.4097,87.9331 24.2437,87.6664 24.0276,87.4121 C23.6435,86.9601 23.1896,86.6562 22.6656,86.5003 C22.1444,86.3421 21.582,86.3493 20.9784,86.522 C20.3776,86.6923 19.7646,87.0431 19.1395,87.5743 C18.5036,88.1147 18.0517,88.6688 17.7839,89.2365 C17.5211,89.8047 17.4259,90.3563 17.4984,90.8912 C17.5758,91.4265 17.8054,91.9188 18.1871,92.368 C18.3987,92.617 18.6289,92.8221 18.8778,92.9834 C19.1317,93.1451 19.3972,93.2574 19.6742,93.3202 C19.9536,93.3857 20.2386,93.3975 20.5292,93.3556 C20.8221,93.3164 21.1099,93.2164 21.3925,93.0554 L22.6744,94.5804 C22.231,94.8593 21.7557,95.0512 21.2483,95.1561 C20.7433,95.2637 20.2294,95.2787 19.7066,95.201 C19.1866,95.1209 18.6797,94.9412 18.186,94.6618 C17.6949,94.38 17.239,93.9915 16.8182,93.4963 C16.1973,92.7657 15.8122,91.9698 15.663,91.1087 C15.5138,90.2475 15.6182,89.3806 15.9763,88.5077 C16.3344,87.6349 16.96,86.8191 17.853,86.0603 C18.7487,85.2991 19.6559,84.8148 20.5747,84.6073 C21.4962,84.3974 22.3698,84.4356 23.1955,84.7219 C24.0213,85.0081 24.7423,85.5139 25.3586,86.2391 C25.7518,86.7018 26.0524,87.1873 26.2606,87.6955 C26.4687,88.2036 26.5792,88.7202 26.5919,89.2453 C26.6074,89.7681 26.5189,90.2836 26.3265,90.792 C26.139,91.3008 25.8404,91.7829 25.4305,92.2384 Z" id="Path" fill="#0057FF" fill-rule="nonzero"></path>
            <path d="M35.2533,101.743 C34.5709,102.7 33.8072,103.392 32.9622,103.818 C32.1221,104.244 31.2652,104.419 30.3916,104.341 C29.5209,104.265 28.6967,103.95 27.9189,103.396 C27.1411,102.841 26.5731,102.164 26.2149,101.363 C25.8616,100.562 25.7479,99.693 25.8738,98.7583 C26.0047,97.8223 26.4103,96.8772 27.0906,95.923 C27.7729,94.966 28.5342,94.2744 29.3743,93.8485 C30.2193,93.4217 31.0772,93.2462 31.9479,93.3218 C32.8215,93.3994 33.6472,93.7155 34.425,94.2701 C35.2028,94.8246 35.7694,95.5011 36.1247,96.2996 C36.4829,97.1001 36.5965,97.9684 36.4657,98.9043 C36.3398,99.839 35.9356,100.786 35.2533,101.743 Z M33.6355,100.589 C34.1158,99.916 34.4154,99.272 34.5341,98.659 C34.6578,98.045 34.6192,97.4875 34.4181,96.9866 C34.2191,96.4827 33.8781,96.0586 33.3953,95.7144 C32.9124,95.3701 32.4003,95.186 31.8591,95.1621 C31.32,95.1354 30.7789,95.2795 30.2359,95.5946 C29.6979,95.9088 29.1887,96.4027 28.7084,97.0765 C28.228,97.7502 27.926,98.394 27.8023,99.008 C27.6835,99.621 27.7237,100.18 27.9227,100.683 C28.1237,101.184 28.4657,101.607 28.9486,101.951 C29.4315,102.296 29.9425,102.481 30.4817,102.508 C31.0229,102.532 31.5625,102.387 32.1005,102.072 C32.6435,101.757 33.1552,101.263 33.6355,100.589 Z" id="Shape" fill="#0057FF" fill-rule="nonzero"></path>
            <polygon id="Path" fill="#0057FF" fill-rule="nonzero" points="41.1628 99.083 43.4619 99.834 44.0891 108.353 44.2106 108.393 49.7413 101.882 52.0403 102.632 48.6568 113.003 46.854 112.415 49.1786 105.29 49.0823 105.259 43.9015 111.418 42.5545 110.979 42.0078 102.934 41.9116 102.902 39.5821 110.043 37.7793 109.455"></polygon>
            <path d="M55.749,113.5 L55.749,102.591 L59.8399,102.591 C60.678,102.591 61.3811,102.747 61.9493,103.06 C62.521,103.372 62.9525,103.802 63.2437,104.349 C63.5384,104.892 63.6858,105.51 63.6858,106.202 C63.6858,106.902 63.5384,107.523 63.2437,108.067 C62.949,108.61 62.5139,109.038 61.9387,109.35 C61.3634,109.659 60.6549,109.814 59.8133,109.814 L57.102,109.814 L57.102,108.189 L59.547,108.189 C60.037,108.189 60.4383,108.104 60.7508,107.934 C61.0633,107.763 61.2941,107.529 61.4433,107.23 C61.596,106.932 61.6723,106.589 61.6723,106.202 C61.6723,105.815 61.596,105.474 61.4433,105.18 C61.2941,104.885 61.0615,104.656 60.7455,104.492 C60.433,104.326 60.0299,104.242 59.5363,104.242 L57.7252,104.242 L57.7252,113.5 L55.749,113.5 Z" id="Path" fill="#0057FF" fill-rule="nonzero"></path>
            <path d="M70.4404,112.067 L68.4351,112.721 L68.7024,101.159 L71.0217,100.402 L78.0617,109.58 L76.0564,110.235 L70.5965,102.894 L70.5155,102.921 L70.4404,112.067 Z M69.1795,107.979 L74.6486,106.195 L75.141,107.704 L69.6719,109.488 L69.1795,107.979 Z" id="Shape" fill="#0057FF" fill-rule="nonzero"></path>
            <polygon id="Path" fill="#0057FF" fill-rule="nonzero" points="84.9155 93.6599 91.2489 102.542 89.8177 103.563 81.3184 100.497 81.2447 100.549 85.5587 106.6 83.9496 107.747 77.6162 98.8646 79.0561 97.8378 87.5542 100.911 87.6322 100.856 83.3152 94.801"></polygon>
        </g>
    </g>
</svg>