<svg width="774" height="185" viewBox="0 0 774 185" fill="none" xmlns="http://www.w3.org/2000/svg">
<path d="M771.829 176.196L753.986 182.829C753.986 182.829 744.139 37.2972 741.208 37.2972C738.278 37.2972 720.838 37.2972 720.838 37.2972C720.838 37.2972 706.053 24.5189 703.304 24.5189C700.556 24.5189 689.475 23.5856 689.475 22.9277C689.475 22.2698 665.595 22.3222 665.595 22.9277C665.595 23.5333 655.449 24.5189 655.449 24.5189L637.969 32.6584L620.495 28.1414L604.407 21.5658L587.014 20.9029L570.63 3.66618L537.404 163.796L504.149 145.039L488.022 151.824L471.095 153.63C471.095 153.63 458.669 105.843 453.142 105.843C447.615 105.843 439.623 134.237 437.242 134.237C434.861 134.237 402.578 134.676 402.578 135.552C402.578 136.428 383.943 143.526 383.943 145.039C383.943 146.552 370.05 158.437 370.05 158.437L353.342 160.751L338.252 157.63H318.551L302.984 149.916L287.022 155.616C287.022 155.616 262.377 152.936 259.102 152.936C255.828 152.936 234.64 152.936 234.64 152.936C234.64 152.936 219.77 149.916 217.304 149.916C214.839 149.916 185.518 107.912 185.518 107.912L168.834 104.685L151.711 122.488C151.711 122.488 125.623 126.651 121.487 126.651C117.351 126.651 101.797 126.651 101.797 126.651C101.797 126.651 67.8546 75.7236 63.8885 73.8354C59.9224 71.9471 51.1845 62.7253 51.1845 62.7253L34.3433 96.6982C34.3433 96.6982 17.1027 66.2533 17.1027 65.059C17.1027 63.8646 2.13805 52.2505 2.13805 52.2505" stroke="url(#paint0_linear_153_26696)" stroke-width="2.66116" stroke-linecap="round"/>
<defs>
<linearGradient id="paint0_linear_153_26696" x1="771.829" y1="93.2476" x2="2.13806" y2="93.2476" gradientUnits="userSpaceOnUse">
<stop offset="0.0207942" stop-color="#F66F87" stop-opacity="0"/>
<stop offset="0.305009" stop-color="#F66F87"/>
<stop offset="0.735008" stop-color="#F66F87"/>
<stop offset="1" stop-color="#F66F87" stop-opacity="0"/>
</linearGradient>
</defs>
</svg>
