<svg width="774" height="202" viewBox="0 0 774 202" fill="none" xmlns="http://www.w3.org/2000/svg">
<path d="M1.37305 184.626L17.4999 191.412L34.4263 193.217C34.4263 193.217 46.8528 145.43 52.3798 145.43C57.9068 145.43 65.8984 173.824 68.2796 173.824C70.6609 173.824 102.944 174.264 102.944 175.139C102.944 176.015 121.579 183.113 121.579 184.626C121.579 186.14 135.472 198.024 135.472 198.024L152.18 200.338L167.27 197.217H186.97L202.538 189.503L218.499 195.203C218.499 195.203 243.145 192.524 246.419 192.524C249.694 192.524 270.881 192.524 270.881 192.524C270.881 192.524 285.752 189.503 288.218 189.503C290.683 189.503 320.003 147.5 320.003 147.5L336.688 144.272L353.811 162.075C353.811 162.075 379.899 166.238 384.035 166.238C388.171 166.238 403.725 166.238 403.725 166.238C403.725 166.238 437.667 115.311 441.633 113.423C445.599 111.534 454.337 102.313 454.337 102.313L471.178 136.286C471.178 136.286 488.419 111.758 488.419 110.564C488.419 109.369 503.384 97.7554 503.384 97.7554L522.023 102.313C522.023 102.313 508.962 36.3768 512.974 34.7714C516.987 33.1659 531.811 56.7165 531.811 56.7165C531.811 56.7165 548.077 11.3836 548.077 12.8447C548.077 14.3057 578.911 40.6356 578.911 42.6816C578.911 44.7275 598.24 63.4028 598.24 63.4028L633.299 20.206L648.578 25.3061L705.256 2.76421C705.256 2.76421 721.927 71.042 721.927 73.5541C721.927 76.0661 739.752 86.7125 739.752 86.7125L755.107 63.4028L772.198 65.3858" stroke="url(#paint0_linear_153_26697)" stroke-width="2.66116" stroke-linecap="round"/>
<defs>
<linearGradient id="paint0_linear_153_26697" x1="1.37305" y1="101.551" x2="772.198" y2="101.551" gradientUnits="userSpaceOnUse">
<stop stop-color="#C36BFA" stop-opacity="0"/>
<stop offset="0.280009" stop-color="#C36BFA"/>
<stop offset="0.730008" stop-color="#C36BFA"/>
<stop offset="1" stop-color="#C36BFA" stop-opacity="0"/>
</linearGradient>
</defs>
</svg>
