<svg width="2541" height="154" viewBox="0 0 2541 154" fill="none" xmlns="http://www.w3.org/2000/svg">
<g opacity="0.6">
<path d="M2541 23.5H1" stroke="white" stroke-opacity="0.2"/>
<path d="M2541 43.5H848.233C839.027 43.5 830.103 46.6755 822.966 52.4906L710.034 144.509C702.897 150.325 693.973 153.5 684.767 153.5H0.5" stroke="white" stroke-opacity="0.2"/>
<path d="M1 63.5H1711.86C1721.92 63.5 1731.6 59.7126 1738.99 52.8921L1781.01 14.1079C1788.4 7.28735 1798.08 3.5 1808.14 3.5H2541" stroke="white" stroke-opacity="0.2"/>
<path d="M928.5 20.5L933.5 23.5L928.5 26.5V20.5Z" fill="#4E677D"/>
<path d="M929 25.6169V21.3831L932.528 23.5L929 25.6169Z" stroke="white" stroke-opacity="0.2"/>
<path d="M1088.5 40.5L1093.5 43.5L1088.5 46.5V40.5Z" fill="#4E677D"/>
<path d="M1089 45.6169V41.3831L1092.53 43.5L1089 45.6169Z" stroke="white" stroke-opacity="0.2"/>
<path d="M1228.5 40.5L1233.5 43.5L1228.5 46.5V40.5Z" fill="#4E677D"/>
<path d="M1229 45.6169V41.3831L1232.53 43.5L1229 45.6169Z" stroke="white" stroke-opacity="0.2"/>
<path d="M1586.5 20.5L1591.5 23.5L1586.5 26.5V20.5Z" fill="#4E677D"/>
<path d="M1587 25.6169V21.3831L1590.53 23.5L1587 25.6169Z" stroke="white" stroke-opacity="0.2"/>
<path d="M1686.5 60.5L1691.5 63.5L1686.5 66.5V60.5Z" fill="#4E677D"/>
<path d="M1687 65.6169V61.3831L1690.53 63.5L1687 65.6169Z" stroke="white" stroke-opacity="0.2"/>
<path d="M1946.5 0.5L1951.5 3.5L1946.5 6.5V0.5Z" fill="#4E677D"/>
<path d="M1947 5.6169V1.3831L1950.53 3.5L1947 5.6169Z" stroke="white" stroke-opacity="0.2"/>
</g>
</svg>
