<svg width="242" height="50" viewBox="0 0 242 50" fill="none" xmlns="http://www.w3.org/2000/svg">
<path d="M59.9165 43.9394H49.5859L61.2251 8.67773H74.3105L85.9496 43.9394H75.619L67.9055 18.3885H67.63L59.9165 43.9394ZM57.9881 30.0276H77.4096V37.1901H57.9881V30.0276Z" fill="white"/>
<path d="M89.3458 8.67773H101.26L109.456 28.6502H109.869L118.065 8.67773H129.979V43.9394H120.613V23.5538H120.337L112.486 43.664H106.839L98.9876 23.416H98.7121V43.9394H89.3458V8.67773Z" fill="white"/>
<path d="M134.516 43.9394V8.67773H144.089V36.2259H158.345V43.9394H134.516Z" fill="white"/>
<path d="M162.215 43.9394V8.67773H177.504C180.19 8.67773 182.446 9.03931 184.271 9.76245C186.107 10.4856 187.491 11.5072 188.42 12.8272C189.362 14.1472 189.832 15.7025 189.832 17.4932C189.832 18.7902 189.545 19.9725 188.971 21.04C188.409 22.1075 187.617 23.0028 186.595 23.7259C185.574 24.4376 184.38 24.9312 183.014 25.2067V25.551C184.529 25.6084 185.907 25.9929 187.146 26.7046C188.386 27.4048 189.373 28.3747 190.108 29.6144C190.842 30.8426 191.21 32.2888 191.21 33.9532C191.21 35.8816 190.705 37.5976 189.694 39.1013C188.696 40.605 187.272 41.7872 185.424 42.6481C183.576 43.509 181.373 43.9394 178.813 43.9394H162.215ZM171.788 36.2948H176.265C177.872 36.2948 179.077 35.9964 179.88 35.3995C180.684 34.7911 181.086 33.8958 181.086 32.7135C181.086 31.8871 180.896 31.1869 180.517 30.613C180.139 30.0391 179.599 29.6029 178.899 29.3045C178.21 29.006 177.378 28.8568 176.402 28.8568H171.788V36.2948ZM171.788 22.9339H175.714C176.552 22.9339 177.292 22.8019 177.935 22.5379C178.578 22.2739 179.077 21.8951 179.433 21.4016C179.8 20.8965 179.984 20.2824 179.984 19.5593C179.984 18.4688 179.593 17.6366 178.813 17.0627C178.032 16.4773 177.045 16.1846 175.851 16.1846H171.788V22.9339Z" fill="white"/>
<path d="M207.48 44.4215C204.611 44.4215 202.154 43.8534 200.111 42.717C198.068 41.5692 196.501 39.9736 195.411 37.9305C194.32 35.8759 193.775 33.4941 193.775 30.7852C193.775 28.0763 194.32 25.7002 195.411 23.6571C196.501 21.6024 198.068 20.0069 200.111 18.8706C202.154 17.7227 204.611 17.1488 207.48 17.1488C210.35 17.1488 212.806 17.7227 214.849 18.8706C216.893 20.0069 218.459 21.6024 219.55 23.6571C220.64 25.7002 221.185 28.0763 221.185 30.7852C221.185 33.4941 220.64 35.8759 219.55 37.9305C218.459 39.9736 216.893 41.5692 214.849 42.717C212.806 43.8534 210.35 44.4215 207.48 44.4215ZM207.549 37.3967C208.353 37.3967 209.047 37.127 209.632 36.5875C210.218 36.048 210.671 35.279 210.993 34.2804C211.314 33.2817 211.475 32.0937 211.475 30.7163C211.475 29.3274 211.314 28.1394 210.993 27.1523C210.671 26.1536 210.218 25.3846 209.632 24.8451C209.047 24.3056 208.353 24.0359 207.549 24.0359C206.7 24.0359 205.971 24.3056 205.362 24.8451C204.754 25.3846 204.289 26.1536 203.968 27.1523C203.646 28.1394 203.486 29.3274 203.486 30.7163C203.486 32.0937 203.646 33.2817 203.968 34.2804C204.289 35.279 204.754 36.048 205.362 36.5875C205.971 37.127 206.7 37.3967 207.549 37.3967Z" fill="white"/>
<path d="M240.814 17.4932V24.3802H223.389V17.4932H240.814ZM226.764 11.1571H236.268V35.4339C236.268 35.8012 236.331 36.1112 236.457 36.3637C236.584 36.6047 236.779 36.7884 237.043 36.9147C237.307 37.0294 237.646 37.0868 238.059 37.0868C238.346 37.0868 238.679 37.0524 239.057 36.9835C239.448 36.9147 239.735 36.8573 239.918 36.8113L241.296 43.4918C240.871 43.618 240.263 43.773 239.471 43.9567C238.69 44.1403 237.76 44.2608 236.681 44.3182C234.5 44.433 232.67 44.2092 231.189 43.6467C229.708 43.0728 228.595 42.1718 227.849 40.9436C227.103 39.7154 226.741 38.1773 226.764 36.3293V11.1571Z" fill="white"/>
<path fill-rule="evenodd" clip-rule="evenodd" d="M22.0529 2.33816C19.8861 -0.851296 15.1342 -0.761395 13.091 2.50773L0.804999 22.1648C0.110633 23.2757 -0.13391 24.5767 0.0689654 25.8207C0.0756485 25.8617 0.0828103 25.9026 0.0904714 25.9435C0.216197 26.6144 0.472873 27.2663 0.860144 27.8601L13.7204 47.5786C15.8259 50.8071 20.577 50.8071 22.6825 47.5786L35.5035 27.9204C36.6702 26.1315 36.6484 23.8222 35.4481 22.0554L22.0529 2.33816ZM23.5191 13.9849C23.0578 22.2224 16.558 28.857 8.34967 29.5821L18.2015 44.6878L31.0224 25.0295L23.5191 13.9849Z" fill="white"/>
</svg>
