<svg width="292" height="345" viewBox="0 0 292 345" fill="none" xmlns="http://www.w3.org/2000/svg">
<path d="M16.4563 343.396H0.808594L18.4383 289.258H38.2588L55.8885 343.396H40.2408L28.5572 304.167H28.1399L16.4563 343.396ZM13.5354 322.037H42.9531V333.033H13.5354V322.037Z" fill="black"/>
<path d="M61.0327 289.258H79.0797L91.4935 319.922H92.1194L104.533 289.258H122.58V343.396H108.393V312.097H107.976L96.0835 342.973H87.5294L75.6372 311.886H75.2199V343.396H61.0327V289.258Z" fill="black"/>
<path d="M129.452 343.396V289.258H143.952V331.553H165.546V343.396H129.452Z" fill="black"/>
<path d="M171.408 343.396V289.258H194.566C198.635 289.258 202.051 289.813 204.815 290.924C207.597 292.034 209.692 293.602 211.101 295.629C212.526 297.656 213.239 300.043 213.239 302.793C213.239 304.784 212.804 306.599 211.935 308.238C211.083 309.877 209.884 311.252 208.336 312.362C206.789 313.454 204.981 314.212 202.912 314.635V315.164C205.207 315.252 207.293 315.842 209.171 316.935C211.048 318.01 212.544 319.499 213.656 321.402C214.769 323.288 215.326 325.508 215.326 328.064C215.326 331.024 214.561 333.659 213.031 335.968C211.518 338.276 209.362 340.091 206.563 341.413C203.764 342.735 200.425 343.396 196.548 343.396H171.408ZM185.908 331.659H192.689C195.123 331.659 196.948 331.201 198.165 330.284C199.382 329.35 199.991 327.976 199.991 326.161C199.991 324.892 199.704 323.817 199.13 322.936C198.556 322.054 197.739 321.385 196.679 320.927C195.635 320.468 194.375 320.239 192.897 320.239H185.908V331.659ZM185.908 311.146H191.854C193.123 311.146 194.245 310.943 195.218 310.538C196.192 310.133 196.948 309.551 197.487 308.793C198.044 308.018 198.322 307.075 198.322 305.965C198.322 304.291 197.731 303.013 196.548 302.132C195.366 301.233 193.871 300.784 192.063 300.784H185.908V311.146Z" fill="black"/>
<path d="M239.971 344.136C235.624 344.136 231.903 343.263 228.809 341.519C225.714 339.757 223.341 337.307 221.689 334.17C220.037 331.016 219.211 327.359 219.211 323.2C219.211 319.041 220.037 315.393 221.689 312.256C223.341 309.102 225.714 306.652 228.809 304.907C231.903 303.145 235.624 302.264 239.971 302.264C244.317 302.264 248.038 303.145 251.133 304.907C254.227 306.652 256.601 309.102 258.252 312.256C259.904 315.393 260.73 319.041 260.73 323.2C260.73 327.359 259.904 331.016 258.252 334.17C256.601 337.307 254.227 339.757 251.133 341.519C248.038 343.263 244.317 344.136 239.971 344.136ZM240.075 333.351C241.292 333.351 242.344 332.936 243.231 332.108C244.117 331.28 244.804 330.099 245.291 328.566C245.778 327.033 246.021 325.209 246.021 323.094C246.021 320.962 245.778 319.138 245.291 317.622C244.804 316.089 244.117 314.908 243.231 314.08C242.344 313.252 241.292 312.838 240.075 312.838C238.788 312.838 237.684 313.252 236.763 314.08C235.841 314.908 235.137 316.089 234.65 317.622C234.164 319.138 233.92 320.962 233.92 323.094C233.92 325.209 234.164 327.033 234.65 328.566C235.137 330.099 235.841 331.28 236.763 332.108C237.684 332.936 238.788 333.351 240.075 333.351Z" fill="black"/>
<path d="M290.461 302.793V313.366H264.068V302.793H290.461ZM269.18 293.065H283.576V330.337C283.576 330.901 283.671 331.377 283.862 331.765C284.054 332.135 284.349 332.417 284.749 332.61C285.149 332.787 285.662 332.875 286.288 332.875C286.722 332.875 287.227 332.822 287.8 332.716C288.392 332.61 288.826 332.522 289.104 332.452L291.191 342.708C290.547 342.902 289.626 343.14 288.426 343.422C287.244 343.704 285.836 343.889 284.201 343.977C280.898 344.153 278.125 343.81 275.882 342.946C273.639 342.065 271.953 340.682 270.823 338.796C269.693 336.91 269.145 334.549 269.18 331.712V293.065Z" fill="black"/>
<path fill-rule="evenodd" clip-rule="evenodd" d="M164.344 11.6803C154.354 -3.02213 132.447 -2.60771 123.028 12.462L66.387 103.075C63.1858 108.196 62.0584 114.193 62.9937 119.928C63.0245 120.117 63.0576 120.306 63.0929 120.494C63.6725 123.587 64.8558 126.592 66.6412 129.329L125.929 220.226C135.636 235.108 157.54 235.108 167.247 220.226L226.354 129.607C231.732 121.361 231.632 110.715 226.098 102.571L164.344 11.6803ZM171.103 65.3683C168.977 103.341 139.011 133.925 101.169 137.267L146.588 206.9L205.695 116.281L171.103 65.3683Z" fill="#0057FF"/>
</svg>
