<svg width="291" height="344" viewBox="0 0 291 344" fill="none" xmlns="http://www.w3.org/2000/svg">
<path fill-rule="evenodd" clip-rule="evenodd" d="M163.384 10.8023C153.374 -3.93299 131.42 -3.51764 121.98 11.5857L65.2191 102.401C62.0111 107.534 60.8813 113.544 61.8186 119.292C61.8495 119.481 61.8826 119.67 61.918 119.859C62.4988 122.959 63.6847 125.97 65.4739 128.714L124.888 219.813C134.616 234.729 156.566 234.729 166.293 219.813L225.526 128.992C230.916 120.727 230.815 110.058 225.27 101.896L163.384 10.8023ZM170.158 64.6101C168.027 102.668 137.998 133.32 100.075 136.669L145.591 206.458L204.823 115.636L170.158 64.6101Z" fill="#0057FF"/>
<path d="M15.681 343.258H0L17.6672 289H37.5298L55.1971 343.258H39.5161L27.8076 303.942H27.3895L15.681 343.258ZM12.7539 321.852H42.2341V332.873H12.7539V321.852Z" fill="#0057FF"/>
<path d="M60.3522 289H78.4376L90.8779 319.732H91.5051L103.945 289H122.031V343.258H107.813V311.89H107.395L95.4776 342.834H86.9054L74.9878 311.678H74.5696V343.258H60.3522V289Z" fill="#0057FF"/>
<path d="M128.917 343.258V289H143.448V331.389H165.088V343.258H128.917Z" fill="#0057FF"/>
<path d="M170.962 343.258V289H194.17C198.247 289 201.671 289.556 204.441 290.669C207.229 291.782 209.328 293.354 210.739 295.385C212.168 297.416 212.883 299.809 212.883 302.565C212.883 304.56 212.447 306.38 211.576 308.022C210.722 309.665 209.52 311.042 207.969 312.155C206.418 313.25 204.606 314.01 202.533 314.434V314.963C204.833 315.052 206.924 315.643 208.805 316.738C210.687 317.816 212.186 319.308 213.301 321.216C214.416 323.106 214.973 325.331 214.973 327.892C214.973 330.859 214.207 333.5 212.673 335.814C211.158 338.127 208.997 339.947 206.192 341.271C203.387 342.596 200.042 343.258 196.156 343.258H170.962ZM185.493 331.495H192.288C194.727 331.495 196.557 331.036 197.776 330.118C198.996 329.181 199.606 327.804 199.606 325.985C199.606 324.713 199.318 323.636 198.743 322.752C198.169 321.869 197.35 321.198 196.287 320.739C195.241 320.28 193.978 320.05 192.497 320.05H185.493V331.495ZM185.493 310.936H191.452C192.724 310.936 193.848 310.733 194.823 310.327C195.799 309.921 196.557 309.338 197.097 308.579C197.655 307.801 197.933 306.856 197.933 305.744C197.933 304.066 197.341 302.785 196.156 301.902C194.971 301.001 193.473 300.551 191.661 300.551H185.493V310.936Z" fill="#0057FF"/>
<path d="M239.671 344C235.315 344 231.586 343.126 228.485 341.377C225.384 339.611 223.005 337.156 221.35 334.012C219.695 330.851 218.867 327.186 218.867 323.017C218.867 318.849 219.695 315.193 221.35 312.049C223.005 308.888 225.384 306.433 228.485 304.684C231.586 302.918 235.315 302.035 239.671 302.035C244.027 302.035 247.755 302.918 250.857 304.684C253.958 306.433 256.336 308.888 257.992 312.049C259.647 315.193 260.474 318.849 260.474 323.017C260.474 327.186 259.647 330.851 257.992 334.012C256.336 337.156 253.958 339.611 250.857 341.377C247.755 343.126 244.027 344 239.671 344ZM239.775 333.191C240.995 333.191 242.049 332.776 242.938 331.946C243.826 331.115 244.515 329.932 245.002 328.395C245.49 326.859 245.734 325.031 245.734 322.911C245.734 320.774 245.49 318.946 245.002 317.427C244.515 315.891 243.826 314.707 242.938 313.877C242.049 313.047 240.995 312.632 239.775 312.632C238.486 312.632 237.38 313.047 236.456 313.877C235.533 314.707 234.827 315.891 234.339 317.427C233.851 318.946 233.608 320.774 233.608 322.911C233.608 325.031 233.851 326.859 234.339 328.395C234.827 329.932 235.533 331.115 236.456 331.946C237.38 332.776 238.486 333.191 239.775 333.191Z" fill="#0057FF"/>
<path d="M290.268 302.565V313.162H263.82V302.565H290.268ZM268.942 292.815H283.369V330.171C283.369 330.736 283.464 331.213 283.656 331.601C283.848 331.972 284.144 332.255 284.545 332.449C284.945 332.626 285.459 332.714 286.087 332.714C286.522 332.714 287.027 332.661 287.602 332.555C288.195 332.449 288.63 332.361 288.909 332.29L291 342.569C290.355 342.764 289.432 343.002 288.23 343.285C287.045 343.567 285.634 343.753 283.996 343.841C280.685 344.018 277.906 343.673 275.659 342.808C273.411 341.925 271.721 340.538 270.589 338.648C269.456 336.759 268.907 334.392 268.942 331.548V292.815Z" fill="#0057FF"/>
</svg>
