<svg width="317" height="66" viewBox="0 0 317 66" fill="none" xmlns="http://www.w3.org/2000/svg">
<path fill-rule="evenodd" clip-rule="evenodd" d="M17.5853 3.54893C20.2611 -0.736978 26.4842 -0.85484 29.3218 3.32661L46.8641 29.1764C48.436 31.4927 48.4646 34.5203 46.9367 36.8655L30.1464 62.6381C27.389 66.8707 21.167 66.8707 18.4096 62.6381L1.56785 36.7866C1.06068 36.0081 0.724537 35.1534 0.559887 34.2738C0.549855 34.2202 0.540475 34.1666 0.531723 34.1129C0.266037 32.4819 0.586291 30.7763 1.49563 29.3198L17.5853 3.54893ZM11.3761 39.0441C22.1257 38.0936 30.6379 29.3954 31.2419 18.5957L41.0683 33.0755L24.278 58.8481L11.3761 39.0441ZM65.3792 57.8665H78.9081L81.5765 49.0179H96.8037L99.4721 57.8665H113.001L97.7584 11.6375H80.6218L65.3792 57.8665ZM93.972 39.6277L89.3705 24.3685H89.0097L84.4082 39.6277H93.972ZM133.052 11.6375H117.449V57.8665H129.715V30.9597H130.076L140.358 57.5053H147.753L158.035 31.1403H158.396V57.8665H170.662V11.6375H155.059L144.326 37.8219H143.785L133.052 11.6375ZM176.604 57.8665V11.6375H189.141V47.7539H207.81V57.8665H176.604ZM212.878 11.6375V57.8665H234.615C237.967 57.8665 240.853 57.3022 243.273 56.1735C245.693 55.0449 247.557 53.4949 248.865 51.5235C250.188 49.5522 250.849 47.3024 250.849 44.7743C250.849 42.5922 250.368 40.6961 249.406 39.0859C248.444 37.4607 247.151 36.1891 245.528 35.2711C243.904 34.3381 242.101 33.834 240.116 33.7588V33.3073C241.905 32.9461 243.468 32.2991 244.806 31.366C246.144 30.418 247.181 29.2442 247.918 27.8447C248.67 26.4452 249.045 24.8952 249.045 23.1947C249.045 20.8471 248.429 18.8081 247.196 17.0775C245.979 15.3469 244.167 14.0076 241.762 13.0595C239.372 12.1115 236.418 11.6375 232.901 11.6375H212.878ZM231.277 47.8442H225.415V38.0927H231.458C232.736 38.0927 233.825 38.2884 234.727 38.6796C235.644 39.0709 236.351 39.6427 236.847 40.3951C237.343 41.1476 237.591 42.0655 237.591 43.149C237.591 44.699 237.065 45.8728 236.013 46.6704C234.96 47.4529 233.382 47.8442 231.277 47.8442ZM230.556 30.3277H225.415V21.4792H230.736C232.3 21.4792 233.592 21.8629 234.615 22.6304C235.637 23.3828 236.148 24.4738 236.148 25.9034C236.148 26.8515 235.907 27.6566 235.426 28.3187C234.96 28.9658 234.306 29.4624 233.465 29.8085C232.623 30.1546 231.653 30.3277 230.556 30.3277ZM262.507 56.2638C259.831 54.759 257.779 52.6672 256.351 49.9886C254.923 47.2949 254.209 44.1723 254.209 40.6209C254.209 37.0694 254.923 33.9544 256.351 31.2758C257.779 28.5821 259.831 26.4903 262.507 25.0005C265.182 23.4957 268.399 22.7433 272.157 22.7433C275.915 22.7433 279.132 23.4957 281.808 25.0005C284.484 26.4903 286.535 28.5821 287.964 31.2758C289.392 33.9544 290.106 37.0694 290.106 40.6209C290.106 44.1723 289.392 47.2949 287.964 49.9886C286.535 52.6672 284.484 54.759 281.808 56.2638C279.132 57.7536 275.915 58.4985 272.157 58.4985C268.399 58.4985 265.182 57.7536 262.507 56.2638ZM272.247 49.2888C273.3 49.2888 274.209 48.9352 274.976 48.2279C275.742 47.5206 276.336 46.5124 276.757 45.2032C277.178 43.8939 277.388 42.3364 277.388 40.5306C277.388 38.7097 277.178 37.1522 276.757 35.858C276.336 34.5488 275.742 33.5406 274.976 32.8333C274.209 32.126 273.3 31.7724 272.247 31.7724C271.135 31.7724 270.181 32.126 269.384 32.8333C268.587 33.5406 267.978 34.5488 267.557 35.858C267.137 37.1522 266.926 38.7097 266.926 40.5306C266.926 42.3364 267.137 43.8939 267.557 45.2032C267.978 46.5124 268.587 47.5206 269.384 48.2279C270.181 48.9352 271.135 49.2888 272.247 49.2888ZM315.81 32.2238V23.1947H309.858V14.8879H297.411V23.1947H292.992V32.2238H297.411V47.8893C297.381 50.3121 297.855 52.3286 298.832 53.9388C299.809 55.549 301.267 56.7303 303.206 57.4827C305.145 58.2201 307.543 58.5136 310.399 58.3631C311.812 58.2878 313.03 58.1298 314.052 57.889C315.089 57.6483 315.886 57.4451 316.442 57.2796L314.638 48.5213C314.397 48.5815 314.022 48.6568 313.511 48.7471C313.015 48.8374 312.579 48.8825 312.203 48.8825C311.662 48.8825 311.218 48.8073 310.872 48.6568C310.527 48.4912 310.271 48.2505 310.106 47.9345C309.94 47.6034 309.858 47.1971 309.858 46.7155V32.2238H315.81Z" fill="#0057FF"/>
</svg>
