<svg width="242" height="33" viewBox="0 0 242 33" fill="none" xmlns="http://www.w3.org/2000/svg">
<rect x="173" y="4" width="69" height="25" rx="12.5" fill="url(#paint0_linear_3001_7669)"/>
<path d="M185.497 13.593V11.8182H193.859V13.593H190.742V22H188.614V13.593H185.497ZM194.404 22V14.3636H196.457V15.696H196.537C196.676 15.2221 196.909 14.8641 197.238 14.6222C197.566 14.3769 197.944 14.2543 198.371 14.2543C198.477 14.2543 198.592 14.2609 198.714 14.2741C198.837 14.2874 198.944 14.3056 199.037 14.3288V16.2081C198.938 16.1783 198.8 16.1518 198.625 16.1286C198.449 16.1054 198.288 16.0938 198.142 16.0938C197.831 16.0938 197.552 16.1617 197.307 16.2976C197.065 16.4302 196.873 16.6158 196.73 16.8544C196.591 17.093 196.522 17.3681 196.522 17.6797V22H194.404ZM202.091 22.1442C201.604 22.1442 201.17 22.0597 200.789 21.8906C200.407 21.7183 200.106 21.4647 199.884 21.13C199.665 20.7919 199.556 20.371 199.556 19.8672C199.556 19.4429 199.633 19.0866 199.789 18.7983C199.945 18.5099 200.157 18.2779 200.426 18.1023C200.694 17.9266 200.999 17.794 201.34 17.7045C201.685 17.6151 202.046 17.5521 202.424 17.5156C202.868 17.4692 203.226 17.4261 203.498 17.3864C203.77 17.3433 203.967 17.2803 204.09 17.1974C204.212 17.1146 204.274 16.992 204.274 16.8295V16.7997C204.274 16.4848 204.174 16.2412 203.975 16.0689C203.78 15.8965 203.501 15.8104 203.14 15.8104C202.759 15.8104 202.456 15.8949 202.23 16.0639C202.005 16.2296 201.856 16.4384 201.783 16.6903L199.824 16.5312C199.923 16.0672 200.119 15.6662 200.411 15.3281C200.702 14.9867 201.079 14.7249 201.539 14.5426C202.003 14.357 202.54 14.2642 203.15 14.2642C203.574 14.2642 203.98 14.3139 204.368 14.4134C204.759 14.5128 205.106 14.6669 205.407 14.8757C205.712 15.0845 205.952 15.353 206.128 15.6811C206.304 16.0059 206.392 16.3954 206.392 16.8494V22H204.383V20.9411H204.323C204.201 21.1797 204.037 21.3902 203.831 21.5724C203.626 21.7514 203.379 21.8923 203.09 21.995C202.802 22.0945 202.469 22.1442 202.091 22.1442ZM202.698 20.6825C203.009 20.6825 203.284 20.6212 203.523 20.4986C203.762 20.3726 203.949 20.2036 204.085 19.9915C204.221 19.7794 204.289 19.5391 204.289 19.2706V18.4602C204.222 18.5033 204.131 18.5431 204.015 18.5795C203.902 18.6127 203.775 18.6442 203.632 18.674C203.49 18.7005 203.347 18.7254 203.205 18.7486C203.062 18.7685 202.933 18.7867 202.817 18.8033C202.568 18.8397 202.351 18.8977 202.166 18.9773C201.98 19.0568 201.836 19.1645 201.733 19.3004C201.63 19.433 201.579 19.5987 201.579 19.7976C201.579 20.0859 201.683 20.3063 201.892 20.4588C202.104 20.608 202.373 20.6825 202.698 20.6825ZM211.485 22.1491C210.703 22.1491 210.03 21.9834 209.466 21.652C208.906 21.3172 208.475 20.8532 208.174 20.2599C207.876 19.6667 207.726 18.9839 207.726 18.2116C207.726 17.4295 207.877 16.7434 208.179 16.1534C208.484 15.5601 208.916 15.0978 209.476 14.7663C210.037 14.4316 210.703 14.2642 211.475 14.2642C212.141 14.2642 212.724 14.3852 213.225 14.6271C213.725 14.8691 214.122 15.2088 214.413 15.6463C214.705 16.0838 214.866 16.5975 214.895 17.1875H212.897C212.84 16.8063 212.691 16.4998 212.449 16.2678C212.211 16.0324 211.898 15.9148 211.51 15.9148C211.182 15.9148 210.895 16.0043 210.65 16.1832C210.408 16.3589 210.219 16.6158 210.083 16.9538C209.947 17.2919 209.879 17.7012 209.879 18.1818C209.879 18.669 209.945 19.0833 210.078 19.4247C210.214 19.7661 210.404 20.0263 210.65 20.2053C210.895 20.3842 211.182 20.4737 211.51 20.4737C211.752 20.4737 211.969 20.424 212.161 20.3246C212.357 20.2251 212.517 20.081 212.643 19.892C212.773 19.6998 212.857 19.4695 212.897 19.201H214.895C214.862 19.7843 214.703 20.2981 214.418 20.7422C214.136 21.183 213.747 21.5277 213.25 21.7763C212.753 22.0249 212.164 22.1491 211.485 22.1491ZM219.732 22.1491C218.946 22.1491 218.27 21.9901 217.703 21.6719C217.14 21.3504 216.705 20.8963 216.401 20.3097C216.096 19.7197 215.943 19.022 215.943 18.2166C215.943 17.4311 216.096 16.7417 216.401 16.1484C216.705 15.5552 217.135 15.0928 217.688 14.7614C218.245 14.4299 218.898 14.2642 219.647 14.2642C220.151 14.2642 220.62 14.3454 221.054 14.5078C221.491 14.6669 221.873 14.9072 222.197 15.2287C222.526 15.5502 222.781 15.9545 222.963 16.4418C223.145 16.9257 223.237 17.4924 223.237 18.142V18.7237H216.788V17.4112H221.243C221.243 17.1063 221.177 16.8362 221.044 16.6009C220.911 16.3655 220.728 16.1816 220.492 16.049C220.26 15.9131 219.99 15.8452 219.682 15.8452C219.36 15.8452 219.075 15.9197 218.827 16.0689C218.581 16.2147 218.389 16.4119 218.25 16.6605C218.111 16.9058 218.04 17.1792 218.036 17.4808V18.7287C218.036 19.1065 218.106 19.433 218.245 19.7081C218.388 19.9832 218.588 20.1953 218.847 20.3445C219.105 20.4936 219.412 20.5682 219.766 20.5682C220.002 20.5682 220.217 20.535 220.413 20.4688C220.608 20.4025 220.776 20.303 220.915 20.1705C221.054 20.0379 221.16 19.8755 221.233 19.6832L223.192 19.8125C223.092 20.2831 222.888 20.6941 222.58 21.0455C222.275 21.3935 221.881 21.6652 221.397 21.8608C220.916 22.053 220.361 22.1491 219.732 22.1491ZM224.619 22V14.3636H226.672V15.696H226.751C226.891 15.2221 227.124 14.8641 227.452 14.6222C227.781 14.3769 228.158 14.2543 228.586 14.2543C228.692 14.2543 228.806 14.2609 228.929 14.2741C229.052 14.2874 229.159 14.3056 229.252 14.3288V16.2081C229.153 16.1783 229.015 16.1518 228.839 16.1286C228.664 16.1054 228.503 16.0938 228.357 16.0938C228.046 16.0938 227.767 16.1617 227.522 16.2976C227.28 16.4302 227.088 16.6158 226.945 16.8544C226.806 17.093 226.737 17.3681 226.737 17.6797V22H224.619Z" fill="white"/>
<path d="M39.5447 28.9998H32.7266L40.4084 5.72705H49.0447L56.7266 28.9998H49.9084L44.8175 12.1361H44.6357L39.5447 28.9998ZM38.272 19.818H51.0902V24.5452H38.272V19.818Z" fill="white"/>
<path d="M58.968 5.72705H66.8317L72.2408 18.9089H72.5135L77.9226 5.72705H85.7862V28.9998H79.6044V15.5452H79.4226L74.2408 28.818H70.5135L65.3317 15.4543H65.1499V28.9998H58.968V5.72705Z" fill="white"/>
<path d="M88.7805 28.9998V5.72705H95.0987V23.9089H104.508V28.9998H88.7805Z" fill="white"/>
<path d="M107.062 28.9998V5.72705H117.153C118.925 5.72705 120.414 5.96569 121.619 6.44296C122.831 6.92023 123.744 7.59447 124.357 8.46569C124.978 9.3369 125.289 10.3634 125.289 11.5452C125.289 12.4013 125.1 13.1816 124.721 13.8861C124.35 14.5907 123.827 15.1816 123.153 15.6589C122.478 16.1286 121.691 16.4543 120.789 16.6361V16.8634C121.789 16.9013 122.698 17.1551 123.516 17.6248C124.335 18.0869 124.986 18.7271 125.471 19.5452C125.956 20.3558 126.198 21.3104 126.198 22.4089C126.198 23.6816 125.865 24.8142 125.198 25.8066C124.539 26.799 123.6 27.5793 122.38 28.1475C121.16 28.7157 119.706 28.9998 118.016 28.9998H107.062ZM113.38 23.9543H116.335C117.395 23.9543 118.191 23.7574 118.721 23.3634C119.251 22.9619 119.516 22.371 119.516 21.5907C119.516 21.0452 119.391 20.5831 119.141 20.2043C118.891 19.8255 118.535 19.5377 118.073 19.3407C117.619 19.1437 117.069 19.0452 116.425 19.0452H113.38V23.9543ZM113.38 15.1361H115.971C116.524 15.1361 117.013 15.049 117.437 14.8748C117.861 14.7005 118.191 14.4505 118.425 14.1248C118.668 13.7914 118.789 13.3861 118.789 12.9089C118.789 12.1892 118.531 11.6399 118.016 11.2611C117.501 10.8748 116.85 10.6816 116.062 10.6816H113.38V15.1361Z" fill="white"/>
<path d="M136.937 29.318C135.043 29.318 133.422 28.943 132.073 28.193C130.725 27.4354 129.691 26.3824 128.971 25.0339C128.251 23.6778 127.891 22.1058 127.891 20.318C127.891 18.5301 128.251 16.9619 128.971 15.6134C129.691 14.2574 130.725 13.2043 132.073 12.4543C133.422 11.6967 135.043 11.318 136.937 11.318C138.831 11.318 140.452 11.6967 141.8 12.4543C143.149 13.2043 144.183 14.2574 144.903 15.6134C145.622 16.9619 145.982 18.5301 145.982 20.318C145.982 22.1058 145.622 23.6778 144.903 25.0339C144.183 26.3824 143.149 27.4354 141.8 28.193C140.452 28.943 138.831 29.318 136.937 29.318ZM136.982 24.6816C137.513 24.6816 137.971 24.5036 138.357 24.1475C138.744 23.7914 139.043 23.2839 139.255 22.6248C139.467 21.9657 139.573 21.1816 139.573 20.2725C139.573 19.3558 139.467 18.5717 139.255 17.9202C139.043 17.2611 138.744 16.7536 138.357 16.3975C137.971 16.0414 137.513 15.8634 136.982 15.8634C136.422 15.8634 135.941 16.0414 135.539 16.3975C135.138 16.7536 134.831 17.2611 134.619 17.9202C134.406 18.5717 134.3 19.3558 134.3 20.2725C134.3 21.1816 134.406 21.9657 134.619 22.6248C134.831 23.2839 135.138 23.7914 135.539 24.1475C135.941 24.5036 136.422 24.6816 136.982 24.6816Z" fill="white"/>
<path d="M158.937 11.5452V16.0907H147.437V11.5452H158.937ZM149.664 7.36341H155.937V23.3861C155.937 23.6286 155.978 23.8331 156.062 23.9998C156.145 24.1589 156.274 24.2801 156.448 24.3634C156.622 24.4392 156.846 24.4771 157.119 24.4771C157.308 24.4771 157.528 24.4543 157.778 24.4089C158.035 24.3634 158.225 24.3255 158.346 24.2952L159.255 28.7043C158.975 28.7877 158.573 28.8899 158.05 29.0111C157.535 29.1324 156.922 29.2119 156.21 29.2498C154.77 29.3255 153.562 29.1778 152.585 28.8066C151.607 28.4278 150.872 27.8331 150.38 27.0225C149.888 26.2119 149.649 25.1967 149.664 23.9771V7.36341Z" fill="white"/>
<path fill-rule="evenodd" clip-rule="evenodd" d="M14.5549 1.54318C13.1248 -0.561855 9.98857 -0.502521 8.64003 1.6551L0.531299 14.6287C0.0730176 15.362 -0.0883809 16.2206 0.0455172 17.0417C0.049928 17.0687 0.0546548 17.0957 0.0597111 17.1227C0.14269 17.5655 0.312096 17.9958 0.567695 18.3877L9.05544 31.4019C10.4451 33.5327 13.5808 33.5327 14.9705 31.4019L23.4323 18.4274C24.2023 17.2468 24.1879 15.7226 23.3957 14.5566L14.5549 1.54318ZM15.5226 9.23001C15.2182 14.6668 10.9283 19.0457 5.51078 19.5242L12.013 29.4939L20.4748 16.5195L15.5226 9.23001Z" fill="#0057FF"/>
<path fill-rule="evenodd" clip-rule="evenodd" d="M14.5549 1.54318C13.1248 -0.561855 9.98857 -0.502521 8.64003 1.6551L0.531299 14.6287C0.0730176 15.362 -0.0883809 16.2206 0.0455172 17.0417C0.049928 17.0687 0.0546548 17.0957 0.0597111 17.1227C0.14269 17.5655 0.312096 17.9958 0.567695 18.3877L9.05544 31.4019C10.4451 33.5327 13.5808 33.5327 14.9705 31.4019L23.4323 18.4274C24.2023 17.2468 24.1879 15.7226 23.3957 14.5566L14.5549 1.54318ZM15.5226 9.23001C15.2182 14.6668 10.9283 19.0457 5.51078 19.5242L12.013 29.4939L20.4748 16.5195L15.5226 9.23001Z" fill="white"/>
<defs>
<linearGradient id="paint0_linear_3001_7669" x1="173" y1="16.5" x2="242" y2="16.5" gradientUnits="userSpaceOnUse">
<stop stop-color="#1A5CF6"/>
<stop offset="1" stop-color="#D135CB"/>
</linearGradient>
</defs>
</svg>
