<svg width="317" height="66" viewBox="0 0 317 66" fill="none" xmlns="http://www.w3.org/2000/svg">
<path d="M78.9078 57.4458H65.3789L80.6215 11.2168H97.7581L113.001 57.4458H99.4717L89.3702 23.9478H89.0094L78.9078 57.4458ZM76.3824 39.207H101.817V48.5973H76.3824V39.207Z" fill="black"/>
<path d="M117.448 11.2168H133.052L143.785 37.4012H144.326L155.059 11.2168H170.662V57.4458H158.396V30.7197H158.035L147.753 57.0846H140.357L130.075 30.5391H129.714V57.4458H117.448V11.2168Z" fill="black"/>
<path d="M176.603 57.4458V11.2168H189.14V47.3332H207.81V57.4458H176.603Z" fill="black"/>
<path d="M212.878 57.4458V11.2168H232.901C236.418 11.2168 239.372 11.6908 241.762 12.6389C244.167 13.5869 245.978 14.9263 247.196 16.6568C248.429 18.3874 249.045 20.4265 249.045 22.774C249.045 24.4745 248.669 26.0245 247.918 27.424C247.181 28.8235 246.144 29.9973 244.806 30.9454C243.468 31.8784 241.905 32.5255 240.116 32.8866V33.3381C242.1 33.4133 243.904 33.9175 245.528 34.8505C247.151 35.7684 248.444 37.04 249.406 38.6653C250.368 40.2755 250.849 42.1716 250.849 44.3536C250.849 46.8818 250.187 49.1315 248.865 51.1029C247.557 53.0742 245.693 54.6242 243.273 55.7529C240.853 56.8815 237.966 57.4458 234.614 57.4458H212.878ZM225.415 47.4235H231.277C233.382 47.4235 234.96 47.0322 236.012 46.2497C237.064 45.4521 237.591 44.2784 237.591 42.7284C237.591 41.6449 237.343 40.7269 236.846 39.9745C236.35 39.2221 235.644 38.6502 234.727 38.259C233.825 37.8677 232.735 37.6721 231.457 37.6721H225.415V47.4235ZM225.415 29.907H230.556C231.653 29.907 232.622 29.734 233.464 29.3879C234.306 29.0418 234.96 28.5452 235.426 27.8981C235.907 27.2359 236.147 26.4308 236.147 25.4828C236.147 24.0532 235.636 22.9622 234.614 22.2097C233.592 21.4423 232.299 21.0585 230.736 21.0585H225.415V29.907Z" fill="black"/>
<path d="M272.157 58.0778C268.399 58.0778 265.182 57.3329 262.506 55.8431C259.831 54.3383 257.779 52.2465 256.351 49.5679C254.923 46.8742 254.209 43.7517 254.209 40.2002C254.209 36.6488 254.923 33.5337 256.351 30.8551C257.779 28.1614 259.831 26.0697 262.506 24.5799C265.182 23.075 268.399 22.3226 272.157 22.3226C275.915 22.3226 279.132 23.075 281.808 24.5799C284.483 26.0697 286.535 28.1614 287.963 30.8551C289.391 33.5337 290.105 36.6488 290.105 40.2002C290.105 43.7517 289.391 46.8742 287.963 49.5679C286.535 52.2465 284.483 54.3383 281.808 55.8431C279.132 57.3329 275.915 58.0778 272.157 58.0778ZM272.247 48.8682C273.299 48.8682 274.209 48.5145 274.975 47.8072C275.742 47.1 276.336 46.0917 276.757 44.7825C277.178 43.4733 277.388 41.9158 277.388 40.1099C277.388 38.2891 277.178 36.7315 276.757 35.4374C276.336 34.1281 275.742 33.1199 274.975 32.4126C274.209 31.7053 273.299 31.3517 272.247 31.3517C271.135 31.3517 270.18 31.7053 269.384 32.4126C268.587 33.1199 267.978 34.1281 267.557 35.4374C267.136 36.7315 266.926 38.2891 266.926 40.1099C266.926 41.9158 267.136 43.4733 267.557 44.7825C267.978 46.0917 268.587 47.1 269.384 47.8072C270.18 48.5145 271.135 48.8682 272.247 48.8682Z" fill="black"/>
<path d="M315.81 22.774V31.8032H292.991V22.774H315.81ZM297.411 14.4673H309.857V46.2949C309.857 46.7764 309.94 47.1827 310.106 47.5138C310.271 47.8298 310.526 48.0706 310.872 48.2361C311.218 48.3866 311.661 48.4618 312.202 48.4618C312.578 48.4618 313.014 48.4167 313.51 48.3264C314.021 48.2361 314.397 48.1609 314.638 48.1007L316.442 56.8589C315.885 57.0245 315.089 57.2276 314.051 57.4684C313.029 57.7092 311.812 57.8672 310.399 57.9424C307.543 58.0929 305.145 57.7994 303.206 57.0621C301.267 56.3096 299.809 55.1283 298.831 53.5181C297.854 51.908 297.381 49.8915 297.411 47.4686V14.4673Z" fill="black"/>
<path fill-rule="evenodd" clip-rule="evenodd" d="M29.7283 3.06538C26.8984 -1.11607 20.6921 -0.998208 18.0235 3.2877L1.97716 29.0586C1.07028 30.5151 0.750885 32.2206 1.01585 33.8516C1.02458 33.9054 1.03394 33.959 1.04394 34.0126C1.20815 34.8922 1.54339 35.7469 2.04919 36.5254L18.8455 62.3768C21.5955 66.6094 27.8007 66.6094 30.5507 62.3768L47.2957 36.6043C48.8195 34.259 48.791 31.2315 47.2234 28.9152L29.7283 3.06538ZM31.6433 18.3345C31.0409 29.1342 22.5516 37.8323 11.831 38.7829L24.6981 58.5868L41.4431 32.8143L31.6433 18.3345Z" fill="#0057FF"/>
</svg>
