<svg width="100" height="114" viewBox="0 0 100 114" fill="none" xmlns="http://www.w3.org/2000/svg">
<path d="M74.2918 12.1694C65.5963 9.07341 57.4405 4.98638 50.0005 0V114C60.8237 109.389 69.9315 103.49 77.0951 96.4481C83.7234 89.932 88.7375 82.5166 92.4238 73.7786C99.0822 57.9954 100 41.0146 100 25.0154V18.0919C91.2493 17.1217 82.6217 15.1353 74.2918 12.1694Z" fill="#0057FF"/>
<path d="M22.9059 96.4481C30.0694 103.49 39.1773 109.389 50.0005 114V0C42.5605 4.98638 34.4047 9.07341 25.7091 12.1694C17.3793 15.1353 8.751 17.1217 0 18.0919V25.0154C0 41.0141 0.917853 57.9948 7.57668 73.7786C11.2631 82.5166 16.2772 89.9319 22.9059 96.4481Z" fill="#0057FF"/>
<path fill-rule="evenodd" clip-rule="evenodd" d="M53.6194 36.1979C51.5935 33.1998 47.1505 33.2843 45.24 36.3573L33.7527 54.8349C33.1034 55.8792 32.8748 57.1021 33.0645 58.2715C33.0707 58.31 33.0774 58.3484 33.0846 58.3869C33.2021 59.0176 33.4421 59.6304 33.8042 60.1885L45.8285 78.7239C47.7973 81.7587 52.2395 81.7587 54.2082 78.7239L66.1958 60.2451C67.2866 58.5636 67.2662 56.3928 66.144 54.7321L53.6194 36.1979ZM54.9903 47.1458C54.5591 54.8891 48.4817 61.1256 40.8069 61.8072L50.0184 76.0065L62.0059 57.5277L54.9903 47.1458Z" fill="white"/>
</svg>
