<svg width="130" height="60" viewBox="0 0 130 60" fill="none" xmlns="http://www.w3.org/2000/svg">
<g clip-path="url(#clip0_99_19555)">
<path d="M21.0064 8.99487C16.8519 8.99471 12.7906 10.2265 9.33612 12.5345C5.88166 14.8426 3.1892 18.1231 1.59921 21.9614C0.00921482 25.7996 -0.406886 30.0232 0.403522 34.0979C1.21393 38.1726 3.21445 41.9155 6.1521 44.8533C9.08974 47.7911 12.8326 49.7917 16.9073 50.6023C20.982 51.4129 25.2055 50.997 29.0439 49.4071C32.8822 47.8173 36.1628 45.125 38.471 41.6706C40.7792 38.2162 42.0111 34.155 42.0111 30.0004C42.0111 24.4296 39.7982 19.0868 35.859 15.1476C31.9199 11.2083 26.5773 8.9951 21.0064 8.99487ZM31.7679 25.3518L29.0237 27.3639C28.9547 27.4157 28.8756 27.4526 28.7915 27.4722C28.7075 27.4918 28.6203 27.4937 28.5354 27.4777C28.4506 27.4617 28.3701 27.4283 28.2989 27.3795C28.2277 27.3307 28.1674 27.2676 28.1219 27.1943L27.7377 26.5928C27.6186 26.4278 27.4642 26.2914 27.2858 26.1937C27.1073 26.096 26.9093 26.0393 26.7061 26.0279H24.347C23.9149 26.0486 23.4965 26.1854 23.1356 26.424L22.8812 26.6106C22.5427 26.8831 22.2779 27.236 22.1109 27.6371L18.2087 38.2909C18.1745 38.3614 18.1597 38.4398 18.1659 38.518C18.1721 38.5962 18.1991 38.6714 18.2441 38.7356C18.289 38.7999 18.3504 38.851 18.4217 38.8836C18.4931 38.9162 18.5718 38.9292 18.6498 38.9211H19.2912C19.3692 38.9131 19.448 38.9261 19.5193 38.9587C19.5906 38.9913 19.652 39.0424 19.6969 39.1066C19.7419 39.1709 19.7689 39.246 19.7751 39.3242C19.7813 39.4024 19.7665 39.4809 19.7323 39.5514L19.1054 41.2735C19.03 41.4526 18.9055 41.6068 18.7463 41.7182C18.587 41.8296 18.3995 41.8936 18.2053 41.9029H9.26173C9.18359 41.911 9.10469 41.8981 9.03323 41.8654C8.96178 41.8328 8.90036 41.7816 8.85535 41.7172C8.81034 41.6528 8.78339 41.5776 8.77728 41.4992C8.77117 41.4209 8.78613 41.3424 8.82061 41.2718L9.44751 39.5497C9.50431 39.4142 9.58928 39.2923 9.69677 39.1921C9.80427 39.092 9.93183 39.0158 10.071 38.9686C10.1606 38.9365 10.2549 38.9196 10.3501 38.9186H11.3443C11.5385 38.9091 11.7261 38.8449 11.8853 38.7334C12.0446 38.6219 12.169 38.4676 12.2443 38.2883L16.8608 25.6614C17.0277 25.2602 17.2921 24.9071 17.6302 24.6341L20.5992 22.4523C20.9598 22.2131 21.3784 22.0759 21.8106 22.0553H29.7931C29.9962 22.0668 30.1942 22.1235 30.3725 22.2214C30.5509 22.3193 30.705 22.4559 30.8238 22.6211L31.9486 24.3898C32.0433 24.544 32.0772 24.7278 32.0438 24.9056C32.0104 25.0834 31.9121 25.2425 31.7679 25.3518ZM35.2756 22.7831L33.8106 23.8596C33.7417 23.9114 33.6628 23.9482 33.5789 23.9678C33.495 23.9874 33.4079 23.9892 33.3232 23.9733C33.2385 23.9573 33.1581 23.9239 33.087 23.8751C33.016 23.8263 32.9559 23.7632 32.9106 23.6899L31.5983 21.6269C31.4795 21.4617 31.3254 21.3251 31.147 21.2272C30.9687 21.1293 30.7707 21.0725 30.5676 21.0611H10.9439C10.7408 21.0498 10.5427 20.9931 10.3645 20.895C10.1862 20.7969 10.0323 20.66 9.91407 20.4944L8.88848 18.8784C8.79384 18.724 8.76001 18.5399 8.79356 18.362C8.82712 18.184 8.92565 18.0249 9.07001 17.9156L10.5647 16.8204C10.6335 16.7687 10.7124 16.7318 10.7963 16.7123C10.8801 16.6927 10.9671 16.6908 11.0518 16.7068C11.1364 16.7228 11.2167 16.7562 11.2877 16.805C11.3587 16.8538 11.4187 16.9168 11.4639 16.9901L11.7888 17.4991C11.9069 17.665 12.0606 17.8025 12.2386 17.9014C12.4166 18.0003 12.6145 18.0582 12.8178 18.0708H32.4058C32.6093 18.0834 32.8074 18.1411 32.9857 18.2399C33.1639 18.3386 33.318 18.4759 33.4365 18.6417L35.4555 21.8152C35.5502 21.9695 35.5842 22.1535 35.5508 22.3315C35.5174 22.5094 35.419 22.6686 35.2748 22.778" fill="black"/>
<path d="M78.3884 17.5699H77.8413V20.0817H76.0811V12.8465H79.3046C79.633 12.8143 79.9645 12.8542 80.2758 12.9634C80.5872 13.0726 80.8709 13.2486 81.1072 13.479C81.3435 13.7093 81.5266 13.9885 81.6436 14.2971C81.7607 14.6056 81.809 14.9359 81.785 15.265C81.8274 15.7336 81.7067 16.2024 81.4433 16.5922C81.18 16.982 80.79 17.269 80.3395 17.4044L82.2414 20.0817H80.0918L78.3884 17.5699ZM79.112 14.5211H77.8396V16.0302H79.112C79.7219 16.0302 80.0112 15.7825 80.0112 15.2862C80.0112 14.79 79.7007 14.5228 79.112 14.5228" fill="black"/>
<path d="M102.924 12.8462V20.0813H101.167V17.2285H98.3859V20.0813H96.6299V12.8462H98.3859V15.554H101.166V12.8462H102.924Z" fill="black"/>
<path d="M95.5432 12.8462H89.7578V14.5106H91.7657V20.0813H93.5387V14.5106H95.5432V12.8462Z" fill="black"/>
<path d="M87.9693 18.5824H85.2616L84.745 20.0813H82.8838L85.5093 12.8462H87.7208L90.3463 20.0813H88.486L87.9693 18.5824ZM87.3908 16.9078L86.6155 14.6548L85.8401 16.9078H87.3908Z" fill="black"/>
<path d="M69.403 18.5824H66.6953L66.1787 20.0813H64.3184L66.9438 12.8462H69.1554L71.7808 20.0813H69.9205L69.403 18.5824ZM68.8245 16.9078L68.0492 14.6548L67.2738 16.9078H68.8245Z" fill="black"/>
<path d="M55.9686 12.8462H50.1807V14.5207H52.1445V20.0813H53.9615V14.5207H55.8761V14.5106H55.9695L55.9686 12.8462Z" fill="black"/>
<path d="M63.3491 12.8462V20.0813H61.5931V17.2285H58.8132V20.0813H57.0547V12.8462H58.8115V15.554H61.5931V12.8462H63.3491Z" fill="black"/>
<path d="M74.5278 12.8462H72.7549V20.0813H74.5278V12.8462Z" fill="black"/>
<path d="M124.649 37.6683V37.6725L121.775 30.4874L123.217 29.2998H116.854L117.899 30.1617L122.374 40.5202L121.125 43.4749C120.058 43.9296 118.896 44.1179 117.739 44.0237L119.09 47.1488C120.724 46.2404 122.005 44.8078 122.726 43.0821L123.246 41.8377L123.416 41.4381L124.817 38.1145L124.649 37.6683Z" fill="black"/>
<path d="M83.503 28.833C82.2164 28.8564 80.9654 29.2593 79.907 29.9911C78.8486 30.7229 78.0299 31.751 77.5536 32.9465C77.0774 34.1419 76.9649 35.4513 77.2302 36.7105C77.4955 37.9696 78.1267 39.1223 79.0448 40.024C79.9628 40.9257 81.1268 41.5361 82.3905 41.7786C83.6542 42.0212 84.9614 41.8851 86.148 41.3874C87.3347 40.8897 88.3479 40.0526 89.0605 38.9812C89.7731 37.9098 90.1534 36.6517 90.1536 35.3649C90.1375 33.6169 89.4278 31.9469 88.1807 30.722C86.9335 29.4971 85.251 28.8176 83.503 28.833ZM83.6667 40.2672C82.066 40.3241 80.8673 38.1745 80.7681 35.4693C80.6688 32.764 81.7173 30.5262 83.3181 30.4694C84.9188 30.4126 86.1174 32.5621 86.2167 35.2674C86.3159 37.9726 85.2674 40.2104 83.6667 40.2672Z" fill="black"/>
<path d="M116.119 39.1421C109.487 41.9415 109.422 35.6056 109.422 35.6056H117.512C117.516 35.3408 117.506 35.076 117.482 34.8124C117.142 31.2725 114.334 28.6351 111.164 28.8463C111.114 28.8463 111.063 28.8514 111.013 28.8565C107.781 29.1636 105.439 32.3286 105.781 35.9245C106.123 39.5205 109.019 42.1875 112.25 41.8804C112.3 41.8753 112.35 41.8677 112.4 41.8618C112.45 41.8558 112.506 41.8558 112.559 41.8507C113.351 41.7724 114.12 41.5371 114.821 41.1584C115.521 40.7797 116.139 40.2653 116.639 39.6452L116.353 39.3695L116.119 39.1421ZM111.471 30.4683C112.602 30.4683 113.52 31.9604 113.52 33.8012H109.417C109.417 31.9604 110.335 30.4683 111.466 30.4683" fill="black"/>
<path d="M104.111 40.2853V32.1705C104.111 31.5495 103.948 28.8333 99.9103 28.8333C99.1917 28.8138 98.4764 28.9367 97.8056 29.1948C97.1347 29.453 96.5215 29.8413 96.0013 30.3373V29.2676H90.6511L92.083 30.7462V40.3897L90.6172 41.903H97.5351L96.0022 40.3201V32.1629C96.7104 31.5181 97.6069 31.1179 98.5598 31.0211C100.251 31.0211 100.194 32.1705 100.194 32.1705L100.177 32.1807H100.194V40.4244L98.7617 41.903H105.68L104.111 40.2853Z" fill="black"/>
<path d="M75.46 39.8846L75.0808 39.5733L74.2885 24.4643L74.3258 24.4337L76.7858 22.4148H66.949L69.409 24.4337L69.7009 24.6738L69.7178 25.0038L64.4669 36.7951L64.1038 35.9401L58.3608 22.4148H51.4531L53.1785 23.8315L54.6733 25.0589L53.1641 39.4554L52.0299 40.3885L50.1807 41.9027H57.5676L55.7209 40.386L54.507 39.3918L55.7455 27.5784L61.6403 41.4659L61.8261 41.9027H63.7085L69.8739 28.0543L70.4957 39.9194L68.0798 41.9027H77.9124L75.46 39.8846Z" fill="black"/>
<path d="M127.081 28.8333C126.504 28.8333 125.94 29.0043 125.461 29.3249C124.981 29.6455 124.607 30.1011 124.386 30.6342C124.165 31.1672 124.108 31.7538 124.22 32.3197C124.333 32.8856 124.611 33.4054 125.019 33.8134C125.427 34.2214 125.946 34.4992 126.512 34.6118C127.078 34.7244 127.665 34.6666 128.198 34.4458C128.731 34.225 129.186 33.8511 129.507 33.3713C129.828 32.8916 129.999 32.3275 129.999 31.7506C129.999 30.9768 129.691 30.2348 129.144 29.6877C128.597 29.1406 127.855 28.8333 127.081 28.8333Z" fill="black"/>
</g>
<defs>
<clipPath id="clip0_99_19555">
<rect width="130" height="42.0103" fill="white" transform="translate(0 8.99487)"/>
</clipPath>
</defs>
</svg>
