
<svg width="370px" height="35px" viewBox="0 0 370 35" version="1.1" xmlns="http://www.w3.org/2000/svg" xmlns:xlink="http://www.w3.org/1999/xlink">
    <g id="Page-1" stroke="none" stroke-width="1" fill="none" fill-rule="evenodd">
        <g id="thestreet-roundtable" transform="translate(0.242431, 0.854270)" fill-rule="nonzero">
            <g id="layer1" transform="translate(0.000000, 0.675414)" fill="#637381">
                <path d="M67.0244985,10.3486622 C66.4233185,10.3486622 65.8221385,10.3631522 65.2209585,10.3486622 C64.3662685,10.3269322 63.9171885,9.89234316 63.8882185,9.03040916 C63.8665185,8.34955216 63.8952185,7.66145316 63.8812185,6.98059616 C63.8450185,5.67683016 63.2365785,5.06840516 61.8965885,4.95975816 C60.4624485,4.84386716 59.5715385,5.35813116 59.4266785,6.62568216 C59.3107885,7.66869616 59.3035385,8.76965516 59.5498085,9.77645316 C59.7019185,10.4066072 60.3103385,11.0295182 60.8753085,11.4423782 C62.7005785,12.7823612 64.6272585,13.9992102 66.4670185,15.3174642 C67.2854985,15.9041592 68.0460285,16.5850152 68.7486085,17.3020872 C69.9002785,18.4827212 70.4942085,19.9241082 70.4869685,21.5900332 C70.4799685,23.0893652 70.5086685,24.5959402 70.4652685,26.0952732 C70.3638685,29.4053932 68.6037785,31.6652562 65.3878185,32.5054622 C62.6281785,33.2297762 59.8540485,33.1790752 57.1595985,32.1577902 C54.3637485,31.1002902 53.0382485,28.9490742 52.9078685,26.0373272 C52.8499685,24.8132352 52.8861685,23.5818992 52.9078685,22.3505632 C52.9223685,21.2351182 53.3496985,20.8077722 54.4434185,20.8005292 C55.5081585,20.7933292 56.5801485,20.7933292 57.6448885,20.8005292 C58.7168785,20.8077292 59.1369785,21.2206322 59.1514685,22.2781322 C59.1584685,23.3428752 59.1297685,24.4076192 59.1514685,25.4723622 C59.2021685,27.6018482 61.3244085,28.7824822 63.1786585,27.6742802 C63.5697885,27.4352552 63.9826485,26.8992622 64.0261085,26.4719172 C64.1637285,25.0667452 64.1999385,23.6470872 64.1492385,22.2346732 C64.1057385,21.0395532 63.2728185,20.2790232 62.3312085,19.6488682 C60.4479885,18.3885602 58.5792585,17.0992792 56.6743085,15.8607002 C54.4868785,14.4410422 53.3714285,12.4202032 53.2193285,9.86337116 C53.1541285,8.80587116 53.1614285,7.73388516 53.2338285,6.67638516 C53.4438885,3.70669216 54.9504585,1.65688116 57.8042585,0.708028163 C60.5276885,-0.204608837 63.2873285,-0.291526837 65.9962685,0.780458163 C68.6544985,1.83071516 70.1610785,4.11230816 70.1610785,6.95162316 C70.1610785,7.58177716 70.1680785,8.20468816 70.1610785,8.83484216 C70.1465785,9.89958616 69.7192485,10.3269322 68.6689885,10.3414182 C68.1185085,10.3414182 67.5752685,10.3414182 67.0247885,10.3414182 L67.0244985,10.3486622 Z" id="path200"></path>
                <path d="M25.1083865,10.3993642 C26.0499965,9.90683016 26.8032845,9.37808016 27.6362465,9.08835416 C31.1346885,7.90047716 34.3289185,10.0806652 34.3941085,13.8398612 C34.4955085,19.5184912 34.4303085,25.1971222 34.4158085,30.8757522 C34.4158085,31.8246052 33.9305185,32.2519512 32.9671785,32.2736802 C32.1197285,32.2954102 31.2722785,32.2736802 30.4248285,32.2736802 C29.0124155,32.2736802 28.6067995,31.8753072 28.6067995,30.4773792 C28.6067995,25.6969002 28.6067995,20.9236632 28.6067995,16.1431832 C28.6067995,15.8172412 28.6067995,15.4912992 28.6067995,15.1581142 C28.5778295,14.2237482 28.0997785,13.6370532 27.2378435,13.4921902 C26.4121245,13.3473272 25.5646755,13.8326172 25.2966795,14.6438502 C25.1952745,14.9480632 25.1518165,15.2812482 25.1518165,15.6071902 C25.1518165,20.5759912 25.1518165,25.5447932 25.1518165,30.5135952 C25.1518165,31.8680642 24.7461995,32.2591952 23.3844875,32.2664372 C22.5370385,32.2664372 21.6895905,32.2809272 20.8421415,32.2664372 C19.8425865,32.2447072 19.3717815,31.7956332 19.3717815,30.8105642 C19.3717815,21.2568482 19.3717815,11.7031312 19.3717815,2.14217216 C19.3717815,1.20780516 19.8425865,0.744244163 20.7914395,0.715271163 C21.6678605,0.693541163 22.5442815,0.708071163 23.4207035,0.715271163 C24.6882545,0.722471163 25.1083575,1.12813116 25.1083575,2.38119616 C25.1155575,4.72797716 25.1083575,7.07475816 25.1083575,9.42153916 C25.1083575,9.74023716 25.1083575,10.0516932 25.1083575,10.3848782 L25.1083865,10.3993642 Z" id="path202"></path>
                <path d="M95.9174385,20.4311282 C95.9174385,18.7941762 95.8884385,17.1499812 95.9174385,15.5130292 C95.9826385,11.9276692 97.8658385,9.66780616 101.386008,8.97246316 C103.472038,8.55960316 105.529099,8.67549416 107.470258,9.66056316 C109.527318,10.7035762 110.642758,12.3767442 110.686218,14.6945532 C110.722418,16.7153922 110.715218,18.7362312 110.707918,20.7570712 C110.707918,21.7059232 110.244358,22.1477552 109.288258,22.1549992 C107.180498,22.1694892 105.072748,22.1549992 102.964988,22.1549992 C101.958188,22.1549992 101.726408,22.3940222 101.719168,23.4153062 C101.719168,24.3714022 101.704668,25.3274992 101.719168,26.2835952 C101.733668,27.0151532 102.008888,27.6163342 102.725958,27.9277902 C103.616868,28.3189202 104.551239,27.9133002 104.804748,26.9789372 C104.920638,26.5371052 104.920638,26.0663002 104.971339,25.6027382 C105.058238,24.7770192 105.521818,24.2989712 106.354778,24.2844852 C107.339848,24.2627552 108.324918,24.2772852 109.309988,24.2844852 C109.932898,24.2844852 110.447158,24.5742112 110.512348,25.1826352 C110.729648,27.2396912 110.584748,29.2315572 109.020258,30.8322932 C108.926058,30.9264532 108.831938,31.0278592 108.723288,31.1147772 C106.209918,33.3311802 100.248808,33.1790752 97.8730485,30.8322932 C96.4244185,29.4053932 96.0332885,27.5728762 95.9536185,25.6606842 C95.8812185,23.9150842 95.9391185,22.1694852 95.9391185,20.4166422 C95.9321185,20.4166422 95.9246185,20.4166422 95.9174185,20.4166422 L95.9174385,20.4311282 Z M104.942398,16.0490222 C104.942398,15.6941082 104.964098,15.3391932 104.942398,14.9842792 C104.877198,14.0209392 104.406408,13.5139192 103.558959,13.4632172 C102.559409,13.4052672 101.921999,13.8833202 101.798868,14.8756312 C101.726468,15.4405972 101.769869,16.0128062 101.769869,16.5850152 C101.769869,17.8163512 101.849569,17.9032692 103.051899,17.9032692 C104.317039,17.9032692 104.949609,17.2827722 104.949609,16.0417782 L104.942398,16.0490222 Z" id="path204"></path>
                <path d="M112.156579,20.4311282 C112.156579,18.7941762 112.127579,17.1572242 112.156579,15.5202722 C112.236279,11.8552372 114.068769,9.65332016 117.668619,8.95797716 C119.696699,8.56684716 121.695809,8.71171016 123.593519,9.63883316 C125.665059,10.6528752 126.823959,12.2970702 126.896389,14.6148782 C126.961589,16.6864192 126.939888,18.7652042 126.925388,20.8367452 C126.925388,21.7276522 126.440089,22.1549992 125.512968,22.1622412 C123.405209,22.1694412 121.304699,22.1622412 119.196939,22.1622412 C118.175649,22.1622412 117.951119,22.3940222 117.943878,23.4153062 C117.943878,24.3134572 117.929378,25.2188522 117.943878,26.1170022 C117.950879,26.4357002 117.994579,26.7761292 118.110468,27.0730982 C118.392949,27.7974132 118.965159,28.1161122 119.732928,28.0581662 C120.442758,28.0074662 120.899079,27.6090912 121.043948,26.9137492 C121.130849,26.4864032 121.152589,26.0518142 121.188808,25.6172252 C121.261209,24.7842622 121.710318,24.3134572 122.557769,24.2917282 C123.513858,24.2699982 124.469949,24.2699982 125.426049,24.2917282 C126.338688,24.3062182 126.773279,24.7408032 126.787758,25.6606842 C126.802258,26.2908372 126.838459,26.9282352 126.751559,27.5439032 C126.425619,29.8472252 125.223249,31.4986632 122.948899,32.2012492 C120.754229,32.8821062 118.530579,32.9038352 116.335898,32.1795192 C114.235388,31.4841772 112.975088,29.9848442 112.518768,27.8553582 C112.301468,26.8485592 112.214558,25.8055462 112.178338,24.7770182 C112.120338,23.3356322 112.163838,21.8870012 112.163838,20.4383712 L112.156579,20.4311282 Z M121.196029,16.0997242 C121.196029,15.7158372 121.217729,15.3391932 121.196029,14.9553062 C121.130829,14.0499132 120.667279,13.5501352 119.863289,13.4704602 C118.899949,13.3763002 118.211849,13.8108882 118.045259,14.7090392 C117.936609,15.2884912 117.958359,15.8969152 117.951059,16.4980972 C117.936559,17.8018652 118.052469,17.9105122 119.327259,17.9105122 C120.568252,17.9105122 121.191162,17.3045018 121.195989,16.0924812 L121.196029,16.0997242 Z" id="path206"></path>
                <path d="M46.0845485,22.1622412 C45.0198085,22.1622412 43.9478185,22.1550412 42.8830785,22.1622412 C42.0066585,22.1694412 41.7531485,22.4229952 41.7386585,23.2776872 C41.7316585,24.2844852 41.7024585,25.2985262 41.7456585,26.3053242 C41.8035585,27.7177392 43.0639085,28.5072422 44.1793585,27.8770882 C44.8384785,27.5004442 44.9471285,26.8558032 44.9905885,26.1894332 C45.1137185,24.5235092 45.3599885,24.2844852 47.0331585,24.2844852 C47.7719585,24.2844852 48.5107585,24.2699952 49.2495585,24.2844852 C50.1259785,24.2989752 50.5750585,24.7263172 50.6040285,25.5737662 C50.6257285,26.2039202 50.6402285,26.8340742 50.5678285,27.4569852 C50.3143185,29.6371742 49.2495785,31.2813692 47.1418185,32.0563862 C44.8095285,32.9110782 42.4192885,32.9400502 40.0652685,32.1505462 C38.1023685,31.4986622 36.8565485,30.0934912 36.3640085,28.1016242 C36.1394785,27.2107172 36.0090985,26.2691072 35.9946085,25.3492272 C35.9511085,22.0173772 35.9294085,18.6855282 35.9801085,15.3609222 C36.0380085,11.9204252 37.8560785,9.75472316 41.2386285,9.00867816 C43.1508285,8.58857616 45.0485285,8.66100716 46.8810485,9.40705116 C49.3292385,10.4066062 50.6692185,12.2029082 50.7054285,14.8756302 C50.7344285,16.8167952 50.7199285,18.7507162 50.7124285,20.6918812 C50.7124285,21.7276512 50.2561085,22.1549982 49.1913585,22.1622402 C48.1555885,22.1694402 47.1125785,22.1622402 46.0695685,22.1622402 L46.0845485,22.1622412 Z M44.9039185,16.0779942 C44.9039185,15.6723782 44.9401185,15.2595192 44.8969185,14.8611462 C44.7955085,13.9557512 44.3247085,13.5066762 43.4844985,13.4777032 C42.5791085,13.4414832 42.0068985,13.8253752 41.8475485,14.7162822 C41.7316585,15.3536792 41.7533485,16.0128062 41.7461485,16.6574472 C41.7391485,17.7584062 41.9054985,17.9177552 43.0209385,17.9250261 C44.2909052,17.9297982 44.9162318,17.3165448 44.8969185,16.0852382 L44.9039185,16.0779942 Z" id="path208"></path>
                <path d="M5.7619295,18.7796902 C5.7619295,14.8466592 5.7619295,10.9136282 5.7619295,6.98059616 C5.7619295,5.93034016 5.5880945,5.75650416 4.5161075,5.75650416 C3.5020665,5.75650416 2.4880255,5.76370416 1.4812275,5.75650416 C0.5178885,5.74201416 0.0325975,5.24948416 0.0108675,4.28614416 C-0.0036225,3.60528816 -0.0036225,2.91718916 0.0108675,2.23633316 C0.0253575,1.22229216 0.5034025,0.751487163 1.5391725,0.737000163 C2.9588305,0.722510163 4.3857315,0.737000163 5.8126315,0.737000163 C9.0937795,0.737000163 12.3821695,0.737000163 15.6633175,0.737000163 C17.6913995,0.737000163 17.8362625,0.881863163 17.8290195,2.93891816 C17.8290195,3.40248016 17.8435095,3.86604216 17.8290195,4.32960316 C17.7855595,5.29294316 17.3509715,5.71304516 16.3876325,5.72753216 C15.4025635,5.74202216 14.4174955,5.72753216 13.4324275,5.72753216 C12.2155775,5.72753216 12.0489845,5.89412416 12.0489845,7.08924416 C12.0489845,12.0073442 12.0489845,16.9254442 12.0489845,21.8435432 C12.0489845,24.7915052 12.0489845,27.7467112 12.0489845,30.6946742 C12.0489845,31.9115232 11.6433685,32.3026532 10.4265195,32.3098962 C9.3835055,32.3098962 8.3477355,32.3170962 7.3047215,32.3098962 C6.2182485,32.3026962 5.7764165,31.8535782 5.7764165,30.7526192 C5.7764165,26.7616432 5.7764165,22.7779102 5.7764165,18.7869332 L5.7619295,18.7796902 Z" id="path210"></path>
                <path d="M130.307908,21.3220362 C130.307908,19.0549302 130.307908,16.7878232 130.307908,14.5207172 C130.307908,13.4270012 130.155809,13.2748952 129.091069,13.2604092 C127.845239,13.2386792 127.439629,12.8330632 127.439629,11.5727552 C127.439629,11.2757862 127.432629,10.9715732 127.439629,10.6746042 C127.468629,9.73299416 127.903189,9.29116216 128.859279,9.24046016 C130.213759,9.16803016 130.242729,9.14630016 130.242729,7.82804516 C130.242729,6.65465516 130.235729,5.48126416 130.242729,4.30787416 C130.249729,3.38075116 130.641099,2.92443216 131.560979,2.88097316 C132.596749,2.83027316 133.639759,2.83027316 134.675539,2.88097316 C135.573679,2.92443316 135.972059,3.40248016 135.979299,4.32960316 C135.986299,5.61164116 135.979299,6.89367916 135.979299,8.18296016 C135.979299,9.05213816 136.225569,9.26943216 137.109229,9.31289116 C137.565549,9.33462116 138.087059,9.29116116 138.470939,9.47948416 C139.448769,9.97201816 139.057639,10.9498442 139.122829,11.7538332 C139.173529,12.3405292 139.035929,12.8982512 138.434729,13.1083032 C138.014629,13.2531662 137.529339,13.2748952 137.073019,13.2676522 C136.319729,13.2531622 135.972059,13.5428912 135.972059,14.3251522 C135.986559,18.2581832 135.972059,22.1912142 135.986559,26.1170022 C135.986559,27.4642282 136.573249,28.0002212 137.985669,28.0291942 C139.064899,28.0509242 139.231489,28.2175162 139.253219,29.3257182 C139.253219,29.5140402 139.253219,29.7096052 139.253219,29.8979272 C139.253219,32.1215742 138.956249,32.4764892 136.696379,32.4764892 C135.501259,32.4764892 134.284419,32.3750842 133.125509,32.1143312 C131.452339,31.7449302 130.452789,30.5715402 130.387599,28.8621572 C130.300699,26.3560262 130.365899,23.8426532 130.365899,21.3292792 C130.344199,21.3292792 130.322399,21.3292792 130.307899,21.3292792 L130.307908,21.3220362 Z" id="path212"></path>
                <path d="M73.4781485,21.2351182 C73.4781485,18.9969842 73.4781485,16.7588512 73.4781485,14.5134742 C73.4781485,13.4125152 73.3332885,13.2748952 72.2540585,13.2604092 C71.0227185,13.2459192 70.6243485,12.8547922 70.6171085,11.6524302 C70.6171085,11.3264872 70.6171085,10.9933022 70.6171085,10.6673602 C70.6388085,9.70402116 71.0516985,9.28391916 72.0222785,9.24046016 C73.4202085,9.17527016 73.4419385,9.15354016 73.4419385,7.77734416 C73.4419385,6.63292616 73.4419385,5.48126416 73.4419385,4.33684716 C73.4419385,3.38075116 73.8620385,2.90270316 74.8108885,2.85924416 C75.8249285,2.81578416 76.8389785,2.81578416 77.8457685,2.85924416 C78.7584085,2.90270416 79.1712685,3.36626416 79.1785085,4.28614416 C79.1930085,5.53921016 79.1785085,6.79951816 79.1785085,8.05258316 C79.1785085,9.08835416 79.3740785,9.27667616 80.4388185,9.28391916 C80.6561085,9.28391916 80.8806585,9.27671916 81.0979485,9.28391916 C81.2572985,9.29840916 81.4383685,9.30564916 81.5759985,9.37807916 C82.7783485,10.0154762 82.2785785,11.1526512 82.2930685,12.0942612 C82.3075685,12.8330622 81.7570685,13.1807332 81.0399985,13.2459212 C79.7941785,13.3521545 79.1712685,14.0185245 79.1712685,15.2450312 C79.1712685,18.7434732 79.1712685,22.2346722 79.1712685,25.7331142 C79.1712685,27.4932002 79.6565585,28.0219492 81.3876685,27.9857342 C82.1192285,27.9712442 82.3944685,28.3116762 82.4234385,28.9418302 C82.4524385,29.6226862 82.4669385,30.3107852 82.4164385,30.9916422 C82.3585385,31.7232002 81.9456385,32.2302202 81.1995885,32.3316252 C79.3960485,32.5778922 77.5852585,32.5634052 75.8468985,31.9404942 C74.2534085,31.3682862 73.4856385,30.0790052 73.4711485,28.0291932 C73.4494485,25.7620872 73.4711485,23.4949802 73.4711485,21.2278742 L73.4781485,21.2351182 Z" id="path214"></path>
                <path d="M90.1518785,11.1309232 C91.0283085,9.94304616 92.0495885,9.21148716 93.3605985,8.93624716 C94.5846885,8.67549416 95.2148485,9.16802816 95.2220885,10.4066072 C95.2220885,11.2540562 95.1930885,12.0942622 95.1858885,12.9417102 C95.1713885,14.1006142 94.9106485,14.3034232 93.7589885,14.2672072 C93.1143385,14.2527172 92.4334885,14.2816972 91.8323085,14.4845022 C90.7313485,14.8611462 90.2460585,15.8099982 90.1663785,16.9037142 C90.0721785,18.1567792 90.0721785,19.4098442 90.0649785,20.6629092 C90.0504785,23.9657872 90.0649785,27.2686632 90.0649785,30.5715402 C90.0649785,31.8970362 89.6666085,32.2881672 88.3700785,32.2954102 C87.4936585,32.2954102 86.6172385,32.3099002 85.7408085,32.2954102 C84.7919585,32.2809202 84.3211585,31.8390922 84.2921785,30.8902392 C84.2631785,29.9920882 84.2921785,29.0866942 84.2851785,28.1885432 C84.2851785,22.5099132 84.2851785,16.8312822 84.2851785,11.1526522 C84.2851785,9.61710416 84.6183585,9.28391916 86.1683985,9.28391916 C86.8275285,9.28391916 87.4794185,9.28391916 88.1385385,9.28391916 C89.7103085,9.28391916 89.9275985,9.46499816 90.1521285,11.1236792 L90.1518785,11.1309232 Z" id="path216"></path>
            </g>
            <g id="layer2" transform="translate(145.801009, 0.000000)" fill="#637381">
                <path d="M14.40663,2.13673 C20.80958,2.13673 25.95946,4.273459 25.95946,10.314247 C25.95946,15.826285 20.80234,18.13685 15.82629,18.310686 C20.44742,18.665601 22.75799,20.621252 23.82273,23.99656 L25.06855,27.552947 C26.1333,30.928255 27.37912,32.000242 30.0446,33.064985 L22.04816,33.064985 C21.15725,32.174077 20.27358,30.399505 19.55651,28.262776 L18.13685,23.815481 C17.24595,20.968922 15.82629,18.484522 12.2699,18.484522 L7.82261,18.484522 L7.82261,27.371868 C7.82261,30.218426 8.17752,31.819163 10.31425,32.883906 L-2.84217094e-14,32.883906 C2.13674,31.819163 2.49165,30.392262 2.49165,27.371868 L2.49165,7.641525 C2.49165,4.794966 2.13674,3.19423 -2.84217094e-14,2.129486 L14.39939,2.129486 L14.40663,2.13673 Z M7.64878,17.427021 L12.97973,17.427021 C17.42703,17.427021 20.26634,15.471371 20.26634,10.495326 C20.26634,5.519281 17.60087,3.208716 12.97973,3.208716 L7.64878,3.208716 L7.64878,17.434265 L7.64878,17.427021 Z" id="path220"></path>
                <path d="M28.09619,22.221988 C28.09619,15.645207 32.8984,10.842997 39.2941,10.842997 C45.6898,10.842997 50.49201,15.464127 50.49201,22.221988 C50.49201,28.979848 45.87088,33.419899 39.46793,33.419899 C33.06499,33.419899 28.08894,28.798769 28.08894,22.221988 L28.09619,22.221988 Z M44.98721,22.221988 C44.98721,16.000121 43.03157,11.733905 39.30135,11.733905 C35.57112,11.733905 33.61547,16.000121 33.61547,22.221988 C33.61547,28.443854 35.57112,32.710071 39.30135,32.710071 C43.03157,32.710071 44.98721,28.443854 44.98721,22.221988 Z" id="path222"></path>
                <path d="M68.44779,16.1812 C68.44779,13.51572 67.91179,12.450977 65.7823,11.37899 L73.60491,11.37899 L73.60491,28.624933 C73.60491,31.471492 74.49581,32.181321 76.45147,33.072228 L68.45503,33.072228 L68.45503,26.850362 C67.39029,31.116577 64.36265,33.608221 60.63242,33.608221 C56.54004,33.608221 53.87456,30.761663 53.87456,25.966697 L53.87456,16.369522 C53.87456,13.704042 53.33857,12.639299 51.20909,11.567312 L59.03169,11.567312 L59.03169,25.611782 C59.03169,28.277262 60.09643,30.768906 63.12407,30.768906 C66.15171,30.768906 68.6361,27.922347 68.6361,23.127382 L68.6361,16.195686 L68.45503,16.195686 L68.44779,16.1812 Z" id="path224"></path>
                <path d="M84.62899,11.37899 L84.62899,17.419778 C85.69373,13.327398 88.54028,11.016833 92.45159,11.016833 C96.7178,11.016833 99.38328,13.863391 99.38328,18.658357 L99.38328,28.255532 C99.38328,31.102091 99.7382,31.985755 101.69385,33.057742 L91.91559,33.057742 C94.05232,32.166834 94.22616,31.28317 94.22616,28.255532 L94.22616,18.832193 C94.22616,15.985634 93.16142,13.675069 90.13378,13.675069 C86.93231,13.675069 84.80282,16.521628 84.80282,21.316594 L84.80282,28.24829 C84.80282,31.094848 85.15773,31.978512 87.11338,33.050498 L77.16129,33.050498 C79.29802,32.159591 79.47186,31.275927 79.47186,28.24829 L79.47186,16.340549 C79.47186,13.675069 78.93586,12.610326 76.80638,11.53834 L84.62899,11.53834 L84.62899,11.357261 L84.62899,11.37899 Z" id="path226"></path>
                <path d="M120.35945,4.802209 C120.35945,2.13673 119.82345,0.890908 117.69397,-8.8817842e-16 L125.51657,-8.8817842e-16 L125.51657,28.262776 C125.51657,30.928255 126.05256,31.992999 128.00822,33.064985 L120.36669,33.064985 L120.36669,27.198032 C119.47578,30.573341 116.63647,33.419899 112.54409,33.419899 C107.21313,33.419899 102.76584,29.327519 102.76584,22.395823 C102.76584,15.464127 107.21313,10.842997 112.71793,10.842997 C116.81031,10.842997 119.47578,13.508477 120.35945,16.883785 L120.35945,4.802209 Z M120.35945,24.177638 L120.35945,20.447415 C120.35945,15.826285 117.33905,13.160806 114.31866,13.160806 C110.58843,13.160806 108.27787,16.717192 108.27787,22.584145 C108.27787,28.096183 110.58843,31.297656 114.31866,31.297656 C117.33905,31.116577 120.35945,28.451098 120.35945,24.184882 L120.35945,24.177638 Z" id="path228"></path>
                <path d="M143.11743,25.778375 C142.76251,30.044591 140.9807,33.419899 136.54065,33.419899 C132.81042,33.419899 130.49986,31.28317 130.49986,26.66204 L130.49986,12.436491 L127.47947,12.436491 L127.47947,12.081576 C131.39077,11.371747 134.23732,7.989195 135.12099,3.72298 L135.47591,3.72298 L135.47591,11.364504 L142.23377,11.364504 L142.05269,12.429247 L135.47591,12.429247 L135.47591,26.473718 C135.47591,29.139197 136.54065,30.566098 138.32246,30.566098 C140.45919,30.566098 141.87885,28.791526 142.41484,25.590053 L143.12467,25.771132 L143.11743,25.778375 Z" id="path230"></path>
                <path d="M166.94016,31.464248 C166.04925,32.528992 164.44851,33.419899 162.49286,33.419899 C159.82738,33.419899 158.22664,31.819163 158.04557,29.508597 C158.04557,29.327519 157.86448,28.08894 157.86448,27.734026 C157.32849,30.75442 154.3081,33.419899 150.57788,33.419899 C146.84765,33.419899 144.17493,31.645327 144.17493,27.907861 C144.17493,23.105652 149.15098,22.040909 154.48917,20.976166 L157.86448,20.440172 L157.86448,17.419778 C157.86448,14.57322 156.61867,11.90774 153.24336,11.90774 C150.39679,11.90774 149.15098,13.508477 149.15098,15.464127 C149.15098,16.883785 149.8608,17.955772 151.10663,17.955772 C151.2877,17.955772 151.46154,17.955772 151.81646,17.774693 C151.46154,19.19435 150.21572,19.911423 148.61498,19.911423 C146.65933,19.911423 145.05859,18.665601 145.05859,16.536114 C145.05859,13.51572 148.4339,11.024076 153.23611,11.024076 C159.45798,11.024076 163.01436,13.160806 163.01436,18.665601 C163.01436,22.221988 162.83329,25.068546 162.83329,27.907861 C162.83329,30.399505 163.54312,31.819163 165.49876,31.819163 C166.03476,31.638084 166.56351,31.638084 166.91843,31.464248 L166.91843,31.464248 L166.94016,31.464248 Z M155.20625,21.685995 C151.29495,22.395823 149.52038,23.99656 149.52038,27.198032 C149.52038,29.863512 150.94003,31.109334 152.89569,31.109334 C155.38733,31.109334 157.6979,28.972605 157.87173,25.242382 L157.87173,21.33108 L155.20625,21.685995 Z" id="path232"></path>
                <path d="M172.27111,27.907861 C171.73512,30.044591 169.96055,32.710071 167.4689,33.419899 C168.0049,30.75442 168.0049,27.552947 168.0049,23.641646 L168.0049,4.802209 C168.0049,2.13673 167.4689,0.890908 165.33942,-8.8817842e-16 L173.16202,-8.8817842e-16 L173.16202,17.419778 C174.05293,14.04447 176.89225,11.197911 180.98462,11.197911 C186.31558,11.197911 190.76288,15.290292 190.76288,22.221988 C190.76288,29.153683 186.14174,33.774814 180.44863,33.774814 C176.35625,33.419899 173.33585,31.109334 172.27111,27.907861 Z M179.20281,13.327398 C176.35625,13.327398 173.33585,15.992878 173.33585,20.614008 L173.33585,24.880224 C173.33585,29.14644 176.35625,31.992999 179.20281,31.992999 C183.11411,31.992999 185.2436,28.436612 185.2436,22.395823 C185.2436,16.355035 182.93303,13.327398 179.20281,13.327398 L179.20281,13.327398 Z" id="path234"></path>
                <path d="M199.46914,28.262776 C199.46914,31.109334 199.82406,31.992999 201.77971,33.064985 L191.82762,33.064985 C193.96435,32.174077 194.13819,31.290413 194.13819,28.262776 L194.13819,4.802209 C194.13819,2.13673 193.60219,0.890908 191.47271,-8.8817842e-16 L199.29531,-8.8817842e-16 L199.29531,28.262776 L199.47639,28.262776 L199.46914,28.262776 Z" id="path236"></path>
                <path d="M223.29187,21.33108 L208.18266,21.33108 C208.18266,27.016954 211.02922,30.928255 215.82418,30.928255 C218.84458,30.928255 221.69113,29.327519 222.93696,25.952211 L223.29187,26.133289 C222.40096,30.935499 218.67074,33.600978 213.6947,33.600978 C207.82774,33.600978 202.8517,29.508597 202.8517,22.403066 C202.8517,15.297535 207.82774,11.024076 213.52086,11.024076 C220.45255,11.024076 223.29912,15.290292 223.29912,21.338323 L223.29187,21.33108 Z M218.13475,20.440172 C218.13475,15.819042 217.42492,11.90774 213.68745,11.90774 C210.84089,11.90774 208.53033,15.283049 208.35649,20.440172 L218.13475,20.440172 Z" id="path238"></path>
            </g>
        </g>
    </g>
</svg>